<?xml version="1.0" encoding="utf-8"?><svg viewBox="0 0 120 115" xmlns="http://www.w3.org/2000/svg" xmlns:xlink="http://www.w3.org/1999/xlink"><style>:root>svg{display:none}:root>svg:target{display:block}</style><svg fill="none" viewBox="0 0 120 115" id="logo" xmlns="http://www.w3.org/2000/svg"><path d="M119.31 17.653a.396.396 0 01-.15.02c-1.488-.405-2.482.436-3.497 1.263-1.766 1.436-3.548 2.856-5.326 4.279-.462.398-.948.77-1.455 1.114-.322.183-.583.45-.752.77-.17.32-.242.68-.206 1.039.04 6.873.02 13.745.02 20.618v57.002a3.572 3.572 0 01-.704.134H48.533c-9.075 0-18.149.066-27.222-.056a4.312 4.312 0 00-2.092.438 4.131 4.131 0 00-1.593 1.38c-1.354 1.637-2.764 3.234-4.155 4.851-.14.138-.291.266-.451.383a3.747 3.747 0 00-1.108 1.861 3.65 3.65 0 00.122 2.142h106.772l.504-.097V17.653z" fill="#FF9F43"/><path d="M.451 97.214c.806 0 1.61.041 2.414 0 .312-.024.607-.147.84-.35 2.343-2.17 4.608-4.42 7.025-6.51a2.56 2.56 0 00.675-1.05c.134-.397.165-.82.09-1.232v-77.38h37.336c16.402 0 32.808-.02 49.21.033a3.21 3.21 0 001.482-.361c.455-.238.841-.58 1.125-.997 1.035-1.204 2.097-2.386 3.144-3.578.243-.283.486-.577.722-.869.153-.192.243-.458.443-.585 1.148-.735.982-1.85.962-2.932V0H.454L.45 97.214zM.453 114.774l.503.098-.503-.098z" fill="#002B59"/><path d="M91.345 81.992C84.068 88.4 66.82 98.91 37.796 88.456a99.94 99.94 0 01-6.12-2.413c-1.758-.772-3.467-1.658-5.166-2.551a41.7 41.7 0 01-3.605-2.105 10.738 10.738 0 01-3.078-3.109c-.694-1.052-1.296-2.745-.716-5.75.272-1.403.562-2.806.97-4.185.475-1.473 1.118-2.9 1.744-4.326.849-1.942 1.72-3.88 2.646-5.793.684-1.415 1.468-2.782 2.21-4.172.727-1.359 1.43-2.727 2.174-4.075.306-.552.694-1.063 1.048-1.595 1.203-1.82 2.39-3.652 3.62-5.458.88-1.293 1.746-2.61 2.748-3.814 1.765-2.13 3.621-4.19 5.451-6.266 1.422-1.617 2.814-3.245 4.316-4.782a70.08 70.08 0 014.6-4.316 77.941 77.941 0 015.376-4.209 20.25 20.25 0 013.355-1.753 32.404 32.404 0 013.87-1.579 11.07 11.07 0 014.525-.475c1.259.203 2.503.481 3.726.833a15.834 15.834 0 015.786 2.903 25.69 25.69 0 013.294 2.957 81.29 81.29 0 014.345 5.053 23.636 23.636 0 012.021 3.198c1.036 1.856 2.011 3.742 2.996 5.625.166.316.243.672.397.993.279.585.63 1.132.872 1.728.463 1.16.839 2.353 1.302 3.517 8.781 26.425 3.396 33.522 3.073 34.103a19.088 19.088 0 01-4.231 5.352zM65.258 16.57l-.026-.117c-.84.216-1.678.405-2.49.66-.468.173-.925.375-1.366.606a38.154 38.154 0 00-4.487 2.086 47.054 47.054 0 00-5.257 3.87 69.671 69.671 0 00-5.422 4.998c-1.959 2.021-3.75 4.202-5.613 6.313-.251.281-.527.547-.768.833-1.304 1.55-2.659 3.065-3.887 4.67-1.12 1.464-2.124 3.012-3.145 4.55-1.378 2.091-2.822 4.153-4.045 6.327-1.51 2.69-2.807 5.496-4.231 8.227a49.218 49.218 0 00-3.145 7.25 25.875 25.875 0 00-.924 3.26c-.962 5.73-.034 6.873.906 8.174a11.467 11.467 0 004.326 3.391c2.247 1.121 4.577 2.094 6.898 3.07 1.501.653 3.035 1.232 4.597 1.734 25.996 8.024 40.459.575 42.085-.188 2-.968 3.947-2.033 5.834-3.192a33.418 33.418 0 003.933-2.69 17.824 17.824 0 006.022-7.365A26.5 26.5 0 0096 69.249c.1-11.912-4.032-25.305-4.425-26.326-.266-.69-.46-1.415-.742-2.092-.485-1.169-1.009-2.338-1.522-3.5-.42-.947-.788-1.921-1.292-2.829-.767-1.383-1.608-2.731-2.46-4.071-.698-1.096-1.406-2.193-2.2-3.234-.863-1.124-1.819-2.185-2.758-3.253-.895-1.01-1.761-2.07-2.754-2.998a17.823 17.823 0 00-2.935-2.26 26.053 26.053 0 00-3.132-1.39 13.79 13.79 0 00-5.055-.963 7.86 7.86 0 00-1.474.233l.007.005z" fill="#002B59"/><path d="M63.045 45.25c-1.516-.033-2.797-1.245-4.56-.34l.784.383c.392.169.77.364 1.133.585.143.1.155.374.283.721-.44-.117-.677-.174-.909-.246a5.287 5.287 0 00-3.133-.02 5.344 5.344 0 01-2.096 0 2.343 2.343 0 01-1.047-.512 2.223 2.223 0 01-.651-.942 3.565 3.565 0 00-1.38-1.49 1.782 1.782 0 01-.532-.496 1.687 1.687 0 01.046-2.022c.42-.576.705-1.331 1.258-1.7a16.347 16.347 0 012.918-1.295c.38-.15.782-.246 1.191-.286a4.706 4.706 0 012.725.783 14.846 14.846 0 004.277 1.824c.205.01.41-.024.599-.101.258-.077.506-.183.757-.277l.157.202c-.161.142-.308.383-.485.405a5.9 5.9 0 01-3.34-.265 18.455 18.455 0 00-3.24-1.23 2.746 2.746 0 00-1.345.233c-.42.19-.781.482-1.047.848-.51.554-.986 1.135-1.427 1.742a.598.598 0 00-.134.506.594.594 0 00.113.244.621.621 0 00.212.174c.242.096.51.11.761.04.6-.088 1.188-.27 1.79-.32a6.017 6.017 0 013.916.905c.578.38 1.194.702 1.792 1.053a3.204 3.204 0 002.644.091c.981-.35 2.005-.578 3.047-.677a9.763 9.763 0 012.698.618c.527.145 1.017.422 1.545.542.37.067.75.048 1.111-.055.688-.189 1.355-.45 2.026-.691a.707.707 0 00.364-.241c.396-.702.75-1.425 1.15-2.127.194-.375.441-.722.737-1.029a11.73 11.73 0 012.256-1.905 3.205 3.205 0 012.156-.572c.767.073 1.48.417 1.999.966.247.25.403.57.445.914-.043.404-.074.818-.127 1.233-.11.824-.856 1.148-1.413 1.6-.981.662-1.907 1.395-2.77 2.194a3.982 3.982 0 00-.968 1.83 3.894 3.894 0 00.093 2.053 86.04 86.04 0 011.467 5.766c.211 1.035.314 2.088.309 3.143-.052.794-.16 1.585-.326 2.365-.075.485-.152.974-.267 1.451a13.208 13.208 0 01-2.661 5.145 41.24 41.24 0 01-3.714 3.788c-.236.17-.428.391-.56.645a1.782 1.782 0 00-.203.819 14.509 14.509 0 01-.375 2.302 7.722 7.722 0 00-.173 1.914 2.957 2.957 0 01-.84 1.784 3.157 3.157 0 01-1.802.905c-3.587-.055-7.177-.018-10.766-.063a17.082 17.082 0 01-2.439-.321 8.842 8.842 0 00-1.038-.126c-.659-.258-1.319-.515-1.977-.778a1.365 1.365 0 01-.35-.183 5.186 5.186 0 00-3.232-.935c-1.858-.06-3.722.025-5.578-.01a13.48 13.48 0 01-2.875-.281 19.127 19.127 0 01-3.697-1.245c-.753-.358-.947-1.27-1.047-2.054a10.178 10.178 0 00-1.048-3.802 23.346 23.346 0 00-1.9-2.626 8.092 8.092 0 01-1.62-3.655c-.035-.219-.158-.424-.21-.644a1.858 1.858 0 01-.074-.794 8.763 8.763 0 012.68-4.443 26.659 26.659 0 012.623-2.374c1.069-.61 2.191-1.13 3.354-1.553 1.858-.793 3.833-.416 5.76-.467a7.272 7.272 0 011.829.37c1.272.302 2.56.563 3.806.947 1.107.344 2.172.819 3.245 1.257 1.074.439 2.077.891 3.128 1.3a.872.872 0 00.607-.163c.304-.164.577-.376.809-.627a3.517 3.517 0 011.94-.895 1.927 1.927 0 011.048.06 19.48 19.48 0 011.82.727 9.664 9.664 0 013.564 2.923c.839 1.032 1.551 2.154 2.385 3.327l.478-.374c-.138-.202-.21-.35-.313-.48a2.924 2.924 0 01-.258-2.8 3.632 3.632 0 011.631-1.854c.48-.4.842-.916 1.048-1.494a4.115 4.115 0 00.21-3.639c-.113-.202-.451-.496-.583-.453a1.054 1.054 0 00-.361.233c-.102.1-.181.22-.233.352-.14.448-.202.914-.186 1.381.02.574-.233 1.04-.763.952-.364-.061-.74-.564-.93-.952-.154-.32 0-.766-.057-1.144a2.444 2.444 0 00-.962-1.632 2.625 2.625 0 00-1.875-.506 7.256 7.256 0 01-3.29-.607 2.671 2.671 0 01-1.44-1.22 2.52 2.52 0 01-.237-1.836 3.6 3.6 0 00.14-.676zM51.813 73.272l.104-.222a1.833 1.833 0 00-.403-.338 9.29 9.29 0 01-3.257-2.735c-1.303-1.553-1.566-3.508-2.195-5.317-.15-.44-.364-.857-.515-1.297a12.693 12.693 0 00-.598-1.928c-.713-1.367-1.507-2.69-2.304-4.013-.553-.916-1.179-1.795-1.757-2.699-.313-.485-.795-.516-1.11-.03-.21.313-.314.683-.535.982-.587.809-1.23 1.567-1.82 2.371-1.62 2.222-.503 3.536 1.005 4.21 1.608.711 3.266 1.317 4.88 2.02.587.25 1.108.628 1.52 1.102.414.475.708 1.034.861 1.636a3.362 3.362 0 01-.143 1.676 3.47 3.47 0 01-.941 1.417c-.56.668-.409 1.234.46 1.486.87.251 1.802.404 2.7.63.992.244 1.979.507 2.966.766.363.08.724.174 1.082.283zm7.235-15.68a2.822 2.822 0 00-.698-.502c-1.134-.427-2.27-.866-3.435-1.197a39.684 39.684 0 00-4.245-1.014 23.023 23.023 0 00-3.517-.234c-.53.02-1.05.139-1.533.35-.606.242-.66.585-.291 1.112a7.555 7.555 0 003.709 2.463c.996.377 2.074.552 3.112.835.606.166 1.203.376 1.812.547.986.279 1.974.549 2.966.809.76.202 1.525.382 2.362.585a5.022 5.022 0 01-.243-3.766l.002.012zm-6.887 9.805c.025.255-.015.445.065.542.318.512.729.965 1.213 1.336 1.241.693 2.531 1.3 3.86 1.82a15.03 15.03 0 002.556.574c1.004.202 2.013.376 3.018.57.143.036.284.084.42.142a.89.89 0 00.765-.076.843.843 0 00.276-.273.807.807 0 00.12-.363c.235-1.698-1.553-3.752-2.79-4.21a10.894 10.894 0 00-4.996-.681c-1.468.152-2.935.39-4.506.608l-.001.011z" fill="#002B59"/><path d="M66.986 42.124a1.42 1.42 0 01-.39.234.633.633 0 01-.458-.042.468.468 0 01-.159-.405c.44-.818.583-1.83 1.62-2.285a2.517 2.517 0 012.096.166c.27.197.58.335.91.404-.107-1.14-.42-2.114-1.732-2.479l.06-.163c.236-.073.486-.241.7-.203 1.39.234 2.8.461 3.367 2.022.233.633.552 1.235.814 1.858.182.257.447.45.755.546.307.096.638.092.943-.013.256-.095.518-.173.784-.234.022.124.03.25.021.374a3.158 3.158 0 01-1.148 1.107 3.304 3.304 0 01-1.563.424 3.484 3.484 0 01-1.479-.617 3.322 3.322 0 01-1.021-1.202 1.132 1.132 0 00-.587-.558 1.191 1.191 0 00-.823-.036c.055.87-.153 1.25-.826 1.51-.399.13-.413.128-1.884-.408z" fill="#002B59"/></svg></svg>