<?xml version="1.0" encoding="utf-8"?><svg viewBox="0 0 282 180" xmlns="http://www.w3.org/2000/svg" xmlns:xlink="http://www.w3.org/1999/xlink"><style>:root>svg{display:none}:root>svg:target{display:block}</style><svg fill="none" viewBox="0 0 181 180" id="icon_about_museum" xmlns="http://www.w3.org/2000/svg"><ellipse cx="90.5" cy="90" rx="90.5" ry="90" fill="url(#apaint0_linear_125_3)" fill-opacity=".6"/><g filter="url(#afilter0_d_125_3)"><path d="M87.2 106.467V81.325h10.95v23.741c-.219.431-.365.934-.547 1.401H87.2zM118.225 92.1c.621 0 1.205 0 1.825.108V81.325H109.1v12.75a22.108 22.108 0 019.125-1.975zM76.25 106.467V81.325H65.3v25.142h10.95zm51.1-39.509L92.675 49 58 66.958v7.184h69.35v-7.184zM58 113.65v10.775h41.281a21.229 21.229 0 01-2.956-10.775H58zm68.766-10.775l-13.103 12.894-5.804-5.71-4.234 4.166L113.663 125 131 107.94l-4.234-5.065z" fill="#003268"/></g><defs><linearGradient id="apaint0_linear_125_3" x1="90.5" y1="0" x2="90.5" y2="180" gradientUnits="userSpaceOnUse"><stop offset=".156" stop-color="#FF8612"/><stop offset="1" stop-color="#FF9F43" stop-opacity="0"/></linearGradient><filter id="afilter0_d_125_3" x="54" y="49" width="81" height="84" filterUnits="userSpaceOnUse" color-interpolation-filters="sRGB"><feFlood flood-opacity="0" result="BackgroundImageFix"/><feColorMatrix in="SourceAlpha" values="0 0 0 0 0 0 0 0 0 0 0 0 0 0 0 0 0 0 127 0" result="hardAlpha"/><feOffset dy="4"/><feGaussianBlur stdDeviation="2"/><feComposite in2="hardAlpha" operator="out"/><feColorMatrix values="0 0 0 0 0 0 0 0 0 0 0 0 0 0 0 0 0 0 0.25 0"/><feBlend in2="BackgroundImageFix" result="effect1_dropShadow_125_3"/><feBlend in="SourceGraphic" in2="effect1_dropShadow_125_3" result="shape"/></filter></defs></svg><svg fill="none" viewBox="0 0 180 180" id="icon_chat_bot" xmlns="http://www.w3.org/2000/svg"><circle cx="90" cy="90" r="90" fill="url(#bpaint0_linear_125_5)" fill-opacity=".6"/><g filter="url(#bfilter0_d_125_5)"><path d="M119.348 95.678a3.548 3.548 0 113.531-3.548 3.512 3.512 0 01-1.025 2.51 3.53 3.53 0 01-2.506 1.038zm-17.265 0a3.55 3.55 0 01-3.5-4.23 3.549 3.549 0 017.032.682 3.532 3.532 0 01-1.026 2.511 3.519 3.519 0 01-2.506 1.037zm25.7 20.085c5.494-3.939 9.025-9.844 9.025-16.54 0-12.01-11.575-21.857-26.092-21.857s-26.093 9.847-26.093 21.858c0 12.011 11.575 21.855 26.093 21.855 2.942 0 5.886-.393 8.436-1.182.421-.146.588-.198.784-.198.484.011.957.148 1.374.395l5.698 3.348c.184.096.382.163.588.197a.84.84 0 00.785-.787 2.382 2.382 0 00-.13-.652c-.069-.247-.845-2.704-1.243-4.27a3.13 3.13 0 01-.056-.587 1.923 1.923 0 01.845-1.58" fill="#003268"/></g><g filter="url(#bfilter1_d_125_5)"><path d="M91.882 75.398a4.135 4.135 0 110-8.27c2.158 0 4.12 1.969 4.12 4.135.196 2.166-1.766 4.135-4.12 4.135zm-20.795 0a4.135 4.135 0 114.12-4.142 4.152 4.152 0 01-4.12 4.135v.007zm10.398-22.054c-17.265 0-31.194 11.618-31.194 26.192 0 7.876 4.12 14.965 10.79 19.691.59.39.7 1.262.7 1.6.015.258-.023.516-.11.759-.59 1.969-1.343 5.156-1.375 5.325-.032.169-.196.591-.196.787a.93.93 0 00.595.926.92.92 0 00.385.059c.21-.013.414-.081.59-.197l6.87-3.941c.59-.394.982-.394 1.57-.394.337.005.67.072.982.196 3.138.985 6.67 1.379 10.202 1.379h1.766a22.51 22.51 0 01-.982-6.497c0-13.194 12.752-23.826 28.447-23.826h1.766c-2.164-12.41-15.112-22.059-30.806-22.059z" fill="#003268"/></g><defs><filter id="bfilter0_d_125_5" x="79.623" y="76.366" width="62.186" height="56.273" filterUnits="userSpaceOnUse" color-interpolation-filters="sRGB"><feFlood flood-opacity="0" result="BackgroundImageFix"/><feColorMatrix in="SourceAlpha" values="0 0 0 0 0 0 0 0 0 0 0 0 0 0 0 0 0 0 127 0" result="hardAlpha"/><feOffset dy="4"/><feGaussianBlur stdDeviation="2.5"/><feComposite in2="hardAlpha" operator="out"/><feColorMatrix values="0 0 0 0 0 0 0 0 0 0 0 0 0 0 0 0 0 0 0.4 0"/><feBlend in2="BackgroundImageFix" result="effect1_dropShadow_125_5"/><feBlend in="SourceGraphic" in2="effect1_dropShadow_125_5" result="shape"/></filter><filter id="bfilter1_d_125_5" x="45.291" y="52.344" width="72" height="65.341" filterUnits="userSpaceOnUse" color-interpolation-filters="sRGB"><feFlood flood-opacity="0" result="BackgroundImageFix"/><feColorMatrix in="SourceAlpha" values="0 0 0 0 0 0 0 0 0 0 0 0 0 0 0 0 0 0 127 0" result="hardAlpha"/><feOffset dy="4"/><feGaussianBlur stdDeviation="2.5"/><feComposite in2="hardAlpha" operator="out"/><feColorMatrix values="0 0 0 0 0 0 0 0 0 0 0 0 0 0 0 0 0 0 0.4 0"/><feBlend in2="BackgroundImageFix" result="effect1_dropShadow_125_5"/><feBlend in="SourceGraphic" in2="effect1_dropShadow_125_5" result="shape"/></filter><linearGradient id="bpaint0_linear_125_5" x1="90" y1="0" x2="90" y2="180" gradientUnits="userSpaceOnUse"><stop stop-color="#003268"/><stop offset="1" stop-color="#003268" stop-opacity="0"/></linearGradient></defs></svg><svg fill="none" viewBox="0 0 42 42" id="icon_event_mobile" xmlns="http://www.w3.org/2000/svg"><path d="M34.231 6.473H8.34c-.715 0-1.295.58-1.295 1.295V33.66c0 .715.58 1.294 1.295 1.294H34.23c.715 0 1.295-.58 1.295-1.294V7.768c0-.715-.58-1.295-1.295-1.295zM29.053 3.237v3.236M13.517 3.237v3.236M7.044 14.241h28.482" stroke="#002B59" stroke-width="3" stroke-linecap="round" stroke-linejoin="round"/><path d="M14.812 20.714h4.53l-2.588 3.237a2.588 2.588 0 11-1.83 4.418M24.521 22.656l2.59-1.942v8.416" stroke="#002B59" stroke-width="3" stroke-linecap="round" stroke-linejoin="round"/></svg><svg fill="none" viewBox="0 0 77 77" id="icon_exposition_link_1" xmlns="http://www.w3.org/2000/svg"><path d="M38.5 77C59.763 77 77 59.763 77 38.5S59.763 0 38.5 0 0 17.237 0 38.5 17.237 77 38.5 77z" fill="#EFEFEF"/><path d="M49.101 54.572c6.78 0 12.276-5.497 12.276-12.277 0-6.78-5.496-12.276-12.276-12.276-6.78 0-12.276 5.496-12.276 12.276 0 6.78 5.496 12.277 12.276 12.277z" fill="#FF9F43"/><path d="M54.65 35.26l-5.037 5.037a1.98 1.98 0 00-1.457.069 1.973 1.973 0 00-1.05 2.437l-5.04 5.04a1.048 1.048 0 001.483 1.483l5.04-5.04a1.973 1.973 0 002.505-2.506l5.04-5.038a1.049 1.049 0 00-1.483-1.482zm10.181 17.516a5.25 5.25 0 01-5.244 5.245H23.933a5.25 5.25 0 01-5.243-5.245v-20.97a5.25 5.25 0 015.243-5.244h35.654a5.25 5.25 0 015.244 5.243v20.971zm-3.567-28.102a1.077 1.077 0 00-.38-.18L17.89 14.007a1.049 1.049 0 00-.497 2.039l34.517 8.419H23.933a7.348 7.348 0 00-7.341 7.34v20.971a7.327 7.327 0 006.293 7.236v1.156a1.049 1.049 0 001.048 1.048h2.098a1.05 1.05 0 001.048-1.048v-1.049h29.363v1.049a1.05 1.05 0 001.048 1.048h2.097a1.049 1.049 0 001.05-1.048v-1.156a7.328 7.328 0 006.291-7.236v-20.97a7.342 7.342 0 00-5.664-7.132zM31.274 51.73a2.097 2.097 0 100 4.195 2.097 2.097 0 000-4.195zm17.827 2.097a11.535 11.535 0 1111.535-11.535 11.547 11.547 0 01-11.535 11.535zm0-25.168a13.632 13.632 0 1013.63 13.633 13.648 13.648 0 00-13.63-13.633zm-27.265 6.292h8.39a1.05 1.05 0 00.968-1.45 1.05 1.05 0 00-.968-.647h-8.39a1.049 1.049 0 000 2.097zm0 12.584h8.39a1.049 1.049 0 100-2.097h-8.39a1.049 1.049 0 100 2.097zm2.098 6.293a1.049 1.049 0 110-2.097 1.049 1.049 0 010 2.096zm0-4.195a3.146 3.146 0 100 6.292 3.146 3.146 0 000-6.293zm-2.098-8.392h8.39a1.049 1.049 0 100-2.097h-8.39a1.049 1.049 0 000 2.097z" fill="#002B59"/></svg><svg fill="none" viewBox="0 0 77 77" id="icon_exposition_link_2" xmlns="http://www.w3.org/2000/svg"><path d="M38.5 77C59.763 77 77 59.763 77 38.5S59.763 0 38.5 0 0 17.237 0 38.5 17.237 77 38.5 77z" fill="#EFEFEF"/><path d="M42.284 21.628H39.05v9.73h3.233v-9.73z" fill="#FF9F43"/><path d="M41.44 20.26c1.64.25 2.236.948 2.236 2.615v7.383c0 1.678-.456 2.271-2.102 2.699v1.998h-2.066v-1.988c-.17-.045-.298-.081-.426-.111a2.078 2.078 0 01-1.703-2.084c-.017-2.784-.017-5.57 0-8.356a2.053 2.053 0 011.527-2.017c.095-.031.188-.067.324-.115a5.197 5.197 0 00-1.994-2.839 7.222 7.222 0 00-3.774-1.28 12.522 12.522 0 00-6.961 1.209 8.343 8.343 0 00-4.674 6.96 28.738 28.738 0 002.011 14.205c.16.377.36.736.54 1.103.023.044.056.084.145.215.332-1.38.676-2.661 2.375-2.761V21.375h2.071v4.145h7.32v2.138h-7.27v9.41h23v-9.4h-7.27v-2.099h7.302v-4.197h2.088V37.08c1.303.11 1.884.884 2.204 2.039 1.288 4.652 2.623 9.29 3.928 13.938.104.378.158.769.161 1.16.017 1.898.011 3.795.006 5.692 0 1.548-.828 2.392-2.359 2.392-11.7.004-23.401.004-35.102 0-1.538 0-2.358-.845-2.364-2.391 0-1.88-.102-3.767.035-5.64a19.02 19.02 0 01.804-3.576c.703-2.563 1.455-5.12 2.168-7.683a.878.878 0 00-.06-.652 22.465 22.465 0 01-3.381-8.773 32.154 32.154 0 01-.527-8.671c.497-5.64 3.776-9.592 9.602-10.654a13.556 13.556 0 016.973.374c2.647.923 4.425 2.685 5.142 5.443.019.063.042.124.07.183zM22.72 53.864H58.33l-4.096-14.441-.115.02v2.883h-2.074v-3.088h-1.889c.693 4.2 1.382 8.353 2.075 12.536H28.816l2.078-12.55h-1.917v3.098H26.89v-2.855l-.077-.008-4.092 14.405zm.018 6.302h35.556v-4.14H22.74v4.14zM38.346 39.21c-.29 3.496-.58 6.96-.872 10.464h6.103c-.293-3.507-.584-6.98-.874-10.465h-4.357zm-2.112.008h-3.206c-.578 3.48-1.156 6.95-1.743 10.49 1.253 0 2.44-.015 3.63.009.384.008.476-.122.505-.49.175-2.313.381-4.624.574-6.934.08-1.016.157-2.03.24-3.075zm13.536 10.49l-1.744-10.475h-3.17a.423.423 0 00-.022.092c.274 3.365.55 6.73.83 10.093a.397.397 0 00.262.276c1.258.018 2.515.012 3.843.012v.002zm-8.24-18.94v-8.34h-2v8.34h2z" fill="#002B59"/><path d="M41.561 58.096a1.038 1.038 0 11-1.037-1.047h.011a1.06 1.06 0 011.026 1.047z" fill="#002B59"/></svg><svg fill="none" viewBox="0 0 77 82" id="icon_exposition_link_3" xmlns="http://www.w3.org/2000/svg"><path d="M38.5 82C59.763 82 77 63.644 77 41S59.763 0 38.5 0 0 18.356 0 41s17.237 41 38.5 41z" fill="#EFEFEF"/><path fill-rule="evenodd" clip-rule="evenodd" d="M17.514 60.62l.308-2.684 1.143-2.51 2.322-1.26 1.278-.763c.246.637.61 1.214 1.07 1.697.461.483 1.009.862 1.61 1.115l-1.63 2.737-1.447 2.155-3.203.487-.994-.084-.457-.89z" fill="#FF9F43"/><path d="M14.197 64.017c.188 0 .371.059.528.17.155.111.277.269.35.454.07.184.09.387.053.583a1.032 1.032 0 01-.26.518.933.933 0 01-.485.277.896.896 0 01-.549-.058.965.965 0 01-.426-.372 1.058 1.058 0 01.118-1.276.947.947 0 01.308-.22.9.9 0 01.363-.076zM38.443 38.38c.188 0 .37.06.526.17.156.111.278.269.35.453.071.184.09.387.053.583a1.03 1.03 0 01-.259.516.931.931 0 01-.485.276.893.893 0 01-.547-.057.962.962 0 01-.425-.372 1.056 1.056 0 01.117-1.273.919.919 0 01.67-.296zM49.51 31.244c-.3.319-.68.535-1.095.623a2.017 2.017 0 01-1.235-.129 2.173 2.173 0 01-.96-.838 2.383 2.383 0 01-.36-1.265c0-.45.125-.891.36-1.266.235-.374.569-.666.96-.838.39-.172.82-.217 1.235-.13.415.088.796.305 1.095.624.4.427.626 1.006.626 1.61 0 .603-.226 1.182-.626 1.61zm-1.512-5.904c-.933 0-1.837.345-2.558.975a4.353 4.353 0 00-1.397 2.482 4.54 4.54 0 00.399 2.861 4.136 4.136 0 002.013 1.944c.862.38 1.82.43 2.713.142a4.064 4.064 0 002.183-1.724 4.511 4.511 0 00.66-2.806 4.416 4.416 0 00-1.161-2.616 4 4 0 00-1.308-.933 3.794 3.794 0 00-1.544-.325zM25.081 56.086a.895.895 0 00-.723-.054.968.968 0 00-.547.507l-1.128 2.413a3.274 3.274 0 01-1.06 1.28 3.003 3.003 0 01-1.516.551l-1.313.096a.53.53 0 01-.433-.174.634.634 0 01-.163-.462l.09-1.397a3.475 3.475 0 01.518-1.614 3.2 3.2 0 011.201-1.128l2.266-1.202a.992.992 0 00.476-.583c.08-.253.061-.53-.05-.77a.968.968 0 00-.548-.507.895.895 0 00-.723.054l-2.267 1.199a5.145 5.145 0 00-1.931 1.815 5.587 5.587 0 00-.834 2.596l-.09 1.397c-.023.358.024.717.137 1.055.112.337.29.647.519.909.23.262.508.471.816.614a2.328 2.328 0 001.147.21l1.312-.096a4.83 4.83 0 002.438-.888 5.264 5.264 0 001.703-2.058l1.129-2.413c.11-.24.129-.516.049-.769a.992.992 0 00-.475-.581z" fill="#002B59"/><path d="M59.644 17.73a29.743 29.743 0 01-2.97 11.698c-1.772 3.625-4.26 6.799-7.293 9.303L34.523 51.009a20.202 20.202 0 01-3.43-2.7l5.007-5.332c.091-.093.164-.204.213-.327a1.066 1.066 0 00-.2-1.114.948.948 0 00-.311-.22.898.898 0 00-.734.007.949.949 0 00-.308.227l-5.004 5.33a21.36 21.36 0 01-2.43-3.528L39.509 27.38c2.318-3.031 5.198-5.52 8.46-7.312a25.448 25.448 0 0110.5-3.101l.881-.06a.282.282 0 01.23.09.322.322 0 01.088.243l-.023.49zM46.452 47.667a15.92 15.92 0 01-1.077 5.806 15.162 15.162 0 01-3.093 4.916l-4.06 4.322-.565-11.737 8.795-7.268v3.96zm-15.768 4.643c-.494.44-1 .89-1.472 1.302-1.788-1.026-3.255-2.587-4.22-4.49l2.045-2.587c.62.885 1.297 1.722 2.027 2.505.81.868 1.683 1.667 2.61 2.39l-.99.88zM16.374 39.44l4.059-4.323a14.126 14.126 0 014.61-3.291 13.4 13.4 0 015.445-1.15l3.97.125-7.05 9.243-11.034-.604zm44.534-23.88c-.22-.23-.483-.41-.773-.524a2.072 2.072 0 00-.906-.142l-.885.058A27.26 27.26 0 0047.1 18.276c-3.494 1.92-6.579 4.585-9.061 7.832l-2.076 2.722-5.434-.168h-.027a15.183 15.183 0 00-6.178 1.298 16.005 16.005 0 00-5.23 3.732l-5.566 5.927a1.03 1.03 0 00-.257.504c-.038.19-.024.389.042.571.066.182.18.34.328.455.149.114.325.18.508.19l11.778.645-.48.63a1.06 1.06 0 00-.097 1.118c.185.361.378.717.58 1.067l-2.794 3.531a1.068 1.068 0 00-.132 1.082c1.224 2.774 3.32 5.005 5.925 6.306a.896.896 0 001.003-.129c.601-.52 1.295-1.136 1.967-1.733.478-.423.967-.86 1.425-1.26.273.176.55.345.83.507a.897.897 0 001.033-.09l.646-.533.608 12.598c.01.195.072.383.18.541.107.158.255.28.426.35.172.07.358.085.537.045a.932.932 0 00.473-.274l5.564-5.925a17.179 17.179 0 003.505-5.571 18.038 18.038 0 001.219-6.578V42.14l2.196-1.815c3.249-2.682 5.914-6.081 7.812-9.965a31.86 31.86 0 003.183-12.53l.023-.491a2.474 2.474 0 00-.147-.964 2.356 2.356 0 00-.504-.815v.001z" fill="#002B59"/></svg><svg fill="none" viewBox="0 0 77 77" id="icon_exposition_link_4" xmlns="http://www.w3.org/2000/svg"><path d="M38.5 77C59.763 77 77 59.763 77 38.5S59.763 0 38.5 0 0 17.237 0 38.5 17.237 77 38.5 77z" fill="#EFEFEF"/><path fill-rule="evenodd" clip-rule="evenodd" d="M12.513 33.933l6.135-2.396 6.185 2.396.657 4.594-1.9 4.306-3.823 3.47-1.86.13-3.594-2.74L13 39.735l-.716-3.301.229-2.5z" fill="#FF9F43"/><path d="M45.566 13.785c-6.816 0-13.716 1.663-13.716 4.84v1.614H13.294a2.42 2.42 0 00-2.42 2.42v19.364a2.42 2.42 0 002.42 2.42h.807v5.492l-3.17 7.924a.815.815 0 00-.057.299v2.42a1.615 1.615 0 001.613 1.613h30.659a1.614 1.614 0 001.613-1.613v-2.419a.813.813 0 00-.057-.298l-3.17-7.926v-.865c1.31.131 2.655.214 4.034.214 6.816 0 13.715-1.663 13.715-4.84V18.624c0-3.177-6.9-4.84-13.715-4.84zm0 1.613c7.387 0 12.102 1.911 12.102 3.227 0 1.317-4.715 3.228-12.102 3.228a33.377 33.377 0 01-7.955-.883 2.405 2.405 0 00-1.728-.73h-.474c-1.425-.615-1.947-1.233-1.947-1.614.002-1.316 4.717-3.228 12.104-3.228zm-32.272 6.455h22.589a.807.807 0 01.806.807v4.034H12.488V22.66a.807.807 0 01.807-.807zm-.807 20.17V28.307H36.69v13.716a.805.805 0 01-.808.806h-3.758a10.446 10.446 0 001.34-5.095v-3.779a.806.806 0 00-.523-.756l-6.457-2.42a.817.817 0 00-.565 0l-6.453 2.42a.808.808 0 00-.525.756v3.778c.003 1.785.464 3.54 1.339 5.096h-6.987a.807.807 0 01-.807-.807v.001zm8.068-4.289v-3.22l5.648-2.118 5.647 2.118v3.22a8.916 8.916 0 01-5.647 8.27 8.916 8.916 0 01-5.648-8.27zm.832 6.71a10.445 10.445 0 004.357 3.11l.171.066a.81.81 0 00.565 0l.172-.066a10.441 10.441 0 004.366-3.11h4.865a2.42 2.42 0 002.42-2.421v-8.875h.807a.807.807 0 01.807.807v15.33H15.714v-4.842h5.673zm11.9 12.908l-.654-2.616a.806.806 0 00-.783-.611h-8.068a.807.807 0 00-.782.61l-.654 2.617h-9.474l2.582-6.454h24.725l2.581 6.454h-9.474zm-1.664 0H24.01l.404-1.613h6.807l.403 1.613zM12.487 60.58v-1.614h30.659v1.614h-30.66zm33.079-12.908a39.02 39.02 0 01-4.034-.22v-4.84c1.34.142 2.687.215 4.034.219 4.82 0 9.667-.835 12.102-2.446v4.06c0 1.315-4.715 3.227-12.102 3.227zm0-6.455a37.21 37.21 0 01-4.034-.225v-4.832a39.33 39.33 0 004.034.218c4.82 0 9.667-.836 12.102-2.446v4.06c0 1.313-4.715 3.225-12.102 3.225zm0-6.455a37.236 37.236 0 01-4.034-.225v-.581a2.42 2.42 0 00-2.42-2.42h-.807v-2.308c2.39.474 4.822.707 7.259.696 4.82 0 9.667-.835 12.102-2.445v4.057c.002 1.315-4.713 3.226-12.1 3.226zm0-6.454a35.019 35.019 0 01-7.26-.717v-4.806c2.392.468 4.824.697 7.26.685 4.82 0 9.667-.836 12.102-2.446v4.059c0 1.314-4.715 3.225-12.102 3.225z" fill="#002B59"/><path d="M54.44 23.466h1.614v1.613H54.44v-1.613zM51.213 24.275h1.614v1.614h-1.614v-1.614zM47.986 25.08h1.613v1.613h-1.613V25.08zM54.44 29.92h1.614v1.615H54.44V29.92zM51.213 30.727h1.614v1.614h-1.614v-1.614zM47.986 31.535h1.613v1.613h-1.613v-1.613zM54.44 36.375h1.614v1.613H54.44v-1.613zM51.213 37.182h1.614v1.612h-1.614v-1.612zM47.986 37.989h1.613v1.613h-1.613V37.99zM54.44 42.83h1.614v1.613H54.44v-1.614zM51.213 43.636h1.614v1.614h-1.614v-1.614zM47.986 44.443h1.613v1.614h-1.613v-1.614zM50.407 17.819h-9.682v1.613h9.681V17.82zM14.1 23.466h1.614v1.613h-1.613v-1.613zM17.328 23.466h1.614v1.613h-1.614v-1.613zM20.555 23.466h1.613v1.613h-1.613v-1.613zM25.396 42.023a.807.807 0 00.57-.236L30 37.752l-1.14-1.14-3.464 3.463-1.85-1.85-1.14 1.14 2.42 2.421a.807.807 0 00.57.237z" fill="#002B59"/></svg><svg fill="none" viewBox="0 0 42 42" id="icon_exposition_mobile" xmlns="http://www.w3.org/2000/svg"><path d="M5.179 12.946h29.777a1.294 1.294 0 011.294 1.295v18.125a1.295 1.295 0 01-1.294 1.295H6.473a1.295 1.295 0 01-1.294-1.295v-19.42zM5.179 12.947l25.893-7.768" stroke="#002B59" stroke-width="3" stroke-linecap="round" stroke-linejoin="round"/><path d="M25.893 27.187a3.884 3.884 0 100-7.767 3.884 3.884 0 000 7.767zM11.651 20.067h3.884M11.651 26.54h3.884" stroke="#002B59" stroke-width="3" stroke-linecap="round" stroke-linejoin="round"/></svg><svg fill="none" viewBox="0 0 180 180" id="icon_laba" xmlns="http://www.w3.org/2000/svg"><circle cx="90" cy="90" r="90" fill="url(#ipaint0_linear_125_4)" fill-opacity=".6"/><g filter="url(#ifilter0_d_125_4)"><path d="M58.398 78.376a2.477 2.477 0 01-1.27-.338 2.466 2.466 0 01-.734-.647 2.565 2.565 0 01-.178-2.811c3.182-5.437 12.864-18.13 33.99-18.13 9.156 0 17.186 2.463 23.855 7.316 5.49 3.983 8.566 8.491 10.032 10.662a2.538 2.538 0 01.393 1.9 2.557 2.557 0 01-.367.915 2.515 2.515 0 01-2.573 1.088 2.558 2.558 0 01-1.619-1.065c-2.652-3.906-10.74-15.788-29.72-15.788-18.527 0-26.903 10.934-29.632 15.624-.219.391-.536.716-.919.94-.383.224-.817.339-1.258.334z" fill="#003268"/></g><g filter="url(#ifilter1_d_125_4)"><path d="M100.85 128.056a2.484 2.484 0 01-.625-.073c-15.325-3.886-21.047-19.571-21.28-20.223l-.036-.144c-.126-.453-3.2-11.208 1.52-17.508 2.163-2.872 5.454-4.346 9.8-4.346 4.04 0 6.955 1.286 8.96 3.948 1.65 2.172 2.31 4.853 2.949 7.434 1.341 5.377 2.31 8.201 7.887 8.492 2.45.126 4.059-1.34 4.972-2.589 2.467-3.405 2.896-8.956 1.036-13.856-2.39-6.325-10.872-18.25-25.827-18.25-6.384 0-12.25 2.1-16.954 6.048-3.893 3.27-6.978 7.886-8.463 12.63-2.755 8.835.858 22.722.892 22.849a2.558 2.558 0 01-.261 1.929 2.49 2.49 0 01-.652.736c-.264.198-.563.34-.88.418a2.486 2.486 0 01-1.904-.249 2.59 2.59 0 01-1.19-1.542c-.165-.633-4.024-15.444-.841-25.654C63.419 77.043 74.115 65.89 90.21 65.89c7.439 0 14.467 2.589 20.333 7.478 4.542 3.802 8.252 8.908 10.193 14.013 2.467 6.517 1.806 13.833-1.682 18.611-2.324 3.187-5.633 4.853-9.299 4.673-9.55-.49-11.266-7.316-12.517-12.294-1.288-5.106-2.111-7.568-7.028-7.568-2.7 0-4.596.76-5.777 2.335-1.609 2.154-1.734 5.522-1.556 7.966.117 1.702.399 3.388.842 5.034.392 1.013 5.507 13.856 17.757 16.963.317.077.616.218.879.414.263.196.485.443.654.728a2.564 2.564 0 01.283 1.919 2.6 2.6 0 01-.91 1.367c-.441.342-.98.527-1.533.527z" fill="#003268"/></g><g filter="url(#ifilter2_d_125_4)"><path d="M81.18 126.896a2.515 2.515 0 01-1.842-.796c-6.134-6.59-9.603-13.959-10.908-23.174v-.049c-.733-6.1.34-14.736 5.596-20.674 3.88-4.382 9.336-6.61 16.185-6.61 8.1 0 14.467 3.857 18.436 11.135 2.88 5.287 3.451 10.556 3.466 10.772a2.571 2.571 0 01-.565 1.864 2.49 2.49 0 01-.756.626 2.43 2.43 0 01-.932.281 2.474 2.474 0 01-1.835-.541 2.598 2.598 0 01-.936-1.704 26.45 26.45 0 00-2.948-9.005c-3.076-5.558-7.757-8.383-13.948-8.383-5.348 0-9.532 1.647-12.41 4.9-4.15 4.69-4.952 11.913-4.382 16.692 1.144 8.148 4.202 14.63 9.602 20.423.226.24.402.524.518.835a2.54 2.54 0 01-.068 1.937 2.514 2.514 0 01-2.273 1.471z" fill="#003268"/></g><g filter="url(#ifilter3_d_125_4)"><path d="M109.435 119.637c-5.365 0-9.925-1.521-13.574-4.544-7.332-6.048-8.154-15.898-8.19-16.313a2.621 2.621 0 01.598-1.878 2.5 2.5 0 011.72-.894 2.483 2.483 0 011.834.612c.508.445.822 1.079.874 1.76.018.146.75 8.203 6.402 12.843 3.344 2.734 7.814 3.819 13.321 3.186a2.464 2.464 0 011.845.524c.523.417.863 1.029.946 1.703a2.55 2.55 0 01-.538 1.87 2.477 2.477 0 01-.75.632 2.423 2.423 0 01-.93.286 30.227 30.227 0 01-3.558.213zm4.238-67.15c-2.093-1.395-9.513-5.542-23.467-5.542-14.646 0-22.085 4.581-23.73 5.746a1.92 1.92 0 00-.304.236.06.06 0 01-.037.017 2.51 2.51 0 00-.618.85c-.145.324-.22.677-.222 1.034.005.335.074.665.203.973.13.307.317.586.552.819.235.233.512.416.816.54.305.123.63.183.956.178.524 0 1.036-.165 1.466-.472.07-.054 6.473-4.87 20.923-4.87s20.887 4.8 20.957 4.835c.439.333.973.511 1.52.506.327.006.652-.055.956-.18.304-.123.581-.307.816-.54a2.583 2.583 0 00.751-1.795c0-.503-.146-.993-.42-1.409a2.469 2.469 0 00-1.118-.927z" fill="#003268"/></g><defs><filter id="ifilter0_d_125_4" x="50.878" y="55.451" width="78.652" height="31.926" filterUnits="userSpaceOnUse" color-interpolation-filters="sRGB"><feFlood flood-opacity="0" result="BackgroundImageFix"/><feColorMatrix in="SourceAlpha" values="0 0 0 0 0 0 0 0 0 0 0 0 0 0 0 0 0 0 127 0" result="hardAlpha"/><feOffset dy="4"/><feGaussianBlur stdDeviation="2.5"/><feComposite in2="hardAlpha" operator="out"/><feColorMatrix values="0 0 0 0 0 0 0 0 0 0 0 0 0 0 0 0 0 0 0.4 0"/><feBlend in2="BackgroundImageFix" result="effect1_dropShadow_125_4"/><feBlend in="SourceGraphic" in2="effect1_dropShadow_125_4" result="shape"/></filter><filter id="ifilter1_d_125_4" x="53.699" y="64.89" width="73.517" height="72.166" filterUnits="userSpaceOnUse" color-interpolation-filters="sRGB"><feFlood flood-opacity="0" result="BackgroundImageFix"/><feColorMatrix in="SourceAlpha" values="0 0 0 0 0 0 0 0 0 0 0 0 0 0 0 0 0 0 127 0" result="hardAlpha"/><feOffset dy="4"/><feGaussianBlur stdDeviation="2.5"/><feComposite in2="hardAlpha" operator="out"/><feColorMatrix values="0 0 0 0 0 0 0 0 0 0 0 0 0 0 0 0 0 0 0.4 0"/><feBlend in2="BackgroundImageFix" result="effect1_dropShadow_125_4"/><feBlend in="SourceGraphic" in2="effect1_dropShadow_125_4" result="shape"/></filter><filter id="ifilter2_d_125_4" x="63.223" y="74.594" width="53.901" height="61.302" filterUnits="userSpaceOnUse" color-interpolation-filters="sRGB"><feFlood flood-opacity="0" result="BackgroundImageFix"/><feColorMatrix in="SourceAlpha" values="0 0 0 0 0 0 0 0 0 0 0 0 0 0 0 0 0 0 127 0" result="hardAlpha"/><feOffset dy="4"/><feGaussianBlur stdDeviation="2.5"/><feComposite in2="hardAlpha" operator="out"/><feColorMatrix values="0 0 0 0 0 0 0 0 0 0 0 0 0 0 0 0 0 0 0.4 0"/><feBlend in2="BackgroundImageFix" result="effect1_dropShadow_125_4"/><feBlend in="SourceGraphic" in2="effect1_dropShadow_125_4" result="shape"/></filter><filter id="ifilter3_d_125_4" x="60.295" y="45.945" width="59.931" height="82.691" filterUnits="userSpaceOnUse" color-interpolation-filters="sRGB"><feFlood flood-opacity="0" result="BackgroundImageFix"/><feColorMatrix in="SourceAlpha" values="0 0 0 0 0 0 0 0 0 0 0 0 0 0 0 0 0 0 127 0" result="hardAlpha"/><feOffset dy="4"/><feGaussianBlur stdDeviation="2.5"/><feComposite in2="hardAlpha" operator="out"/><feColorMatrix values="0 0 0 0 0 0 0 0 0 0 0 0 0 0 0 0 0 0 0.4 0"/><feBlend in2="BackgroundImageFix" result="effect1_dropShadow_125_4"/><feBlend in="SourceGraphic" in2="effect1_dropShadow_125_4" result="shape"/></filter><linearGradient id="ipaint0_linear_125_4" x1="90" y1="0" x2="90" y2="180" gradientUnits="userSpaceOnUse"><stop stop-color="#004EA2"/><stop offset="1" stop-color="#004EA2" stop-opacity="0"/></linearGradient></defs></svg><svg fill="none" viewBox="0 0 180 180" id="icon_news" xmlns="http://www.w3.org/2000/svg"><circle cx="90" cy="90" r="90" fill="url(#jpaint0_linear_125_2)" fill-opacity=".6"/><g filter="url(#jfilter0_d_125_2)"><path d="M117.2 58H62.8c-3.774 0-6.8 2.967-6.8 6.667v46.666c0 3.7 3.026 6.667 6.8 6.667h54.4c3.774 0 6.8-2.967 6.8-6.667V64.667c0-3.7-3.026-6.667-6.8-6.667zm-51 13.333h17v20h-17v-20zm47.6 33.334H66.2V98h47.6v6.667zm0-13.334H90v-6.666h23.8v6.666zm0-13.333H90v-6.667h23.8V78z" fill="#003268"/></g><defs><linearGradient id="jpaint0_linear_125_2" x1="90" y1="0" x2="90" y2="180" gradientUnits="userSpaceOnUse"><stop offset=".188" stop-color="#FFB46B"/><stop offset="1" stop-color="#FFC185" stop-opacity="0"/></linearGradient><filter id="jfilter0_d_125_2" x="51" y="57" width="78" height="70" filterUnits="userSpaceOnUse" color-interpolation-filters="sRGB"><feFlood flood-opacity="0" result="BackgroundImageFix"/><feColorMatrix in="SourceAlpha" values="0 0 0 0 0 0 0 0 0 0 0 0 0 0 0 0 0 0 127 0" result="hardAlpha"/><feOffset dy="4"/><feGaussianBlur stdDeviation="2.5"/><feComposite in2="hardAlpha" operator="out"/><feColorMatrix values="0 0 0 0 0 0 0 0 0 0 0 0 0 0 0 0 0 0 0.25 0"/><feBlend in2="BackgroundImageFix" result="effect1_dropShadow_125_2"/><feBlend in="SourceGraphic" in2="effect1_dropShadow_125_2" result="shape"/></filter></defs></svg><svg fill="none" viewBox="0 0 282 79" id="logo_museum" xmlns="http://www.w3.org/2000/svg"><path d="M100.84 22.44h-4.9V34H93.2V20h10.38v14h-2.74V22.44zm4.693 4.56c0-2.333.514-4.127 1.54-5.38 1.027-1.267 2.494-1.9 4.4-1.9 1 0 1.874.173 2.62.52a4.93 4.93 0 011.86 1.48c.494.64.86 1.407 1.1 2.3.24.893.36 1.887.36 2.98 0 2.333-.52 4.133-1.56 5.4-1.026 1.253-2.486 1.88-4.38 1.88-1.013 0-1.893-.173-2.64-.52a4.946 4.946 0 01-1.86-1.48c-.48-.64-.84-1.407-1.08-2.3-.24-.893-.36-1.887-.36-2.98zm2.88 0c0 .707.06 1.36.18 1.96.12.587.3 1.093.54 1.52.254.427.574.76.96 1 .387.24.847.36 1.38.36.974 0 1.727-.38 2.26-1.14.534-.76.8-1.993.8-3.7 0-.68-.06-1.313-.18-1.9a5.087 5.087 0 00-.52-1.54c-.24-.44-.553-.78-.94-1.02-.386-.253-.86-.38-1.42-.38-.973 0-1.726.393-2.26 1.18-.533.773-.8 1.993-.8 3.66zm17.947-4.56h-2.98c-.053 1.267-.113 2.42-.18 3.46-.067 1.04-.16 1.98-.28 2.82-.107.827-.253 1.56-.44 2.2a6.582 6.582 0 01-.72 1.66c-.187.307-.4.56-.64.76-.227.2-.467.36-.72.48-.253.12-.507.2-.76.24-.24.053-.467.08-.68.08-.307 0-.567-.027-.78-.08-.2-.04-.4-.107-.6-.2l.3-2.36a1.572 1.572 0 00.48.08c.213 0 .42-.053.62-.16.213-.107.393-.287.54-.54.2-.293.373-.72.52-1.28.147-.573.273-1.3.38-2.18.12-.88.213-1.927.28-3.14.067-1.227.113-2.653.14-4.28h8.26v14h-2.74V22.44zm13.301 3.8l.16-1.82h-.1l-.94 1.88-5.22 7.7h-2.06V20h2.74v7.62l-.2 1.88h.12l.98-1.94 5.22-7.56h2.04v14h-2.74v-7.76zm15.1-3.8h-4.08V34h-2.74V22.44h-4.1V20h10.92v2.44zm1.427-2.44h8.3v2.44h-5.56v3.26h5.06v2.44h-5.06v3.42h5.66V34h-8.4V20zm13.75 6.88l-3.9-6.88h3.3l2.16 4.04.48 1.42.46-1.42 2.26-4.04h2.98l-4.04 6.74 4.24 7.26h-3.26l-2.46-4.32-.54-1.48-.52 1.48-2.48 4.32h-2.98l4.3-7.12zm17.216 1.26h-5.12V34h-2.74V20h2.74v5.7h5.12V20h2.74v14h-2.74v-5.86zm13.327-1.9l.16-1.82h-.1l-.94 1.88-5.22 7.7h-2.06V20h2.74v7.62l-.2 1.88h.12l.98-1.94 5.22-7.56h2.04v14h-2.74v-7.76zm7.62-6.24v4.44c0 .8.154 1.4.46 1.8.32.387.84.58 1.56.58.507 0 .98-.053 1.42-.16.454-.12.814-.293 1.08-.52V20h2.74v14h-2.74v-5.64c-.346.2-.813.387-1.4.56-.573.16-1.26.24-2.06.24-.56 0-1.073-.067-1.54-.2a3.348 3.348 0 01-1.2-.68 3.294 3.294 0 01-.78-1.2c-.186-.493-.28-1.087-.28-1.78V20h2.74zm9.669 0h8.3v2.44h-5.56v3.26h5.06v2.44h-5.06v3.42h5.66V34h-8.4V20zm19.93 13.42c-.427.307-.974.527-1.64.66-.654.133-1.327.2-2.02.2a7.54 7.54 0 01-2.4-.38 5.28 5.28 0 01-1.98-1.26c-.574-.587-1.034-1.34-1.38-2.26-.334-.933-.5-2.06-.5-3.38 0-1.373.186-2.52.56-3.44.386-.933.88-1.68 1.48-2.24a5.373 5.373 0 012.04-1.22 6.931 6.931 0 012.24-.38c.8 0 1.473.053 2.02.16.56.107 1.02.233 1.38.38l-.54 2.32a3.981 3.981 0 00-1.1-.32c-.414-.067-.92-.1-1.52-.1-1.107 0-2 .393-2.68 1.18-.667.787-1 2.007-1 3.66 0 .72.08 1.38.24 1.98.16.587.4 1.093.72 1.52.333.413.74.74 1.22.98.493.227 1.06.34 1.7.34.6 0 1.106-.06 1.52-.18.413-.12.773-.273 1.08-.46l.56 2.24zm5.151-5.4h-.72V34h-2.74V20h2.74v6.2l.64-.28 3.86-5.92h3.12l-4.08 5.88-1.08.76 1.12.78 4.66 6.58h-3.38l-4.14-5.98zm17.103-1.78l.16-1.82h-.1l-.94 1.88-5.22 7.7h-2.06V20h2.74v7.62l-.2 1.88h.12l.98-1.94 5.22-7.56h2.04v14h-2.74v-7.76zm13.32 0l.16-1.82h-.1l-.94 1.88-5.22 7.7h-2.06V20h2.74v7.62l-.2 1.88h.12l.98-1.94 5.22-7.56h2.04v14h-2.74v-7.76zm-3.9-9.72c.053.427.207.733.46.92.267.187.607.28 1.02.28.893 0 1.387-.393 1.48-1.18l2.22.34c-.147.84-.533 1.453-1.16 1.84-.613.387-1.467.58-2.56.58-.547 0-1.047-.04-1.5-.12a4.381 4.381 0 01-1.2-.38 2.639 2.639 0 01-.84-.74c-.213-.307-.347-.687-.4-1.14l2.48-.4zM104.06 52.74l.3-2.78h-.12l-.86 2.24-2.98 5.22h-.88l-3.14-5.24-.88-2.22h-.1l.4 2.76V60h-2.6V46h2.5l3.74 6.4.66 1.6h.08l.6-1.64 3.54-6.36h2.48v14h-2.74v-7.26zm9.816-.56l.4 1.82h.12l.32-1.88 2.1-6.12h2.82l-3.72 9.68c-.293.76-.58 1.42-.86 1.98-.267.56-.56 1.027-.88 1.4-.307.36-.653.633-1.04.82-.387.173-.84.26-1.36.26-.44 0-.8-.033-1.08-.1-.267-.053-.56-.18-.88-.38l.7-2.22c.227.12.433.193.62.22.187.027.387.04.6.04.627 0 1.067-.493 1.32-1.48L107.816 46h3.22l2.84 6.18zm7.887 1.62v-2.14h1.44l.54-.04c.174-.027.314-.053.42-.08a2.934 2.934 0 001.2-.56c.334-.28.5-.653.5-1.12 0-.64-.206-1.073-.62-1.3-.4-.24-.933-.36-1.6-.36-.6 0-1.16.08-1.68.24-.52.16-.913.313-1.18.46l-.7-2.32c.147-.08.354-.167.62-.26.28-.093.594-.18.94-.26a9.858 9.858 0 012.42-.3c.587 0 1.16.053 1.72.16.56.107 1.06.293 1.5.56.44.267.794.627 1.06 1.08.267.44.4 1.007.4 1.7 0 .693-.186 1.333-.56 1.92-.36.587-.946 1.013-1.76 1.28v.1c.867.173 1.54.547 2.02 1.12.494.573.74 1.34.74 2.3 0 .76-.153 1.413-.46 1.96a3.978 3.978 0 01-1.22 1.32c-.493.347-1.066.6-1.72.76-.653.173-1.32.26-2 .26-.88 0-1.68-.073-2.4-.22-.72-.147-1.273-.32-1.66-.52l.7-2.38c.307.147.747.3 1.32.46.574.147 1.254.22 2.04.22.294 0 .587-.033.88-.1.307-.08.58-.2.82-.36a1.97 1.97 0 00.58-.66c.147-.267.22-.587.22-.96 0-.627-.233-1.1-.7-1.42-.466-.32-1.3-.493-2.5-.52-.16-.013-.28-.02-.36-.02h-.96zm9.328-7.8h8.3v2.44h-5.56v3.26h5.06v2.44h-5.06v3.42h5.66V60h-8.4V46zm18.609 6.24l.16-1.82h-.1l-.94 1.88-5.22 7.7h-2.06V46h2.74v7.62l-.2 1.88h.12l.98-1.94L150.4 46h2.04v14h-2.74v-7.76zm-3.9-9.72c.053.427.207.733.46.92.267.187.607.28 1.02.28.893 0 1.387-.393 1.48-1.18l2.22.34c-.147.84-.533 1.453-1.16 1.84-.613.387-1.467.58-2.56.58-.547 0-1.047-.04-1.5-.12a4.381 4.381 0 01-1.2-.38 2.639 2.639 0 01-.84-.74c-.213-.307-.347-.687-.4-1.14l2.48-.4zm16.859 9.18h1.86c.173-1.907.733-3.38 1.68-4.42.946-1.04 2.273-1.56 3.98-1.56 1.013 0 1.88.173 2.6.52.72.347 1.306.84 1.76 1.48.466.64.806 1.407 1.02 2.3.226.893.34 1.887.34 2.98 0 2.333-.48 4.133-1.44 5.4-.96 1.253-2.387 1.88-4.28 1.88-.88 0-1.66-.147-2.34-.44a4.783 4.783 0 01-1.7-1.24c-.467-.533-.834-1.18-1.1-1.94-.267-.76-.44-1.6-.52-2.52h-1.86V60h-2.74V46h2.74v5.7zm4.66 1.3c0 .707.046 1.36.14 1.96.106.587.266 1.093.48 1.52.226.427.52.76.88 1 .373.24.826.36 1.36.36.973 0 1.686-.38 2.14-1.14.466-.76.7-1.993.7-3.7 0-.68-.047-1.313-.14-1.9a5.104 5.104 0 00-.44-1.54 2.455 2.455 0 00-.88-1.02c-.36-.253-.82-.38-1.38-.38-.96 0-1.68.393-2.16 1.18-.467.773-.7 1.993-.7 3.66zm16.029 5.48c-.253.04-.513.067-.78.08-.267.013-.553.02-.86.02-.64 0-1.233-.107-1.78-.32a4.005 4.005 0 01-1.44-1.02c-.4-.467-.72-1.047-.96-1.74-.227-.707-.34-1.54-.34-2.5 0-.907.113-1.713.34-2.42.24-.72.573-1.327 1-1.82.44-.507.96-.893 1.56-1.16.6-.267 1.267-.4 2-.4.173 0 .387.007.64.02.253.013.46.04.62.08v-1.7h2.68v1.76c.253-.067.54-.107.86-.12.333-.027.6-.04.8-.04.653 0 1.253.12 1.8.36.547.227 1.02.58 1.42 1.06.413.467.733 1.053.96 1.76.227.693.333 1.5.32 2.42.013.947-.107 1.78-.36 2.5s-.6 1.327-1.04 1.82c-.44.48-.953.847-1.54 1.1-.573.24-1.193.36-1.86.36-.213 0-.447-.007-.7-.02a4.5 4.5 0 01-.66-.12v1.96h-2.68v-1.92zm3.7-9.08c-.133.013-.313.027-.54.04-.227.013-.42.04-.58.08v6.8c.12.027.26.04.42.04.173 0 .333.007.48.02.373-.013.72-.087 1.04-.22.32-.133.6-.347.84-.64.24-.293.427-.66.56-1.1.133-.44.193-.973.18-1.6.013-1.067-.193-1.9-.62-2.5-.427-.6-1.02-.907-1.78-.92zm-4.64 6.96h.48a2.01 2.01 0 00.56-.1v-6.78a2.36 2.36 0 00-.46-.04 6.294 6.294 0 00-.48-.02c-.733 0-1.347.287-1.84.86-.493.56-.74 1.46-.74 2.7 0 1.08.227 1.913.68 2.5.453.587 1.053.88 1.8.88zm15.433-4.18l.4 1.82h.12l.32-1.88 2.1-6.12h2.82l-3.72 9.68c-.293.76-.58 1.42-.86 1.98-.267.56-.56 1.027-.88 1.4-.307.36-.653.633-1.04.82-.387.173-.84.26-1.36.26-.44 0-.8-.033-1.08-.1-.267-.053-.56-.18-.88-.38l.7-2.22c.227.12.433.193.62.22.187.027.387.04.6.04.627 0 1.067-.493 1.32-1.48L191.781 46h3.22l2.84 6.18z" fill="#003268"/><path d="M71.636 68.106c-7.098 6.41-23.922 16.924-52.234 6.467-2.011-.744-4.821-2.204-6.778-3.081-1.716-.772-3.852-2.188-5.509-3.081-1.207-.642-1.983-1.343-3.118-2.103-1.206-.822-2.518-2.162-3.293-3.391-.677-1.053-.971-3.208-.404-6.214.265-1.403.833-2.934 1.232-4.313.463-1.474.622-2.272 1.233-3.697.828-1.943 2.178-4.25 3.08-6.162a92.245 92.245 0 011.85-3.698c.709-1.359 1.687-2.965 2.413-4.313.298-.552.938-1.317 1.283-1.849 1.174-1.82 2.172-3.311 3.37-5.117.859-1.294 1.704-2.61 2.68-3.815 1.723-2.131 3.533-4.192 5.319-6.268 1.386-1.617 2.744-3.246 4.209-4.783a69.076 69.076 0 014.487-4.317 76.341 76.341 0 015.245-4.21 19.585 19.585 0 013.272-1.754c1.222-.608 2.483-1.335 3.775-1.778 1.42-.47 2.925-.741 4.414-.584 1.228.203 2.581.559 3.774.91 2.067.565 4.246 1.664 5.9 3.013 1.156.893 2.485 2.004 3.467 3.08 1.482 1.617 2.638 3.32 3.982 5.054a23.684 23.684 0 011.965 3.199c1.01 1.856 1.962 3.742 2.922 5.626.163.316.173.711.323 1.033.272.585.43 1.092.667 1.689.452 1.16 1.397 2.353 1.85 3.518 8.564 26.43 4.59 33.884 4.275 34.466-1.043 2.012-3.964 4.946-5.651 6.473zM45.718 1.194l-.026-.117c-.819.216-1.636.405-2.428.66-.457.173-.903.375-1.333.607a36.78 36.78 0 00-4.377 2.086 45.978 45.978 0 00-5.128 3.87 68.684 68.684 0 00-5.29 5c-1.91 2.022-3.656 4.203-5.474 6.315-.245.28-.514.546-.75.833-1.27 1.55-2.592 3.065-3.79 4.67-1.093 1.465-2.072 3.014-3.069 4.553-1.343 2.09-2.752 4.153-3.945 6.328-1.474 2.69-2.739 5.497-4.128 8.229a49.896 49.896 0 00-3.067 7.25 26.402 26.402 0 00-.902 3.262c-.938 5.731-.033 6.875.884 8.177a11.232 11.232 0 004.22 3.391c2.192 1.122 4.465 2.095 6.73 3.071a47.609 47.609 0 004.483 1.735c25.357 8.025 39.465.574 41.052-.189a64.45 64.45 0 005.69-3.192 32.59 32.59 0 003.837-2.69 17.744 17.744 0 005.874-7.368c.398-1.24.707-2.506.923-3.79.099-11.915-3.932-25.311-4.315-26.332-.26-.69-.449-1.416-.724-2.093-.474-1.17-.985-2.339-1.485-3.5-.41-.949-.769-1.923-1.26-2.83-.749-1.384-1.569-2.732-2.4-4.073-.68-1.096-1.372-2.194-2.145-3.235-.843-1.123-1.775-2.185-2.692-3.253-.873-1.01-1.718-2.07-2.685-2.999a17.446 17.446 0 00-2.863-2.26 25.097 25.097 0 00-3.056-1.391 13.159 13.159 0 00-4.93-.964 7.49 7.49 0 00-1.438.234l.007.005z" fill="#FF9F43"/><path d="M44.428 29.805c-1.485-.033-2.74-1.266-4.467-.345l.768.39c.384.17.755.37 1.11.594.14.1.152.38.277.733-.431-.119-.663-.177-.89-.25a4.999 4.999 0 00-3.069-.02c-.677.14-1.377.14-2.054 0a2.263 2.263 0 01-1.664-1.479 3.575 3.575 0 00-1.352-1.514 1.777 1.777 0 01-.475-2.561c.411-.586.69-1.354 1.232-1.729a15.732 15.732 0 012.859-1.317c.373-.152.766-.25 1.166-.29a4.488 4.488 0 012.67.796 14.265 14.265 0 004.19 1.854c.2.01.4-.024.586-.102.253-.079.496-.187.742-.282l.154.206c-.158.144-.302.389-.475.411a5.58 5.58 0 01-3.272-.269 17.682 17.682 0 00-3.174-1.251 2.602 2.602 0 00-2.344 1.1 19.63 19.63 0 00-1.397 1.77.614.614 0 00.187.94c.236.098.5.112.746.041.587-.09 1.163-.275 1.752-.327a5.725 5.725 0 013.837.922c.566.386 1.17.713 1.756 1.07a3.038 3.038 0 002.59.092A11.961 11.961 0 0149.4 28.3c.907.079 1.798.29 2.644.629.515.147.995.43 1.513.55.362.07.736.05 1.089-.055.673-.192 1.327-.457 1.984-.703a.692.692 0 00.356-.245c.389-.713.736-1.45 1.128-2.162.189-.382.432-.734.72-1.047a11.616 11.616 0 012.21-1.936 3.055 3.055 0 014.071.4c.243.254.395.58.436.929-.041.411-.072.832-.125 1.254-.107.838-.837 1.168-1.384 1.628a22.651 22.651 0 00-2.713 2.23 4.101 4.101 0 00-.857 3.948 90.27 90.27 0 011.438 5.862c.206 1.053.307 2.123.301 3.196-.05.808-.156 1.611-.318 2.405-.074.493-.15.99-.262 1.475a13.617 13.617 0 01-2.607 5.231 41.25 41.25 0 01-3.638 3.852 1.865 1.865 0 00-.748 1.488 15.263 15.263 0 01-.367 2.341 8.143 8.143 0 00-.17 1.946 3.056 3.056 0 01-2.587 2.735c-3.515-.056-7.031-.02-10.547-.065a16.148 16.148 0 01-2.39-.327 8.342 8.342 0 00-1.016-.127c-.645-.263-1.292-.524-1.937-.792a1.32 1.32 0 01-.343-.185 4.948 4.948 0 00-3.165-.951c-1.82-.062-3.647.025-5.466-.01-.946.009-1.89-.087-2.815-.286a18.265 18.265 0 01-3.622-1.266c-.737-.364-.928-1.291-1.026-2.088a10.655 10.655 0 00-1.027-3.866 23.748 23.748 0 00-1.86-2.67 8.382 8.382 0 01-1.588-3.716c-.034-.223-.154-.432-.205-.655a1.956 1.956 0 01-.073-.808 8.976 8.976 0 012.625-4.517c.802-.86 1.66-1.667 2.57-2.413a20.935 20.935 0 013.286-1.58c1.82-.806 3.754-.422 5.642-.475a6.898 6.898 0 011.792.376c1.246.308 2.508.573 3.728.964 1.085.35 2.128.832 3.18 1.278 1.051.446 2.034.906 3.064 1.322a.831.831 0 00.594-.166c.298-.167.566-.382.792-.638a3.391 3.391 0 011.901-.91 1.822 1.822 0 011.027.062 18.69 18.69 0 011.782.738 9.552 9.552 0 013.492 2.972c.822 1.05 1.52 2.19 2.337 3.383l.468-.38c-.136-.206-.206-.357-.307-.488a3.073 3.073 0 01-.253-2.846 3.654 3.654 0 011.598-1.886 3.51 3.51 0 001.027-1.52 4.325 4.325 0 00.205-3.7c-.11-.205-.442-.503-.571-.46a1.027 1.027 0 00-.581.595c-.137.455-.199.93-.183 1.404.02.584-.228 1.057-.747.968-.357-.062-.725-.573-.91-.968-.153-.325 0-.779-.058-1.163a2.506 2.506 0 00-2.779-2.174 6.882 6.882 0 01-3.222-.617 2.646 2.646 0 01-1.643-3.108c.067-.224.113-.454.137-.687zM33.425 58.297l.102-.226a1.82 1.82 0 00-.395-.344 9.193 9.193 0 01-3.19-2.78c-1.277-1.58-1.535-3.567-2.151-5.406-.146-.448-.357-.871-.504-1.32a13.281 13.281 0 00-.586-1.96c-.698-1.39-1.477-2.734-2.257-4.08-.542-.93-1.155-1.825-1.722-2.744-.306-.493-.778-.524-1.087-.03-.205.318-.308.694-.524.998-.575.822-1.206 1.593-1.782 2.41-1.587 2.26-.493 3.596.984 4.28 1.575.725 3.2 1.34 4.78 2.056a4.11 4.11 0 012.333 2.783 3.544 3.544 0 01-1.062 3.145c-.549.68-.4 1.255.451 1.51.852.256 1.765.412 2.644.641.972.249 1.939.516 2.906.78.355.081.71.176 1.06.287zm7.088-15.942a2.769 2.769 0 00-.684-.512c-1.111-.434-2.223-.88-3.365-1.216a37.713 37.713 0 00-4.158-1.032c-1.14-.17-2.293-.25-3.446-.237-.519.02-1.029.14-1.502.356-.594.246-.647.595-.285 1.13a7.39 7.39 0 003.633 2.504c.976.384 2.032.562 3.05.85.593.168 1.178.382 1.774.556.966.283 1.934.558 2.906.822.744.206 1.494.389 2.313.595a5.284 5.284 0 01-.237-3.83l.001.014zm-6.747 9.97c.025.258-.014.45.064.55.311.52.714.98 1.188 1.358a30.066 30.066 0 003.782 1.85c.815.27 1.653.465 2.503.584.984.206 1.972.383 2.956.58.14.037.278.085.411.144a.84.84 0 001.138-.724c.23-1.726-1.522-3.815-2.732-4.28a10.314 10.314 0 00-4.895-.693c-1.438.155-2.875.397-4.414.618l-.001.012z" fill="#003268"/></svg><svg fill="none" viewBox="0 0 51 51" id="logo_museum_mobile" xmlns="http://www.w3.org/2000/svg"><path d="M45.762 43.508c-4.534 4.095-15.282 10.81-33.368 4.13-1.284-.475-3.08-1.407-4.33-1.968-1.095-.493-2.46-1.397-3.519-1.968-.771-.41-1.266-.857-1.992-1.343-.77-.525-1.608-1.382-2.103-2.167-.433-.672-.62-2.049-.259-3.97.17-.896.533-1.874.788-2.755.295-.94.397-1.45.787-2.361.529-1.241 1.392-2.715 1.968-3.937.426-.904.719-1.473 1.181-2.362.454-.868 1.078-1.894 1.542-2.755.19-.353.6-.841.82-1.181.75-1.162 1.387-2.116 2.153-3.27.548-.825 1.088-1.667 1.712-2.436 1.1-1.361 2.257-2.678 3.397-4.004.886-1.033 1.754-2.074 2.69-3.056.914-.96 1.869-1.884 2.866-2.757a48.74 48.74 0 013.35-2.69c.66-.438 1.36-.814 2.09-1.12.78-.389 1.587-.853 2.412-1.136.907-.3 1.869-.474 2.82-.374.784.13 1.649.358 2.41.582 1.321.36 2.713 1.063 3.77 1.925.738.57 1.587 1.28 2.215 1.967.946 1.033 1.685 2.122 2.543 3.229.474.647.89 1.33 1.256 2.043.645 1.186 1.253 2.391 1.867 3.595.103.201.11.454.206.66.174.373.275.697.426 1.078.289.741.892 1.503 1.18 2.248C52.113 34.239 49.574 39 49.373 39.371c-.666 1.286-2.532 3.16-3.61 4.136zM29.205.763L29.19.688c-.523.138-1.046.258-1.551.421-.292.111-.577.24-.852.388-.96.383-1.895.828-2.796 1.333a29.36 29.36 0 00-3.275 2.472 43.862 43.862 0 00-3.38 3.194c-1.22 1.292-2.336 2.685-3.497 4.034-.157.18-.328.35-.478.532-.813.991-1.657 1.959-2.423 2.984-.697.936-1.323 1.925-1.96 2.908-.858 1.336-1.758 2.653-2.52 4.043-.941 1.718-1.75 3.511-2.637 5.256a31.87 31.87 0 00-1.96 4.633 16.865 16.865 0 00-.575 2.083c-.6 3.661-.021 4.392.564 5.223a7.176 7.176 0 002.696 2.167c1.4.716 2.852 1.338 4.299 1.962.935.417 1.891.787 2.864 1.108 16.199 5.126 25.211.367 26.225-.12 1.246-.619 2.459-1.3 3.635-2.04a20.803 20.803 0 002.45-1.718 11.335 11.335 0 003.753-4.707 17.3 17.3 0 00.59-2.421c.063-7.612-2.512-16.17-2.757-16.822-.166-.44-.286-.904-.462-1.336-.302-.748-.629-1.495-.949-2.237-.261-.606-.49-1.228-.804-1.808a51.548 51.548 0 00-1.533-2.601c-.436-.7-.877-1.402-1.371-2.067-.538-.718-1.134-1.396-1.72-2.078-.557-.646-1.097-1.322-1.715-1.916a11.138 11.138 0 00-1.829-1.444c-.63-.339-1.282-.636-1.952-.888-1-.406-2.07-.615-3.15-.616-.31.02-.618.07-.918.15l.004.003z" fill="#FF9F43"/><path d="M28.381 19.04c-.948-.021-1.75-.809-2.853-.22l.49.248c.246.11.483.237.71.38.09.064.097.243.176.468-.275-.076-.423-.113-.568-.16a3.194 3.194 0 00-1.96-.013c-.433.09-.88.09-1.313 0a1.446 1.446 0 01-1.062-.944 2.284 2.284 0 00-.864-.967 1.135 1.135 0 01-.304-1.636c.263-.375.441-.865.787-1.104.58-.341 1.191-.623 1.826-.842.239-.097.49-.16.746-.185a2.867 2.867 0 011.705.508 9.111 9.111 0 002.677 1.185.851.851 0 00.374-.066c.162-.05.317-.119.474-.18l.099.132c-.101.092-.193.248-.304.263a3.565 3.565 0 01-2.09-.172c-.649-.331-1.328-.6-2.027-.8a1.662 1.662 0 00-1.498.703c-.319.36-.617.737-.892 1.131a.393.393 0 00.119.6c.151.063.32.072.476.027.375-.058.743-.176 1.12-.209.86-.1 1.73.108 2.45.589.363.246.748.455 1.122.683a1.941 1.941 0 001.655.06 7.645 7.645 0 011.906-.44c.58.05 1.15.185 1.69.401.329.095.635.274.966.352.232.044.47.032.695-.036.43-.122.848-.291 1.268-.448a.442.442 0 00.228-.157c.248-.456.47-.926.72-1.381.12-.244.276-.47.46-.669.417-.47.891-.886 1.412-1.237a1.951 1.951 0 012.6.256c.155.162.253.37.28.593-.028.263-.047.532-.08.801-.069.536-.536.746-.885 1.04-.614.43-1.193.906-1.733 1.425a2.62 2.62 0 00-.547 2.522c.347 1.237.653 2.485.918 3.745.132.672.196 1.356.193 2.041-.033.516-.1 1.03-.204 1.536-.047.316-.095.633-.168.943a8.698 8.698 0 01-1.665 3.342 26.347 26.347 0 01-2.324 2.46 1.191 1.191 0 00-.477.951 9.737 9.737 0 01-.235 1.495 5.205 5.205 0 00-.108 1.244 1.952 1.952 0 01-1.653 1.746c-2.245-.035-4.492-.012-6.738-.04a10.312 10.312 0 01-1.526-.21 5.337 5.337 0 00-.65-.08c-.412-.169-.825-.336-1.237-.507a.845.845 0 01-.22-.118 3.16 3.16 0 00-2.021-.608c-1.163-.04-2.33.016-3.491-.006a8.14 8.14 0 01-1.8-.183 11.677 11.677 0 01-2.313-.809c-.47-.232-.592-.824-.655-1.333a6.809 6.809 0 00-.656-2.47 15.147 15.147 0 00-1.189-1.706A5.355 5.355 0 019.4 30.6c-.022-.142-.098-.275-.131-.418a1.25 1.25 0 01-.046-.516 5.735 5.735 0 011.676-2.886 16.92 16.92 0 011.642-1.541 13.37 13.37 0 012.1-1.009c1.162-.515 2.398-.27 3.604-.304.39.03.775.11 1.144.24.796.197 1.602.366 2.382.616.693.224 1.36.532 2.031.817.672.285 1.3.578 1.957.844a.531.531 0 00.38-.106 1.94 1.94 0 00.506-.407 2.166 2.166 0 011.215-.582c.217-.05.445-.036.655.04.388.137.768.294 1.139.471a6.101 6.101 0 012.23 1.899c.526.67.971 1.4 1.493 2.161l.3-.243c-.087-.131-.132-.228-.197-.311a1.963 1.963 0 01-.161-1.818c.19-.509.55-.935 1.02-1.206.301-.26.528-.594.656-.97a2.762 2.762 0 00.132-2.364c-.07-.13-.283-.322-.365-.294a.657.657 0 00-.372.38c-.087.29-.126.594-.116.897.012.373-.146.675-.478.618-.227-.04-.463-.366-.581-.618-.097-.207 0-.497-.037-.743a1.6 1.6 0 00-1.775-1.389 4.395 4.395 0 01-2.058-.394 1.69 1.69 0 01-1.05-1.985c.043-.143.072-.29.087-.439zm-7.029 18.201l.066-.144a1.166 1.166 0 00-.252-.22 5.872 5.872 0 01-2.039-1.776c-.815-1.009-.98-2.278-1.374-3.453-.093-.287-.227-.557-.321-.843a8.482 8.482 0 00-.374-1.253c-.447-.887-.944-1.746-1.443-2.606-.346-.595-.737-1.166-1.1-1.753-.195-.315-.497-.335-.694-.02-.131.204-.196.444-.335.638-.367.526-.77 1.018-1.138 1.54-1.014 1.443-.315 2.297.628 2.735 1.007.462 2.044.855 3.054 1.313a2.628 2.628 0 011.49 1.777 2.262 2.262 0 01-.678 2.01c-.35.434-.256.801.288.965.544.163 1.127.262 1.689.409.62.158 1.239.33 1.857.497.226.053.453.113.677.184zm4.529-10.184a1.768 1.768 0 00-.438-.327c-.71-.277-1.42-.562-2.149-.777a24.09 24.09 0 00-2.656-.659 13.893 13.893 0 00-2.202-.152c-.331.013-.657.09-.959.228-.38.157-.413.38-.182.722a4.72 4.72 0 002.321 1.6c.623.245 1.298.358 1.948.542.379.108.752.244 1.133.355.617.182 1.236.357 1.857.526.475.131.954.248 1.478.38a3.376 3.376 0 01-.152-2.447v.009zm-4.31 6.369c.015.165-.01.288.04.351.2.333.456.627.76.868a19.2 19.2 0 002.415 1.182 9.11 9.11 0 001.6.373c.628.131 1.26.244 1.888.37.09.024.177.054.262.092a.537.537 0 00.727-.462c.148-1.103-.972-2.437-1.745-2.734a6.59 6.59 0 00-3.127-.443c-.919.099-1.837.254-2.82.395v.008z" fill="#003268"/></svg></svg>