<svg width="120" height="115" viewBox="0 0 120 115" fill="none" xmlns="http://www.w3.org/2000/svg">
<path d="M119.31 17.6528C119.262 17.669 119.211 17.6757 119.16 17.6727C117.672 17.2682 116.678 18.1088 115.663 18.9355C113.897 20.3725 112.115 21.7919 110.337 23.2149C109.875 23.6132 109.389 23.9852 108.882 24.3291C108.56 24.5116 108.299 24.7787 108.13 25.0991C107.96 25.4195 107.888 25.7798 107.924 26.1379C107.964 33.0107 107.944 39.8834 107.944 46.7561L107.944 103.758C107.715 103.826 107.479 103.871 107.24 103.892L48.5328 103.892C39.4584 103.892 30.384 103.958 21.3109 103.836C20.5859 103.804 19.8649 103.956 19.2189 104.274C18.5729 104.593 18.0241 105.068 17.6263 105.654C16.2716 107.291 14.8623 108.888 13.4712 110.505C13.3307 110.643 13.1799 110.771 13.02 110.888C12.4721 111.392 12.0874 112.038 11.9124 112.749C11.7374 113.459 11.7797 114.203 12.034 114.891L118.806 114.891L119.31 114.794L119.31 17.6528Z" fill="#FF9F43"/>
<path d="M0.451263 97.2142C1.25658 97.2142 2.06189 97.2552 2.86478 97.2142C3.17703 97.1898 3.47213 97.0665 3.70406 96.8635C6.04845 94.6945 8.31279 92.4449 10.7299 90.3544C11.0402 90.0625 11.2721 89.7021 11.4054 89.3045C11.5388 88.9068 11.5696 88.4838 11.4952 88.072L11.4952 10.6913L48.8308 10.6913C65.2331 10.6913 81.639 10.6726 98.0412 10.7252C98.5585 10.725 99.0676 10.6007 99.5226 10.3635C99.9776 10.1263 100.364 9.7837 100.648 9.36652C101.683 8.16339 102.745 6.9813 103.792 5.78869C104.035 5.50574 104.278 5.21227 104.514 4.91995C104.667 4.7282 104.757 4.46162 104.957 4.33534C106.105 3.59989 105.939 2.48444 105.919 1.40291V-0.000160217L0.453682 -0.000160217L0.451263 97.2142Z" fill="#002B59"/>
<path d="M0.453125 114.774L0.956473 114.872L0.453125 114.774Z" fill="#002B59"/>
<path d="M91.345 81.9917C84.068 88.4002 66.8204 98.9105 37.7963 88.4564C35.7345 87.7127 33.6824 86.92 31.6764 86.0431C29.9178 85.2714 28.2089 84.3851 26.5097 83.4918C25.2719 82.8498 24.0689 82.1473 22.9052 81.3872C21.669 80.5653 20.6212 79.507 19.8271 78.2782C19.1333 77.2259 18.5306 75.5329 19.1115 72.528C19.3832 71.1249 19.6731 69.7218 20.0818 68.3433C20.556 66.8701 21.1988 65.4424 21.8246 64.0171C22.6736 62.0751 23.5456 60.1365 24.471 58.2236C25.155 56.8088 25.9385 55.442 26.6808 54.0518C27.4085 52.6932 28.1107 51.3252 28.8554 49.977C29.161 49.4252 29.5491 48.9142 29.9032 48.3822C31.1064 46.5629 32.2937 44.7295 33.5223 42.9242C34.4028 41.6311 35.2688 40.3145 36.2706 39.1102C38.0364 36.9799 39.8921 34.9197 41.7222 32.8443C43.1436 31.2273 44.536 29.5985 46.0375 28.0622C47.505 26.5597 49.038 25.1134 50.6377 23.7465C52.366 22.2733 54.1549 20.8597 56.0142 19.5373C57.0718 18.851 58.1952 18.2637 59.3688 17.7835C60.6213 17.1755 61.9142 16.6482 63.239 16.205C64.6945 15.7356 66.2378 15.5736 67.764 15.7303C69.0226 15.9334 70.2669 16.2114 71.4898 16.5628C73.609 17.1273 75.5808 18.1165 77.2762 19.466C78.4607 20.3582 79.5628 21.3475 80.5702 22.423C82.0887 24.04 83.5368 25.7436 84.9146 27.4764C85.6747 28.4894 86.3507 29.5587 86.9364 30.6742C87.9721 32.5298 88.9472 34.4158 89.932 36.2994C90.0982 36.6151 90.1746 36.9705 90.3286 37.2921C90.6076 37.8767 90.9581 38.4239 91.2006 39.0202C91.6639 40.1801 92.0399 41.3727 92.5032 42.5372C101.284 68.9618 95.8991 76.059 95.5765 76.6401C94.5076 78.6525 93.0746 80.4648 91.345 81.9917ZM65.2583 16.571L65.2316 16.4541C64.3924 16.6704 63.5543 16.8586 62.7429 17.1135C62.274 17.2867 61.8174 17.4894 61.3761 17.7203C59.834 18.319 58.3348 19.0159 56.8886 19.8062C55.0448 20.9758 53.2883 22.2686 51.6322 23.6752C49.7342 25.2477 47.9242 26.9162 46.2097 28.6737C44.251 30.6953 42.4608 32.8759 40.5967 34.9875C40.3457 35.2681 40.0703 35.5336 39.829 35.82C38.5252 37.3704 37.1705 38.8846 35.9419 40.4899C34.8225 41.9538 33.8182 43.5018 32.797 45.0406C31.4193 47.1311 29.9748 49.1925 28.7523 51.3672C27.2411 54.0565 25.9446 56.8626 24.5207 59.5939C23.2776 61.9274 22.226 64.3513 21.3759 66.8432C20.9965 67.9102 20.6878 68.9994 20.4517 70.1041C19.4899 75.8334 20.4177 76.9769 21.3577 78.2782C22.4906 79.7324 23.976 80.8966 25.6838 81.669C27.9312 82.7903 30.261 83.7631 32.5824 84.7394C34.083 85.3923 35.6172 85.971 37.179 86.4734C63.1747 94.4966 77.6376 87.0475 79.264 86.2851C81.2636 85.3174 83.2107 84.252 85.0977 83.0931C86.4743 82.2892 87.7888 81.3905 89.0309 80.4039C91.6885 78.515 93.7687 75.9703 95.0526 73.0377C95.4615 71.7983 95.778 70.5323 95.9998 69.2494C96.1005 57.3373 91.9684 43.9438 91.5754 42.9231C91.3086 42.2332 91.1158 41.5083 90.8332 40.8313C90.348 39.6621 89.8241 38.4929 89.3111 37.3318C88.8914 36.3836 88.5227 35.4096 88.0194 34.5023C87.2517 33.1191 86.4112 31.771 85.5598 30.431C84.8612 29.3355 84.1529 28.2376 83.3597 27.1969C82.4962 26.0733 81.5405 25.0117 80.6006 23.9441C79.7055 22.9339 78.8395 21.8746 77.8474 20.9462C76.954 20.0958 75.9702 19.3383 74.9124 18.6861C73.9018 18.1553 72.8552 17.6909 71.7797 17.2959C70.1755 16.6615 68.4585 16.3342 66.7246 16.3325C66.2267 16.3636 65.7331 16.4419 65.251 16.5663L65.2583 16.571Z" fill="#002B59"/>
<path d="M63.0448 45.25C61.5287 45.2172 60.248 44.0048 58.4846 44.9109L59.2693 45.2932C59.6608 45.4618 60.0394 45.6572 60.402 45.8779C60.5451 45.9772 60.5573 46.252 60.6846 46.5993C60.2444 46.4823 60.0079 46.4251 59.7762 46.3526C58.7599 46.0296 57.6641 46.0227 56.6435 46.3327C55.9519 46.4712 55.2381 46.4712 54.5465 46.3327C54.1576 46.2518 53.797 46.0756 53.4996 45.821C53.2021 45.5664 52.9778 45.242 52.8486 44.8793C52.5475 44.2646 52.0681 43.7473 51.4684 43.3897C51.2576 43.2612 51.0766 43.092 50.9368 42.8929C50.7969 42.6938 50.7013 42.469 50.6557 42.2325C50.6102 41.9961 50.6158 41.7532 50.6721 41.5189C50.7285 41.2847 50.8344 41.0642 50.9832 40.8712C51.4029 40.2948 51.6879 39.5395 52.2409 39.1712C53.1663 38.6464 54.1438 38.2124 55.159 37.8757C55.5399 37.7263 55.9409 37.6303 56.35 37.5904C57.3214 37.566 58.2758 37.8399 59.0752 38.3726C60.3895 39.1986 61.8336 39.8146 63.3516 40.1966C63.5566 40.207 63.7615 40.1726 63.9508 40.096C64.2091 40.0189 64.4565 39.9125 64.7076 39.8189L64.8652 40.0212C64.7039 40.1627 64.5572 40.4035 64.3801 40.4257C63.2644 40.6623 62.1007 40.5702 61.04 40.1615C60.0038 39.6514 58.919 39.2391 57.8005 38.9303C57.3385 38.8938 56.8745 38.9744 56.4548 39.1641C56.035 39.3538 55.674 39.6461 55.4076 40.0118C54.8979 40.5657 54.4217 41.1474 53.9813 41.754C53.9212 41.8233 53.8779 41.9047 53.8547 41.9922C53.8315 42.0797 53.8289 42.1712 53.8472 42.2598C53.8655 42.3484 53.9041 42.4319 53.9603 42.5042C54.0164 42.5766 54.0887 42.6358 54.1717 42.6777C54.4135 42.774 54.682 42.7884 54.9334 42.7186C55.5325 42.6297 56.1208 42.4473 56.7223 42.3971C58.0978 42.2424 59.4857 42.5635 60.6385 43.3032C61.2171 43.6832 61.8332 44.0048 62.4311 44.3555C62.8376 44.5576 63.2854 44.6706 63.7425 44.6863C64.1996 44.7021 64.6546 44.6203 65.0751 44.4467C66.0563 44.0962 67.0802 43.8687 68.1217 43.7697C69.0478 43.8471 69.9571 44.0555 70.8202 44.3883C71.3466 44.5332 71.8366 44.8103 72.3653 44.9296C72.7349 44.9971 73.1158 44.9783 73.4763 44.8747C74.164 44.6864 74.831 44.4257 75.5017 44.1836C75.6466 44.1429 75.7741 44.0585 75.8656 43.9428C76.2622 43.2412 76.6163 42.5175 77.0165 41.816C77.2095 41.4407 77.4574 41.0942 77.7527 40.787C78.418 40.0626 79.176 39.4226 80.0086 38.8824C80.6292 38.4414 81.3973 38.2376 82.1646 38.3104C82.9319 38.3831 83.6441 38.7273 84.1637 39.2764C84.4111 39.5261 84.5673 39.8466 84.6088 40.1896C84.5664 40.5941 84.5348 41.008 84.4815 41.4231C84.3723 42.2474 83.6264 42.5713 83.0685 43.0238C82.0877 43.6847 81.1615 44.4181 80.2984 45.2172C79.8173 45.7366 79.4839 46.3672 79.3307 47.0477C79.1775 47.7282 79.2096 48.4353 79.424 49.1003C79.9795 51.0045 80.4686 52.9264 80.8915 54.8657C81.1021 55.9009 81.2053 56.9537 81.1996 58.0086C81.148 58.8034 81.0394 59.5937 80.8745 60.374C80.7993 60.8592 80.7217 61.3479 80.6065 61.825C80.1164 63.7054 79.2085 65.4607 77.9456 66.9696C76.7932 68.3078 75.5527 69.5732 74.2319 70.7579C73.9958 70.9282 73.8039 71.1491 73.6715 71.4032C73.5392 71.6572 73.4698 71.9375 73.469 72.2218C73.4062 72.9974 73.2809 73.7671 73.0943 74.524C72.9569 75.153 72.8987 75.7956 72.9208 76.438C72.8553 77.1063 72.5597 77.7342 72.0809 78.2216C71.6021 78.709 70.9679 79.0278 70.2793 79.1272C66.6917 79.0723 63.1018 79.1085 59.513 79.0641C58.6929 79.0156 57.8776 78.9081 57.074 78.7425C56.731 78.6804 56.3843 78.6386 56.0359 78.6174C55.3773 78.359 54.7175 78.1018 54.059 77.8387C53.9334 77.795 53.8153 77.7335 53.7084 77.6563C52.7744 76.9969 51.6338 76.6667 50.4775 76.721C48.6194 76.6602 46.7553 76.7455 44.8985 76.7104C43.9325 76.72 42.9684 76.6259 42.0241 76.4298C40.7499 76.1409 39.5109 75.7235 38.3274 75.1846C37.5742 74.8268 37.3802 73.9148 37.2795 73.1314C37.1825 71.8115 36.8269 70.5213 36.2316 69.3291C35.6616 68.4129 35.027 67.5354 34.3323 66.703C33.491 65.6303 32.9347 64.3755 32.712 63.048C32.6768 62.8293 32.5543 62.6236 32.5022 62.4037C32.4203 62.147 32.3951 61.8765 32.4282 61.6098C32.8444 59.9054 33.777 58.3589 35.1073 57.1668C35.9261 56.3203 36.8025 55.5274 37.7307 54.7932C38.8 54.1826 39.9224 53.6631 41.0854 53.2405C42.9434 52.4466 44.9179 52.8242 46.8451 52.7728C47.469 52.8171 48.0841 52.9414 48.674 53.1423C49.9463 53.4451 51.2343 53.7058 52.4799 54.0905C53.5872 54.4343 54.652 54.909 55.7254 55.3474C56.7987 55.7859 57.8017 56.2384 58.8533 56.6476C59.0697 56.67 59.2868 56.6114 59.4597 56.4839C59.764 56.3204 60.0374 56.1085 60.2686 55.8572C60.8004 55.3676 61.4801 55.0539 62.2091 54.9616C62.5573 54.8845 62.921 54.9056 63.257 55.0224C63.876 55.2341 64.4832 55.4764 65.0763 55.7485C66.493 56.4294 67.7164 57.4326 68.6408 58.6716C69.48 59.704 70.192 60.8264 71.0264 61.9992L71.5042 61.625C71.366 61.4228 71.2944 61.2743 71.1913 61.1457C70.9163 60.7342 70.749 60.2644 70.704 59.7768C70.659 59.2892 70.7376 58.7984 70.933 58.3465C71.2365 57.564 71.8133 56.9079 72.5642 56.4909C73.0448 56.0912 73.4064 55.5755 73.6121 54.9967C73.9246 54.4431 74.1055 53.8294 74.1418 53.2001C74.1781 52.5708 74.0689 51.9416 73.8219 51.358C73.7092 51.1558 73.3708 50.8623 73.2386 50.9055C73.103 50.9578 72.9802 51.0368 72.878 51.1375C72.7759 51.2382 72.6967 51.3583 72.6455 51.4902C72.5058 51.9376 72.4428 52.404 72.4587 52.871C72.4794 53.4451 72.2259 53.9105 71.6959 53.8228C71.332 53.762 70.956 53.2592 70.7668 52.871C70.6116 52.5518 70.7668 52.1052 70.7086 51.7275C70.6243 51.0822 70.2788 50.4953 69.7474 50.0947C69.2159 49.6941 68.5417 49.5123 67.8718 49.589C66.7407 49.6452 65.6123 49.437 64.5826 48.9822C63.9634 48.7591 63.4506 48.3247 63.1414 47.7613C62.8323 47.198 62.7482 46.5449 62.9053 45.9258C62.9734 45.7052 63.0201 45.4789 63.0448 45.25ZM51.8128 73.2717L51.9171 73.0496C51.8005 72.9188 51.6649 72.805 51.5144 72.7117C50.2227 72.0567 49.1073 71.1203 48.2568 69.9768C46.9542 68.4241 46.691 66.4691 46.0616 64.6604C45.9124 64.2196 45.6977 63.8033 45.5473 63.3625C45.3998 62.7059 45.1999 62.0614 44.9494 61.4345C44.2363 60.0676 43.4419 58.7452 42.645 57.4217C42.092 56.5061 41.4662 55.6269 40.8877 54.7231C40.5748 54.2378 40.0933 54.2074 39.7779 54.6927C39.5681 55.006 39.4638 55.3755 39.2431 55.6748C38.6561 56.4839 38.0121 57.2416 37.4238 58.046C35.8035 60.2676 36.9205 61.5818 38.4281 62.2552C40.0363 62.9673 41.6942 63.573 43.3073 64.2768C43.8952 64.5268 44.4157 64.9036 44.8287 65.3782C45.2416 65.8527 45.5361 66.4124 45.6892 67.014C45.7844 67.5757 45.7354 68.1513 45.5463 68.6904C45.3573 69.2295 45.0341 69.7158 44.605 70.1066C44.0447 70.7754 44.1963 71.3413 45.0658 71.5927C45.9354 71.8441 46.8669 71.9973 47.7644 72.2229C48.7565 72.4673 49.7437 72.7304 50.731 72.9888C51.0936 73.0694 51.455 73.163 51.8128 73.2717ZM59.0485 57.5924C58.844 57.391 58.6084 57.2214 58.3499 57.0896C57.2159 56.6628 56.0807 56.2244 54.9152 55.8935C53.5213 55.4779 52.1041 55.1391 50.6703 54.8786C49.5062 54.7109 48.3301 54.6327 47.1531 54.6447C46.6233 54.6645 46.1026 54.7836 45.6201 54.9955C45.0137 55.2375 44.9591 55.5801 45.329 56.1074C46.2764 57.2731 47.5704 58.1322 49.0379 58.5698C50.0336 58.9475 51.1118 59.1217 52.15 59.4047C52.7564 59.5707 53.3531 59.7812 53.9619 59.9519C54.9476 60.2309 55.9364 60.5006 56.9285 60.761C57.6877 60.9632 58.453 61.1433 59.2899 61.3456C58.7221 60.1639 58.6355 58.8198 59.0473 57.5795L59.0485 57.5924ZM52.1609 67.3975C52.1863 67.6524 52.1463 67.8418 52.2264 67.9389C52.5441 68.451 52.9549 68.9037 53.4392 69.2753C54.6804 69.9679 55.9703 70.5758 57.2996 71.0946C58.1318 71.3597 58.9871 71.5518 59.855 71.6687C60.8593 71.871 61.8683 72.0452 62.8726 72.2393C63.0162 72.2752 63.1566 72.3225 63.2922 72.3808C63.4172 72.4264 63.5514 72.4433 63.6844 72.4302C63.8173 72.417 63.9452 72.3742 64.058 72.3051C64.1708 72.236 64.2653 72.1425 64.334 72.032C64.4028 71.9216 64.4439 71.7972 64.4541 71.6687C64.6894 69.971 62.9005 67.9167 61.6646 67.4595C60.0809 66.8453 58.366 66.6114 56.6677 66.7778C55.2002 66.9298 53.7327 67.1683 52.1621 67.3858L52.1609 67.3975Z" fill="#002B59"/>
<path d="M66.9857 42.1242C66.8696 42.2222 66.7377 42.3012 66.5951 42.358C66.4428 42.4017 66.2789 42.3866 66.1379 42.3159C66.0796 42.2658 66.0347 42.2029 66.007 42.1324C65.9794 42.062 65.9697 41.9862 65.979 41.9114C66.4193 41.0929 66.5624 40.0815 67.5981 39.6255C67.9383 39.5001 68.3033 39.45 68.6662 39.4787C69.0291 39.5074 69.3807 39.6144 69.6951 39.7916C69.9642 39.9886 70.2746 40.1266 70.6047 40.1961C70.498 39.0561 70.1851 38.0821 68.8728 37.7173L68.9334 37.5537C69.1687 37.4812 69.4186 37.3128 69.6332 37.3514C71.0231 37.5852 72.4324 37.812 73 39.373C73.2329 40.0055 73.5519 40.6077 73.8139 41.2309C73.9959 41.4882 74.2613 41.6801 74.5685 41.7766C74.8757 41.873 75.2075 41.8686 75.5118 41.764C75.7677 41.6693 76.0298 41.5912 76.2965 41.5302C76.3184 41.6537 76.3253 41.7793 76.3171 41.9044C76.039 42.3618 75.6437 42.7428 75.1691 43.0108C74.6944 43.2788 74.1564 43.4248 73.6065 43.4349C73.0693 43.3458 72.5621 43.1342 72.1271 42.8177C71.692 42.5013 71.3418 42.0891 71.1056 41.6156C70.9881 41.3664 70.7791 41.1679 70.519 41.0583C70.2589 40.9487 69.9659 40.9356 69.6963 41.0216C69.7509 41.8927 69.5435 42.2727 68.8704 42.5311C68.4714 42.662 68.4568 42.6597 66.9857 42.1242Z" fill="#002B59"/>
</svg>
