<svg width="78" height="93" viewBox="0 0 78 93" fill="none" xmlns="http://www.w3.org/2000/svg">
<g filter="url(#filter0_d_441_2)">
<path d="M70.4153 38.3357C74.0516 54.4294 37.3325 83.0021 37.3325 83.0021C37.3325 83.0021 4.96081 54.4294 6.51937 38.3357C6.51937 22.0735 15.6098 8.33594 37.3328 8.33594C59.0559 8.33594 70.4153 22.0735 70.4153 38.3357Z" fill="#FF9F43"/>
<circle cx="38.6664" cy="35.6664" r="30.9164" fill="white" stroke="#FF9F43" stroke-width="3.5"/>
<path d="M41.5688 25.2907C40.2712 25.262 39.175 24.2006 37.6656 24.9938L38.3372 25.3285C38.6724 25.4761 38.9964 25.6471 39.3068 25.8403C39.4293 25.9273 39.4397 26.1678 39.5487 26.4718C39.1718 26.3695 38.9694 26.3193 38.7711 26.2559C37.9013 25.9732 36.9633 25.9671 36.0897 26.2385C35.4978 26.3597 34.8869 26.3597 34.2949 26.2385C33.962 26.1677 33.6534 26.0134 33.3988 25.7905C33.1442 25.5676 32.9522 25.2837 32.8416 24.9662C32.5839 24.4281 32.1735 23.9751 31.6602 23.6622C31.4798 23.5496 31.3249 23.4015 31.2052 23.2272C31.0855 23.0529 31.0036 22.8561 30.9646 22.6491C30.9257 22.4422 30.9304 22.2295 30.9787 22.0244C31.0269 21.8194 31.1176 21.6263 31.245 21.4574C31.6041 20.9528 31.8481 20.2916 32.3215 19.9691C33.1135 19.5098 33.9502 19.1298 34.8191 18.835C35.1451 18.7043 35.4884 18.6202 35.8385 18.5853C36.67 18.564 37.4869 18.8037 38.1711 19.2701C39.2961 19.9932 40.5321 20.5324 41.8314 20.8668C42.0069 20.8759 42.1822 20.8458 42.3443 20.7788C42.5654 20.7112 42.7771 20.6181 42.992 20.5362L43.127 20.7133C42.9889 20.8371 42.8633 21.048 42.7117 21.0674C41.7568 21.2745 40.7608 21.1939 39.8528 20.8361C38.966 20.3896 38.0374 20.0287 37.0801 19.7583C36.6846 19.7263 36.2875 19.7969 35.9282 19.963C35.569 20.1291 35.26 20.3849 35.0319 20.7051C34.5957 21.1899 34.188 21.6992 33.8111 22.2302C33.7597 22.2909 33.7226 22.3621 33.7027 22.4387C33.6829 22.5154 33.6807 22.5954 33.6963 22.673C33.7119 22.7505 33.745 22.8237 33.7931 22.887C33.8412 22.9503 33.903 23.0022 33.9741 23.0388C34.181 23.1232 34.4109 23.1358 34.626 23.0746C35.1389 22.9969 35.6423 22.8372 36.1572 22.7932C37.3346 22.6578 38.5225 22.9389 39.5092 23.5864C40.0044 23.9191 40.5317 24.2006 41.0435 24.5076C41.3915 24.6845 41.7748 24.7834 42.166 24.7972C42.5572 24.811 42.9467 24.7394 43.3066 24.5875C44.1465 24.2806 45.0229 24.0814 45.9143 23.9948C46.707 24.0625 47.4852 24.245 48.224 24.5363C48.6745 24.6632 49.0939 24.9058 49.5465 25.0102C49.8629 25.0693 50.1889 25.0528 50.4974 24.9621C51.086 24.7973 51.657 24.569 52.2311 24.3572C52.3551 24.3215 52.4642 24.2476 52.5425 24.1463C52.8819 23.5322 53.1851 22.8986 53.5276 22.2845C53.6928 21.956 53.905 21.6526 54.1578 21.3837C54.7272 20.7496 55.376 20.1893 56.0886 19.7163C56.6199 19.3303 57.2773 19.1519 57.934 19.2156C58.5908 19.2793 59.2003 19.5806 59.6451 20.0613C59.8568 20.2799 59.9906 20.5605 60.0261 20.8607C59.9898 21.2148 59.9628 21.5772 59.9171 21.9405C59.8237 22.6621 59.1852 22.9457 58.7077 23.3418C57.8682 23.9204 57.0755 24.5624 56.3367 25.262C55.9249 25.7167 55.6396 26.2687 55.5084 26.8644C55.3772 27.4601 55.4047 28.0791 55.5882 28.6612C56.0637 30.3283 56.4824 32.0107 56.8443 33.7084C57.0246 34.6147 57.1129 35.5363 57.108 36.4598C57.0639 37.1555 56.9709 37.8474 56.8298 38.5304C56.7654 38.9552 56.699 39.3831 56.6004 39.8007C56.1809 41.4468 55.4038 42.9834 54.3228 44.3044C53.3365 45.4759 52.2747 46.5836 51.1442 47.6207C50.9421 47.7698 50.7779 47.9632 50.6646 48.1856C50.5512 48.408 50.4919 48.6533 50.4912 48.9022C50.4375 49.5812 50.3302 50.255 50.1704 50.9176C50.0529 51.4682 50.0031 52.0308 50.022 52.5932C49.966 53.1782 49.7129 53.7279 49.3031 54.1546C48.8933 54.5812 48.3504 54.8603 47.761 54.9474C44.6904 54.8993 41.6176 54.931 38.5459 54.8921C37.8439 54.8497 37.1461 54.7556 36.4583 54.6106C36.1646 54.5562 35.8679 54.5196 35.5697 54.5011C35.006 54.2749 34.4413 54.0497 33.8776 53.8194C33.7701 53.7811 33.669 53.7273 33.5776 53.6597C32.7781 53.0824 31.8018 52.7934 30.8121 52.8409C29.2217 52.7877 27.6262 52.8624 26.0369 52.8317C25.2101 52.8401 24.3849 52.7577 23.5766 52.586C22.486 52.3331 21.4255 51.9677 20.4125 51.4959C19.7678 51.1827 19.6017 50.3843 19.5156 49.6985C19.4325 48.5431 19.1282 47.4136 18.6186 46.3699C18.1307 45.5678 17.5876 44.7997 16.993 44.071C16.2729 43.132 15.7967 42.0335 15.6061 40.8713C15.576 40.6799 15.4711 40.4998 15.4265 40.3073C15.3564 40.0826 15.3348 39.8458 15.3632 39.6123C15.7194 38.1203 16.5176 36.7664 17.6563 35.7228C18.3572 34.9818 19.1073 34.2877 19.9017 33.645C20.817 33.1105 21.7777 32.6556 22.7731 32.2857C24.3634 31.5907 26.0535 31.9213 27.703 31.8763C28.2371 31.9151 28.7635 32.0238 29.2684 32.1997C30.3574 32.4648 31.4599 32.6931 32.526 33.0298C33.4738 33.3307 34.3852 33.7463 35.3039 34.1301C36.2226 34.514 37.0811 34.9101 37.9812 35.2684C38.1664 35.288 38.3522 35.2367 38.5002 35.1251C38.7606 34.9819 38.9947 34.7964 39.1926 34.5764C39.6478 34.1478 40.2295 33.8732 40.8536 33.7924C41.1515 33.7249 41.4629 33.7434 41.7505 33.8456C42.2803 34.0309 42.8 34.2431 43.3076 34.4812C44.5202 35.0773 45.5674 35.9556 46.3586 37.0401C47.0769 37.9439 47.6863 38.9266 48.4005 39.9532L48.8095 39.6257C48.6912 39.4486 48.6299 39.3186 48.5417 39.206C48.3062 38.8458 48.1631 38.4345 48.1246 38.0077C48.0861 37.5808 48.1533 37.1511 48.3206 36.7556C48.5804 36.0706 49.0741 35.4962 49.7168 35.1312C50.1281 34.7812 50.4376 34.3298 50.6137 33.8231C50.8812 33.3384 51.036 32.8012 51.0671 32.2503C51.0982 31.6994 51.0046 31.1486 50.7933 30.6377C50.6968 30.4607 50.4071 30.2038 50.294 30.2416C50.1779 30.2874 50.0728 30.3566 49.9854 30.4447C49.898 30.5328 49.8302 30.638 49.7863 30.7534C49.6668 31.1451 49.6128 31.5534 49.6265 31.9622C49.6441 32.4648 49.4272 32.8722 48.9735 32.7954C48.6621 32.7422 48.3403 32.3021 48.1783 31.9622C48.0455 31.6828 48.1783 31.2918 48.1285 30.9612C48.0564 30.3963 47.7606 29.8825 47.3057 29.5318C46.8509 29.1811 46.2738 29.0219 45.7004 29.0891C44.7323 29.1383 43.7664 28.9561 42.8851 28.5579C42.3551 28.3626 41.9161 27.9823 41.6515 27.4891C41.3869 26.996 41.315 26.4242 41.4494 25.8823C41.5077 25.6891 41.5477 25.4911 41.5688 25.2907ZM31.955 49.8214L32.0443 49.6269C31.9445 49.5124 31.8284 49.4128 31.6997 49.3311C30.594 48.7577 29.6393 47.938 28.9113 46.937C27.7964 45.5777 27.5712 43.8663 27.0324 42.2828C26.9047 41.8969 26.721 41.5326 26.5922 41.1467C26.4659 40.5719 26.2948 40.0076 26.0805 39.4588C25.4701 38.2623 24.7901 37.1046 24.1081 35.9459C23.6347 35.1445 23.099 34.3748 22.6039 33.5836C22.336 33.1588 21.9239 33.1322 21.654 33.557C21.4744 33.8313 21.3852 34.1547 21.1962 34.4167C20.6938 35.1251 20.1426 35.7883 19.6391 36.4925C18.2522 38.4373 19.2083 39.5878 20.4986 40.1774C21.8751 40.8007 23.2942 41.3309 24.6749 41.9471C25.1781 42.1659 25.6236 42.4958 25.9771 42.9112C26.3306 43.3267 26.5826 43.8166 26.7137 44.3433C26.7952 44.8349 26.7532 45.3388 26.5914 45.8108C26.4296 46.2828 26.1529 46.7085 25.7856 47.0506C25.306 47.6361 25.4358 48.1315 26.1801 48.3515C26.9244 48.5716 27.7217 48.7057 28.4899 48.9032C29.339 49.1172 30.184 49.3475 31.029 49.5737C31.3394 49.6443 31.6488 49.7262 31.955 49.8214ZM38.1483 36.0954C37.9733 35.9191 37.7715 35.7706 37.5503 35.6553C36.5797 35.2817 35.6081 34.8978 34.6105 34.6081C33.4174 34.2444 32.2043 33.9477 30.9771 33.7197C29.9807 33.5729 28.9741 33.5044 27.9667 33.515C27.5132 33.5323 27.0675 33.6366 26.6545 33.8221C26.1355 34.0339 26.0888 34.3338 26.4054 34.7955C27.2163 35.8159 28.3238 36.568 29.5799 36.9511C30.4321 37.2817 31.355 37.4342 32.2436 37.6819C32.7627 37.8273 33.2734 38.0115 33.7945 38.1609C34.6381 38.4052 35.4845 38.6413 36.3337 38.8692C36.9835 39.0463 37.6386 39.2039 38.3549 39.381C37.8689 38.3466 37.7948 37.1699 38.1472 36.0841L38.1483 36.0954ZM32.253 44.679C32.2748 44.9021 32.2405 45.0679 32.309 45.1529C32.581 45.6012 32.9326 45.9975 33.3471 46.3228C34.4094 46.9292 35.5136 47.4613 36.6514 47.9155C37.3636 48.1475 38.0957 48.3157 38.8386 48.4181C39.6982 48.5951 40.5619 48.7477 41.4214 48.9176C41.5444 48.949 41.6645 48.9904 41.7806 49.0414C41.8875 49.0814 42.0025 49.0962 42.1163 49.0847C42.23 49.0732 42.3395 49.0357 42.4361 48.9752C42.5326 48.9147 42.6135 48.8328 42.6723 48.7361C42.7312 48.6394 42.7663 48.5305 42.7751 48.4181C42.9765 46.9319 41.4453 45.1335 40.3875 44.7332C39.0319 44.1956 37.5641 43.9908 36.1105 44.1365C34.8544 44.2696 33.5983 44.4784 32.254 44.6688L32.253 44.679Z" fill="#003268"/>
</g>
<defs>
<filter id="filter0_d_441_2" x="0" y="0" width="77.333" height="92.002" filterUnits="userSpaceOnUse" color-interpolation-filters="sRGB">
<feFlood flood-opacity="0" result="BackgroundImageFix"/>
<feColorMatrix in="SourceAlpha" type="matrix" values="0 0 0 0 0 0 0 0 0 0 0 0 0 0 0 0 0 0 127 0" result="hardAlpha"/>
<feOffset dy="3"/>
<feGaussianBlur stdDeviation="3"/>
<feComposite in2="hardAlpha" operator="out"/>
<feColorMatrix type="matrix" values="0 0 0 0 0 0 0 0 0 0 0 0 0 0 0 0 0 0 0.25 0"/>
<feBlend mode="normal" in2="BackgroundImageFix" result="effect1_dropShadow_441_2"/>
<feBlend mode="normal" in="SourceGraphic" in2="effect1_dropShadow_441_2" result="shape"/>
</filter>
</defs>
</svg>
