<svg width="65" height="61" viewBox="0 0 65 61" fill="none" xmlns="http://www.w3.org/2000/svg">
<g filter="url(#filter0_d_1_689)">
<path d="M54.5 1H10.5C7.4475 1 5 3.52167 5 6.66667V46.3333C5 49.4783 7.4475 52 10.5 52H54.5C57.5525 52 60 49.4783 60 46.3333V6.66667C60 3.52167 57.5525 1 54.5 1ZM13.25 12.3333H27V29.3333H13.25V12.3333ZM51.75 40.6667H13.25V35H51.75V40.6667ZM51.75 29.3333H32.5V23.6667H51.75V29.3333ZM51.75 18H32.5V12.3333H51.75V18Z" fill="#002B59"/>
</g>
<defs>
<filter id="filter0_d_1_689" x="0" y="0" width="65" height="61" filterUnits="userSpaceOnUse" color-interpolation-filters="sRGB">
<feFlood flood-opacity="0" result="BackgroundImageFix"/>
<feColorMatrix in="SourceAlpha" type="matrix" values="0 0 0 0 0 0 0 0 0 0 0 0 0 0 0 0 0 0 127 0" result="hardAlpha"/>
<feOffset dy="4"/>
<feGaussianBlur stdDeviation="2.5"/>
<feComposite in2="hardAlpha" operator="out"/>
<feColorMatrix type="matrix" values="0 0 0 0 0 0 0 0 0 0 0 0 0 0 0 0 0 0 0.25 0"/>
<feBlend mode="normal" in2="BackgroundImageFix" result="effect1_dropShadow_1_689"/>
<feBlend mode="normal" in="SourceGraphic" in2="effect1_dropShadow_1_689" result="shape"/>
</filter>
</defs>
</svg>
