<svg width="93" height="78" viewBox="0 0 93 78" fill="none" xmlns="http://www.w3.org/2000/svg">
<g filter="url(#filter0_d_247_1937)">
<path d="M71.3282 41.8535C70.6611 41.8566 70.0081 41.6617 69.4518 41.2934C68.8956 40.9251 68.4612 40.4 68.2037 39.7845C67.9462 39.1691 67.8772 38.4911 68.0054 37.8364C68.1336 37.1817 68.4533 36.5798 68.9239 36.107C69.3945 35.6341 69.9948 35.3116 70.6489 35.1803C71.303 35.049 71.9813 35.1147 72.5979 35.3693C73.2146 35.6239 73.7418 36.0557 74.1128 36.6102C74.4837 37.1647 74.6818 37.8168 74.6818 38.4839C74.6849 38.9259 74.6005 39.3642 74.4333 39.7734C74.2661 40.1826 74.0194 40.5546 73.7076 40.868C73.3958 41.1813 73.025 41.4297 72.6166 41.5988C72.2082 41.768 71.7703 41.8545 71.3282 41.8535ZM54.9344 41.8535C54.2673 41.8566 53.6143 41.6617 53.058 41.2934C52.5018 40.9251 52.0674 40.4 51.8099 39.7845C51.5524 39.1691 51.4834 38.4911 51.6116 37.8364C51.7398 37.1817 52.0594 36.5798 52.53 36.107C53.0006 35.6341 53.601 35.3116 54.2551 35.1803C54.9092 35.049 55.5875 35.1147 56.2041 35.3693C56.8208 35.6239 57.348 36.0557 57.7189 36.6102C58.0899 37.1647 58.288 37.8168 58.288 38.4839C58.2914 38.926 58.207 39.3644 58.0399 39.7737C57.8728 40.183 57.6262 40.5551 57.3143 40.8684C57.0024 41.1818 56.6315 41.4302 56.223 41.5993C55.8145 41.7684 55.3765 41.8548 54.9344 41.8535ZM79.3382 60.9253C84.5546 57.1851 87.9082 51.5771 87.9082 45.2198C87.9082 33.8146 76.9169 24.4648 63.1321 24.4648C49.3473 24.4648 38.3545 33.8146 38.3545 45.2198C38.3545 56.6251 49.3457 65.9732 63.1321 65.9732C65.9257 65.9732 68.7208 65.5994 71.1421 64.85C71.5416 64.712 71.7005 64.6623 71.8866 64.6623C72.3465 64.6732 72.7958 64.8025 73.1911 65.0378L78.6017 68.2164C78.7767 68.3082 78.9652 68.3716 79.1601 68.4041C79.3539 68.391 79.5364 68.3079 79.6736 68.1704C79.8108 68.0329 79.8935 67.8503 79.9062 67.6564C79.8938 67.4452 79.8523 67.2368 79.7827 67.0371C79.7169 66.8028 78.9804 64.4698 78.6017 62.9823C78.567 62.7988 78.5493 62.6124 78.5488 62.4255C78.5509 62.1292 78.6251 61.8378 78.7649 61.5765C78.9046 61.3151 79.1058 61.0917 79.351 60.9253" fill="#003268"/>
</g>
<g filter="url(#filter1_d_247_1937)">
<path d="M45.2475 22.5954C44.2061 22.5954 43.2074 22.1818 42.4711 21.4454C41.7348 20.7091 41.3211 19.7104 41.3211 18.6691C41.3211 17.6277 41.7348 16.629 42.4711 15.8927C43.2074 15.1564 44.2061 14.7427 45.2475 14.7427C47.2965 14.7427 49.1594 16.612 49.1594 18.6691C49.3455 20.7261 47.4826 22.5954 45.2475 22.5954ZM25.5017 22.5954C24.7248 22.5983 23.9646 22.3706 23.3171 21.9412C22.6697 21.5118 22.1642 20.8999 21.8646 20.1831C21.565 19.4663 21.4848 18.6767 21.6342 17.9143C21.7835 17.1519 22.1557 16.4509 22.7036 15.9001C23.2515 15.3493 23.9504 14.9734 24.712 14.82C25.4736 14.6666 26.2636 14.7426 26.982 15.0384C27.7004 15.3341 28.315 15.8364 28.7478 16.4815C29.1806 17.1267 29.4124 17.8857 29.4136 18.6626C29.4095 19.7002 28.9964 20.6943 28.2641 21.4293C27.5318 22.1643 26.5393 22.581 25.5017 22.589V22.5954ZM35.3746 1.6543C18.9808 1.6543 5.75439 12.6857 5.75439 26.525C5.75439 34.0039 9.66631 40.735 15.9995 45.2229C16.5595 45.5936 16.6654 46.4216 16.6654 46.7425C16.6788 46.9873 16.6428 47.2323 16.5595 47.4629C15.9995 49.3322 15.2855 52.3584 15.255 52.5189C15.2245 52.6793 15.0689 53.0805 15.0689 53.2666C15.0609 53.3911 15.0795 53.5159 15.1234 53.6326C15.1673 53.7494 15.2355 53.8555 15.3235 53.944C15.4115 54.0324 15.5172 54.1011 15.6338 54.1456C15.7503 54.1901 15.875 54.2094 15.9995 54.2021C16.1994 54.1894 16.3924 54.1247 16.5595 54.0143L23.0837 50.2725C23.6436 49.8986 24.0159 49.8986 24.5743 49.8986C24.8938 49.9033 25.2097 49.9664 25.5065 50.0848C28.4862 51.0202 31.8397 51.3941 35.1933 51.3941H36.87C36.2593 49.3942 35.9452 47.3156 35.9378 45.2245C35.9378 32.6961 48.0474 22.6002 62.9506 22.6002H64.6273C62.5719 10.8163 50.2778 1.6543 35.3746 1.6543Z" fill="#003268"/>
</g>
<defs>
<filter id="filter0_d_247_1937" x="33.3545" y="23.4648" width="59.5537" height="53.9395" filterUnits="userSpaceOnUse" color-interpolation-filters="sRGB">
<feFlood flood-opacity="0" result="BackgroundImageFix"/>
<feColorMatrix in="SourceAlpha" type="matrix" values="0 0 0 0 0 0 0 0 0 0 0 0 0 0 0 0 0 0 127 0" result="hardAlpha"/>
<feOffset dy="4"/>
<feGaussianBlur stdDeviation="2.5"/>
<feComposite in2="hardAlpha" operator="out"/>
<feColorMatrix type="matrix" values="0 0 0 0 0 0 0 0 0 0 0 0 0 0 0 0 0 0 0.4 0"/>
<feBlend mode="normal" in2="BackgroundImageFix" result="effect1_dropShadow_247_1937"/>
<feBlend mode="normal" in="SourceGraphic" in2="effect1_dropShadow_247_1937" result="shape"/>
</filter>
<filter id="filter1_d_247_1937" x="0.754395" y="0.654297" width="68.873" height="62.5488" filterUnits="userSpaceOnUse" color-interpolation-filters="sRGB">
<feFlood flood-opacity="0" result="BackgroundImageFix"/>
<feColorMatrix in="SourceAlpha" type="matrix" values="0 0 0 0 0 0 0 0 0 0 0 0 0 0 0 0 0 0 127 0" result="hardAlpha"/>
<feOffset dy="4"/>
<feGaussianBlur stdDeviation="2.5"/>
<feComposite in2="hardAlpha" operator="out"/>
<feColorMatrix type="matrix" values="0 0 0 0 0 0 0 0 0 0 0 0 0 0 0 0 0 0 0.4 0"/>
<feBlend mode="normal" in2="BackgroundImageFix" result="effect1_dropShadow_247_1937"/>
<feBlend mode="normal" in="SourceGraphic" in2="effect1_dropShadow_247_1937" result="shape"/>
</filter>
</defs>
</svg>
