<svg width="136" height="135" viewBox="0 0 136 135" fill="none" xmlns="http://www.w3.org/2000/svg">
<path d="M67.8719 134.919C105.034 134.919 135.159 104.793 135.159 67.6312C135.159 30.4694 105.034 0.34375 67.8719 0.34375C30.7101 0.34375 0.584473 30.4694 0.584473 67.6312C0.584473 104.793 30.7101 134.919 67.8719 134.919Z" fill="#DDDDDD"/>
<path d="M86.4009 95.7179C98.2506 95.7179 107.857 86.1119 107.857 74.2623C107.857 62.4127 98.2506 52.8066 86.4009 52.8066C74.5513 52.8066 64.9453 62.4127 64.9453 74.2623C64.9453 86.1119 74.5513 95.7179 86.4009 95.7179Z" fill="#FF9F43"/>
<path d="M96.1008 61.9668L87.2964 70.7702C87.0076 70.6711 86.7069 70.6106 86.4022 70.5904C85.8354 70.5531 85.2681 70.6564 84.7508 70.8913C84.2336 71.1261 83.7823 71.4852 83.4373 71.9365C83.0923 72.3878 82.8642 72.9174 82.7732 73.4782C82.6823 74.0389 82.7313 74.6135 82.916 75.1507L74.1081 83.9594C73.7756 84.3053 73.5919 84.7678 73.5967 85.2476C73.6014 85.7274 73.7941 86.1862 74.1333 86.5254C74.4726 86.8647 74.9314 87.0574 75.4112 87.0621C75.891 87.0668 76.3535 86.8832 76.6994 86.5507L85.5081 77.7428C86.045 77.9267 86.6191 77.9752 87.1793 77.8839C87.7395 77.7927 88.2685 77.5645 88.7193 77.2197C89.1702 76.8749 89.5289 76.4241 89.7636 75.9073C89.9983 75.3905 90.1018 74.8238 90.0649 74.2574C90.0426 73.953 89.9822 73.6526 89.8851 73.3632L98.6929 64.558C99.0254 64.2121 99.2091 63.7496 99.2043 63.2698C99.1996 62.7901 99.0069 62.3313 98.6677 61.992C98.3284 61.6527 97.8696 61.46 97.3898 61.4553C96.91 61.4506 96.4475 61.6342 96.1016 61.9668H96.1008ZM113.894 92.5813C113.891 95.0112 112.925 97.3409 111.207 99.0594C109.489 100.778 107.16 101.745 104.73 101.748H42.4161C39.9861 101.745 37.6567 100.778 35.9387 99.0594C34.2207 97.3409 33.2545 95.0112 33.252 92.5813V55.9292C33.2554 53.4999 34.2221 51.171 35.9399 49.4533C37.6578 47.7356 39.9867 46.7692 42.4161 46.7659H104.73C107.159 46.7692 109.488 47.7356 111.206 49.4533C112.924 51.171 113.89 53.4999 113.894 55.9292V92.5813ZM107.659 43.4665C107.461 43.3188 107.235 43.2117 106.996 43.1511L31.8521 24.8237C31.6181 24.7666 31.3753 24.7562 31.1373 24.793C30.8993 24.8298 30.671 24.9132 30.4652 25.0382C30.0496 25.2908 29.7514 25.6981 29.6362 26.1706C29.521 26.6431 29.5981 27.1419 29.8507 27.5575C30.1033 27.973 30.5107 28.2712 30.9831 28.3865L91.3102 43.0998H42.4161C39.0143 43.103 35.7528 44.4556 33.3473 46.8609C30.9417 49.2661 29.5886 52.5274 29.5849 55.9292V92.5813C29.5926 95.659 30.7084 98.6311 32.7281 100.953C34.7479 103.276 37.5365 104.793 40.5834 105.227V107.247C40.5837 107.733 40.7768 108.199 41.1205 108.542C41.4641 108.886 41.9301 109.079 42.4161 109.079H46.0814C46.5674 109.079 47.0334 108.886 47.377 108.542C47.7206 108.199 47.9138 107.733 47.914 107.247V105.414H99.2317V107.247C99.2319 107.733 99.425 108.199 99.7687 108.542C100.112 108.886 100.578 109.079 101.064 109.079H104.73C105.216 109.079 105.682 108.886 106.025 108.542C106.369 108.199 106.562 107.733 106.562 107.247V105.227C109.609 104.792 112.397 103.275 114.416 100.952C116.435 98.6302 117.551 95.6586 117.559 92.5813V55.9292C117.552 53.0408 116.571 50.2391 114.775 47.9775C112.978 45.7158 110.471 44.1264 107.659 43.4665ZM55.2455 90.7521C54.5206 90.7521 53.8119 90.9671 53.2092 91.3698C52.6064 91.7726 52.1366 92.345 51.8592 93.0147C51.5818 93.6845 51.5092 94.4215 51.6506 95.1325C51.792 95.8435 52.1411 96.4966 52.6537 97.0092C53.1663 97.5218 53.8194 97.8708 54.5304 98.0123C55.2414 98.1537 55.9784 98.0811 56.6481 97.8037C57.3179 97.5263 57.8903 97.0565 58.2931 96.4537C58.6958 95.851 58.9108 95.1423 58.9108 94.4174C58.9103 93.4454 58.524 92.5134 57.8367 91.8261C57.1495 91.1389 56.2174 90.7526 55.2455 90.7521ZM86.4022 94.4174C82.415 94.4174 78.5172 93.235 75.202 91.0198C71.8867 88.8046 69.3027 85.6561 67.7768 81.9723C66.251 78.2885 65.8517 74.235 66.6296 70.3244C67.4075 66.4137 69.3275 62.8216 72.147 60.0021C74.9664 57.1827 78.5586 55.2627 82.4692 54.4848C86.3799 53.7069 90.4334 54.1061 94.1171 55.632C97.8009 57.1579 100.949 59.7418 103.165 63.0571C105.38 66.3724 106.562 70.2701 106.562 74.2574C106.556 79.6024 104.431 84.7268 100.651 88.5063C96.8717 92.2858 91.7472 94.4116 86.4022 94.4174ZM86.4022 50.4312C81.6897 50.4306 77.0828 51.8273 73.1642 54.445C69.2455 57.0626 66.1911 60.7835 64.3873 65.1371C62.5834 69.4907 62.111 74.2815 63.03 78.9035C63.9489 83.5256 66.2179 87.7713 69.5499 91.1038C72.8819 94.4363 77.1273 96.7059 81.7492 97.6255C86.3712 98.5451 91.162 98.0735 95.5158 96.2702C99.8697 94.467 103.591 91.4131 106.209 87.4949C108.827 83.5766 110.225 78.9699 110.225 74.2574C110.218 67.9411 107.706 61.8855 103.24 57.4189C98.7738 52.9522 92.7185 50.4393 86.4022 50.4312ZM38.7508 61.428H53.4128C53.6535 61.428 53.8918 61.3806 54.1142 61.2885C54.3365 61.1964 54.5385 61.0614 54.7087 60.8912C54.8789 60.721 55.0139 60.519 55.106 60.2967C55.1981 60.0743 55.2455 59.836 55.2455 59.5953C55.2455 59.3547 55.1981 59.1164 55.106 58.894C55.0139 58.6717 54.8789 58.4696 54.7087 58.2995C54.5385 58.1293 54.3365 57.9943 54.1142 57.9022C53.8918 57.8101 53.6535 57.7627 53.4128 57.7627H38.7508C38.2647 57.7627 37.7986 57.9558 37.4549 58.2995C37.1112 58.6432 36.9181 59.1093 36.9181 59.5953C36.9181 60.0814 37.1112 60.5475 37.4549 60.8912C37.7986 61.2349 38.2647 61.428 38.7508 61.428ZM38.7508 83.4215H53.4128C53.8989 83.4215 54.365 83.2284 54.7087 82.8847C55.0524 82.5411 55.2455 82.0749 55.2455 81.5889C55.2455 81.1028 55.0524 80.6367 54.7087 80.293C54.365 79.9493 53.8989 79.7562 53.4128 79.7562H38.7508C38.2647 79.7562 37.7986 79.9493 37.4549 80.293C37.1112 80.6367 36.9181 81.1028 36.9181 81.5889C36.9181 82.0749 37.1112 82.5411 37.4549 82.8847C37.7986 83.2284 38.2647 83.4215 38.7508 83.4215ZM42.4161 94.4183C42.0538 94.4183 41.6997 94.3109 41.3984 94.1097C41.0971 93.9085 40.8622 93.6226 40.7234 93.2879C40.5845 92.9533 40.548 92.5851 40.6183 92.2297C40.6887 91.8743 40.8628 91.5477 41.1187 91.2913C41.3745 91.0348 41.7007 90.8599 42.0559 90.7887C42.4111 90.7175 42.7795 90.7532 43.1144 90.8912C43.4494 91.0293 43.7359 91.2635 43.9378 91.5643C44.1397 91.8651 44.2479 92.219 44.2487 92.5813C44.2491 92.8222 44.2019 93.0608 44.11 93.2835C44.0181 93.5062 43.8831 93.7086 43.7129 93.8791C43.5427 94.0497 43.3406 94.185 43.1181 94.2773C42.8956 94.3697 42.657 94.4173 42.4161 94.4174V94.4183ZM42.4161 87.0868C41.3285 87.0868 40.2654 87.4093 39.3612 88.0136C38.457 88.6179 37.7523 89.4768 37.3363 90.4816C36.9203 91.4864 36.8116 92.592 37.024 93.6586C37.2365 94.7252 37.7604 95.7048 38.5297 96.4736C39.2989 97.2424 40.2789 97.7657 41.3456 97.9775C42.4123 98.1892 43.5179 98.0798 44.5225 97.6632C45.527 97.2465 46.3854 96.5413 46.9891 95.6367C47.5929 94.7321 47.9147 93.6688 47.914 92.5813C47.9115 91.1241 47.3314 89.7275 46.3008 88.6974C45.2702 87.6673 43.8732 87.0878 42.4161 87.0859V87.0868ZM38.7508 72.4213H53.4128C53.6535 72.4213 53.8918 72.3739 54.1142 72.2818C54.3365 72.1897 54.5385 72.0547 54.7087 71.8845C54.8789 71.7143 55.0139 71.5123 55.106 71.29C55.1981 71.0676 55.2455 70.8293 55.2455 70.5886C55.2455 70.348 55.1981 70.1096 55.106 69.8873C55.0139 69.665 54.8789 69.4629 54.7087 69.2928C54.5385 69.1226 54.3365 68.9876 54.1142 68.8955C53.8918 68.8034 53.6535 68.756 53.4128 68.756H38.7508C38.2647 68.756 37.7986 68.9491 37.4549 69.2928C37.1112 69.6364 36.9181 70.1026 36.9181 70.5886C36.9181 71.0747 37.1112 71.5408 37.4549 71.8845C37.7986 72.2282 38.2647 72.4213 38.7508 72.4213Z" fill="#003268"/>
</svg>
