<svg width="135" height="135" viewBox="0 0 135 135" fill="none" xmlns="http://www.w3.org/2000/svg">
<path d="M67.7054 134.575C104.867 134.575 134.993 104.449 134.993 67.2875C134.993 30.1256 104.867 0 67.7054 0C30.5436 0 0.417969 30.1256 0.417969 67.2875C0.417969 104.449 30.5436 134.575 67.7054 134.575Z" fill="#DDDDDD"/>
<path d="M74.3186 37.7988H68.6694V54.8027H74.3186V37.7988Z" fill="#FF9F43"/>
<path d="M72.8421 35.4077C75.7097 35.8422 76.7525 37.064 76.7525 39.9759V52.88C76.7525 55.8137 75.9548 56.8495 73.0785 57.5968V61.09H69.4679V57.6142C69.169 57.5351 68.9465 57.4725 68.7224 57.4204C67.875 57.2651 67.1104 56.8135 66.5653 56.1463C66.0203 55.4791 65.7302 54.6399 65.747 53.7785C65.7169 48.9123 65.7169 44.0441 65.747 39.1738C65.7344 38.3726 65.9903 37.5903 66.4739 36.9514C66.9576 36.3125 67.6411 35.8538 68.4156 35.6484C68.5807 35.5946 68.7432 35.532 68.9804 35.4477C68.4216 33.4439 67.1918 31.6927 65.4968 30.4868C63.5511 29.1371 61.2649 28.362 58.8996 28.2501C54.7258 27.7717 50.5025 28.5047 46.7341 30.3617C44.4201 31.4883 42.4455 33.2072 41.0108 35.3439C39.5762 37.4806 38.7326 39.9589 38.5658 42.5272C37.6197 50.9667 38.8291 59.5083 42.0807 67.3535C42.3588 68.0113 42.7081 68.6387 43.0253 69.28C43.0644 69.3574 43.1218 69.4269 43.2764 69.6563C43.8569 67.2458 44.4591 65.0056 47.4275 64.83V37.3542H51.0485V44.5988H63.8405V48.3353H51.1345V64.7831H91.3328V48.3527H78.6259V44.6857H91.3893V37.349H95.039V64.8031C97.3148 64.9951 98.3315 66.3481 98.8902 68.3659C101.141 76.4968 103.475 84.6042 105.755 92.7264C105.937 93.3876 106.032 94.0697 106.037 94.7555C106.065 98.0706 106.057 101.387 106.047 104.702C106.047 107.408 104.599 108.883 101.925 108.883C81.475 108.89 61.0253 108.89 40.5757 108.883C37.8871 108.883 36.4533 107.406 36.4446 104.703C36.4446 101.419 36.2656 98.1192 36.5055 94.8467C36.7714 92.7232 37.2416 90.6303 37.9097 88.5971C39.1393 84.1167 40.4532 79.6468 41.7001 75.1681C41.8126 74.7892 41.7747 74.3814 41.5941 74.0298C38.5649 69.3925 36.5512 64.1669 35.6852 58.696C34.694 53.7094 34.3841 48.6113 34.7641 43.5413C35.633 33.6846 41.363 26.7772 51.5455 24.9211C55.5951 24.0713 59.7966 24.2968 63.7319 25.5754C68.3591 27.1882 71.4657 30.2678 72.7196 35.088C72.7527 35.1974 72.7937 35.3042 72.8421 35.4077ZM40.1264 94.135H102.361L95.2032 68.8959L95.0007 68.9298V73.9698H91.3771V68.5735H88.0751C89.2864 75.9128 90.4908 83.1722 91.7021 90.4828H50.7808L54.4114 68.5483H51.0624V73.9629H47.4127V68.9733L47.278 68.9594C44.9031 77.3214 42.5283 85.6835 40.1264 94.135ZM40.1586 105.15H102.3V97.9133H40.1595L40.1586 105.15ZM67.4372 68.5231C66.9279 74.6346 66.4231 80.6887 65.9121 86.8123H76.5787C76.066 80.6834 75.5585 74.6129 75.0502 68.5231H67.4372ZM63.7449 68.537H58.1418C57.1312 74.6198 56.1206 80.6861 55.0952 86.8722C57.285 86.8722 59.361 86.8453 61.4387 86.887C62.1104 86.9018 62.272 86.6741 62.3224 86.0302C62.6292 81.9886 62.9889 77.9488 63.3261 73.9116C63.4642 72.1363 63.6007 70.3636 63.7458 68.5379L63.7449 68.537ZM87.4016 86.8722L84.355 68.5649H78.8136C78.7953 68.6166 78.7828 68.6702 78.7763 68.7247C79.2542 74.6065 79.7374 80.4865 80.2257 86.3647C80.2558 86.4771 80.3135 86.5801 80.3936 86.6644C80.4738 86.7486 80.5738 86.8114 80.6845 86.847C82.8821 86.8792 85.0789 86.8687 87.3999 86.8687L87.4016 86.8722ZM73.0003 53.7707V39.193H69.5053V53.7707H73.0003Z" fill="#003268"/>
<path d="M73.0566 101.535C73.053 101.893 72.9437 102.241 72.7424 102.537C72.5412 102.832 72.257 103.062 71.9256 103.196C71.5942 103.33 71.2305 103.364 70.8803 103.292C70.53 103.22 70.2089 103.046 69.9574 102.792C69.7058 102.537 69.5351 102.215 69.4666 101.864C69.3982 101.513 69.4351 101.149 69.5727 100.819C69.7104 100.489 69.9426 100.207 70.2401 100.009C70.5377 99.8109 70.8872 99.7051 71.2448 99.7051H71.2639C71.7411 99.7199 72.1942 99.9186 72.5283 100.26C72.8624 100.601 73.0517 101.058 73.0566 101.535Z" fill="#003268"/>
</svg>
