<svg width="136" height="135" viewBox="0 0 136 135" fill="none" xmlns="http://www.w3.org/2000/svg">
<path d="M67.9559 134.575C105.118 134.575 135.243 104.449 135.243 67.2875C135.243 30.1256 105.118 0 67.9559 0C30.7941 0 0.668457 30.1256 0.668457 67.2875C0.668457 104.449 30.7941 134.575 67.9559 134.575Z" fill="#DDDDDD"/>
<path fill-rule="evenodd" clip-rule="evenodd" d="M31.2798 99.4886L31.8186 95.0829L33.8171 90.964L37.8753 88.896L40.1084 87.6445C40.5384 88.6893 41.175 89.6366 41.9798 90.4294C42.7846 91.2223 43.7412 91.8444 44.7922 92.2588L41.942 96.7513L39.4134 100.288L33.8171 101.087L32.0792 100.948L31.2798 99.4886Z" fill="#FF9F43"/>
<path d="M25.4821 105.061C25.8102 105.061 26.1308 105.158 26.4036 105.34C26.6764 105.522 26.889 105.781 27.0146 106.084C27.1402 106.387 27.1731 106.721 27.1091 107.043C27.0452 107.364 26.8873 107.66 26.6554 107.892C26.4235 108.124 26.128 108.282 25.8063 108.346C25.4845 108.41 25.151 108.378 24.8479 108.252C24.5448 108.127 24.2856 107.914 24.1032 107.642C23.9209 107.369 23.8234 107.048 23.8232 106.72C23.8231 106.502 23.866 106.287 23.9493 106.085C24.0326 105.884 24.1548 105.701 24.3088 105.547C24.4629 105.393 24.6458 105.27 24.8471 105.187C25.0484 105.103 25.2642 105.061 25.4821 105.061Z" fill="#003268"/>
<path d="M67.857 62.9863C68.1844 62.9863 68.5045 63.0834 68.7767 63.2653C69.0489 63.4472 69.2611 63.7057 69.3864 64.0082C69.5117 64.3107 69.5445 64.6435 69.4806 64.9647C69.4167 65.2858 69.2591 65.5807 69.0276 65.8122C68.7961 66.0437 68.5011 66.2014 68.18 66.2653C67.8589 66.3292 67.526 66.2964 67.2236 66.1711C66.9211 66.0458 66.6625 65.8336 66.4806 65.5614C66.2987 65.2892 66.2017 64.9691 66.2017 64.6417C66.2017 64.2027 66.3761 63.7816 66.6865 63.4712C66.997 63.1607 67.418 62.9863 67.857 62.9863Z" fill="#003268"/>
<path d="M87.198 51.2788C86.6755 51.8015 86.0097 52.1575 85.2848 52.3018C84.56 52.4461 83.8086 52.3722 83.1258 52.0894C82.4429 51.8067 81.8593 51.3277 81.4486 50.7132C81.038 50.0987 80.8188 49.3763 80.8188 48.6372C80.8188 47.8981 81.038 47.1756 81.4486 46.5611C81.8593 45.9466 82.4429 45.4677 83.1258 45.1849C83.8086 44.9022 84.56 44.8282 85.2848 44.9725C86.0097 45.1168 86.6755 45.4728 87.198 45.9955C87.8984 46.6962 88.2919 47.6464 88.2919 48.6372C88.2919 49.6279 87.8984 50.5781 87.198 51.2788ZM84.5563 41.5899C82.9259 41.5898 81.3459 42.1551 80.0856 43.1893C78.8252 44.2236 77.9624 45.6629 77.6443 47.2619C77.3261 48.861 77.5723 50.5209 78.3407 51.9589C79.1092 53.3968 80.3525 54.5238 81.8588 55.1478C83.365 55.7719 85.041 55.8544 86.6013 55.3812C88.1615 54.908 89.5094 53.9085 90.4154 52.553C91.3213 51.1974 91.7292 49.5697 91.5695 47.9471C91.4099 46.3246 90.6926 44.8075 89.5399 43.6545C88.887 42.9979 88.1104 42.4774 87.2549 42.123C86.3995 41.7686 85.4823 41.5874 84.5563 41.5899Z" fill="#003268"/>
<path d="M44.5047 92.0429C44.1116 91.8473 43.6569 91.8158 43.2406 91.9552C42.8243 92.0947 42.4804 92.3938 42.2845 92.7868L40.3128 96.7475C39.888 97.5961 39.2496 98.3195 38.4603 98.8464C37.6711 99.3733 36.7582 99.6855 35.8116 99.7524L33.5175 99.9097C33.3782 99.9187 33.2386 99.898 33.1079 99.8488C32.9773 99.7996 32.8587 99.7231 32.76 99.6244C32.6613 99.5257 32.5848 99.4071 32.5356 99.2765C32.4864 99.1458 32.4657 99.0062 32.4747 98.8669L32.632 96.5737C32.699 95.6271 33.0112 94.7143 33.5381 93.925C34.065 93.1357 34.7883 92.4973 35.6369 92.0725L39.5968 90.1008C39.9898 89.9049 40.289 89.5609 40.4284 89.1444C40.5678 88.728 40.5361 88.2732 40.3402 87.8802C40.1443 87.4871 39.8003 87.188 39.3838 87.0485C38.9674 86.9091 38.5126 86.9409 38.1195 87.1368L34.1579 89.1041C32.7932 89.7873 31.6299 90.8142 30.7826 92.0835C29.9353 93.3529 29.4332 94.8211 29.3256 96.3434L29.1692 98.6366C29.129 99.2236 29.21 99.8126 29.407 100.367C29.6041 100.921 29.9129 101.429 30.3145 101.859C30.7161 102.289 31.2018 102.632 31.7414 102.867C32.281 103.101 32.8631 103.222 33.4514 103.222C33.5493 103.222 33.6472 103.219 33.7452 103.212L36.0392 103.054C37.5616 102.946 39.0296 102.444 40.2987 101.596C41.5677 100.748 42.5941 99.5845 43.2768 98.2195L45.2485 94.2588C45.443 93.8662 45.4739 93.4125 45.3345 92.9972C45.1951 92.5818 44.8967 92.2387 44.5047 92.0429Z" fill="#003268"/>
<path d="M104.911 29.0976C104.586 35.7966 102.815 42.3458 99.7183 48.2951C96.6219 54.2444 92.274 59.4526 86.9733 63.5616L61.0052 83.7129C58.8548 82.453 56.8448 80.9673 55.0093 79.2812L63.7624 70.5307C63.921 70.3781 64.0476 70.1953 64.1348 69.9931C64.2219 69.7909 64.2679 69.5734 64.27 69.3533C64.2721 69.1331 64.2303 68.9147 64.147 68.7109C64.0637 68.5071 63.9407 68.322 63.785 68.1663C63.6293 68.0106 63.4441 67.8876 63.2403 67.8043C63.0365 67.721 62.8182 67.6792 62.598 67.6813C62.3779 67.6834 62.1604 67.7294 61.9582 67.8165C61.756 67.9037 61.5732 68.0303 61.4205 68.1889L52.6735 76.9359C51.0643 75.1565 49.6419 73.2166 48.4286 71.1468L69.7183 44.9328C73.769 39.9584 78.8025 35.8733 84.5039 32.9328C90.2054 29.9924 96.4522 28.2599 102.854 27.8437L104.395 27.7455C104.469 27.7407 104.542 27.7516 104.611 27.7772C104.68 27.8029 104.743 27.8429 104.795 27.8945C104.847 27.9461 104.888 28.0082 104.915 28.0767C104.941 28.1453 104.953 28.2186 104.95 28.2921L104.911 29.0976ZM81.8543 78.2254C81.8631 81.4947 81.2235 84.7333 79.9724 87.7538C78.7212 90.7742 76.8834 93.5165 74.5654 95.822L67.472 102.915L66.4823 83.6538L81.8543 71.7256V78.2254ZM54.2968 85.8454C53.4321 86.5666 52.5467 87.3061 51.7238 87.9822C48.5984 86.2981 46.0341 83.7363 44.3471 80.6125L47.922 76.3684C49.0044 77.8202 50.188 79.1937 51.4639 80.4786C52.8802 81.9039 54.4061 83.2157 56.0277 84.402C55.4542 84.8765 54.872 85.3648 54.2968 85.8454ZM29.2862 64.7269L36.3796 57.6336C38.6822 55.3183 41.4207 53.4821 44.4369 52.2311C47.4531 50.98 50.6873 50.3389 53.9527 50.3447L60.8931 50.5489L48.572 65.7193L29.2862 64.7269ZM107.119 25.5366C106.735 25.1581 106.275 24.8651 105.769 24.6767C105.263 24.4884 104.723 24.4089 104.185 24.4434L102.639 24.539C95.7828 24.986 89.0924 26.8424 82.9862 29.9923C76.8799 33.1421 71.489 37.5177 67.1505 42.8455L63.5217 47.3129L54.0248 47.0365H53.977C50.2728 47.0259 46.6034 47.7501 43.181 49.1671C39.7585 50.5841 36.6511 52.6658 34.0386 55.2917L24.3114 65.0189C24.0848 65.2453 23.9288 65.5326 23.8623 65.8459C23.7957 66.1592 23.8215 66.4851 23.9365 66.784C24.0515 67.083 24.2507 67.3421 24.5101 67.5301C24.7694 67.7181 25.0777 67.8268 25.3976 67.843L45.9825 68.9006L45.1431 69.9338C44.9356 70.1882 44.8086 70.4986 44.7784 70.8255C44.7483 71.1524 44.8162 71.4809 44.9736 71.769C45.2963 72.3622 45.6341 72.9459 45.9869 73.52L41.1041 79.316C40.8997 79.5587 40.7693 79.8551 40.7285 80.1698C40.6877 80.4846 40.7381 80.8044 40.8739 81.0913C43.0125 85.6435 46.6758 89.3046 51.2293 91.4407C51.5115 91.5742 51.8257 91.6253 52.1357 91.5879C52.4457 91.5506 52.7388 91.4263 52.9812 91.2295C54.0326 90.3762 55.2457 89.3638 56.4188 88.3854C57.2547 87.6902 58.1098 86.9742 58.9092 86.3164C59.3866 86.606 59.87 86.8835 60.3595 87.1488C60.6422 87.3032 60.9638 87.3716 61.2848 87.3455C61.6058 87.3194 61.9121 87.2 62.1661 87.002L63.2958 86.1261L64.3585 106.802C64.3748 107.122 64.4835 107.43 64.6714 107.69C64.8594 107.949 65.1186 108.148 65.4175 108.263C65.7165 108.378 66.0424 108.404 66.3557 108.338C66.669 108.271 66.9562 108.115 67.1827 107.888L76.9072 98.1638C79.5332 95.5513 81.6149 92.4439 83.0319 89.0215C84.4489 85.5991 85.173 81.9296 85.1624 78.2254V69.156L88.9998 66.1781C94.6786 61.7767 99.3369 56.1976 102.654 49.8246C105.972 43.4515 107.87 36.4356 108.218 29.2592L108.257 28.4537C108.283 27.9145 108.196 27.3759 108 26.8729C107.804 26.37 107.504 25.914 107.119 25.5348V25.5366Z" fill="#003268"/>
</svg>
