<svg width="136" height="136" viewBox="0 0 136 136" fill="none" xmlns="http://www.w3.org/2000/svg">
<path d="M67.7152 135.069C104.877 135.069 135.003 104.943 135.003 67.7816C135.003 30.6198 104.877 0.494141 67.7152 0.494141C30.5534 0.494141 0.427734 30.6198 0.427734 67.7816C0.427734 104.943 30.5534 135.069 67.7152 135.069Z" fill="#DDDDDD"/>
<path fill-rule="evenodd" clip-rule="evenodd" d="M22.2962 59.7998L33.0191 55.6113L43.8292 59.7998L44.976 67.829L41.6567 75.3542L34.9742 81.4196L31.7243 81.6455L25.4417 76.8575L23.1477 69.9406L21.8965 64.1705L22.2962 59.7998Z" fill="#FF9F43"/>
<path d="M80.0636 24.5859C68.1509 24.5859 56.0923 27.4926 56.0923 33.0462V35.866H23.6608C23.1052 35.866 22.5551 35.9754 22.0418 36.1881C21.5285 36.4007 21.0621 36.7124 20.6693 37.1053C20.2765 37.4982 19.9649 37.9646 19.7524 38.4779C19.5399 38.9912 19.4306 39.5414 19.4307 40.097V73.9388C19.4307 75.0607 19.8763 76.1367 20.6696 76.93C21.4629 77.7233 22.5389 78.1689 23.6608 78.1689H25.0711V87.7675L19.5306 101.616C19.4648 101.782 19.4309 101.959 19.4307 102.138V106.368C19.4307 106.738 19.5036 107.105 19.6453 107.447C19.787 107.789 19.9947 108.1 20.2566 108.362C20.5184 108.623 20.8293 108.831 21.1714 108.973C21.5135 109.115 21.8802 109.188 22.2505 109.188H75.8335C76.2038 109.188 76.5704 109.115 76.9126 108.973C77.2547 108.831 77.5655 108.623 77.8274 108.362C78.0892 108.1 78.2969 107.789 78.4386 107.447C78.5803 107.105 78.6533 106.738 78.6533 106.368V102.14C78.653 101.962 78.6191 101.785 78.5533 101.619L73.0128 87.7675V86.2555C75.3025 86.4841 77.6531 86.6292 80.0627 86.6292C91.9754 86.6292 104.034 83.7225 104.034 78.1689V33.0462C104.035 27.4926 91.9754 24.5859 80.0636 24.5859ZM80.0636 27.4057C92.9747 27.4057 101.214 30.746 101.214 33.0462C101.214 35.3463 92.9747 38.6866 80.0636 38.6866C75.384 38.7321 70.716 38.2143 66.1601 37.1442C65.7679 36.7399 65.2984 36.4185 64.7795 36.1991C64.2606 35.9796 63.703 35.8667 63.1396 35.8668H62.3115C59.8219 34.7937 58.9095 33.7127 58.9095 33.0471C58.9121 30.7469 67.1525 27.4057 80.0636 27.4057ZM23.6608 38.6866H63.1396C63.5137 38.6866 63.8724 38.8352 64.1369 39.0997C64.4014 39.3642 64.55 39.7229 64.55 40.097V47.1478H22.2505V40.097C22.2505 39.7229 22.399 39.3642 22.6635 39.0997C22.928 38.8352 23.2867 38.6866 23.6608 38.6866ZM22.2505 73.9388V49.9675H64.5526V73.9388C64.5524 74.1242 64.5158 74.3077 64.4447 74.4789C64.3736 74.6501 64.2695 74.8055 64.1383 74.9364C64.007 75.0673 63.8513 75.1711 63.6799 75.2418C63.5086 75.3124 63.325 75.3486 63.1396 75.3483H56.572C58.1005 72.6284 58.9065 69.5622 58.913 66.4423V59.8381C58.9133 59.5512 58.826 59.271 58.6628 59.0349C58.4996 58.7989 58.2683 58.6183 57.9997 58.5173L46.7162 54.2863C46.3973 54.1687 46.047 54.1687 45.7282 54.2863L34.4499 58.5164C34.1803 58.6166 33.9478 58.7968 33.7837 59.0329C33.6195 59.269 33.5314 59.5497 33.5314 59.8373V66.4414C33.5378 69.5613 34.3438 72.6276 35.8724 75.3474H23.6608C23.2867 75.3474 22.928 75.1988 22.6635 74.9343C22.399 74.6699 22.2505 74.3111 22.2505 73.9371V73.9388ZM36.3512 66.4431V60.8148L46.2217 57.113L56.0923 60.8148V66.4431C56.083 69.5633 55.1372 72.6089 53.3774 75.1855C51.6175 77.7621 49.1248 79.7511 46.2217 80.8949C43.3187 79.7511 40.8259 77.7621 39.0661 75.1855C37.3063 72.6089 36.3605 69.5633 36.3512 66.4431ZM37.8058 78.1689C39.8283 80.612 42.4525 82.4859 45.4197 83.6061L45.7195 83.7199C46.0378 83.8384 46.3882 83.8384 46.7066 83.7199L47.0073 83.6061C49.9806 82.4887 52.6108 80.6145 54.6377 78.1689H63.1396C64.2615 78.1689 65.3375 77.7233 66.1308 76.93C66.9241 76.1367 67.3697 75.0607 67.3697 73.9388V58.4278H68.7801C69.1541 58.4278 69.5128 58.5764 69.7773 58.8409C70.0418 59.1054 70.1904 59.4641 70.1904 59.8381V86.6301H27.8909V78.1689H37.8058ZM58.6019 100.73L57.4601 96.1574C57.3839 95.8523 57.2079 95.5815 56.96 95.388C56.7122 95.1945 56.4068 95.0894 56.0923 95.0894H41.9916C41.6772 95.0894 41.3717 95.1945 41.1239 95.388C40.8761 95.5815 40.7 95.8523 40.6239 96.1574L39.482 100.73H22.9239L27.4356 89.449H70.6484L75.16 100.73H58.6019ZM55.6952 100.73H42.3887L43.0935 97.9101H54.9905L55.6952 100.73ZM22.2505 106.37V103.55H75.8335V106.369L22.2505 106.37ZM80.0636 83.8094C77.7086 83.8032 75.3554 83.675 73.0137 83.4253V74.9651C75.3555 75.2138 77.7086 75.342 80.0636 75.3492C88.4865 75.3492 96.9589 73.8893 101.214 71.0747V78.1689C101.214 80.4682 92.9747 83.8094 80.0636 83.8094ZM80.0636 72.5285C77.7082 72.525 75.3548 72.3936 73.0137 72.1349V63.6894C75.3556 63.9372 77.7086 64.0646 80.0636 64.0709C88.4865 64.0709 96.9589 62.611 101.214 59.7964V66.8906C101.214 69.1873 92.9747 72.5285 80.0636 72.5285ZM80.0636 61.2476C77.7082 61.2441 75.3548 61.1127 73.0137 60.8539V59.8381C73.0137 59.2825 72.9042 58.7324 72.6916 58.2191C72.479 57.7058 72.1673 57.2395 71.7744 56.8467C71.3815 56.4539 70.9151 56.1423 70.4017 55.9298C69.8884 55.7172 69.3383 55.6079 68.7827 55.608H67.3732V51.5751C71.5509 52.4035 75.8011 52.8111 80.0601 52.7917C88.483 52.7917 96.9554 51.3318 101.211 48.5172V55.608C101.214 57.9073 92.9747 61.2476 80.0636 61.2476ZM80.0636 49.9667C75.8026 49.9921 71.5505 49.5724 67.3767 48.7145V40.3142C71.5557 41.1314 75.8055 41.5323 80.0636 41.5108C88.4865 41.5108 96.9589 40.0509 101.214 37.2363V44.3306C101.214 46.6264 92.9747 49.9675 80.0636 49.9675V49.9667Z" fill="#003268"/>
<path d="M95.5747 41.5039H98.3945V44.3237H95.5747V41.5039Z" fill="#003268"/>
<path d="M89.9346 42.9199H92.7544V45.7397H89.9346V42.9199Z" fill="#003268"/>
<path d="M84.2944 44.3262H87.1142V47.146H84.2944V44.3262Z" fill="#003268"/>
<path d="M95.5747 52.7871H98.3945V55.6078H95.5747V52.7871Z" fill="#003268"/>
<path d="M89.9346 54.1953H92.7544V57.0151H89.9346V54.1953Z" fill="#003268"/>
<path d="M84.2944 55.6074H87.1142V58.4272H84.2944V55.6074Z" fill="#003268"/>
<path d="M95.5747 64.0684H98.3945V66.8882H95.5747V64.0684Z" fill="#003268"/>
<path d="M89.9346 65.4766H92.7544V68.2937H89.9346V65.4766Z" fill="#003268"/>
<path d="M84.2944 66.8867H87.1142V69.7065H84.2944V66.8867Z" fill="#003268"/>
<path d="M95.5747 75.3477H98.3945V78.1674H95.5747V75.3477Z" fill="#003268"/>
<path d="M89.9346 76.7598H92.7544V79.5796H89.9346V76.7598Z" fill="#003268"/>
<path d="M84.2944 78.168H87.1142V80.9878H84.2944V78.168Z" fill="#003268"/>
<path d="M88.5245 31.6367H71.604V34.4565H88.5245V31.6367Z" fill="#003268"/>
<path d="M25.0718 41.5039H27.8916V44.3237H25.0718V41.5039Z" fill="#003268"/>
<path d="M30.7124 41.5039H33.5322V44.3237H30.7124V41.5039Z" fill="#003268"/>
<path d="M36.3521 41.5039H39.1718V44.3237H36.3521V41.5039Z" fill="#003268"/>
<path d="M44.8123 73.9383C45.1861 73.9382 45.5446 73.7898 45.809 73.5255L52.8589 66.4747L50.8655 64.4805L44.8123 70.5337L41.5789 67.3003L39.5854 69.2945L43.8156 73.5247C44.0798 73.7892 44.4383 73.938 44.8123 73.9383Z" fill="#003268"/>
</svg>
