<svg width="136" height="136" viewBox="0 0 136 136" fill="none" xmlns="http://www.w3.org/2000/svg">
<path d="M67.7152 135.069C104.877 135.069 135.003 104.944 135.003 67.7819C135.003 30.6201 104.877 0.494446 67.7152 0.494446C30.5534 0.494446 0.427734 30.6201 0.427734 67.7819C0.427734 104.944 30.5534 135.069 67.7152 135.069Z" fill="#DDDDDD"/>
<path fill-rule="evenodd" clip-rule="evenodd" d="M34.3997 60.1888L45.1226 56.0003L55.9327 60.1888L57.0796 68.218L53.7603 75.7432L47.0778 81.8085L43.8278 82.0345L37.5452 77.2465L35.2513 70.3295L34 64.5595L34.3997 60.1888Z" fill="#FF9F43"/>
<path d="M80.0626 24.5862C68.15 24.5862 56.0913 27.4929 56.0913 33.0465V35.8663H23.6598C23.1042 35.8663 22.5541 35.9757 22.0408 36.1884C21.5275 36.401 21.0612 36.7127 20.6684 37.1056C20.2755 37.4985 19.964 37.9649 19.7514 38.4782C19.5389 38.9915 19.4296 39.5417 19.4297 40.0973V73.9391C19.4297 75.061 19.8754 76.137 20.6687 76.9303C21.462 77.7236 22.5379 78.1693 23.6598 78.1693H25.0701V87.7678L19.5296 101.617C19.4639 101.783 19.43 101.959 19.4297 102.138V106.368C19.4297 106.738 19.5026 107.105 19.6443 107.447C19.786 107.789 19.9937 108.1 20.2556 108.362C20.5174 108.624 20.8283 108.831 21.1704 108.973C21.5125 109.115 21.8792 109.188 22.2495 109.188H75.8325C76.2028 109.188 76.5695 109.115 76.9116 108.973C77.2537 108.831 77.5645 108.624 77.8264 108.362C78.0882 108.1 78.2959 107.789 78.4376 107.447C78.5793 107.105 78.6523 106.738 78.6523 106.368V102.141C78.652 101.962 78.6181 101.785 78.5524 101.619L73.0118 87.7678V86.2558C75.3016 86.4844 77.6521 86.6295 80.0617 86.6295C91.9744 86.6295 104.033 83.7228 104.033 78.1693V33.0465C104.034 27.4929 91.9744 24.5862 80.0626 24.5862ZM80.0626 27.406C92.9737 27.406 101.213 30.7463 101.213 33.0465C101.213 35.3466 92.9737 38.6869 80.0626 38.6869C75.383 38.7324 70.715 38.2146 66.1592 37.1445C65.7669 36.7402 65.2974 36.4188 64.7785 36.1994C64.2597 35.9799 63.702 35.867 63.1386 35.8672H62.3105C59.8209 34.794 58.9085 33.713 58.9085 33.0474C58.9111 30.7472 67.1515 27.406 80.0626 27.406ZM23.6598 38.6869H63.1386C63.5127 38.6869 63.8714 38.8355 64.1359 39.1C64.4004 39.3645 64.549 39.7232 64.549 40.0973V47.1481H22.2495V40.0973C22.2495 39.7232 22.3981 39.3645 22.6626 39.1C22.927 38.8355 23.2858 38.6869 23.6598 38.6869ZM22.2495 73.9391V49.9679H64.5516V73.9391C64.5515 74.1245 64.5148 74.308 64.4437 74.4792C64.3726 74.6504 64.2685 74.8058 64.1373 74.9367C64.0061 75.0676 63.8503 75.1714 63.679 75.2421C63.5076 75.3127 63.324 75.3489 63.1386 75.3486H56.571C58.0996 72.6287 58.9055 69.5625 58.912 66.4426V59.8384C58.9123 59.5515 58.8251 59.2713 58.6618 59.0352C58.4987 58.7992 58.2673 58.6186 57.9987 58.5176L46.7152 54.2866C46.3964 54.169 46.046 54.169 45.7272 54.2866L34.4489 58.5167C34.1793 58.6169 33.9469 58.7971 33.7827 59.0332C33.6185 59.2693 33.5305 59.55 33.5304 59.8376V66.4417C33.5368 69.5616 34.3428 72.6279 35.8714 75.3477H23.6598C23.2858 75.3477 22.927 75.1991 22.6626 74.9347C22.3981 74.6702 22.2495 74.3114 22.2495 73.9374V73.9391ZM36.3502 66.4434V60.8151L46.2208 57.1134L56.0913 60.8151V66.4434C56.082 69.5637 55.1362 72.6092 53.3764 75.1858C51.6166 77.7624 49.1238 79.7514 46.2208 80.8952C43.3177 79.7514 40.825 77.7624 39.0651 75.1858C37.3053 72.6092 36.3595 69.5637 36.3502 66.4434ZM37.8048 78.1693C39.8274 80.6123 42.4515 82.4862 45.4187 83.6064L45.7185 83.7202C46.0369 83.8387 46.3873 83.8387 46.7056 83.7202L47.0063 83.6064C49.9796 82.489 52.6098 80.6148 54.6367 78.1693H63.1386C64.2605 78.1693 65.3365 77.7236 66.1298 76.9303C66.9231 76.137 67.3688 75.061 67.3688 73.9391V58.4281H68.7791C69.1531 58.4281 69.5119 58.5767 69.7764 58.8412C70.0408 59.1057 70.1894 59.4644 70.1894 59.8384V86.6304H27.8899V78.1693H37.8048ZM58.6009 100.73L57.4591 96.1577C57.3829 95.8526 57.2069 95.5818 56.959 95.3883C56.7112 95.1948 56.4058 95.0897 56.0913 95.0898H41.9906C41.6762 95.0897 41.3708 95.1948 41.1229 95.3883C40.8751 95.5818 40.6991 95.8526 40.6229 96.1577L39.4811 100.73H22.9229L27.4346 89.4493H70.6474L75.159 100.73H58.6009ZM55.6942 100.73H42.3878L43.0925 97.9104H54.9895L55.6942 100.73ZM22.2495 106.371V103.55H75.8325V106.37L22.2495 106.371ZM80.0626 83.8097C77.7076 83.8035 75.3545 83.6753 73.0127 83.4256V74.9654C75.3545 75.2141 77.7076 75.3423 80.0626 75.3495C88.4855 75.3495 96.9579 73.8896 101.213 71.075V78.1693C101.213 80.4685 92.9737 83.8097 80.0626 83.8097ZM80.0626 72.5288C77.7073 72.5253 75.3538 72.3939 73.0127 72.1352V63.6897C75.3546 63.9375 77.7077 64.0649 80.0626 64.0712C88.4855 64.0712 96.9579 62.6113 101.213 59.7967V66.891C101.213 69.1876 92.9737 72.5288 80.0626 72.5288ZM80.0626 61.2479C77.7073 61.2444 75.3538 61.113 73.0127 60.8543V59.8384C73.0127 59.2829 72.9033 58.7327 72.6906 58.2194C72.478 57.7062 72.1663 57.2398 71.7734 56.847C71.3805 56.4542 70.9141 56.1426 70.4008 55.9301C69.8875 55.7175 69.3373 55.6082 68.7817 55.6083H67.3722V51.5754C71.5499 52.4038 75.8002 52.8114 80.0591 52.792C88.482 52.792 96.9544 51.3321 101.21 48.5175V55.6083C101.213 57.9076 92.9737 61.2479 80.0626 61.2479ZM80.0626 49.967C75.8016 49.9924 71.5496 49.5727 67.3757 48.7148V40.3145C71.5547 41.1318 75.8045 41.5326 80.0626 41.5111C88.4855 41.5111 96.9579 40.0512 101.213 37.2366V44.3309C101.213 46.6267 92.9737 49.9679 80.0626 49.9679V49.967Z" fill="#003268"/>
<path d="M95.5742 41.5042H98.394V44.324H95.5742V41.5042Z" fill="#003268"/>
<path d="M89.9336 42.9202H92.7534V45.74H89.9336V42.9202Z" fill="#003268"/>
<path d="M84.293 44.3265H87.1128V47.1463H84.293V44.3265Z" fill="#003268"/>
<path d="M95.5742 52.7874H98.394V55.6081H95.5742V52.7874Z" fill="#003268"/>
<path d="M89.9336 54.1956H92.7534V57.0154H89.9336V54.1956Z" fill="#003268"/>
<path d="M84.293 55.6077H87.1128V58.4275H84.293V55.6077Z" fill="#003268"/>
<path d="M95.5742 64.0687H98.394V66.8885H95.5742V64.0687Z" fill="#003268"/>
<path d="M89.9336 65.4769H92.7534V68.2941H89.9336V65.4769Z" fill="#003268"/>
<path d="M84.293 66.887H87.1128V69.7068H84.293V66.887Z" fill="#003268"/>
<path d="M95.5742 75.348H98.394V78.1678H95.5742V75.348Z" fill="#003268"/>
<path d="M89.9336 76.7601H92.7534V79.5799H89.9336V76.7601Z" fill="#003268"/>
<path d="M84.293 78.1683H87.1128V80.9881H84.293V78.1683Z" fill="#003268"/>
<path d="M88.524 31.637H71.6035V34.4568H88.524V31.637Z" fill="#003268"/>
<path d="M25.0703 41.5042H27.8901V44.324H25.0703V41.5042Z" fill="#003268"/>
<path d="M30.7109 41.5042H33.5307V44.324H30.7109V41.5042Z" fill="#003268"/>
<path d="M36.3516 41.5042H39.1714V44.324H36.3516V41.5042Z" fill="#003268"/>
<path d="M44.8108 73.9386C45.1846 73.9385 45.5431 73.7901 45.8075 73.5258L52.8574 66.4751L50.864 64.4808L44.8108 70.534L41.5774 67.3006L39.584 69.2948L43.8141 73.525C44.0784 73.7895 44.4369 73.9383 44.8108 73.9386Z" fill="#003268"/>
</svg>

