<svg width="60" height="61" viewBox="0 0 60 61" fill="none" xmlns="http://www.w3.org/2000/svg">
<path d="M46.8464 34.156L46.8462 34.1559C46.1227 33.4467 45.6259 32.7865 45.5495 32.019C45.4726 31.2477 45.834 30.5113 46.4175 29.6893L46.4179 29.6888C47.0491 28.8019 47.7023 27.9339 48.3524 27.0725L48.4691 26.918C49.0812 26.1072 49.6892 25.3018 50.2791 24.4834C50.3183 24.4289 50.3575 24.3746 50.3966 24.3203C51.5441 22.7272 52.6424 21.2024 53.2113 19.3983L53.2114 19.3979C53.3991 18.8041 53.3512 18.5405 53.2737 18.414C53.1957 18.2867 52.9828 18.1264 52.3791 18.0213C52.2073 17.9931 52.0204 17.9919 51.7908 17.9919H51.7902L44.2339 17.9826L44.2266 17.9826L44.2266 17.9826C43.8373 17.9764 43.5897 18.0584 43.4132 18.1843C43.2324 18.3134 43.0706 18.5283 42.9276 18.8889L42.9274 18.8895C42.4812 20.0103 42.017 21.1448 41.4771 22.2409C40.2717 24.7048 38.9044 27.1261 36.9733 29.1834L36.9728 29.184C36.9497 29.2085 36.9253 29.2347 36.8997 29.2623C36.7198 29.4559 36.4789 29.7152 36.2019 29.8968C35.8542 30.1247 35.4074 30.2616 34.8816 30.087L34.8742 30.0845L34.8669 30.0818C34.2229 29.8454 33.8726 29.2293 33.6877 28.7315C33.4983 28.2215 33.4253 27.6832 33.4332 27.3709L33.427 18.6542C33.3443 18.0543 33.2442 17.7272 33.0865 17.5173C32.9495 17.3349 32.7184 17.1778 32.1934 17.0689H24.3947C23.9423 17.0689 23.6353 17.1561 23.3886 17.2927C23.1464 17.4268 22.9305 17.6257 22.6812 17.9124C23.3844 18.0608 23.9686 18.3745 24.4067 18.8541C24.8595 19.3499 25.1251 19.9889 25.2326 20.7195C25.5508 22.866 25.5273 25.0117 25.3449 27.1375C25.2918 27.7783 25.1794 28.4469 24.9097 29.0889C24.6939 29.6033 24.36 30.0375 23.8501 30.1878C23.3394 30.3384 22.8241 30.1537 22.3655 29.8362C21.5567 29.277 20.9982 28.4961 20.5005 27.7937L20.4997 27.7927C18.5915 25.0848 17.074 22.1709 15.8359 19.1162L15.8355 19.1154C15.683 18.737 15.4879 18.4672 15.2623 18.2913C15.0422 18.1196 14.7659 18.0157 14.4051 18.0097C12.1436 17.9733 9.88152 17.968 7.61982 18.0127L7.61874 18.0128C6.98093 18.024 6.771 18.1874 6.7093 18.2865C6.64547 18.389 6.59286 18.6563 6.8552 19.241L6.85541 19.2415C9.31646 24.7417 12.0477 30.0654 15.6054 34.9066C17.4225 37.3783 19.4885 39.5347 22.1397 41.0546L22.1399 41.0547C25.1303 42.7706 28.361 43.2972 31.8066 43.137C32.6205 43.0979 32.9842 42.9709 33.1786 42.7854C33.366 42.6066 33.5054 42.2662 33.5424 41.4626C33.5424 41.4625 33.5425 41.4624 33.5425 41.4623L34.0419 41.4852C34.0928 40.3601 34.2224 39.238 34.7739 38.2274L46.8464 34.156ZM46.8464 34.156C47.2756 34.5764 47.7065 34.9858 48.1341 35.392C49.3091 36.5083 50.4594 37.6011 51.4837 38.8369C52.1037 39.5849 52.6691 40.3321 53.0959 41.1597L46.8464 34.156ZM22.5993 17.8959C22.5881 17.8938 22.5774 17.8916 22.5672 17.8895L22.2613 17.6336C22.822 16.9777 23.3496 16.5689 24.3947 16.5689H32.2433C33.4812 16.8112 33.7589 17.3711 33.927 18.6202L22.5993 17.8959ZM22.5584 17.8876C22.511 17.8775 22.4743 17.8675 22.4466 17.8585C22.4106 17.8468 22.3971 17.839 22.3976 17.8393C22.3984 17.8397 22.4222 17.8538 22.4492 17.8888C22.4629 17.9068 22.4765 17.9288 22.4876 17.9549C22.4987 17.981 22.5061 18.0078 22.5099 18.034C22.5175 18.0864 22.5095 18.1245 22.5053 18.1399C22.5035 18.1462 22.5021 18.1498 22.5019 18.1504C22.5015 18.1512 22.5031 18.1473 22.5081 18.1382C22.5168 18.1226 22.5317 18.0993 22.5557 18.0667C22.5604 18.0603 22.5654 18.0536 22.5706 18.0468L22.5584 17.8876ZM55.9149 0.5H4.08515C2.10148 0.5 0.5 2.11453 0.5 4.09751V56.1349C0.5 58.1213 2.10181 59.7324 4.08515 59.7324H55.9149C57.8982 59.7324 59.5 58.1213 59.5 56.1349V4.09751C59.5 2.11453 57.8985 0.5 55.9149 0.5Z" fill="#003268" stroke="white"/>
<rect x="5.63995" y="7.95996" width="53.3598" height="42.9198" fill="white"/>
<path fill-rule="evenodd" clip-rule="evenodd" d="M55.9149 1H4.08515C2.37983 1 1 2.38846 1 4.09751V56.1349C1 57.8471 2.37983 59.2324 4.08515 59.2324H55.9149C57.6202 59.2324 59 57.8471 59 56.1349V4.09751C59 2.38846 57.6202 1 55.9149 1ZM47.1962 33.7988C48.7774 35.3475 50.4495 36.8057 51.8687 38.5178C52.4957 39.2744 53.0889 40.055 53.5408 40.9316C54.1825 42.1876 53.601 43.5637 52.4834 43.6396L45.5387 43.6365C43.7463 43.7844 42.3178 43.0588 41.1131 41.8275C40.1552 40.8472 39.2597 39.7979 38.3349 38.7842C37.9585 38.3668 37.5605 37.9765 37.0877 37.6652C36.1391 37.0481 35.3161 37.2355 34.7739 38.2274C34.2224 39.238 34.0928 40.3601 34.0419 41.4852C33.9663 43.1277 33.4727 43.5575 31.8307 43.6365C28.3174 43.7999 24.9855 43.264 21.8911 41.4883C19.1584 39.9218 17.0435 37.7071 15.2025 35.2027C11.6145 30.3203 8.86635 24.96 6.39901 19.4457C5.84137 18.2028 6.24861 17.5368 7.60993 17.5128C9.87905 17.4679 12.1474 17.4733 14.4135 17.5097C15.3351 17.5252 15.9468 18.0541 16.2992 18.9284C17.5256 21.9539 19.0257 24.833 20.9085 27.5046C21.4121 28.2155 21.9242 28.9233 22.65 29.4251C23.4545 29.9819 24.0692 29.7999 24.4487 28.8954C24.6901 28.3208 24.7957 27.7098 24.8466 27.0958C25.0271 24.9933 25.0487 22.8886 24.7379 20.7923C24.5451 19.4821 23.807 18.6349 22.5058 18.3871C21.8425 18.2601 21.942 18.0154 22.2613 17.6336C22.822 16.9777 23.3496 16.5689 24.3947 16.5689H32.2433C33.4812 16.8112 33.7589 17.3711 33.927 18.6202L33.9332 27.3776C33.9185 27.8616 34.1746 29.295 35.0392 29.6125C35.7318 29.8425 36.1931 29.2826 36.6088 28.8412C38.4884 26.8387 39.8297 24.4706 41.0282 22.0205C41.5589 20.9433 42.017 19.8243 42.4628 18.7046C42.7914 17.876 43.3035 17.4679 44.2345 17.4826L51.7908 17.4919C52.0137 17.4919 52.2428 17.4919 52.4626 17.5283C53.7337 17.749 54.083 18.2996 53.6881 19.5487C53.0711 21.5055 51.8625 23.1395 50.6848 24.7757C49.4222 26.5274 48.0786 28.2178 46.8252 29.9788C45.6807 31.591 45.7709 32.4018 47.1962 33.7988Z" fill="#003268"/>
</svg>
