<svg width="56" height="56" viewBox="0 0 56 56" fill="none" xmlns="http://www.w3.org/2000/svg">
<circle cx="28" cy="28" r="27.375" fill="#003268" stroke="white" stroke-width="1.25"/>
<rect x="10.8662" y="14.209" width="34.2687" height="29.2537" fill="white"/>
<path fill-rule="evenodd" clip-rule="evenodd" d="M45.4742 8.35815H10.4436C9.291 8.35815 8.3584 9.29659 8.3584 10.4517V45.6227C8.3584 46.7799 9.291 47.7163 10.4436 47.7163H45.4742C46.6268 47.7163 47.5594 46.7799 47.5594 45.6227V10.4517C47.5594 9.29659 46.6268 8.35815 45.4742 8.35815ZM39.5815 30.5262C40.6502 31.573 41.7803 32.5585 42.7395 33.7157C43.1633 34.227 43.5642 34.7546 43.8697 35.3471C44.3034 36.196 43.9104 37.1261 43.155 37.1774L38.4612 37.1753C37.2497 37.2752 36.2843 36.7848 35.47 35.9527C34.8226 35.29 34.2173 34.5809 33.5923 33.8957C33.3379 33.6136 33.0689 33.3498 32.7494 33.1394C32.1082 32.7223 31.552 32.849 31.1855 33.5194C30.8128 34.2024 30.7252 34.9608 30.6908 35.7213C30.6397 36.8314 30.3061 37.1219 29.1962 37.1753C26.8217 37.2857 24.5697 36.9235 22.4783 35.7234C20.6313 34.6646 19.2019 33.1677 17.9576 31.4751C15.5325 28.1751 13.6751 24.5522 12.0075 20.8252C11.6306 19.9852 11.9058 19.5351 12.8259 19.5188C14.3596 19.4885 15.8927 19.4922 17.4243 19.5168C18.0472 19.5272 18.4606 19.8847 18.6989 20.4756C19.5277 22.5205 20.5416 24.4664 21.8141 26.2721C22.1545 26.7526 22.5007 27.2309 22.9912 27.5701C23.5349 27.9464 23.9504 27.8234 24.2069 27.2121C24.37 26.8237 24.4415 26.4108 24.4759 25.9958C24.5979 24.5748 24.6124 23.1522 24.4024 21.7354C24.272 20.8498 23.7732 20.2772 22.8937 20.1097C22.4454 20.0239 22.5127 19.8585 22.7285 19.6005C23.1075 19.1572 23.464 18.8808 24.1704 18.8808H29.4751C30.3118 19.0447 30.4995 19.4231 30.6131 20.2673L30.6173 26.1863C30.6074 26.5134 30.7804 27.4822 31.3648 27.6968C31.8329 27.8522 32.1447 27.4738 32.4257 27.1755C33.6961 25.822 34.6026 24.2215 35.4127 22.5655C35.7713 21.8374 36.081 21.0812 36.3823 20.3243C36.6044 19.7643 36.9505 19.4885 37.5797 19.4984L42.6869 19.5047C42.8375 19.5047 42.9923 19.5047 43.1409 19.5293C44 19.6785 44.2362 20.0506 43.9693 20.8948C43.5522 22.2174 42.7353 23.3218 41.9393 24.4277C41.086 25.6116 40.1779 26.7541 39.3308 27.9443C38.5571 29.034 38.6181 29.582 39.5815 30.5262Z" fill="#003268"/>
</svg>
