<svg width="146" height="145" viewBox="0 0 146 145" fill="none" xmlns="http://www.w3.org/2000/svg">
<g filter="url(#filter0_d_247_2238)">
<ellipse cx="72.8023" cy="68.4736" rx="68.3057" ry="68.0263" fill="white"/>
</g>
<g filter="url(#filter1_d_247_2238)">
<g filter="url(#filter2_d_247_2238)">
<path d="M92.3022 73.3388C91.7713 73.3413 91.2516 73.1868 90.8089 72.8949C90.3662 72.6029 90.0205 72.1867 89.8156 71.6989C89.6106 71.2112 89.5557 70.6738 89.6577 70.1549C89.7598 69.636 90.0142 69.1589 90.3887 68.7841C90.7632 68.4094 91.241 68.1537 91.7615 68.0496C92.2821 67.9456 92.8219 67.9977 93.3127 68.1995C93.8035 68.4012 94.223 68.7435 94.5183 69.183C94.8135 69.6224 94.9711 70.1393 94.9711 70.6681C94.9736 71.0184 94.9064 71.3658 94.7734 71.6901C94.6403 72.0145 94.444 72.3093 94.1958 72.5577C93.9477 72.806 93.6525 73.0029 93.3275 73.137C93.0025 73.271 92.654 73.3396 92.3022 73.3388ZM79.2552 73.3388C78.7243 73.3413 78.2045 73.1868 77.7619 72.8949C77.3192 72.6029 76.9735 72.1867 76.7686 71.6989C76.5636 71.2112 76.5087 70.6738 76.6107 70.1549C76.7128 69.636 76.9671 69.1589 77.3417 68.7841C77.7162 68.4094 78.194 68.1537 78.7145 68.0496C79.2351 67.9456 79.7749 67.9977 80.2657 68.1995C80.7564 68.4012 81.176 68.7435 81.4713 69.183C81.7665 69.6224 81.9241 70.1393 81.9241 70.6681C81.9268 71.0185 81.8597 71.3659 81.7267 71.6903C81.5937 72.0147 81.3974 72.3097 81.1492 72.558C80.901 72.8064 80.6058 73.0033 80.2807 73.1373C79.9556 73.2713 79.607 73.3398 79.2552 73.3388ZM98.6769 88.455C102.828 85.4905 105.497 81.0457 105.497 76.0069C105.497 66.9672 96.75 59.5566 85.7793 59.5566C74.8087 59.5566 66.0601 66.9672 66.0601 76.0069C66.0601 85.0467 74.8074 92.456 85.7793 92.456C88.0026 92.456 90.2271 92.1596 92.1541 91.5657C92.472 91.4564 92.5985 91.4169 92.7466 91.4169C93.1126 91.4256 93.4702 91.5281 93.7848 91.7145L98.0908 94.2339C98.2301 94.3066 98.3801 94.3569 98.5352 94.3827C98.6894 94.3722 98.8346 94.3064 98.9438 94.1974C99.053 94.0884 99.1188 93.9437 99.129 93.79C99.1191 93.6227 99.086 93.4575 99.0307 93.2991C98.9783 93.1135 98.3922 91.2643 98.0908 90.0854C98.0632 89.9399 98.0491 89.7922 98.0487 89.6441C98.0504 89.4092 98.1094 89.1782 98.2206 88.9711C98.3319 88.764 98.492 88.5869 98.6872 88.455" fill="#003268"/>
</g>
<g filter="url(#filter3_d_247_2238)">
<path d="M71.5458 58.0724C70.717 58.0724 69.9222 57.7446 69.3362 57.1609C68.7502 56.5773 68.421 55.7858 68.421 54.9604C68.421 54.1351 68.7502 53.3435 69.3362 52.7599C69.9222 52.1763 70.717 51.8484 71.5458 51.8484C73.1765 51.8484 74.6591 53.33 74.6591 54.9604C74.8072 56.5908 73.3246 58.0724 71.5458 58.0724ZM55.8311 58.0724C55.2129 58.0747 54.6078 57.8942 54.0925 57.5539C53.5772 57.2135 53.1749 56.7286 52.9365 56.1605C52.6981 55.5923 52.6343 54.9665 52.7531 54.3622C52.872 53.7579 53.1682 53.2023 53.6042 52.7658C54.0403 52.3292 54.5965 52.0313 55.2027 51.9097C55.8088 51.7881 56.4375 51.8483 57.0093 52.0828C57.581 52.3172 58.07 52.7153 58.4145 53.2266C58.759 53.7379 58.9434 54.3396 58.9444 54.9553C58.9411 55.7777 58.6124 56.5656 58.0296 57.1482C57.4468 57.7307 56.6569 58.061 55.8311 58.0673V58.0724ZM63.6885 41.4746C50.6415 41.4746 40.1152 50.218 40.1152 61.187C40.1152 67.1147 43.2285 72.4497 48.2688 76.0069C48.7145 76.3007 48.7988 76.9569 48.7988 77.2112C48.8095 77.4053 48.7808 77.5995 48.7145 77.7823C48.2688 79.2639 47.7006 81.6624 47.6763 81.7896C47.652 81.9168 47.5282 82.2347 47.5282 82.3822C47.5218 82.4809 47.5366 82.5798 47.5716 82.6724C47.6065 82.7649 47.6608 82.849 47.7308 82.9191C47.8008 82.9892 47.885 83.0437 47.9777 83.079C48.0705 83.1142 48.1697 83.1295 48.2688 83.1237C48.4279 83.1137 48.5815 83.0624 48.7145 82.9749L53.9067 80.0091C54.3524 79.7128 54.6487 79.7128 55.093 79.7128C55.3473 79.7165 55.5988 79.7665 55.835 79.8603C58.2063 80.6018 60.8753 80.8981 63.5442 80.8981H64.8786C64.3925 79.313 64.1425 77.6655 64.1367 76.0082C64.1367 66.0782 73.7741 58.0762 85.6348 58.0762H86.9693C85.3334 48.7364 75.5491 41.4746 63.6885 41.4746Z" fill="#003268"/>
</g>
</g>
<defs>
<filter id="filter0_d_247_2238" x="0.496582" y="0.447266" width="144.611" height="144.053" filterUnits="userSpaceOnUse" color-interpolation-filters="sRGB">
<feFlood flood-opacity="0" result="BackgroundImageFix"/>
<feColorMatrix in="SourceAlpha" type="matrix" values="0 0 0 0 0 0 0 0 0 0 0 0 0 0 0 0 0 0 127 0" result="hardAlpha"/>
<feOffset dy="4"/>
<feGaussianBlur stdDeviation="2"/>
<feComposite in2="hardAlpha" operator="out"/>
<feColorMatrix type="matrix" values="0 0 0 0 0 0 0 0 0 0 0 0 0 0 0 0 0 0 0.25 0"/>
<feBlend mode="normal" in2="BackgroundImageFix" result="effect1_dropShadow_247_2238"/>
<feBlend mode="normal" in="SourceGraphic" in2="effect1_dropShadow_247_2238" result="shape"/>
</filter>
<filter id="filter1_d_247_2238" x="36.1152" y="41.4746" width="73.3823" height="60.9082" filterUnits="userSpaceOnUse" color-interpolation-filters="sRGB">
<feFlood flood-opacity="0" result="BackgroundImageFix"/>
<feColorMatrix in="SourceAlpha" type="matrix" values="0 0 0 0 0 0 0 0 0 0 0 0 0 0 0 0 0 0 127 0" result="hardAlpha"/>
<feOffset dy="4"/>
<feGaussianBlur stdDeviation="2"/>
<feComposite in2="hardAlpha" operator="out"/>
<feColorMatrix type="matrix" values="0 0 0 0 0 0 0 0 0 0 0 0 0 0 0 0 0 0 0.25 0"/>
<feBlend mode="normal" in2="BackgroundImageFix" result="effect1_dropShadow_247_2238"/>
<feBlend mode="normal" in="SourceGraphic" in2="effect1_dropShadow_247_2238" result="shape"/>
</filter>
<filter id="filter2_d_247_2238" x="61.0601" y="58.5566" width="49.4375" height="44.8262" filterUnits="userSpaceOnUse" color-interpolation-filters="sRGB">
<feFlood flood-opacity="0" result="BackgroundImageFix"/>
<feColorMatrix in="SourceAlpha" type="matrix" values="0 0 0 0 0 0 0 0 0 0 0 0 0 0 0 0 0 0 127 0" result="hardAlpha"/>
<feOffset dy="4"/>
<feGaussianBlur stdDeviation="2.5"/>
<feComposite in2="hardAlpha" operator="out"/>
<feColorMatrix type="matrix" values="0 0 0 0 0 0 0 0 0 0 0 0 0 0 0 0 0 0 0.4 0"/>
<feBlend mode="normal" in2="BackgroundImageFix" result="effect1_dropShadow_247_2238"/>
<feBlend mode="normal" in="SourceGraphic" in2="effect1_dropShadow_247_2238" result="shape"/>
</filter>
<filter id="filter3_d_247_2238" x="35.1152" y="40.4746" width="56.854" height="51.6504" filterUnits="userSpaceOnUse" color-interpolation-filters="sRGB">
<feFlood flood-opacity="0" result="BackgroundImageFix"/>
<feColorMatrix in="SourceAlpha" type="matrix" values="0 0 0 0 0 0 0 0 0 0 0 0 0 0 0 0 0 0 127 0" result="hardAlpha"/>
<feOffset dy="4"/>
<feGaussianBlur stdDeviation="2.5"/>
<feComposite in2="hardAlpha" operator="out"/>
<feColorMatrix type="matrix" values="0 0 0 0 0 0 0 0 0 0 0 0 0 0 0 0 0 0 0.4 0"/>
<feBlend mode="normal" in2="BackgroundImageFix" result="effect1_dropShadow_247_2238"/>
<feBlend mode="normal" in="SourceGraphic" in2="effect1_dropShadow_247_2238" result="shape"/>
</filter>
</defs>
</svg>
