<svg width="180" height="180" viewBox="0 0 180 180" fill="none" xmlns="http://www.w3.org/2000/svg">
<circle cx="90" cy="90" r="90" fill="url(#paint0_linear_125_4)" fill-opacity="0.6"/>
<g filter="url(#filter0_d_125_4)">
<path d="M58.3982 78.3757C57.9529 78.3799 57.5144 78.2633 57.1274 78.0378C56.8434 77.8744 56.5942 77.6547 56.3942 77.3915C56.1943 77.1283 56.0476 76.8269 55.9627 76.505C55.8779 76.183 55.8566 75.847 55.9002 75.5166C55.9437 75.1861 56.0512 74.8679 56.2163 74.5805C59.3984 69.1427 69.0802 56.4507 90.2066 56.4507C99.3619 56.4507 107.392 58.9127 114.061 63.7658C119.551 67.7486 122.627 72.257 124.093 74.4284C124.279 74.7021 124.409 75.0111 124.477 75.3372C124.544 75.6633 124.547 76 124.486 76.3273C124.424 76.6547 124.299 76.9661 124.119 77.2434C123.938 77.5206 123.704 77.7579 123.433 77.9415C122.877 78.3174 122.2 78.4571 121.546 78.3309C120.892 78.2048 120.311 77.8226 119.927 77.2655C117.275 73.3604 109.187 61.4778 90.2066 61.4778C71.6798 61.4778 63.3035 72.4125 60.5752 77.1016C60.356 77.4932 60.0387 77.8178 59.656 78.0417C59.2732 78.2657 58.839 78.381 58.3982 78.3757Z" fill="#003268"/>
</g>
<g filter="url(#filter1_d_125_4)">
<path d="M100.85 128.056C100.64 128.058 100.429 128.034 100.225 127.983C84.8998 124.097 79.1775 108.412 78.9448 107.76L78.9085 107.616C78.7831 107.163 75.7082 96.4078 80.4286 90.1082C82.5924 87.2356 85.8835 85.7621 90.2292 85.7621C94.2696 85.7621 97.1844 87.048 99.1881 89.7095C100.839 91.8825 101.499 94.5625 102.138 97.1445C103.479 102.521 104.448 105.345 110.025 105.636C112.475 105.762 114.084 104.296 114.997 103.047C117.464 99.6421 117.893 94.0911 116.033 89.1907C113.643 82.8658 105.161 70.9409 90.2061 70.9409C83.822 70.9409 77.9562 73.0413 73.2523 76.9887C69.3587 80.2584 66.274 84.875 64.7885 89.6199C62.0338 98.4541 65.6468 112.341 65.6814 112.468C65.7658 112.791 65.7861 113.128 65.7411 113.459C65.6962 113.791 65.5869 114.109 65.4197 114.397C65.2524 114.684 65.0307 114.935 64.7676 115.133C64.5044 115.331 64.2051 115.473 63.8873 115.551C63.2454 115.726 62.5621 115.637 61.984 115.302C61.4058 114.967 60.9788 114.414 60.7943 113.76C60.6293 113.127 56.7704 98.3156 59.9526 88.1058C63.4186 77.0428 74.1155 65.8901 90.2111 65.8901C97.6499 65.8901 104.678 68.4789 110.544 73.3675C115.086 77.1695 118.796 82.2761 120.737 87.3809C123.204 93.8984 122.543 101.214 119.055 105.992C116.731 109.179 113.422 110.845 109.756 110.665C100.206 110.175 98.49 103.349 97.2389 98.3713C95.9515 93.2648 95.1279 90.8027 90.2111 90.8027C87.5109 90.8027 85.6145 91.5632 84.4344 93.138C82.8251 95.2925 82.6997 98.6603 82.8779 101.104C82.995 102.806 83.2769 104.492 83.7197 106.138C84.1125 107.151 89.2274 119.994 101.477 123.101C101.794 123.178 102.093 123.319 102.356 123.515C102.619 123.711 102.841 123.958 103.01 124.243C103.179 124.528 103.291 124.844 103.34 125.173C103.388 125.503 103.372 125.839 103.293 126.162C103.143 126.707 102.824 127.187 102.383 127.529C101.942 127.871 101.403 128.056 100.85 128.056Z" fill="#003268"/>
</g>
<g filter="url(#filter2_d_125_4)">
<path d="M81.1796 126.896C80.8361 126.897 80.496 126.826 80.1795 126.69C79.863 126.553 79.5767 126.352 79.3376 126.1C73.2044 119.51 69.735 112.141 68.4295 102.926V102.877C67.6967 96.777 68.7695 88.1405 74.0263 82.2025C77.9066 77.8209 83.3615 75.5938 90.2111 75.5938C98.3117 75.5938 104.678 79.4499 108.647 86.7278C111.527 92.0151 112.098 97.2839 112.113 97.5002C112.143 97.8337 112.109 98.17 112.012 98.4899C111.915 98.8098 111.757 99.1069 111.548 99.3643C111.339 99.6218 111.082 99.8344 110.792 99.99C110.503 100.146 110.186 100.241 109.86 100.271C109.203 100.345 108.544 100.15 108.025 99.7298C107.507 99.3096 107.171 98.6976 107.089 98.0257C106.654 94.8644 105.655 91.8119 104.141 89.0208C101.065 83.4631 96.3839 80.6378 90.1929 80.6378C84.8453 80.6378 80.6613 82.2853 77.7828 85.5382C73.6335 90.2273 72.8314 97.4512 73.4008 102.23C74.5446 110.378 77.6029 116.86 83.0034 122.653C83.2288 122.893 83.4047 123.177 83.5208 123.488C83.6368 123.799 83.6906 124.131 83.6789 124.464C83.6672 124.796 83.5902 125.123 83.4526 125.425C83.315 125.727 83.1196 125.997 82.8779 126.22C82.4125 126.652 81.8077 126.893 81.1796 126.896Z" fill="#003268"/>
</g>
<g filter="url(#filter3_d_125_4)">
<path d="M109.435 119.637C104.07 119.637 99.5101 118.116 95.8609 115.093C88.5294 109.045 87.7074 99.1954 87.6711 98.7797C87.6195 98.0974 87.8347 97.422 88.2694 96.9021C88.7041 96.3822 89.3228 96.0605 89.9892 96.0076C90.6557 95.9547 91.3154 96.175 91.8232 96.6201C92.3309 97.0652 92.6452 97.6986 92.6969 98.3809C92.715 98.5262 93.4479 106.583 99.0991 111.223C102.443 113.957 106.913 115.042 112.42 114.409C113.079 114.327 113.742 114.515 114.265 114.933C114.788 115.35 115.128 115.962 115.211 116.636C115.247 116.968 115.218 117.305 115.126 117.626C115.033 117.947 114.88 118.246 114.673 118.506C114.467 118.765 114.212 118.98 113.923 119.138C113.635 119.295 113.319 119.393 112.993 119.424C111.812 119.565 110.624 119.636 109.435 119.637ZM113.673 52.4861C111.58 51.0921 104.16 46.9453 90.2063 46.9453C75.5598 46.9453 68.121 51.5263 66.4755 52.6906C66.3668 52.7589 66.2651 52.8382 66.1718 52.9272C66.162 52.9369 66.1491 52.9429 66.1355 52.9441C65.8727 53.179 65.6619 53.4685 65.517 53.7934C65.3721 54.1183 65.2966 54.4711 65.2954 54.8282C65.2999 55.163 65.3689 55.4935 65.4984 55.801C65.6279 56.1084 65.8154 56.3866 66.0502 56.6198C66.2849 56.8529 66.5623 57.0363 66.8664 57.1594C67.1705 57.2826 67.4953 57.3431 67.8223 57.3375C68.3464 57.3372 68.8578 57.1727 69.2879 56.8661C69.3589 56.812 75.7612 51.9961 90.2112 51.9961C104.661 51.9961 111.098 56.7951 111.168 56.8306C111.607 57.1642 112.141 57.3422 112.688 57.3375C113.015 57.3427 113.34 57.2816 113.644 57.1578C113.948 57.034 114.225 56.8499 114.46 56.6162C114.694 56.3824 114.881 56.1035 115.01 55.7955C115.139 55.4875 115.208 55.1565 115.211 54.8214C115.211 54.3195 115.065 53.8291 114.791 53.413C114.517 52.9968 114.128 52.6741 113.673 52.4861Z" fill="#003268"/>
</g>
<defs>
<filter id="filter0_d_125_4" x="50.8782" y="55.4507" width="78.6516" height="31.9258" filterUnits="userSpaceOnUse" color-interpolation-filters="sRGB">
<feFlood flood-opacity="0" result="BackgroundImageFix"/>
<feColorMatrix in="SourceAlpha" type="matrix" values="0 0 0 0 0 0 0 0 0 0 0 0 0 0 0 0 0 0 127 0" result="hardAlpha"/>
<feOffset dy="4"/>
<feGaussianBlur stdDeviation="2.5"/>
<feComposite in2="hardAlpha" operator="out"/>
<feColorMatrix type="matrix" values="0 0 0 0 0 0 0 0 0 0 0 0 0 0 0 0 0 0 0.4 0"/>
<feBlend mode="normal" in2="BackgroundImageFix" result="effect1_dropShadow_125_4"/>
<feBlend mode="normal" in="SourceGraphic" in2="effect1_dropShadow_125_4" result="shape"/>
</filter>
<filter id="filter1_d_125_4" x="53.6987" y="64.8901" width="73.5166" height="72.166" filterUnits="userSpaceOnUse" color-interpolation-filters="sRGB">
<feFlood flood-opacity="0" result="BackgroundImageFix"/>
<feColorMatrix in="SourceAlpha" type="matrix" values="0 0 0 0 0 0 0 0 0 0 0 0 0 0 0 0 0 0 127 0" result="hardAlpha"/>
<feOffset dy="4"/>
<feGaussianBlur stdDeviation="2.5"/>
<feComposite in2="hardAlpha" operator="out"/>
<feColorMatrix type="matrix" values="0 0 0 0 0 0 0 0 0 0 0 0 0 0 0 0 0 0 0.4 0"/>
<feBlend mode="normal" in2="BackgroundImageFix" result="effect1_dropShadow_125_4"/>
<feBlend mode="normal" in="SourceGraphic" in2="effect1_dropShadow_125_4" result="shape"/>
</filter>
<filter id="filter2_d_125_4" x="63.2231" y="74.5938" width="53.9006" height="61.3022" filterUnits="userSpaceOnUse" color-interpolation-filters="sRGB">
<feFlood flood-opacity="0" result="BackgroundImageFix"/>
<feColorMatrix in="SourceAlpha" type="matrix" values="0 0 0 0 0 0 0 0 0 0 0 0 0 0 0 0 0 0 127 0" result="hardAlpha"/>
<feOffset dy="4"/>
<feGaussianBlur stdDeviation="2.5"/>
<feComposite in2="hardAlpha" operator="out"/>
<feColorMatrix type="matrix" values="0 0 0 0 0 0 0 0 0 0 0 0 0 0 0 0 0 0 0.4 0"/>
<feBlend mode="normal" in2="BackgroundImageFix" result="effect1_dropShadow_125_4"/>
<feBlend mode="normal" in="SourceGraphic" in2="effect1_dropShadow_125_4" result="shape"/>
</filter>
<filter id="filter3_d_125_4" x="60.2954" y="45.9453" width="59.9309" height="82.6914" filterUnits="userSpaceOnUse" color-interpolation-filters="sRGB">
<feFlood flood-opacity="0" result="BackgroundImageFix"/>
<feColorMatrix in="SourceAlpha" type="matrix" values="0 0 0 0 0 0 0 0 0 0 0 0 0 0 0 0 0 0 127 0" result="hardAlpha"/>
<feOffset dy="4"/>
<feGaussianBlur stdDeviation="2.5"/>
<feComposite in2="hardAlpha" operator="out"/>
<feColorMatrix type="matrix" values="0 0 0 0 0 0 0 0 0 0 0 0 0 0 0 0 0 0 0.4 0"/>
<feBlend mode="normal" in2="BackgroundImageFix" result="effect1_dropShadow_125_4"/>
<feBlend mode="normal" in="SourceGraphic" in2="effect1_dropShadow_125_4" result="shape"/>
</filter>
<linearGradient id="paint0_linear_125_4" x1="90" y1="0" x2="90" y2="180" gradientUnits="userSpaceOnUse">
<stop stop-color="#004EA2"/>
<stop offset="1" stop-color="#004EA2" stop-opacity="0"/>
</linearGradient>
</defs>
</svg>
