<svg width="142" height="142" viewBox="0 0 142 142" fill="none" xmlns="http://www.w3.org/2000/svg">
<g filter="url(#filter0_d_247_2247)">
<ellipse cx="70.6449" cy="66.6608" rx="66.6449" ry="66.6608" fill="white"/>
</g>
<g filter="url(#filter1_d_247_2247)">
<g filter="url(#filter2_d_247_2247)">
<path d="M46.9567 59.9133C46.6269 59.9163 46.3021 59.8303 46.0155 59.664C45.8052 59.5435 45.6206 59.3815 45.4725 59.1873C45.3244 58.9932 45.2158 58.7709 45.153 58.5335C45.0901 58.296 45.0744 58.0482 45.1066 57.8045C45.1389 57.5607 45.2184 57.326 45.3407 57.114C47.6974 53.1034 54.8677 43.7422 70.5137 43.7422C77.294 43.7422 83.2407 45.5581 88.1802 49.1375C92.2457 52.0751 94.5241 55.4003 95.6096 57.0019C95.7472 57.2037 95.8439 57.4316 95.8939 57.6722C95.9439 57.9127 95.9461 58.161 95.9006 58.4025C95.855 58.6439 95.7625 58.8736 95.6286 59.0781C95.4947 59.2825 95.3219 59.4576 95.1206 59.593C94.7092 59.8703 94.2081 59.9733 93.7234 59.8803C93.2388 59.7872 92.8087 59.5053 92.5244 59.0944C90.5601 56.2142 84.5706 47.45 70.5137 47.45C56.7929 47.45 50.5895 55.515 48.5689 58.9736C48.4066 59.2624 48.1716 59.5017 47.8881 59.6669C47.6047 59.8322 47.2831 59.9172 46.9567 59.9133Z" fill="#003268"/>
</g>
<g filter="url(#filter3_d_247_2247)">
<path d="M78.3962 96.5582C78.2402 96.5601 78.0846 96.5421 77.9329 96.5046C66.5835 93.638 62.3456 82.0696 62.1733 81.5885L62.1464 81.4826C62.0535 81.1486 59.7763 73.2157 63.2722 68.5694C64.8747 66.4506 67.312 65.3638 70.5304 65.3638C73.5227 65.3638 75.6814 66.3123 77.1653 68.2753C78.3877 69.878 78.8766 71.8547 79.3496 73.7591C80.3434 77.7249 81.0609 79.8075 85.1912 80.0219C87.0052 80.1154 88.197 79.0336 88.8729 78.1125C90.7003 75.6012 91.0181 71.507 89.6405 67.8926C87.8706 63.2276 81.589 54.4323 70.5133 54.4323C65.7853 54.4323 61.4411 55.9815 57.9574 58.8929C55.0739 61.3046 52.7894 64.7095 51.6892 68.2092C49.6492 74.725 52.3249 84.9673 52.3505 85.0608C52.413 85.2992 52.428 85.5479 52.3947 85.7923C52.3614 86.0367 52.2805 86.2718 52.1567 86.4838C52.0328 86.6958 51.8686 86.8804 51.6737 87.0266C51.4788 87.1729 51.2572 87.2778 51.0218 87.3354C50.5464 87.4643 50.0404 87.3982 49.6122 87.1512C49.184 86.9043 48.8678 86.4961 48.7312 86.0143C48.6089 85.5469 45.7511 74.6228 48.1078 67.0925C50.6747 58.9328 58.5967 50.707 70.517 50.707C76.0261 50.707 81.2308 52.6164 85.575 56.222C88.9389 59.0263 91.6868 62.7927 93.1242 66.5578C94.9516 71.3649 94.4615 76.7603 91.8787 80.2849C90.1576 82.6355 87.7068 83.8643 84.992 83.731C77.9195 83.3695 76.6483 78.3356 75.7217 74.6639C74.7683 70.8975 74.1584 69.0816 70.517 69.0816C68.5172 69.0816 67.1128 69.6425 66.2388 70.8041C65.047 72.3931 64.9541 74.8771 65.0861 76.6793C65.1728 77.9349 65.3816 79.1786 65.7095 80.3921C66.0004 81.1399 69.7885 90.612 78.8607 92.904C79.0952 92.9606 79.3163 93.0642 79.5112 93.2087C79.7061 93.3532 79.8709 93.5358 79.996 93.7458C80.1211 93.9558 80.204 94.189 80.2399 94.432C80.2759 94.675 80.2641 94.9228 80.2053 95.1611C80.0946 95.5633 79.8578 95.9176 79.5312 96.1699C79.2046 96.4221 78.806 96.5585 78.3962 96.5582Z" fill="#003268"/>
</g>
<g filter="url(#filter4_d_247_2247)">
<path d="M63.8288 95.6998C63.5744 95.7004 63.3226 95.6487 63.0882 95.5478C62.8538 95.447 62.6418 95.299 62.4647 95.1128C57.9225 90.2521 55.3531 84.8169 54.3862 78.0207V77.9845C53.8435 73.4853 54.638 67.1153 58.5312 62.7357C61.4049 59.504 65.4448 57.8613 70.5175 57.8613C76.5167 57.8613 81.2313 60.7054 84.1711 66.0734C86.304 69.9731 86.727 73.8592 86.738 74.0187C86.7603 74.2647 86.7349 74.5127 86.6631 74.7487C86.5913 74.9846 86.4746 75.2038 86.3196 75.3936C86.1646 75.5835 85.9744 75.7403 85.7599 75.8551C85.5454 75.9699 85.3108 76.0405 85.0695 76.0627C84.5826 76.1166 84.0945 75.9731 83.7105 75.6632C83.3266 75.3533 83.0775 74.9018 83.0172 74.4063C82.6952 72.0746 81.9552 69.8233 80.8341 67.7646C78.5556 63.6655 75.089 61.5816 70.504 61.5816C66.5436 61.5816 63.445 62.7968 61.3132 65.196C58.2403 68.6545 57.6462 73.9826 58.0679 77.5072C58.915 83.517 61.18 88.2979 65.1795 92.5703C65.3464 92.7474 65.4767 92.9568 65.5627 93.1863C65.6486 93.4157 65.6885 93.6604 65.6798 93.9059C65.6711 94.1513 65.6141 94.3925 65.5122 94.615C65.4103 94.8376 65.2656 95.0369 65.0866 95.2013C64.7419 95.5199 64.294 95.6974 63.8288 95.6998Z" fill="#003268"/>
</g>
<g filter="url(#filter5_d_247_2247)">
<path d="M84.7541 90.3469C80.7814 90.3469 77.4041 89.2253 74.7015 86.9956C69.2719 82.535 68.6631 75.2701 68.6362 74.9635C68.598 74.4603 68.7574 73.9621 69.0793 73.5787C69.4013 73.1952 69.8595 72.9579 70.353 72.9189C70.8466 72.8799 71.3352 73.0424 71.7112 73.3707C72.0873 73.699 72.32 74.1661 72.3583 74.6694C72.3717 74.7766 72.9144 80.7191 77.0997 84.1415C79.5762 86.158 82.8863 86.9582 86.9653 86.4908C87.4528 86.4305 87.9439 86.5695 88.3312 86.8773C88.7185 87.1851 88.9706 87.6367 89.0323 88.1335C89.059 88.3789 89.0375 88.6272 88.969 88.864C88.9006 89.1009 88.7866 89.3214 88.6336 89.5128C88.4807 89.7043 88.2919 89.8627 88.0783 89.979C87.8647 90.0952 87.6305 90.1669 87.3894 90.1899C86.5147 90.294 85.6347 90.3464 84.7541 90.3469ZM87.893 40.8191C86.3431 39.7909 80.8475 36.7324 70.5138 36.7324C59.6667 36.7324 54.1576 40.1112 52.9389 40.9699C52.8584 41.0203 52.7831 41.0788 52.714 41.1444C52.7067 41.1516 52.6972 41.156 52.6871 41.1569C52.4925 41.3301 52.3364 41.5437 52.2291 41.7833C52.1218 42.0229 52.0658 42.2831 52.0649 42.5465C52.0683 42.7935 52.1194 43.0373 52.2153 43.264C52.3112 43.4908 52.4501 43.696 52.6239 43.8679C52.7978 44.0399 53.0032 44.1751 53.2284 44.266C53.4536 44.3568 53.6942 44.4015 53.9363 44.3973C54.3245 44.3971 54.7032 44.2757 55.0218 44.0496C55.0743 44.0097 59.8158 40.4577 70.5174 40.4577C81.219 40.4577 85.9862 43.9973 86.0375 44.0234C86.363 44.2695 86.7582 44.4008 87.1633 44.3973C87.4057 44.4011 87.6464 44.3561 87.8716 44.2648C88.0968 44.1735 88.3022 44.0377 88.4758 43.8653C88.6495 43.6929 88.788 43.4872 88.8835 43.26C88.979 43.0328 89.0295 42.7887 89.0323 42.5416C89.0324 42.1714 88.924 41.8096 88.721 41.5027C88.518 41.1958 88.2297 40.9578 87.893 40.8191Z" fill="#003268"/>
</g>
</g>
<defs>
<filter id="filter0_d_247_2247" x="0" y="0" width="141.29" height="141.322" filterUnits="userSpaceOnUse" color-interpolation-filters="sRGB">
<feFlood flood-opacity="0" result="BackgroundImageFix"/>
<feColorMatrix in="SourceAlpha" type="matrix" values="0 0 0 0 0 0 0 0 0 0 0 0 0 0 0 0 0 0 127 0" result="hardAlpha"/>
<feOffset dy="4"/>
<feGaussianBlur stdDeviation="2"/>
<feComposite in2="hardAlpha" operator="out"/>
<feColorMatrix type="matrix" values="0 0 0 0 0 0 0 0 0 0 0 0 0 0 0 0 0 0 0.25 0"/>
<feBlend mode="normal" in2="BackgroundImageFix" result="effect1_dropShadow_247_2247"/>
<feBlend mode="normal" in="SourceGraphic" in2="effect1_dropShadow_247_2247" result="shape"/>
</filter>
<filter id="filter1_d_247_2247" x="41.0903" y="36.7324" width="58.8428" height="67.8262" filterUnits="userSpaceOnUse" color-interpolation-filters="sRGB">
<feFlood flood-opacity="0" result="BackgroundImageFix"/>
<feColorMatrix in="SourceAlpha" type="matrix" values="0 0 0 0 0 0 0 0 0 0 0 0 0 0 0 0 0 0 127 0" result="hardAlpha"/>
<feOffset dy="4"/>
<feGaussianBlur stdDeviation="2"/>
<feComposite in2="hardAlpha" operator="out"/>
<feColorMatrix type="matrix" values="0 0 0 0 0 0 0 0 0 0 0 0 0 0 0 0 0 0 0.25 0"/>
<feBlend mode="normal" in2="BackgroundImageFix" result="effect1_dropShadow_247_2247"/>
<feBlend mode="normal" in="SourceGraphic" in2="effect1_dropShadow_247_2247" result="shape"/>
</filter>
<filter id="filter2_d_247_2247" x="40.0903" y="42.7422" width="60.8428" height="26.1719" filterUnits="userSpaceOnUse" color-interpolation-filters="sRGB">
<feFlood flood-opacity="0" result="BackgroundImageFix"/>
<feColorMatrix in="SourceAlpha" type="matrix" values="0 0 0 0 0 0 0 0 0 0 0 0 0 0 0 0 0 0 127 0" result="hardAlpha"/>
<feOffset dy="4"/>
<feGaussianBlur stdDeviation="2.5"/>
<feComposite in2="hardAlpha" operator="out"/>
<feColorMatrix type="matrix" values="0 0 0 0 0 0 0 0 0 0 0 0 0 0 0 0 0 0 0.4 0"/>
<feBlend mode="normal" in2="BackgroundImageFix" result="effect1_dropShadow_247_2247"/>
<feBlend mode="normal" in="SourceGraphic" in2="effect1_dropShadow_247_2247" result="shape"/>
</filter>
<filter id="filter3_d_247_2247" x="42.1792" y="49.707" width="57.04" height="55.8516" filterUnits="userSpaceOnUse" color-interpolation-filters="sRGB">
<feFlood flood-opacity="0" result="BackgroundImageFix"/>
<feColorMatrix in="SourceAlpha" type="matrix" values="0 0 0 0 0 0 0 0 0 0 0 0 0 0 0 0 0 0 127 0" result="hardAlpha"/>
<feOffset dy="4"/>
<feGaussianBlur stdDeviation="2.5"/>
<feComposite in2="hardAlpha" operator="out"/>
<feColorMatrix type="matrix" values="0 0 0 0 0 0 0 0 0 0 0 0 0 0 0 0 0 0 0.4 0"/>
<feBlend mode="normal" in2="BackgroundImageFix" result="effect1_dropShadow_247_2247"/>
<feBlend mode="normal" in="SourceGraphic" in2="effect1_dropShadow_247_2247" result="shape"/>
</filter>
<filter id="filter4_d_247_2247" x="49.2334" y="56.8613" width="42.5122" height="47.8379" filterUnits="userSpaceOnUse" color-interpolation-filters="sRGB">
<feFlood flood-opacity="0" result="BackgroundImageFix"/>
<feColorMatrix in="SourceAlpha" type="matrix" values="0 0 0 0 0 0 0 0 0 0 0 0 0 0 0 0 0 0 127 0" result="hardAlpha"/>
<feOffset dy="4"/>
<feGaussianBlur stdDeviation="2.5"/>
<feComposite in2="hardAlpha" operator="out"/>
<feColorMatrix type="matrix" values="0 0 0 0 0 0 0 0 0 0 0 0 0 0 0 0 0 0 0.4 0"/>
<feBlend mode="normal" in2="BackgroundImageFix" result="effect1_dropShadow_247_2247"/>
<feBlend mode="normal" in="SourceGraphic" in2="effect1_dropShadow_247_2247" result="shape"/>
</filter>
<filter id="filter5_d_247_2247" x="47.0649" y="35.7324" width="46.9785" height="63.6152" filterUnits="userSpaceOnUse" color-interpolation-filters="sRGB">
<feFlood flood-opacity="0" result="BackgroundImageFix"/>
<feColorMatrix in="SourceAlpha" type="matrix" values="0 0 0 0 0 0 0 0 0 0 0 0 0 0 0 0 0 0 127 0" result="hardAlpha"/>
<feOffset dy="4"/>
<feGaussianBlur stdDeviation="2.5"/>
<feComposite in2="hardAlpha" operator="out"/>
<feColorMatrix type="matrix" values="0 0 0 0 0 0 0 0 0 0 0 0 0 0 0 0 0 0 0.4 0"/>
<feBlend mode="normal" in2="BackgroundImageFix" result="effect1_dropShadow_247_2247"/>
<feBlend mode="normal" in="SourceGraphic" in2="effect1_dropShadow_247_2247" result="shape"/>
</filter>
</defs>
</svg>
