<svg width="97" height="81" viewBox="0 0 97 81" fill="none" xmlns="http://www.w3.org/2000/svg">
<g filter="url(#filter0_d_1_24)">
<path d="M74.3478 43.6785C73.6452 43.6818 72.9575 43.4766 72.3717 43.0887C71.786 42.7008 71.3285 42.1478 71.0573 41.4996C70.7861 40.8515 70.7135 40.1375 70.8485 39.448C70.9835 38.7586 71.3201 38.1247 71.8157 37.6267C72.3113 37.1288 72.9436 36.7891 73.6324 36.6508C74.3212 36.5125 75.0355 36.5818 75.6849 36.8499C76.3343 37.118 76.8895 37.5728 77.2802 38.1567C77.6709 38.7406 77.8794 39.4274 77.8795 40.1299C77.8828 40.5954 77.7939 41.057 77.6178 41.4879C77.4417 41.9189 77.182 42.3107 76.8536 42.6406C76.5252 42.9706 76.1346 43.2322 75.7045 43.4103C75.2745 43.5885 74.8133 43.6796 74.3478 43.6785V43.6785ZM57.0832 43.6785C56.3806 43.6818 55.6929 43.4766 55.1071 43.0887C54.5213 42.7008 54.0639 42.1478 53.7927 41.4996C53.5215 40.8515 53.4488 40.1375 53.5839 39.448C53.7189 38.7586 54.0555 38.1247 54.5511 37.6267C55.0467 37.1288 55.6789 36.7891 56.3678 36.6508C57.0566 36.5125 57.7709 36.5818 58.4203 36.8499C59.0697 37.118 59.6249 37.5728 60.0156 38.1567C60.4063 38.7406 60.6148 39.4274 60.6148 40.1299C60.6184 40.5955 60.5296 41.0572 60.3536 41.4882C60.1776 41.9192 59.9179 42.3111 59.5895 42.6411C59.261 42.9711 58.8704 43.2327 58.4402 43.4108C58.01 43.5889 57.5488 43.6798 57.0832 43.6785V43.6785ZM82.7832 63.7634C88.2767 59.8244 91.8084 53.9186 91.8084 47.2237C91.8084 35.2126 80.2333 25.3662 65.7163 25.3662C51.1993 25.3662 39.6226 35.2126 39.6226 47.2237C39.6226 59.2347 51.1976 69.0794 65.7163 69.0794C68.6583 69.0794 71.6019 68.6857 74.1518 67.8966C74.5725 67.7513 74.7398 67.6989 74.9358 67.6989C75.4202 67.7104 75.8933 67.8465 76.3096 68.0943L82.0076 71.4418C82.1919 71.5384 82.3904 71.6051 82.5957 71.6395C82.7998 71.6256 82.9919 71.5381 83.1364 71.3933C83.2809 71.2485 83.368 71.0562 83.3814 70.852C83.3684 70.6296 83.3246 70.4101 83.2513 70.1998C83.182 69.9531 82.4064 67.4961 82.0076 65.9297C81.971 65.7363 81.9524 65.5401 81.9519 65.3433C81.9542 65.0312 82.0323 64.7243 82.1794 64.4491C82.3266 64.1739 82.5385 63.9386 82.7968 63.7634" fill="#003268"/>
</g>
<g filter="url(#filter1_d_1_24)">
<path d="M46.8819 23.3977C45.7852 23.3977 44.7335 22.9621 43.958 22.1866C43.1826 21.4112 42.7469 20.3594 42.7469 19.2628C42.7469 18.1661 43.1826 17.1144 43.958 16.339C44.7335 15.5635 45.7852 15.1279 46.8819 15.1279C49.0397 15.1279 51.0016 17.0965 51.0016 19.2628C51.1976 21.4291 49.2357 23.3977 46.8819 23.3977ZM26.0873 23.3977C25.2691 23.4007 24.4685 23.1609 23.7866 22.7087C23.1048 22.2565 22.5724 21.6122 22.2569 20.8573C21.9415 20.1024 21.857 19.2709 22.0143 18.468C22.1716 17.665 22.5635 16.9268 23.1405 16.3468C23.7175 15.7667 24.4536 15.3708 25.2556 15.2093C26.0577 15.0478 26.8897 15.1278 27.6462 15.4393C28.4028 15.7507 29.0499 16.2796 29.5058 16.9591C29.9616 17.6385 30.2057 18.4379 30.207 19.256C30.2026 20.3487 29.7676 21.3956 28.9964 22.1696C28.2252 22.9437 27.1799 23.3825 26.0873 23.391V23.3977ZM36.4846 1.34424C19.22 1.34424 5.29102 12.9616 5.29102 27.536C5.29102 35.4121 9.41073 42.5008 16.0803 47.2272C16.6701 47.6175 16.7816 48.4894 16.7816 48.8274C16.7957 49.0852 16.7578 49.3433 16.6701 49.5861C16.0803 51.5547 15.3284 54.7417 15.2963 54.9106C15.2642 55.0796 15.1003 55.5021 15.1003 55.6981C15.0919 55.8292 15.1115 55.9606 15.1577 56.0836C15.2039 56.2065 15.2757 56.3183 15.3684 56.4114C15.4611 56.5045 15.5724 56.5769 15.6952 56.6238C15.8179 56.6707 15.9492 56.6909 16.0803 56.6832C16.2908 56.6699 16.4941 56.6018 16.6701 56.4855L23.5408 52.5449C24.1305 52.1512 24.5225 52.1512 25.1106 52.1512C25.4471 52.1561 25.7798 52.2226 26.0924 52.3472C29.2303 53.3324 32.762 53.7261 36.2936 53.7261H38.0595C37.4162 51.62 37.0854 49.431 37.0777 47.2288C37.0777 34.035 49.8305 23.4028 65.5253 23.4028H67.2912C65.1265 10.9929 52.1794 1.34424 36.4846 1.34424Z" fill="#003268"/>
</g>
<defs>
<filter id="filter0_d_1_24" x="34.6226" y="24.3662" width="62.1859" height="56.2734" filterUnits="userSpaceOnUse" color-interpolation-filters="sRGB">
<feFlood flood-opacity="0" result="BackgroundImageFix"/>
<feColorMatrix in="SourceAlpha" type="matrix" values="0 0 0 0 0 0 0 0 0 0 0 0 0 0 0 0 0 0 127 0" result="hardAlpha"/>
<feOffset dy="4"/>
<feGaussianBlur stdDeviation="2.5"/>
<feComposite in2="hardAlpha" operator="out"/>
<feColorMatrix type="matrix" values="0 0 0 0 0 0 0 0 0 0 0 0 0 0 0 0 0 0 0.4 0"/>
<feBlend mode="normal" in2="BackgroundImageFix" result="effect1_dropShadow_1_24"/>
<feBlend mode="normal" in="SourceGraphic" in2="effect1_dropShadow_1_24" result="shape"/>
</filter>
<filter id="filter1_d_1_24" x="0.291016" y="0.344238" width="72.0002" height="65.3408" filterUnits="userSpaceOnUse" color-interpolation-filters="sRGB">
<feFlood flood-opacity="0" result="BackgroundImageFix"/>
<feColorMatrix in="SourceAlpha" type="matrix" values="0 0 0 0 0 0 0 0 0 0 0 0 0 0 0 0 0 0 127 0" result="hardAlpha"/>
<feOffset dy="4"/>
<feGaussianBlur stdDeviation="2.5"/>
<feComposite in2="hardAlpha" operator="out"/>
<feColorMatrix type="matrix" values="0 0 0 0 0 0 0 0 0 0 0 0 0 0 0 0 0 0 0.4 0"/>
<feBlend mode="normal" in2="BackgroundImageFix" result="effect1_dropShadow_1_24"/>
<feBlend mode="normal" in="SourceGraphic" in2="effect1_dropShadow_1_24" result="shape"/>
</filter>
</defs>
</svg>
