<svg width="42" height="42" viewBox="0 0 42 42" fill="none" xmlns="http://www.w3.org/2000/svg">
<path d="M34.2314 6.47314H8.33859C7.62358 6.47314 7.04395 7.05278 7.04395 7.76779V33.6606C7.04395 34.3757 7.62358 34.9553 8.33859 34.9553H34.2314C34.9465 34.9553 35.5261 34.3757 35.5261 33.6606V7.76779C35.5261 7.05278 34.9465 6.47314 34.2314 6.47314Z" stroke="#002B59" stroke-width="3" stroke-linecap="round" stroke-linejoin="round"/>
<path d="M29.0527 3.23682V6.47342" stroke="#002B59" stroke-width="3" stroke-linecap="round" stroke-linejoin="round"/>
<path d="M13.5166 3.23682V6.47342" stroke="#002B59" stroke-width="3" stroke-linecap="round" stroke-linejoin="round"/>
<path d="M7.04395 14.2412H35.5261" stroke="#002B59" stroke-width="3" stroke-linecap="round" stroke-linejoin="round"/>
<path d="M14.8115 20.7144H19.3428L16.7535 23.951C17.1796 23.9502 17.5993 24.0547 17.9754 24.2551C18.3515 24.4554 18.6723 24.7455 18.9094 25.0996C19.1465 25.4537 19.2925 25.8608 19.3346 26.2849C19.3766 26.7089 19.3133 27.1368 19.1504 27.5305C18.9874 27.9243 18.7297 28.2717 18.4003 28.542C18.0709 28.8123 17.6798 28.9971 17.2618 29.08C16.8439 29.163 16.4119 29.1414 16.0042 29.0174C15.5965 28.8934 15.2258 28.6706 14.9248 28.3689" stroke="#002B59" stroke-width="3" stroke-linecap="round" stroke-linejoin="round"/>
<path d="M24.5215 22.6563L27.1108 20.7144V29.1295" stroke="#002B59" stroke-width="3" stroke-linecap="round" stroke-linejoin="round"/>
</svg>
