<svg width="77" height="77" viewBox="0 0 77 77" fill="none" xmlns="http://www.w3.org/2000/svg">
<path d="M38.5 77C59.763 77 77 59.763 77 38.5C77 17.237 59.763 0 38.5 0C17.237 0 0 17.237 0 38.5C0 59.763 17.237 77 38.5 77Z" fill="#EFEFEF"/>
<path fill-rule="evenodd" clip-rule="evenodd" d="M17.5137 56.9234L17.822 54.4025L18.9655 52.0458L21.2874 50.8625L22.5652 50.1465C22.8112 50.7442 23.1754 51.2863 23.6359 51.7399C24.0964 52.1936 24.6437 52.5496 25.2451 52.7866L23.6143 55.3571L22.1675 57.3807L18.9655 57.8381L17.9711 57.7586L17.5137 56.9234Z" fill="#FF9F43"/>
<path d="M14.1972 60.1152C14.3849 60.1152 14.5684 60.1709 14.7245 60.2752C14.8805 60.3794 15.0022 60.5276 15.0741 60.701C15.1459 60.8745 15.1647 61.0653 15.1281 61.2494C15.0916 61.4335 15.0012 61.6026 14.8685 61.7354C14.7358 61.8681 14.5668 61.9586 14.3827 61.9952C14.1986 62.0319 14.0078 62.0132 13.8343 61.9414C13.6609 61.8697 13.5126 61.7481 13.4082 61.5921C13.3039 61.436 13.2481 61.2526 13.248 61.0649C13.248 60.9402 13.2725 60.8167 13.3202 60.7015C13.3678 60.5863 13.4377 60.4816 13.5259 60.3934C13.614 60.3052 13.7187 60.2353 13.8339 60.1875C13.949 60.1398 14.0725 60.1152 14.1972 60.1152Z" fill="#002B59"/>
<path d="M38.4433 36.0391C38.6306 36.0391 38.8137 36.0946 38.9695 36.1987C39.1252 36.3028 39.2466 36.4507 39.3183 36.6238C39.39 36.7968 39.4088 36.9873 39.3722 37.171C39.3357 37.3547 39.2455 37.5235 39.113 37.656C38.9805 37.7884 38.8118 37.8786 38.628 37.9152C38.4443 37.9517 38.2539 37.933 38.0808 37.8613C37.9077 37.7896 37.7598 37.6682 37.6557 37.5124C37.5516 37.3567 37.4961 37.1736 37.4961 36.9862C37.4961 36.735 37.5959 36.4941 37.7735 36.3165C37.9511 36.1389 38.1921 36.0391 38.4433 36.0391Z" fill="#002B59"/>
<path d="M49.5097 29.3387C49.2107 29.6378 48.8298 29.8415 48.4151 29.924C48.0003 30.0066 47.5704 29.9643 47.1797 29.8025C46.789 29.6407 46.455 29.3667 46.2201 29.0151C45.9851 28.6635 45.8597 28.2501 45.8597 27.8272C45.8597 27.4043 45.9851 26.9909 46.2201 26.6393C46.455 26.2877 46.789 26.0137 47.1797 25.8519C47.5704 25.6901 48.0003 25.6478 48.4151 25.7304C48.8298 25.813 49.2107 26.0167 49.5097 26.3157C49.9105 26.7166 50.1356 27.2603 50.1356 27.8272C50.1356 28.3941 49.9105 28.9378 49.5097 29.3387ZM47.9982 23.7949C47.0654 23.7949 46.1613 24.1183 45.4402 24.7101C44.719 25.3019 44.2254 26.1254 44.0433 27.0403C43.8613 27.9553 44.0021 28.905 44.4418 29.7278C44.8815 30.5505 45.5929 31.1954 46.4547 31.5524C47.3166 31.9095 48.2756 31.9567 49.1683 31.6859C50.061 31.4152 50.8323 30.8433 51.3506 30.0677C51.869 29.2921 52.1023 28.3608 52.011 27.4324C51.9196 26.504 51.5092 25.636 50.8497 24.9763C50.4761 24.6006 50.0317 24.3027 49.5423 24.1C49.0528 23.8972 48.528 23.7935 47.9982 23.7949Z" fill="#002B59"/>
<path d="M25.081 52.6645C24.8561 52.5525 24.596 52.5345 24.3578 52.6143C24.1196 52.6941 23.9228 52.8652 23.8107 53.0901L22.6826 55.3563C22.4395 55.8419 22.0742 56.2557 21.6226 56.5572C21.171 56.8587 20.6487 57.0374 20.1071 57.0756L18.7945 57.1656C18.7148 57.1708 18.6349 57.1589 18.5602 57.1308C18.4854 57.1026 18.4175 57.0588 18.3611 57.0024C18.3046 56.9459 18.2608 56.878 18.2327 56.8033C18.2045 56.7285 18.1927 56.6487 18.1978 56.569L18.2878 55.2569C18.3261 54.7152 18.5048 54.1929 18.8063 53.7413C19.1078 53.2897 19.5216 52.9244 20.0071 52.6814L22.2729 51.5532C22.4978 51.4411 22.6689 51.2443 22.7487 51.006C22.8285 50.7678 22.8103 50.5075 22.6982 50.2826C22.5861 50.0577 22.3893 49.8866 22.151 49.8068C21.9127 49.7271 21.6525 49.7452 21.4276 49.8573L19.1609 50.9829C18.3801 51.3739 17.7145 51.9614 17.2297 52.6877C16.7449 53.414 16.4575 54.254 16.396 55.1251L16.3065 56.4372C16.2835 56.7731 16.3299 57.1101 16.4426 57.4273C16.5553 57.7445 16.7321 58.0351 16.9618 58.2811C17.1916 58.5272 17.4695 58.7234 17.7782 58.8575C18.087 58.9916 18.4201 59.0609 18.7567 59.0609C18.8127 59.0609 18.8687 59.0589 18.9247 59.055L20.2373 58.965C21.1084 58.9031 21.9483 58.6155 22.6745 58.1305C23.4006 57.6454 23.9879 56.9796 24.3785 56.1985L25.5066 53.9323C25.6179 53.7077 25.6356 53.4481 25.5558 53.2104C25.4761 52.9728 25.3053 52.7765 25.081 52.6645Z" fill="#002B59"/>
<path d="M59.6442 16.6499C59.4585 20.4829 58.445 24.2302 56.6734 27.6342C54.9017 31.0382 52.4139 34.0182 49.381 36.3693L34.5228 47.8993C33.2924 47.1784 32.1423 46.3283 31.0921 45.3636L36.1004 40.3568C36.1912 40.2694 36.2636 40.1649 36.3135 40.0492C36.3633 39.9335 36.3896 39.809 36.3908 39.6831C36.392 39.5571 36.3681 39.4322 36.3205 39.3156C36.2728 39.199 36.2024 39.093 36.1133 39.0039C36.0242 38.9149 35.9183 38.8444 35.8017 38.7968C35.6851 38.7491 35.5601 38.7252 35.4342 38.7264C35.3082 38.7276 35.1837 38.7539 35.0681 38.8038C34.9524 38.8537 34.8478 38.9261 34.7604 39.0168L29.7557 44.0216C28.8349 43.0035 28.021 41.8936 27.3268 40.7093L39.5082 25.7104C41.8259 22.8642 44.7059 20.5268 47.9681 18.8443C51.2303 17.1619 54.8046 16.1706 58.4673 15.9325L59.3494 15.8763C59.3913 15.8736 59.4334 15.8798 59.4728 15.8944C59.5122 15.9091 59.5481 15.932 59.5781 15.9615C59.608 15.9911 59.6314 16.0266 59.6467 16.0658C59.6619 16.105 59.6687 16.147 59.6666 16.189L59.6442 16.6499ZM46.452 44.7595C46.4571 46.6301 46.0911 48.4831 45.3753 50.2113C44.6594 51.9396 43.6079 53.5086 42.2816 54.8277L38.2229 58.8864L37.6566 47.8655L46.452 41.0404V44.7595ZM30.6844 49.1194C30.1897 49.5321 29.6831 49.9552 29.2122 50.342C27.424 49.3784 25.9568 47.9126 24.9915 46.1253L27.037 43.697C27.6563 44.5276 28.3335 45.3135 29.0636 46.0487C29.8739 46.8642 30.747 47.6148 31.6748 48.2936C31.3467 48.565 31.0136 48.8445 30.6844 49.1194ZM16.3741 37.036L20.4327 32.9774C21.7502 31.6527 23.3171 30.6021 25.0429 29.8863C26.7687 29.1704 28.6192 28.8036 30.4875 28.8069L34.4586 28.9237L27.4089 37.6038L16.3741 37.036ZM60.9081 14.6124C60.688 14.3959 60.4247 14.2282 60.1353 14.1204C59.846 14.0126 59.5372 13.9671 59.229 13.9869L58.3445 14.0416C54.4216 14.2974 50.5935 15.3596 47.0997 17.1618C43.6059 18.9641 40.5213 21.4677 38.039 24.5161L35.9627 27.0722L30.5288 26.9141H30.5015C28.382 26.908 26.2825 27.3224 24.3243 28.1331C22.3661 28.9439 20.5881 30.135 19.0933 31.6374L13.5276 37.2031C13.398 37.3326 13.3087 37.497 13.2707 37.6763C13.2326 37.8555 13.2473 38.042 13.3131 38.213C13.3789 38.3841 13.4929 38.5324 13.6413 38.6399C13.7897 38.7475 13.9661 38.8097 14.1491 38.819L25.9272 39.4241L25.4469 40.0152C25.3282 40.1608 25.2556 40.3384 25.2383 40.5255C25.221 40.7125 25.2599 40.9005 25.35 41.0653C25.5346 41.4047 25.7279 41.7387 25.9297 42.0672L23.136 45.3835C23.019 45.5224 22.9444 45.6919 22.921 45.872C22.8977 46.0521 22.9265 46.2351 23.0042 46.3992C24.2279 49.0039 26.3239 51.0987 28.9293 52.3209C29.0908 52.3973 29.2706 52.4265 29.4479 52.4051C29.6253 52.3838 29.793 52.3127 29.9317 52.2C30.5333 51.7118 31.2274 51.1326 31.8986 50.5727C32.3769 50.175 32.8661 49.7653 33.3235 49.3889C33.5967 49.5546 33.8733 49.7134 34.1534 49.8652C34.3151 49.9535 34.4991 49.9926 34.6828 49.9777C34.8664 49.9628 35.0417 49.8945 35.187 49.7812L35.8334 49.28L36.4415 61.1103C36.4508 61.2933 36.513 61.4697 36.6205 61.6181C36.7281 61.7665 36.8764 61.8805 37.0474 61.9463C37.2185 62.0121 37.4049 62.0268 37.5842 61.9888C37.7634 61.9507 37.9278 61.8614 38.0574 61.7318L43.6215 56.1677C45.124 54.6729 46.3151 52.8949 47.1259 50.9367C47.9366 48.9785 48.351 46.8789 48.3449 44.7595V39.5702L50.5405 37.8663C53.7898 35.348 56.4551 32.1558 58.3533 28.5093C60.2514 24.8628 61.3374 20.8485 61.5365 16.7424L61.5589 16.2815C61.574 15.973 61.5238 15.6648 61.4116 15.377C61.2995 15.0893 61.1279 14.8284 60.9081 14.6114V14.6124Z" fill="#002B59"/>
</svg>
