<svg width="42" height="42" viewBox="0 0 42 42" fill="none" xmlns="http://www.w3.org/2000/svg">
<path d="M5.17871 12.9463H34.9555C35.2989 12.9463 35.6282 13.0827 35.8709 13.3255C36.1137 13.5683 36.2501 13.8976 36.2501 14.2409V32.3659C36.2501 32.7093 36.1137 33.0386 35.8709 33.2814C35.6282 33.5242 35.2989 33.6606 34.9555 33.6606H6.47335C6.12999 33.6606 5.8007 33.5242 5.5579 33.2814C5.31511 33.0386 5.17871 32.7093 5.17871 32.3659V12.9463Z" stroke="#002B59" stroke-width="3" stroke-linecap="round" stroke-linejoin="round"/>
<path d="M5.17871 12.9466L31.0716 5.17871" stroke="#002B59" stroke-width="3" stroke-linecap="round" stroke-linejoin="round"/>
<path d="M25.8927 27.1873C28.0378 27.1873 29.7766 25.4484 29.7766 23.3034C29.7766 21.1583 28.0378 19.4194 25.8927 19.4194C23.7477 19.4194 22.0088 21.1583 22.0088 23.3034C22.0088 25.4484 23.7477 27.1873 25.8927 27.1873Z" stroke="#002B59" stroke-width="3" stroke-linecap="round" stroke-linejoin="round"/>
<path d="M11.6514 20.0669H15.5353" stroke="#002B59" stroke-width="3" stroke-linecap="round" stroke-linejoin="round"/>
<path d="M11.6514 26.54H15.5353" stroke="#002B59" stroke-width="3" stroke-linecap="round" stroke-linejoin="round"/>
</svg>
