<svg width="77" height="77" viewBox="0 0 77 77" fill="none" xmlns="http://www.w3.org/2000/svg">
<path d="M38.5 77C59.763 77 77 59.763 77 38.5C77 17.237 59.763 0 38.5 0C17.237 0 0 17.237 0 38.5C0 59.763 17.237 77 38.5 77Z" fill="#EFEFEF"/>
<path fill-rule="evenodd" clip-rule="evenodd" d="M12.5129 33.9331L18.6482 31.5366L24.8334 33.9331L25.4897 38.5272L23.5904 42.8329L19.7669 46.3034L17.9074 46.4326L14.3127 43.6931L13.0001 39.7354L12.2842 36.4339L12.5129 33.9331Z" fill="#FF9F43"/>
<path d="M45.566 13.7847C38.7499 13.7847 31.8503 15.4478 31.8503 18.6254V20.2388H13.2939C12.976 20.2388 12.6612 20.3014 12.3675 20.4231C12.0739 20.5447 11.807 20.7231 11.5823 20.9479C11.3575 21.1727 11.1792 21.4396 11.0576 21.7333C10.936 22.027 10.8735 22.3418 10.8735 22.6596V42.023C10.8735 42.6649 11.1285 43.2806 11.5824 43.7345C12.0363 44.1884 12.652 44.4434 13.2939 44.4434H14.1008V49.9354L10.9307 57.8592C10.8931 57.9542 10.8737 58.0554 10.8735 58.1576V60.5779C10.8735 60.7898 10.9153 60.9996 10.9963 61.1953C11.0774 61.3911 11.1963 61.569 11.3461 61.7188C11.4959 61.8686 11.6738 61.9874 11.8695 62.0685C12.0653 62.1496 12.2751 62.1913 12.4869 62.1913H43.1456C43.3575 62.1913 43.5673 62.1496 43.7631 62.0685C43.9588 61.9874 44.1367 61.8686 44.2865 61.7188C44.4363 61.569 44.5552 61.3911 44.6362 61.1953C44.7173 60.9996 44.759 60.7898 44.759 60.5779V58.1591C44.7589 58.0569 44.7395 57.9557 44.7019 57.8607L41.5317 49.9354V49.0703C42.8419 49.201 44.1868 49.2841 45.5655 49.2841C52.3816 49.2841 59.2812 47.621 59.2812 44.4434V18.6254C59.2817 15.4478 52.3816 13.7847 45.566 13.7847ZM45.566 15.3981C52.9534 15.3981 57.6678 17.3093 57.6678 18.6254C57.6678 19.9415 52.9534 21.8527 45.566 21.8527C42.8885 21.8787 40.2175 21.5824 37.6108 20.9702C37.3864 20.7388 37.1177 20.5549 36.8209 20.4294C36.524 20.3038 36.2049 20.2392 35.8826 20.2393H35.4087C33.9843 19.6252 33.4622 19.0067 33.4622 18.6259C33.4637 17.3098 38.1786 15.3981 45.566 15.3981ZM13.2939 21.8527H35.8826C36.0966 21.8527 36.3018 21.9377 36.4532 22.089C36.6045 22.2404 36.6895 22.4456 36.6895 22.6596V26.6939H12.4869V22.6596C12.4869 22.4456 12.572 22.2404 12.7233 22.089C12.8746 21.9377 13.0799 21.8527 13.2939 21.8527ZM12.4869 42.023V28.3073H36.691V42.023C36.691 42.1291 36.67 42.2341 36.6293 42.332C36.5886 42.43 36.529 42.5189 36.454 42.5938C36.3789 42.6687 36.2898 42.7281 36.1917 42.7685C36.0937 42.8089 35.9886 42.8297 35.8826 42.8295H32.1248C32.9994 41.2732 33.4605 39.5188 33.4642 37.7337V33.955C33.4644 33.7908 33.4145 33.6305 33.3211 33.4954C33.2277 33.3604 33.0953 33.257 32.9417 33.1992L26.4855 30.7784C26.3031 30.7111 26.1027 30.7111 25.9202 30.7784L19.4671 33.1987C19.3129 33.2561 19.1799 33.3592 19.0859 33.4943C18.992 33.6294 18.9416 33.7899 18.9416 33.9545V37.7332C18.9453 39.5183 19.4064 41.2727 20.281 42.829H13.2939C13.0799 42.829 12.8746 42.7439 12.7233 42.5926C12.572 42.4413 12.4869 42.236 12.4869 42.022V42.023ZM20.555 37.7342V34.5138L26.2026 32.3958L31.8503 34.5138V37.7342C31.845 39.5195 31.3038 41.2621 30.2969 42.7363C29.29 44.2106 27.8637 45.3486 26.2026 46.0031C24.5416 45.3486 23.1153 44.2106 22.1084 42.7363C21.1015 41.2621 20.5603 39.5195 20.555 37.7342ZM21.3873 44.4434C22.5445 45.8412 24.046 46.9134 25.7437 47.5543L25.9153 47.6195C26.0974 47.6873 26.2979 47.6873 26.4801 47.6195L26.6521 47.5543C28.3533 46.915 29.8582 45.8427 31.018 44.4434H35.8826C36.5245 44.4434 37.1401 44.1884 37.594 43.7345C38.0479 43.2806 38.3029 42.6649 38.3029 42.023V33.148H39.1099C39.3239 33.148 39.5292 33.233 39.6805 33.3844C39.8318 33.5357 39.9168 33.741 39.9168 33.955V49.2846H15.7143V44.4434H21.3873ZM33.2862 57.3521L32.6329 54.7359C32.5893 54.5613 32.4886 54.4063 32.3468 54.2956C32.205 54.1849 32.0302 54.1248 31.8503 54.1248H23.7823C23.6024 54.1248 23.4276 54.1849 23.2858 54.2956C23.144 54.4063 23.0433 54.5613 22.9997 54.7359L22.3464 57.3521H12.8723L15.4537 50.8975H40.1789L42.7603 57.3521H33.2862ZM31.6231 57.3521H24.0095L24.4127 55.7387H31.2199L31.6231 57.3521ZM12.4869 60.5794V58.9655H43.1456V60.5789L12.4869 60.5794ZM45.566 47.6707C44.2185 47.6671 42.8721 47.5938 41.5322 47.4509V42.6102C42.8722 42.7525 44.2185 42.8259 45.566 42.83C50.3853 42.83 55.233 41.9947 57.6678 40.3842V44.4434C57.6678 45.7589 52.9534 47.6707 45.566 47.6707ZM45.566 41.2161C44.2183 41.2141 42.8718 41.1389 41.5322 40.9908V36.1586C42.8722 36.3004 44.2186 36.3732 45.566 36.3768C50.3853 36.3768 55.233 35.5415 57.6678 33.9311V37.9902C57.6678 39.3043 52.9534 41.2161 45.566 41.2161ZM45.566 34.7614C44.2183 34.7594 42.8718 34.6842 41.5322 34.5362V33.955C41.5322 33.6371 41.4696 33.3223 41.3479 33.0286C41.2263 32.735 41.048 32.4681 40.8232 32.2434C40.5983 32.0186 40.3315 31.8403 40.0378 31.7187C39.7441 31.5971 39.4293 31.5346 39.1114 31.5346H38.3049V29.2271C40.6953 29.7011 43.1271 29.9343 45.564 29.9232C50.3833 29.9232 55.231 29.0879 57.6658 27.4775V31.5346C57.6678 32.8502 52.9534 34.7614 45.566 34.7614ZM45.566 28.3068C43.128 28.3214 40.6951 28.0812 38.3069 27.5904V22.7839C40.698 23.2515 43.1296 23.4809 45.566 23.4686C50.3853 23.4686 55.233 22.6333 57.6678 21.0229V25.082C57.6678 26.3956 52.9534 28.3073 45.566 28.3073V28.3068Z" fill="#002B59"/>
<path d="M54.4404 23.4658H56.0538V25.0792H54.4404V23.4658Z" fill="#002B59"/>
<path d="M51.2134 24.2754H52.8268V25.8888H51.2134V24.2754Z" fill="#002B59"/>
<path d="M47.9858 25.0796H49.5992V26.693H47.9858V25.0796Z" fill="#002B59"/>
<path d="M54.4404 29.9209H56.0538V31.5348H54.4404V29.9209Z" fill="#002B59"/>
<path d="M51.2134 30.7275H52.8268V32.3409H51.2134V30.7275Z" fill="#002B59"/>
<path d="M47.9858 31.5347H49.5992V33.1481H47.9858V31.5347Z" fill="#002B59"/>
<path d="M54.4404 36.375H56.0538V37.9884H54.4404V36.375Z" fill="#002B59"/>
<path d="M51.2134 37.1816H52.8268V38.7936H51.2134V37.1816Z" fill="#002B59"/>
<path d="M47.9858 37.9888H49.5992V39.6022H47.9858V37.9888Z" fill="#002B59"/>
<path d="M54.4404 42.8291H56.0538V44.4425H54.4404V42.8291Z" fill="#002B59"/>
<path d="M51.2134 43.6362H52.8268V45.2496H51.2134V43.6362Z" fill="#002B59"/>
<path d="M47.9858 44.4434H49.5992V46.0568H47.9858V44.4434Z" fill="#002B59"/>
<path d="M50.4065 17.8188H40.7251V19.4323H50.4065V17.8188Z" fill="#002B59"/>
<path d="M14.1006 23.4658H15.714V25.0792H14.1006V23.4658Z" fill="#002B59"/>
<path d="M17.3281 23.4658H18.9415V25.0792H17.3281V23.4658Z" fill="#002B59"/>
<path d="M20.5547 23.4658H22.1681V25.0792H20.5547V23.4658Z" fill="#002B59"/>
<path d="M25.3959 42.0228C25.6098 42.0228 25.8149 41.9378 25.9662 41.7867L30 37.7524L28.8594 36.6113L25.3959 40.0748L23.5458 38.2247L22.4053 39.3658L24.8256 41.7862C24.9768 41.9375 25.182 42.0227 25.3959 42.0228Z" fill="#002B59"/>
</svg>
