<svg width="180" height="180" viewBox="0 0 180 180" fill="none" xmlns="http://www.w3.org/2000/svg">
<circle cx="90" cy="90" r="90" fill="url(#paint0_linear_125_2)" fill-opacity="0.6"/>
<g filter="url(#filter0_d_125_2)">
<path d="M117.2 58H62.8C59.026 58 56 60.9667 56 64.6667V111.333C56 115.033 59.026 118 62.8 118H117.2C120.974 118 124 115.033 124 111.333V64.6667C124 60.9667 120.974 58 117.2 58ZM66.2 71.3333H83.2V91.3333H66.2V71.3333ZM113.8 104.667H66.2V98H113.8V104.667ZM113.8 91.3333H90V84.6667H113.8V91.3333ZM113.8 78H90V71.3333H113.8V78Z" fill="#003268"/>
</g>
<defs>
<filter id="filter0_d_125_2" x="51" y="57" width="78" height="70" filterUnits="userSpaceOnUse" color-interpolation-filters="sRGB">
<feFlood flood-opacity="0" result="BackgroundImageFix"/>
<feColorMatrix in="SourceAlpha" type="matrix" values="0 0 0 0 0 0 0 0 0 0 0 0 0 0 0 0 0 0 127 0" result="hardAlpha"/>
<feOffset dy="4"/>
<feGaussianBlur stdDeviation="2.5"/>
<feComposite in2="hardAlpha" operator="out"/>
<feColorMatrix type="matrix" values="0 0 0 0 0 0 0 0 0 0 0 0 0 0 0 0 0 0 0.25 0"/>
<feBlend mode="normal" in2="BackgroundImageFix" result="effect1_dropShadow_125_2"/>
<feBlend mode="normal" in="SourceGraphic" in2="effect1_dropShadow_125_2" result="shape"/>
</filter>
<linearGradient id="paint0_linear_125_2" x1="90" y1="0" x2="90" y2="180" gradientUnits="userSpaceOnUse">
<stop offset="0.1875" stop-color="#FFB46B"/>
<stop offset="1" stop-color="#FFC185" stop-opacity="0"/>
</linearGradient>
</defs>
</svg>
