<svg width="77" height="77" viewBox="0 0 77 77" fill="none" xmlns="http://www.w3.org/2000/svg">
<path d="M38.5 77C59.763 77 77 59.763 77 38.5C77 17.237 59.763 0 38.5 0C17.237 0 0 17.237 0 38.5C0 59.763 17.237 77 38.5 77Z" fill="#EFEFEF"/>
<path d="M49.101 54.5717C55.881 54.5717 61.3773 49.0754 61.3773 42.2954C61.3773 35.5153 55.881 30.019 49.101 30.019C42.321 30.019 36.8247 35.5153 36.8247 42.2954C36.8247 49.0754 42.321 54.5717 49.101 54.5717Z" fill="#FF9F43"/>
<path d="M54.6503 35.2596L49.6127 40.2967C49.4475 40.24 49.2755 40.2054 49.1011 40.1938C48.7768 40.1725 48.4522 40.2316 48.1562 40.366C47.8603 40.5004 47.6021 40.7058 47.4047 40.964C47.2073 41.2223 47.0767 41.5253 47.0247 41.8461C46.9726 42.167 47.0007 42.4957 47.1064 42.8031L42.0668 47.8432C41.8765 48.0411 41.7714 48.3057 41.7741 48.5803C41.7768 48.8548 41.8871 49.1173 42.0812 49.3114C42.2753 49.5055 42.5378 49.6158 42.8124 49.6185C43.0869 49.6212 43.3515 49.5161 43.5494 49.3259L48.5895 44.2863C48.8967 44.3915 49.2252 44.4192 49.5457 44.367C49.8663 44.3148 50.1689 44.1842 50.4269 43.9869C50.6848 43.7896 50.8901 43.5317 51.0244 43.236C51.1587 42.9403 51.2179 42.6161 51.1968 42.292C51.184 42.1178 51.1495 41.9459 51.0939 41.7804L56.1335 36.7423C56.3238 36.5444 56.4288 36.2797 56.4261 36.0052C56.4234 35.7307 56.3132 35.4682 56.1191 35.2741C55.9249 35.0799 55.6624 34.9697 55.3879 34.967C55.1134 34.9643 54.8487 35.0694 54.6508 35.2596H54.6503ZM64.831 52.7764C64.8295 54.1667 64.2767 55.4997 63.2937 56.483C62.3107 57.4663 60.9779 58.0195 59.5875 58.0213H23.9335C22.5431 58.0195 21.2103 57.4663 20.2273 56.483C19.2443 55.4997 18.6915 54.1667 18.69 52.7764V31.8051C18.692 30.4151 19.2451 29.0826 20.228 28.0998C21.2109 27.117 22.5435 26.564 23.9335 26.5622H59.5875C60.9775 26.564 62.3101 27.117 63.293 28.0998C64.2759 29.0826 64.829 30.4151 64.831 31.8051V52.7764ZM61.2636 24.6743C61.1502 24.5898 61.0213 24.5285 60.8842 24.4938L17.889 14.0074C17.7552 13.9748 17.6162 13.9688 17.4801 13.9899C17.3439 14.0109 17.2132 14.0586 17.0955 14.1302C16.8577 14.2747 16.6871 14.5078 16.6212 14.7781C16.5553 15.0484 16.5994 15.3338 16.7439 15.5716C16.8885 15.8094 17.1215 15.98 17.3918 16.0459L51.9093 24.4645H23.9335C21.9871 24.4663 20.1209 25.2403 18.7446 26.6165C17.3682 27.9927 16.594 29.8587 16.5919 31.8051V52.7764C16.5962 54.5374 17.2347 56.2379 18.3903 57.5667C19.546 58.8955 21.1415 59.7636 22.8849 60.0121V61.1676C22.885 61.4457 22.9955 61.7123 23.1922 61.9089C23.3888 62.1055 23.6554 62.2161 23.9335 62.2162H26.0307C26.3087 62.2161 26.5754 62.1055 26.772 61.9089C26.9686 61.7123 27.0791 61.4457 27.0792 61.1676V60.119H56.4417V61.1676C56.4419 61.4457 56.5524 61.7123 56.749 61.9089C56.9456 62.1055 57.2123 62.2161 57.4903 62.2162H59.5875C59.8656 62.2161 60.1322 62.1055 60.3288 61.9089C60.5255 61.7123 60.636 61.4457 60.6361 61.1676V60.0121C62.3792 59.7631 63.9743 58.8948 65.1297 57.5661C66.2851 56.2374 66.9235 54.5372 66.9281 52.7764V31.8051C66.9243 30.1524 66.363 28.5494 65.335 27.2553C64.307 25.9613 62.8725 25.0519 61.2636 24.6743ZM31.2741 51.7298C30.8593 51.7298 30.4539 51.8528 30.109 52.0832C29.7641 52.3137 29.4953 52.6412 29.3366 53.0244C29.1778 53.4076 29.1363 53.8293 29.2172 54.2361C29.2981 54.6429 29.4979 55.0166 29.7912 55.3099C30.0845 55.6032 30.4581 55.8029 30.865 55.8839C31.2718 55.9648 31.6934 55.9233 32.0767 55.7645C32.4599 55.6058 32.7874 55.337 33.0178 54.9921C33.2483 54.6472 33.3713 54.2418 33.3713 53.827C33.371 53.2709 33.15 52.7376 32.7567 52.3443C32.3635 51.9511 31.8302 51.7301 31.2741 51.7298ZM49.1011 53.827C46.8197 53.827 44.5895 53.1505 42.6926 51.883C40.7957 50.6155 39.3172 48.814 38.4442 46.7062C37.5711 44.5985 37.3427 42.2792 37.7878 40.0416C38.2329 37.8041 39.3315 35.7487 40.9447 34.1355C42.5579 32.5223 44.6132 31.4237 46.8508 30.9787C49.0883 30.5336 51.4076 30.762 53.5154 31.6351C55.6231 32.5081 57.4246 33.9866 58.6921 35.8835C59.9596 37.7804 60.6361 40.0106 60.6361 42.292C60.6328 45.3503 59.4165 48.2823 57.254 50.4448C55.0914 52.6073 52.1594 53.8237 49.1011 53.827ZM49.1011 28.6593C46.4048 28.6589 43.7688 29.4581 41.5267 30.9559C39.2845 32.4536 37.5369 34.5826 36.5048 37.0736C35.4726 39.5646 35.2024 42.3058 35.7282 44.9504C36.254 47.595 37.5522 50.0243 39.4587 51.931C41.3652 53.8378 43.7943 55.1364 46.4388 55.6626C49.0833 56.1887 51.8245 55.9189 54.3157 54.8871C56.8068 53.8554 58.9361 52.108 60.4341 49.8661C61.9322 47.6242 62.7318 44.9884 62.7318 42.292C62.7277 38.678 61.2904 35.2131 58.7351 32.6575C56.1798 30.1018 52.7151 28.6639 49.1011 28.6593ZM21.8363 34.9514H30.2255C30.3632 34.9514 30.4996 34.9242 30.6268 34.8716C30.754 34.8189 30.8696 34.7416 30.967 34.6442C31.0643 34.5469 31.1416 34.4313 31.1943 34.3041C31.247 34.1768 31.2741 34.0405 31.2741 33.9028C31.2741 33.7651 31.247 33.6287 31.1943 33.5015C31.1416 33.3743 31.0643 33.2587 30.967 33.1613C30.8696 33.0639 30.754 32.9867 30.6268 32.934C30.4996 32.8813 30.3632 32.8542 30.2255 32.8542H21.8363C21.5582 32.8542 21.2915 32.9647 21.0948 33.1613C20.8982 33.358 20.7877 33.6247 20.7877 33.9028C20.7877 34.1809 20.8982 34.4476 21.0948 34.6442C21.2915 34.8409 21.5582 34.9514 21.8363 34.9514ZM21.8363 47.5354H30.2255C30.5036 47.5354 30.7703 47.425 30.967 47.2283C31.1636 47.0317 31.2741 46.765 31.2741 46.4869C31.2741 46.2087 31.1636 45.942 30.967 45.7454C30.7703 45.5487 30.5036 45.4383 30.2255 45.4383H21.8363C21.5582 45.4383 21.2915 45.5487 21.0948 45.7454C20.8982 45.942 20.7877 46.2087 20.7877 46.4869C20.7877 46.765 20.8982 47.0317 21.0948 47.2283C21.2915 47.425 21.5582 47.5354 21.8363 47.5354ZM23.9335 53.8275C23.7262 53.8275 23.5236 53.766 23.3512 53.6509C23.1788 53.5358 23.0444 53.3722 22.9649 53.1807C22.8855 52.9893 22.8646 52.7786 22.9049 52.5752C22.9451 52.3719 23.0447 52.1851 23.1911 52.0383C23.3375 51.8916 23.5241 51.7915 23.7274 51.7508C23.9306 51.71 24.1414 51.7304 24.333 51.8094C24.5247 51.8884 24.6886 52.0224 24.8041 52.1945C24.9197 52.3666 24.9816 52.5691 24.9821 52.7764C24.9823 52.9143 24.9553 53.0508 24.9027 53.1782C24.8501 53.3056 24.7729 53.4214 24.6755 53.519C24.5781 53.6166 24.4625 53.694 24.3351 53.7468C24.2078 53.7997 24.0713 53.8269 23.9335 53.827V53.8275ZM23.9335 49.6326C23.3112 49.6326 22.7029 49.8172 22.1856 50.1629C21.6682 50.5087 21.265 51.0001 21.027 51.575C20.7889 52.1499 20.7268 52.7826 20.8483 53.3928C20.9698 54.0031 21.2696 54.5636 21.7098 55.0035C22.1499 55.4434 22.7106 55.7428 23.321 55.864C23.9313 55.9851 24.5639 55.9225 25.1387 55.6841C25.7135 55.4457 26.2046 55.0422 26.5501 54.5246C26.8955 54.0071 27.0796 53.3987 27.0792 52.7764C27.0778 51.9427 26.7459 51.1435 26.1562 50.5541C25.5665 49.9647 24.7672 49.6332 23.9335 49.6321V49.6326ZM21.8363 41.2414H30.2255C30.3632 41.2414 30.4996 41.2143 30.6268 41.1616C30.754 41.1089 30.8696 41.0317 30.967 40.9343C31.0643 40.8369 31.1416 40.7213 31.1943 40.5941C31.247 40.4669 31.2741 40.3305 31.2741 40.1928C31.2741 40.0551 31.247 39.9188 31.1943 39.7915C31.1416 39.6643 31.0643 39.5487 30.967 39.4514C30.8696 39.354 30.754 39.2768 30.6268 39.2241C30.4996 39.1714 30.3632 39.1442 30.2255 39.1442H21.8363C21.5582 39.1442 21.2915 39.2547 21.0948 39.4514C20.8982 39.648 20.7877 39.9147 20.7877 40.1928C20.7877 40.4709 20.8982 40.7376 21.0948 40.9343C21.2915 41.1309 21.5582 41.2414 21.8363 41.2414Z" fill="#002B59"/>
</svg>
