<svg width="180" height="180" viewBox="0 0 180 180" fill="none" xmlns="http://www.w3.org/2000/svg">
<circle cx="90" cy="90" r="90" fill="url(#paint0_linear_125_5)" fill-opacity="0.6"/>
<g filter="url(#filter0_d_125_5)">
<path d="M119.348 95.6785C118.645 95.6818 117.958 95.4766 117.372 95.0887C116.786 94.7008 116.328 94.1478 116.057 93.4996C115.786 92.8515 115.713 92.1375 115.848 91.448C115.983 90.7586 116.32 90.1247 116.816 89.6267C117.311 89.1288 117.944 88.7891 118.632 88.6508C119.321 88.5125 120.036 88.5818 120.685 88.8499C121.334 89.118 121.89 89.5728 122.28 90.1567C122.671 90.7406 122.879 91.4274 122.879 92.1299C122.883 92.5954 122.794 93.057 122.618 93.4879C122.442 93.9189 122.182 94.3107 121.854 94.6406C121.525 94.9706 121.135 95.2322 120.705 95.4103C120.274 95.5885 119.813 95.6796 119.348 95.6785V95.6785ZM102.083 95.6785C101.381 95.6818 100.693 95.4766 100.107 95.0887C99.5213 94.7008 99.0639 94.1478 98.7927 93.4996C98.5215 92.8515 98.4488 92.1375 98.5839 91.448C98.7189 90.7586 99.0555 90.1247 99.5511 89.6267C100.047 89.1288 100.679 88.7891 101.368 88.6508C102.057 88.5125 102.771 88.5818 103.42 88.8499C104.07 89.118 104.625 89.5728 105.016 90.1567C105.406 90.7406 105.615 91.4274 105.615 92.1299C105.618 92.5955 105.53 93.0572 105.354 93.4882C105.178 93.9192 104.918 94.3111 104.589 94.6411C104.261 94.9711 103.87 95.2327 103.44 95.4108C103.01 95.5889 102.549 95.6798 102.083 95.6785V95.6785ZM127.783 115.763C133.277 111.824 136.808 105.919 136.808 99.2237C136.808 87.2126 125.233 77.3662 110.716 77.3662C96.1993 77.3662 84.6226 87.2126 84.6226 99.2237C84.6226 111.235 96.1976 121.079 110.716 121.079C113.658 121.079 116.602 120.686 119.152 119.897C119.573 119.751 119.74 119.699 119.936 119.699C120.42 119.71 120.893 119.847 121.31 120.094L127.008 123.442C127.192 123.538 127.39 123.605 127.596 123.639C127.8 123.626 127.992 123.538 128.136 123.393C128.281 123.248 128.368 123.056 128.381 122.852C128.368 122.63 128.325 122.41 128.251 122.2C128.182 121.953 127.406 119.496 127.008 117.93C126.971 117.736 126.952 117.54 126.952 117.343C126.954 117.031 127.032 116.724 127.179 116.449C127.327 116.174 127.538 115.939 127.797 115.763" fill="#003268"/>
</g>
<g filter="url(#filter1_d_125_5)">
<path d="M91.8819 75.3977C90.7852 75.3977 89.7335 74.9621 88.958 74.1866C88.1826 73.4112 87.7469 72.3594 87.7469 71.2628C87.7469 70.1661 88.1826 69.1144 88.958 68.339C89.7335 67.5635 90.7852 67.1279 91.8819 67.1279C94.0397 67.1279 96.0016 69.0965 96.0016 71.2628C96.1976 73.4291 94.2357 75.3977 91.8819 75.3977ZM71.0873 75.3977C70.2691 75.4007 69.4685 75.1609 68.7866 74.7087C68.1048 74.2565 67.5724 73.6122 67.2569 72.8573C66.9415 72.1024 66.857 71.2709 67.0143 70.468C67.1716 69.665 67.5635 68.9268 68.1405 68.3468C68.7175 67.7667 69.4536 67.3708 70.2556 67.2093C71.0577 67.0478 71.8897 67.1278 72.6462 67.4393C73.4028 67.7507 74.0499 68.2796 74.5058 68.9591C74.9616 69.6385 75.2057 70.4379 75.207 71.256C75.2026 72.3487 74.7676 73.3956 73.9964 74.1696C73.2252 74.9437 72.1799 75.3825 71.0873 75.391V75.3977ZM81.4846 53.3442C64.22 53.3442 50.291 64.9616 50.291 79.536C50.291 87.4121 54.4107 94.5008 61.0803 99.2272C61.6701 99.6175 61.7816 100.489 61.7816 100.827C61.7957 101.085 61.7578 101.343 61.6701 101.586C61.0803 103.555 60.3284 106.742 60.2963 106.911C60.2642 107.08 60.1003 107.502 60.1003 107.698C60.0919 107.829 60.1115 107.961 60.1577 108.084C60.2039 108.207 60.2757 108.318 60.3684 108.411C60.4611 108.505 60.5724 108.577 60.6952 108.624C60.8179 108.671 60.9492 108.691 61.0803 108.683C61.2908 108.67 61.4941 108.602 61.6701 108.486L68.5408 104.545C69.1305 104.151 69.5225 104.151 70.1106 104.151C70.4471 104.156 70.7798 104.223 71.0924 104.347C74.2303 105.332 77.762 105.726 81.2936 105.726H83.0595C82.4162 103.62 82.0854 101.431 82.0777 99.2288C82.0777 86.035 94.8305 75.4028 110.525 75.4028H112.291C110.127 62.9929 97.1794 53.3442 81.4846 53.3442Z" fill="#003268"/>
</g>
<defs>
<filter id="filter0_d_125_5" x="79.6226" y="76.3662" width="62.1859" height="56.2734" filterUnits="userSpaceOnUse" color-interpolation-filters="sRGB">
<feFlood flood-opacity="0" result="BackgroundImageFix"/>
<feColorMatrix in="SourceAlpha" type="matrix" values="0 0 0 0 0 0 0 0 0 0 0 0 0 0 0 0 0 0 127 0" result="hardAlpha"/>
<feOffset dy="4"/>
<feGaussianBlur stdDeviation="2.5"/>
<feComposite in2="hardAlpha" operator="out"/>
<feColorMatrix type="matrix" values="0 0 0 0 0 0 0 0 0 0 0 0 0 0 0 0 0 0 0.4 0"/>
<feBlend mode="normal" in2="BackgroundImageFix" result="effect1_dropShadow_125_5"/>
<feBlend mode="normal" in="SourceGraphic" in2="effect1_dropShadow_125_5" result="shape"/>
</filter>
<filter id="filter1_d_125_5" x="45.291" y="52.3442" width="72.0002" height="65.3408" filterUnits="userSpaceOnUse" color-interpolation-filters="sRGB">
<feFlood flood-opacity="0" result="BackgroundImageFix"/>
<feColorMatrix in="SourceAlpha" type="matrix" values="0 0 0 0 0 0 0 0 0 0 0 0 0 0 0 0 0 0 127 0" result="hardAlpha"/>
<feOffset dy="4"/>
<feGaussianBlur stdDeviation="2.5"/>
<feComposite in2="hardAlpha" operator="out"/>
<feColorMatrix type="matrix" values="0 0 0 0 0 0 0 0 0 0 0 0 0 0 0 0 0 0 0.4 0"/>
<feBlend mode="normal" in2="BackgroundImageFix" result="effect1_dropShadow_125_5"/>
<feBlend mode="normal" in="SourceGraphic" in2="effect1_dropShadow_125_5" result="shape"/>
</filter>
<linearGradient id="paint0_linear_125_5" x1="90" y1="0" x2="90" y2="180" gradientUnits="userSpaceOnUse">
<stop stop-color="#003268"/>
<stop offset="1" stop-color="#003268" stop-opacity="0"/>
</linearGradient>
</defs>
</svg>
