<svg width="77" height="77" viewBox="0 0 77 77" fill="none" xmlns="http://www.w3.org/2000/svg">
<path d="M38.5 77C59.763 77 77 59.763 77 38.5C77 17.237 59.763 0 38.5 0C17.237 0 0 17.237 0 38.5C0 59.763 17.237 77 38.5 77Z" fill="#EFEFEF"/>
<path d="M42.2836 21.6284H39.0513V31.3576H42.2836V21.6284Z" fill="#FF9F43"/>
<path d="M41.4391 20.2608C43.0799 20.5094 43.6765 21.2085 43.6765 22.8746V30.258C43.6765 31.9365 43.2201 32.5292 41.5744 32.9568V34.9555H39.5085V32.9667C39.3375 32.9215 39.2102 32.8857 39.0819 32.8559C38.597 32.767 38.1596 32.5086 37.8477 32.1269C37.5358 31.7451 37.3699 31.2649 37.3795 30.7721C37.3623 27.9878 37.3623 25.2023 37.3795 22.4157C37.3723 21.9573 37.5187 21.5096 37.7954 21.1441C38.0721 20.7785 38.4632 20.5161 38.9064 20.3986C39.0009 20.3677 39.0938 20.3319 39.2296 20.2837C38.9098 19.1372 38.2062 18.1352 37.2363 17.4452C36.123 16.6729 34.815 16.2295 33.4616 16.1654C31.0735 15.8917 28.657 16.3111 26.5008 17.3736C25.1768 18.0182 24.047 19.0017 23.2261 20.2243C22.4053 21.4469 21.9226 22.8649 21.8272 24.3344C21.2859 29.1632 21.9778 34.0505 23.8383 38.5393C23.9974 38.9157 24.1973 39.2747 24.3788 39.6416C24.4011 39.6859 24.434 39.7256 24.5225 39.8569C24.8546 38.4777 25.1991 37.1959 26.8976 37.0955V21.3746H28.9694V25.5197H36.2886V27.6576H29.0186V37.0686H52.019V27.6676H44.7485V25.5694H52.0513V21.3716H54.1395V37.08C55.4417 37.1899 56.0234 37.9641 56.3431 39.1186C57.6308 43.7708 58.9663 48.4097 60.271 53.057C60.3752 53.4353 60.4294 53.8256 60.4321 54.2179C60.4485 56.1148 60.4435 58.0121 60.438 59.9089C60.438 61.4571 59.6097 62.3014 58.0793 62.3014C46.3786 62.3054 34.6779 62.3054 22.9772 62.3014C21.4388 62.3014 20.6185 61.4562 20.6135 59.9099C20.6135 58.0305 20.5111 56.1426 20.6483 54.2702C20.8004 53.0551 21.0695 51.8576 21.4518 50.6943C22.1553 48.1308 22.9071 45.5732 23.6205 43.0106C23.6849 42.7938 23.6632 42.5605 23.5599 42.3593C21.8267 39.706 20.6744 36.716 20.1789 33.5857C19.6118 30.7325 19.4345 27.8155 19.6519 24.9146C20.1491 19.2749 23.4276 15.3227 29.2538 14.2607C31.5708 13.7744 33.9748 13.9035 36.2265 14.635C38.8741 15.5578 40.6516 17.3199 41.369 20.0779C41.388 20.1405 41.4114 20.2016 41.4391 20.2608ZM22.7201 53.8629H58.3289L54.2335 39.4218L54.1176 39.4412V42.325H52.0443V39.2374H50.155C50.8481 43.4367 51.5372 47.5903 52.2303 51.7732H28.8163L30.8935 39.223H28.9774V42.321H26.8891V39.4661L26.8121 39.4581C25.4532 44.2427 24.0944 49.0272 22.7201 53.8629ZM22.7385 60.1654H58.2941V56.0248H22.739L22.7385 60.1654ZM38.3465 39.2085C38.0552 42.7053 37.7663 46.1693 37.474 49.6731H43.5771C43.2837 46.1663 42.9934 42.6929 42.7025 39.2085H38.3465ZM36.2339 39.2165H33.028C32.4498 42.6969 31.8715 46.1678 31.2848 49.7074C32.5378 49.7074 33.7256 49.692 34.9144 49.7158C35.2987 49.7243 35.3912 49.594 35.42 49.2256C35.5955 46.9131 35.8014 44.6016 35.9943 42.2917C36.0734 41.2759 36.1514 40.2616 36.2344 39.217L36.2339 39.2165ZM49.7697 49.7074L48.0265 39.2324H44.8559C44.8454 39.262 44.8382 39.2927 44.8345 39.3239C45.1079 42.6893 45.3844 46.0536 45.6638 49.417C45.681 49.4813 45.714 49.5402 45.7599 49.5884C45.8057 49.6367 45.863 49.6726 45.9263 49.693C47.1837 49.7113 48.4406 49.7054 49.7687 49.7054L49.7697 49.7074ZM41.5296 30.7676V22.4266H39.5299V30.7676H41.5296Z" fill="#002B59"/>
<path d="M41.5611 58.0959C41.559 58.3005 41.4964 58.4999 41.3813 58.669C41.2661 58.8381 41.1035 58.9693 40.9139 59.0462C40.7243 59.1231 40.5162 59.1421 40.3158 59.1009C40.1154 59.0598 39.9317 58.9602 39.7878 58.8148C39.6438 58.6694 39.5461 58.4847 39.507 58.2839C39.4678 58.0831 39.4889 57.8752 39.5677 57.6864C39.6465 57.4976 39.7793 57.3363 39.9496 57.2228C40.1198 57.1094 40.3198 57.0488 40.5244 57.0488H40.5353C40.8084 57.0573 41.0676 57.171 41.2588 57.3661C41.4499 57.5613 41.5582 57.8228 41.5611 58.0959Z" fill="#002B59"/>
</svg>
