<svg width="77" height="82" viewBox="0 0 77 82" fill="none" xmlns="http://www.w3.org/2000/svg">
<path d="M38.5 82C59.763 82 77 63.6437 77 41C77 18.3563 59.763 0 38.5 0C17.237 0 0 18.3563 0 41C0 63.6437 17.237 82 38.5 82Z" fill="#EFEFEF"/>
<path fill-rule="evenodd" clip-rule="evenodd" d="M17.5137 60.6202L17.822 57.9357L18.9655 55.426L21.2874 54.1659L22.5652 53.4033C22.8112 54.0399 23.1754 54.6171 23.6359 55.1002C24.0964 55.5833 24.6437 55.9624 25.2451 56.2149L23.6143 58.9523L22.1675 61.1073L18.9655 61.5944L17.9711 61.5097L17.5137 60.6202Z" fill="#FF9F43"/>
<path d="M14.1972 64.0166C14.3849 64.0166 14.5684 64.0759 14.7245 64.1869C14.8805 64.298 15.0022 64.4558 15.0741 64.6405C15.1459 64.8251 15.1647 65.0283 15.1281 65.2244C15.0916 65.4204 15.0012 65.6005 14.8685 65.7419C14.7358 65.8833 14.5668 65.9796 14.3827 66.0187C14.1986 66.0577 14.0078 66.0378 13.8343 65.9614C13.6609 65.885 13.5126 65.7555 13.4082 65.5893C13.3039 65.4232 13.2481 65.2278 13.248 65.0279C13.248 64.8951 13.2725 64.7636 13.3202 64.6409C13.3678 64.5182 13.4377 64.4068 13.5259 64.3128C13.614 64.2189 13.7187 64.1444 13.8339 64.0936C13.949 64.0428 14.0725 64.0166 14.1972 64.0166Z" fill="#002B59"/>
<path d="M38.4433 38.3804C38.6306 38.3804 38.8137 38.4395 38.9695 38.5504C39.1252 38.6612 39.2466 38.8187 39.3183 39.003C39.39 39.1873 39.4088 39.3902 39.3722 39.5858C39.3357 39.7815 39.2455 39.9612 39.113 40.1023C38.9805 40.2433 38.8118 40.3394 38.628 40.3783C38.4443 40.4172 38.2539 40.3973 38.0808 40.3209C37.9077 40.2446 37.7598 40.1153 37.6557 39.9494C37.5516 39.7835 37.4961 39.5885 37.4961 39.389C37.4961 39.1215 37.5959 38.865 37.7735 38.6758C37.9511 38.4866 38.1921 38.3804 38.4433 38.3804Z" fill="#002B59"/>
<path d="M49.5097 31.2441C49.2107 31.5626 48.8298 31.7795 48.4151 31.8674C48.0003 31.9553 47.5704 31.9103 47.1797 31.738C46.789 31.5657 46.455 31.2739 46.2201 30.8995C45.9851 30.525 45.8597 30.0848 45.8597 29.6345C45.8597 29.1841 45.9851 28.7439 46.2201 28.3695C46.455 27.995 46.789 27.7032 47.1797 27.5309C47.5704 27.3586 48.0003 27.3136 48.4151 27.4015C48.8298 27.4894 49.2107 27.7063 49.5097 28.0248C49.9105 28.4518 50.1356 29.0308 50.1356 29.6345C50.1356 30.2381 49.9105 30.8171 49.5097 31.2441ZM47.9982 25.3403C47.0654 25.3403 46.1613 25.6847 45.4402 26.3149C44.719 26.9452 44.2254 27.8221 44.0433 28.7965C43.8613 29.7708 44.0021 30.7823 44.4418 31.6584C44.8815 32.5346 45.5929 33.2213 46.4547 33.6016C47.3166 33.9818 48.2756 34.0321 49.1683 33.7438C50.061 33.4555 50.8323 32.8464 51.3506 32.0205C51.869 31.1945 52.1023 30.2027 52.011 29.214C51.9196 28.2253 51.5092 27.301 50.8497 26.5984C50.4761 26.1983 50.0317 25.8811 49.5423 25.6652C49.0528 25.4492 48.528 25.3388 47.9982 25.3403Z" fill="#002B59"/>
<path d="M25.081 56.0856C24.8561 55.9664 24.596 55.9472 24.3578 56.0322C24.1196 56.1172 23.9228 56.2994 23.8107 56.5389L22.6826 58.9523C22.4395 59.4693 22.0742 59.9101 21.6226 60.2312C21.171 60.5522 20.6487 60.7425 20.1071 60.7832L18.7945 60.879C18.7148 60.8846 18.6349 60.8719 18.5602 60.842C18.4854 60.812 18.4175 60.7654 18.3611 60.7052C18.3046 60.6451 18.2608 60.5728 18.2327 60.4932C18.2045 60.4136 18.1927 60.3285 18.1978 60.2437L18.2878 58.8464C18.3261 58.2696 18.5048 57.7133 18.8063 57.2324C19.1078 56.7515 19.5216 56.3625 20.0071 56.1036L22.2729 54.9022C22.4978 54.7829 22.6689 54.5733 22.7487 54.3195C22.8285 54.0658 22.8103 53.7886 22.6982 53.5491C22.5861 53.3096 22.3893 53.1274 22.151 53.0424C21.9127 52.9575 21.6525 52.9768 21.4276 53.0962L19.1609 54.2949C18.3801 54.7112 17.7145 55.3369 17.2297 56.1104C16.7449 56.8838 16.4575 57.7784 16.396 58.706L16.3065 60.1034C16.2835 60.461 16.3299 60.8199 16.4426 61.1577C16.5553 61.4955 16.7321 61.805 16.9618 62.067C17.1916 62.329 17.4695 62.538 17.7782 62.6808C18.087 62.8237 18.4201 62.8974 18.7567 62.8974C18.8127 62.8974 18.8687 62.8953 18.9247 62.8911L20.2373 62.7952C21.1084 62.7294 21.9483 62.4231 22.6745 61.9066C23.4006 61.39 23.9879 60.6809 24.3785 59.8492L25.5066 57.4358C25.6179 57.1966 25.6356 56.9202 25.5558 56.6671C25.4761 56.414 25.3053 56.2049 25.081 56.0856Z" fill="#002B59"/>
<path d="M59.6442 17.7308C59.4585 21.8127 58.445 25.8033 56.6734 29.4284C54.9017 33.0534 52.4139 36.2269 49.381 38.7307L34.5228 51.0094C33.2924 50.2416 32.1423 49.3364 31.0921 48.309L36.1004 42.9771C36.1912 42.8841 36.2636 42.7727 36.3135 42.6495C36.3633 42.5264 36.3896 42.3938 36.3908 42.2597C36.392 42.1255 36.3681 41.9925 36.3205 41.8683C36.2728 41.7441 36.2024 41.6313 36.1133 41.5364C36.0242 41.4416 35.9183 41.3666 35.8017 41.3158C35.6851 41.2651 35.5601 41.2396 35.4342 41.2409C35.3082 41.2422 35.1837 41.2702 35.0681 41.3233C34.9524 41.3764 34.8478 41.4535 34.7604 41.5502L29.7557 46.88C28.8349 45.7957 28.021 44.6137 27.3268 43.3525L39.5082 27.3796C41.8259 24.3486 44.7059 21.8594 47.9681 20.0677C51.2303 18.2761 54.8046 17.2204 58.4673 16.9668L59.3494 16.907C59.3913 16.9041 59.4334 16.9107 59.4728 16.9263C59.5122 16.942 59.5481 16.9663 59.5781 16.9978C59.608 17.0292 59.6314 17.0671 59.6467 17.1088C59.6619 17.1506 59.6687 17.1953 59.6666 17.24L59.6442 17.7308ZM46.452 47.6657C46.4571 49.6578 46.0911 51.6311 45.3753 53.4716C44.6594 55.312 43.6079 56.983 42.2816 58.3877L38.2229 62.7099L37.6566 50.9734L46.452 43.7052V47.6657ZM30.6844 52.3087C30.1897 52.7482 29.6831 53.1988 29.2122 53.6107C27.424 52.5846 25.9568 51.0236 24.9915 49.1202L27.037 46.5342C27.6563 47.4188 28.3335 48.2557 29.0636 49.0387C29.8739 49.9071 30.747 50.7064 31.6748 51.4293C31.3467 51.7184 31.0136 52.0159 30.6844 52.3087ZM16.3741 39.4407L20.4327 35.1185C21.7502 33.7078 23.3171 32.589 25.0429 31.8267C26.7687 31.0644 28.6192 30.6737 30.4875 30.6772L34.4586 30.8017L27.4089 40.0454L16.3741 39.4407ZM60.9081 15.561C60.688 15.3304 60.4247 15.1519 60.1353 15.0371C59.846 14.9223 59.5372 14.8739 59.229 14.8949L58.3445 14.9532C54.4216 15.2255 50.5935 16.3567 47.0997 18.276C43.6059 20.1953 40.5213 22.8614 38.039 26.1078L35.9627 28.8299L30.5288 28.6615H30.5015C28.382 28.6551 26.2825 29.0963 24.3243 29.9597C22.3661 30.8231 20.5881 32.0916 19.0933 33.6916L13.5276 39.6186C13.398 39.7566 13.3087 39.9316 13.2707 40.1225C13.2326 40.3134 13.2473 40.512 13.3131 40.6942C13.3789 40.8763 13.4929 41.0342 13.6413 41.1488C13.7897 41.2633 13.9661 41.3295 14.1491 41.3394L25.9272 41.9838L25.4469 42.6134C25.3282 42.7684 25.2556 42.9576 25.2383 43.1568C25.221 43.356 25.2599 43.5561 25.35 43.7316C25.5346 44.0931 25.7279 44.4487 25.9297 44.7986L23.136 48.3302C23.019 48.4781 22.9444 48.6587 22.921 48.8505C22.8977 49.0423 22.9265 49.2371 23.0042 49.4119C24.2279 52.1858 26.3239 54.4166 28.9293 55.7181C29.0908 55.7995 29.2706 55.8306 29.4479 55.8078C29.6253 55.7851 29.793 55.7093 29.9317 55.5894C30.5333 55.0695 31.2274 54.4526 31.8986 53.8564C32.3769 53.4328 32.8661 52.9965 33.3235 52.5957C33.5967 52.7722 33.8733 52.9413 34.1534 53.103C34.3151 53.197 34.4991 53.2387 34.6828 53.2228C34.8664 53.2069 35.0417 53.1341 35.187 53.0135L35.8334 52.4798L36.4415 65.0783C36.4508 65.2732 36.513 65.4611 36.6205 65.6191C36.7281 65.7771 36.8764 65.8985 37.0474 65.9686C37.2185 66.0386 37.4049 66.0543 37.5842 66.0138C37.7634 65.9732 37.9278 65.8782 38.0574 65.7401L43.6215 59.8147C45.124 58.2228 46.3151 56.3294 47.1259 54.244C47.9366 52.1586 48.351 49.9227 48.3449 47.6657V42.1395L50.5405 40.325C53.7898 37.643 56.4551 34.2436 58.3533 30.3603C60.2514 26.4771 61.3374 22.2021 61.5365 17.8293L61.5589 17.3385C61.574 17.01 61.5238 16.6818 61.4116 16.3753C61.2995 16.0688 61.1279 15.791 60.9081 15.56V15.561Z" fill="#002B59"/>
</svg>
