<svg width="78" height="70" viewBox="0 0 78 70" fill="none" xmlns="http://www.w3.org/2000/svg">
<g filter="url(#filter0_d_1_17)">
<path d="M66.2 1H11.8C8.026 1 5 3.96667 5 7.66667V54.3333C5 58.0333 8.026 61 11.8 61H66.2C69.974 61 73 58.0333 73 54.3333V7.66667C73 3.96667 69.974 1 66.2 1ZM15.2 14.3333H32.2V34.3333H15.2V14.3333ZM62.8 47.6667H15.2V41H62.8V47.6667ZM62.8 34.3333H39V27.6667H62.8V34.3333ZM62.8 21H39V14.3333H62.8V21Z" fill="#003268"/>
</g>
<defs>
<filter id="filter0_d_1_17" x="0" y="0" width="78" height="70" filterUnits="userSpaceOnUse" color-interpolation-filters="sRGB">
<feFlood flood-opacity="0" result="BackgroundImageFix"/>
<feColorMatrix in="SourceAlpha" type="matrix" values="0 0 0 0 0 0 0 0 0 0 0 0 0 0 0 0 0 0 127 0" result="hardAlpha"/>
<feOffset dy="4"/>
<feGaussianBlur stdDeviation="2.5"/>
<feComposite in2="hardAlpha" operator="out"/>
<feColorMatrix type="matrix" values="0 0 0 0 0 0 0 0 0 0 0 0 0 0 0 0 0 0 0.25 0"/>
<feBlend mode="normal" in2="BackgroundImageFix" result="effect1_dropShadow_1_17"/>
<feBlend mode="normal" in="SourceGraphic" in2="effect1_dropShadow_1_17" result="shape"/>
</filter>
</defs>
</svg>
