<svg width="335" height="78" viewBox="0 0 335 78" fill="none" xmlns="http://www.w3.org/2000/svg">
<path d="M100.84 21.44H95.94V33H93.2V19H103.58V33H100.84V21.44ZM105.533 26C105.533 23.6667 106.047 21.8733 107.073 20.62C108.1 19.3533 109.567 18.72 111.473 18.72C112.473 18.72 113.347 18.8933 114.093 19.24C114.84 19.5867 115.46 20.08 115.953 20.72C116.447 21.36 116.813 22.1267 117.053 23.02C117.293 23.9133 117.413 24.9067 117.413 26C117.413 28.3333 116.893 30.1333 115.853 31.4C114.827 32.6533 113.367 33.28 111.473 33.28C110.46 33.28 109.58 33.1067 108.833 32.76C108.087 32.4133 107.467 31.92 106.973 31.28C106.493 30.64 106.133 29.8733 105.893 28.98C105.653 28.0867 105.533 27.0933 105.533 26ZM108.413 26C108.413 26.7067 108.473 27.36 108.593 27.96C108.713 28.5467 108.893 29.0533 109.133 29.48C109.387 29.9067 109.707 30.24 110.093 30.48C110.48 30.72 110.94 30.84 111.473 30.84C112.447 30.84 113.2 30.46 113.733 29.7C114.267 28.94 114.533 27.7067 114.533 26C114.533 25.32 114.473 24.6867 114.353 24.1C114.247 23.5133 114.073 23 113.833 22.56C113.593 22.12 113.28 21.78 112.893 21.54C112.507 21.2867 112.033 21.16 111.473 21.16C110.5 21.16 109.747 21.5533 109.213 22.34C108.68 23.1133 108.413 24.3333 108.413 26ZM126.36 21.44H123.38C123.327 22.7067 123.267 23.86 123.2 24.9C123.133 25.94 123.04 26.88 122.92 27.72C122.813 28.5467 122.667 29.28 122.48 29.92C122.293 30.56 122.053 31.1133 121.76 31.58C121.573 31.8867 121.36 32.14 121.12 32.34C120.893 32.54 120.653 32.7 120.4 32.82C120.147 32.94 119.893 33.02 119.64 33.06C119.4 33.1133 119.173 33.14 118.96 33.14C118.653 33.14 118.393 33.1133 118.18 33.06C117.98 33.02 117.78 32.9533 117.58 32.86L117.88 30.5C117.96 30.5267 118.04 30.5467 118.12 30.56C118.2 30.5733 118.28 30.58 118.36 30.58C118.573 30.58 118.78 30.5267 118.98 30.42C119.193 30.3133 119.373 30.1333 119.52 29.88C119.72 29.5867 119.893 29.16 120.04 28.6C120.187 28.0267 120.313 27.3 120.42 26.42C120.54 25.54 120.633 24.4933 120.7 23.28C120.767 22.0533 120.813 20.6267 120.84 19H129.1V33H126.36V21.44ZM139.661 25.24L139.821 23.42H139.721L138.781 25.3L133.561 33H131.501V19H134.241V26.62L134.041 28.5H134.161L135.141 26.56L140.361 19H142.401V33H139.661V25.24ZM154.761 21.44H150.681V33H147.941V21.44H143.841V19H154.761V21.44ZM156.188 19H164.488V21.44H158.928V24.7H163.988V27.14H158.928V30.56H164.588V33H156.188V19ZM169.938 25.88L166.038 19H169.338L171.498 23.04L171.978 24.46L172.438 23.04L174.698 19H177.678L173.638 25.74L177.878 33H174.618L172.158 28.68L171.618 27.2L171.098 28.68L168.618 33H165.638L169.938 25.88ZM187.154 27.14H182.034V33H179.294V19H182.034V24.7H187.154V19H189.894V33H187.154V27.14ZM200.481 25.24L200.641 23.42H200.541L199.601 25.3L194.381 33H192.321V19H195.061V26.62L194.861 28.5H194.981L195.961 26.56L201.181 19H203.221V33H200.481V25.24ZM208.101 19V23.44C208.101 24.24 208.255 24.84 208.561 25.24C208.881 25.6267 209.401 25.82 210.121 25.82C210.628 25.82 211.101 25.7667 211.541 25.66C211.995 25.54 212.355 25.3667 212.621 25.14V19H215.361V33H212.621V27.36C212.275 27.56 211.808 27.7467 211.221 27.92C210.648 28.08 209.961 28.16 209.161 28.16C208.601 28.16 208.088 28.0933 207.621 27.96C207.168 27.8133 206.768 27.5867 206.421 27.28C206.088 26.96 205.828 26.56 205.641 26.08C205.455 25.5867 205.361 24.9933 205.361 24.3V19H208.101ZM217.77 19H226.07V21.44H220.51V24.7H225.57V27.14H220.51V30.56H226.17V33H217.77V19ZM237.7 32.42C237.273 32.7267 236.726 32.9467 236.06 33.08C235.406 33.2133 234.733 33.28 234.04 33.28C233.2 33.28 232.4 33.1533 231.64 32.9C230.893 32.6333 230.233 32.2133 229.66 31.64C229.086 31.0533 228.626 30.3 228.28 29.38C227.946 28.4467 227.78 27.32 227.78 26C227.78 24.6267 227.966 23.48 228.34 22.56C228.726 21.6267 229.22 20.88 229.82 20.32C230.433 19.7467 231.113 19.34 231.86 19.1C232.606 18.8467 233.353 18.72 234.1 18.72C234.9 18.72 235.573 18.7733 236.12 18.88C236.68 18.9867 237.14 19.1133 237.5 19.26L236.96 21.58C236.653 21.4333 236.286 21.3267 235.86 21.26C235.446 21.1933 234.94 21.16 234.34 21.16C233.233 21.16 232.34 21.5533 231.66 22.34C230.993 23.1267 230.66 24.3467 230.66 26C230.66 26.72 230.74 27.38 230.9 27.98C231.06 28.5667 231.3 29.0733 231.62 29.5C231.953 29.9133 232.36 30.24 232.84 30.48C233.333 30.7067 233.9 30.82 234.54 30.82C235.14 30.82 235.646 30.76 236.06 30.64C236.473 30.52 236.833 30.3667 237.14 30.18L237.7 32.42ZM242.851 27.02H242.131V33H239.391V19H242.131V25.2L242.771 24.92L246.631 19H249.751L245.671 24.88L244.591 25.64L245.711 26.42L250.371 33H246.991L242.851 27.02ZM259.954 25.24L260.114 23.42H260.014L259.074 25.3L253.854 33H251.794V19H254.534V26.62L254.334 28.5H254.454L255.434 26.56L260.654 19H262.694V33H259.954V25.24ZM273.274 25.24L273.434 23.42H273.334L272.394 25.3L267.174 33H265.114V19H267.854V26.62L267.654 28.5H267.774L268.754 26.56L273.974 19H276.014V33H273.274V25.24ZM269.374 15.52C269.427 15.9467 269.581 16.2533 269.834 16.44C270.101 16.6267 270.441 16.72 270.854 16.72C271.747 16.72 272.241 16.3267 272.334 15.54L274.554 15.88C274.407 16.72 274.021 17.3333 273.394 17.72C272.781 18.1067 271.927 18.3 270.834 18.3C270.287 18.3 269.787 18.26 269.334 18.18C268.881 18.1 268.481 17.9733 268.134 17.8C267.801 17.6133 267.521 17.3667 267.294 17.06C267.081 16.7533 266.947 16.3733 266.894 15.92L269.374 15.52ZM104.06 51.74L104.36 48.96H104.24L103.38 51.2L100.4 56.42H99.52L96.38 51.18L95.5 48.96H95.4L95.8 51.72V59H93.2V45H95.7L99.44 51.4L100.1 53H100.18L100.78 51.36L104.32 45H106.8V59H104.06V51.74ZM113.876 51.18L114.276 53H114.396L114.716 51.12L116.816 45H119.636L115.916 54.68C115.623 55.44 115.336 56.1 115.056 56.66C114.789 57.22 114.496 57.6867 114.176 58.06C113.869 58.42 113.523 58.6933 113.136 58.88C112.749 59.0533 112.296 59.14 111.776 59.14C111.336 59.14 110.976 59.1067 110.696 59.04C110.429 58.9867 110.136 58.86 109.816 58.66L110.516 56.44C110.743 56.56 110.949 56.6333 111.136 56.66C111.323 56.6867 111.523 56.7 111.736 56.7C112.363 56.7 112.803 56.2067 113.056 55.22L107.816 45H111.036L113.876 51.18ZM121.763 52.8V50.66H122.243C122.363 50.66 122.51 50.66 122.683 50.66C122.857 50.66 123.03 50.66 123.203 50.66C123.39 50.6467 123.57 50.6333 123.743 50.62C123.917 50.5933 124.057 50.5667 124.163 50.54C124.63 50.4333 125.03 50.2467 125.363 49.98C125.697 49.7 125.863 49.3267 125.863 48.86C125.863 48.22 125.657 47.7867 125.243 47.56C124.843 47.32 124.31 47.2 123.643 47.2C123.043 47.2 122.483 47.28 121.963 47.44C121.443 47.6 121.05 47.7533 120.783 47.9L120.083 45.58C120.23 45.5 120.437 45.4133 120.703 45.32C120.983 45.2267 121.297 45.14 121.643 45.06C122.003 44.9667 122.39 44.8933 122.803 44.84C123.217 44.7867 123.637 44.76 124.063 44.76C124.65 44.76 125.223 44.8133 125.783 44.92C126.343 45.0267 126.843 45.2133 127.283 45.48C127.723 45.7467 128.077 46.1067 128.343 46.56C128.61 47 128.743 47.5667 128.743 48.26C128.743 48.9533 128.557 49.5933 128.183 50.18C127.823 50.7667 127.237 51.1933 126.423 51.46V51.56C127.29 51.7333 127.963 52.1067 128.443 52.68C128.937 53.2533 129.183 54.02 129.183 54.98C129.183 55.74 129.03 56.3933 128.723 56.94C128.417 57.4733 128.01 57.9133 127.503 58.26C127.01 58.6067 126.437 58.86 125.783 59.02C125.13 59.1933 124.463 59.28 123.783 59.28C122.903 59.28 122.103 59.2067 121.383 59.06C120.663 58.9133 120.11 58.74 119.723 58.54L120.423 56.16C120.73 56.3067 121.17 56.46 121.743 56.62C122.317 56.7667 122.997 56.84 123.783 56.84C124.077 56.84 124.37 56.8067 124.663 56.74C124.97 56.66 125.243 56.54 125.483 56.38C125.723 56.2067 125.917 55.9867 126.063 55.72C126.21 55.4533 126.283 55.1333 126.283 54.76C126.283 54.1333 126.05 53.66 125.583 53.34C125.117 53.02 124.283 52.8467 123.083 52.82C122.923 52.8067 122.803 52.8 122.723 52.8C122.643 52.8 122.503 52.8 122.303 52.8H121.763ZM131.091 45H139.391V47.44H133.831V50.7H138.891V53.14H133.831V56.56H139.491V59H131.091V45ZM149.7 51.24L149.86 49.42H149.76L148.82 51.3L143.6 59H141.54V45H144.28V52.62L144.08 54.5H144.2L145.18 52.56L150.4 45H152.44V59H149.7V51.24ZM145.8 41.52C145.853 41.9467 146.007 42.2533 146.26 42.44C146.527 42.6267 146.867 42.72 147.28 42.72C148.173 42.72 148.667 42.3267 148.76 41.54L150.98 41.88C150.833 42.72 150.447 43.3333 149.82 43.72C149.207 44.1067 148.353 44.3 147.26 44.3C146.713 44.3 146.213 44.26 145.76 44.18C145.307 44.1 144.907 43.9733 144.56 43.8C144.227 43.6133 143.947 43.3667 143.72 43.06C143.507 42.7533 143.373 42.3733 143.32 41.92L145.8 41.52ZM162.659 50.7H164.519C164.692 48.7933 165.252 47.32 166.199 46.28C167.145 45.24 168.472 44.72 170.179 44.72C171.192 44.72 172.059 44.8933 172.779 45.24C173.499 45.5867 174.085 46.08 174.539 46.72C175.005 47.36 175.345 48.1267 175.559 49.02C175.785 49.9133 175.899 50.9067 175.899 52C175.899 54.3333 175.419 56.1333 174.459 57.4C173.499 58.6533 172.072 59.28 170.179 59.28C169.299 59.28 168.519 59.1333 167.839 58.84C167.172 58.5467 166.605 58.1333 166.139 57.6C165.672 57.0667 165.305 56.42 165.039 55.66C164.772 54.9 164.599 54.06 164.519 53.14H162.659V59H159.919V45H162.659V50.7ZM167.319 52C167.319 52.7067 167.365 53.36 167.459 53.96C167.565 54.5467 167.725 55.0533 167.939 55.48C168.165 55.9067 168.459 56.24 168.819 56.48C169.192 56.72 169.645 56.84 170.179 56.84C171.152 56.84 171.865 56.46 172.319 55.7C172.785 54.94 173.019 53.7067 173.019 52C173.019 51.32 172.972 50.6867 172.879 50.1C172.799 49.5133 172.652 49 172.439 48.56C172.225 48.12 171.932 47.78 171.559 47.54C171.199 47.2867 170.739 47.16 170.179 47.16C169.219 47.16 168.499 47.5533 168.019 48.34C167.552 49.1133 167.319 50.3333 167.319 52ZM183.348 57.48C183.095 57.52 182.835 57.5467 182.568 57.56C182.301 57.5733 182.015 57.58 181.708 57.58C181.068 57.58 180.475 57.4733 179.928 57.26C179.381 57.0333 178.901 56.6933 178.488 56.24C178.088 55.7733 177.768 55.1933 177.528 54.5C177.301 53.7933 177.188 52.96 177.188 52C177.188 51.0933 177.301 50.2867 177.528 49.58C177.768 48.86 178.101 48.2533 178.528 47.76C178.968 47.2533 179.488 46.8667 180.088 46.6C180.688 46.3333 181.355 46.2 182.088 46.2C182.261 46.2 182.475 46.2067 182.728 46.22C182.981 46.2333 183.188 46.26 183.348 46.3V44.6H186.028V46.36C186.281 46.2933 186.568 46.2533 186.888 46.24C187.221 46.2133 187.488 46.2 187.688 46.2C188.341 46.2 188.941 46.32 189.488 46.56C190.035 46.7867 190.508 47.14 190.908 47.62C191.321 48.0867 191.641 48.6733 191.868 49.38C192.095 50.0733 192.201 50.88 192.188 51.8C192.201 52.7467 192.081 53.58 191.828 54.3C191.575 55.02 191.228 55.6267 190.788 56.12C190.348 56.6 189.835 56.9667 189.248 57.22C188.675 57.46 188.055 57.58 187.388 57.58C187.175 57.58 186.941 57.5733 186.688 57.56C186.448 57.5333 186.228 57.4933 186.028 57.44V59.4H183.348V57.48ZM187.048 48.4C186.915 48.4133 186.735 48.4267 186.508 48.44C186.281 48.4533 186.088 48.48 185.928 48.52V55.32C186.048 55.3467 186.188 55.36 186.348 55.36C186.521 55.36 186.681 55.3667 186.828 55.38C187.201 55.3667 187.548 55.2933 187.868 55.16C188.188 55.0267 188.468 54.8133 188.708 54.52C188.948 54.2267 189.135 53.86 189.268 53.42C189.401 52.98 189.461 52.4467 189.448 51.82C189.461 50.7533 189.255 49.92 188.828 49.32C188.401 48.72 187.808 48.4133 187.048 48.4ZM182.408 55.36C182.515 55.36 182.675 55.36 182.888 55.36C183.115 55.3467 183.301 55.3133 183.448 55.26V48.48C183.315 48.4533 183.161 48.44 182.988 48.44C182.815 48.4267 182.655 48.42 182.508 48.42C181.775 48.42 181.161 48.7067 180.668 49.28C180.175 49.84 179.928 50.74 179.928 51.98C179.928 53.06 180.155 53.8933 180.608 54.48C181.061 55.0667 181.661 55.36 182.408 55.36ZM197.841 51.18L198.241 53H198.361L198.681 51.12L200.781 45H203.601L199.881 54.68C199.588 55.44 199.301 56.1 199.021 56.66C198.754 57.22 198.461 57.6867 198.141 58.06C197.834 58.42 197.488 58.6933 197.101 58.88C196.714 59.0533 196.261 59.14 195.741 59.14C195.301 59.14 194.941 59.1067 194.661 59.04C194.394 58.9867 194.101 58.86 193.781 58.66L194.481 56.44C194.708 56.56 194.914 56.6333 195.101 56.66C195.288 56.6867 195.488 56.7 195.701 56.7C196.328 56.7 196.768 56.2067 197.021 55.22L191.781 45H195.001L197.841 51.18Z" fill="#003268"/>
<path d="M71 37.0358C70.9809 37.0425 70.9606 37.0454 70.9403 37.0441C70.3451 36.8737 69.9473 37.2279 69.5413 37.5761C68.8349 38.1815 68.1223 38.7795 67.4111 39.3789C67.2262 39.5467 67.0318 39.7035 66.829 39.8484C66.7004 39.9252 66.596 40.0377 66.5281 40.1727C66.4602 40.3077 66.4317 40.4595 66.4457 40.6104C66.4617 43.5057 66.454 46.401 66.454 49.2964V73.3102C66.3622 73.3388 66.2677 73.3576 66.1721 73.3664H42.6901C39.0605 73.3664 35.4309 73.3945 31.8017 73.3427C31.5117 73.3296 31.2233 73.3933 30.9649 73.5276C30.7065 73.6619 30.487 73.8621 30.3279 74.1087C29.7861 74.7983 29.2223 75.4711 28.6659 76.1524C28.6097 76.2106 28.5494 76.2646 28.4855 76.3139C28.2663 76.5262 28.1124 76.7984 28.0424 77.0977C27.9724 77.3969 27.9893 77.7103 28.0911 78H70.7987L71 77.9591V37.0358Z" fill="#FF9F43"/>
<path d="M0 40.9923C0.328274 40.9923 0.656548 41.0096 0.983829 40.9923C1.11111 40.982 1.2314 40.93 1.32594 40.8444C2.28159 39.9299 3.20461 38.9813 4.18993 38.0997C4.31641 37.9767 4.41092 37.8247 4.46527 37.657C4.51963 37.4893 4.5322 37.311 4.50188 37.1373L4.50188 4.50825L19.7211 4.50825C26.4072 4.50825 33.0947 4.50036 39.7808 4.52254C39.9917 4.52246 40.1992 4.47005 40.3847 4.37004C40.5701 4.27003 40.7277 4.12555 40.8433 3.94965C41.2655 3.44232 41.6981 2.94387 42.1252 2.44098C42.2241 2.32167 42.323 2.19792 42.4194 2.07466C42.4817 1.9938 42.5182 1.8814 42.5998 1.82815C43.068 1.51804 43.0003 1.04768 42.9919 0.591633V0L0.000991821 0L0 40.9923Z" fill="#003268"/>
<path d="M57.7696 56.3831C52.7719 60.8652 40.9264 68.2159 20.993 60.9045C19.5769 60.3844 18.1676 59.8299 16.7899 59.2166C15.5821 58.6769 14.4084 58.0571 13.2415 57.4323C12.3913 56.9833 11.5651 56.492 10.7659 55.9604C9.91686 55.3855 9.19728 54.6454 8.65187 53.786C8.17542 53.05 7.76144 51.8659 8.16042 49.7643C8.347 48.783 8.54608 47.8017 8.82679 46.8376C9.15247 45.8072 9.59394 44.8087 10.0237 43.8119C10.6068 42.4536 11.2057 41.0978 11.8413 39.7599C12.311 38.7705 12.8491 37.8145 13.3589 36.8422C13.8587 35.892 14.341 34.9352 14.8524 33.9924C15.0623 33.6064 15.3288 33.249 15.5721 32.877C16.3984 31.6045 17.2138 30.3223 18.0576 29.0597C18.6623 28.1553 19.2571 27.2345 19.9451 26.3922C21.1579 24.9023 22.4323 23.4614 23.6892 22.0099C24.6655 20.879 25.6217 19.7398 26.6529 18.6653C27.6608 17.6145 28.7136 16.603 29.8123 15.647C30.9993 14.6166 32.2279 13.628 33.5048 12.7031C34.2312 12.2231 35.0027 11.8123 35.8087 11.4765C36.6689 11.0513 37.5569 10.6825 38.4667 10.3725C39.4664 10.0442 40.5263 9.93096 41.5745 10.0405C42.4388 10.1826 43.2934 10.377 44.1333 10.6228C45.5888 11.0175 46.943 11.7094 48.1074 12.6532C48.9208 13.2772 49.6778 13.9692 50.3697 14.7213C51.4125 15.8523 52.4071 17.0437 53.3533 18.2556C53.8753 18.9641 54.3396 19.712 54.7419 20.4922C55.4532 21.7899 56.1229 23.109 56.7993 24.4264C56.9134 24.6471 56.9659 24.8957 57.0716 25.1206C57.2632 25.5295 57.5039 25.9122 57.6705 26.3293C57.9887 27.1405 58.2469 27.9746 58.5651 28.789C64.5957 47.2701 60.8974 52.2339 60.6758 52.6403C59.9417 54.0477 58.9575 55.3152 57.7696 56.3831ZM39.8536 10.6285L39.8353 10.5467C39.2589 10.698 38.6833 10.8297 38.126 11.0079C37.804 11.129 37.4904 11.2708 37.1873 11.4323C36.1282 11.851 35.0986 12.3384 34.1054 12.8912C32.839 13.7092 31.6327 14.6134 30.4953 15.5971C29.1918 16.6969 27.9487 17.8638 26.7712 19.093C25.4259 20.5069 24.1965 22.032 22.9162 23.5088C22.7438 23.7051 22.5547 23.8907 22.389 24.0911C21.4936 25.1754 20.5631 26.2344 19.7194 27.3572C18.9505 28.381 18.2609 29.4637 17.5595 30.5398C16.6133 32.002 15.6212 33.4437 14.7816 34.9647C13.7437 36.8455 12.8533 38.8081 11.8754 40.7183C11.0216 42.3504 10.2995 44.0456 9.71555 45.7884C9.455 46.5347 9.243 47.2964 9.08084 48.0691C8.42031 52.076 9.05752 52.8758 9.70306 53.786C10.4811 54.803 11.5013 55.6172 12.6742 56.1574C14.2177 56.9417 15.8178 57.622 17.4121 58.3048C18.4427 58.7615 19.4964 59.1662 20.569 59.5175C38.4226 65.1289 48.3556 59.9191 49.4726 59.3859C50.8458 58.7091 52.1831 57.9639 53.4791 57.1534C54.4245 56.5912 55.3273 55.9626 56.1804 55.2726C58.0056 53.9515 59.4342 52.1718 60.316 50.1208C60.5968 49.254 60.8142 48.3686 60.9665 47.4713C61.0357 39.1401 58.1978 29.7728 57.9279 29.0589C57.7447 28.5764 57.6122 28.0694 57.4181 27.5959C57.085 26.7782 56.7251 25.9604 56.3728 25.1484C56.0846 24.4852 55.8314 23.804 55.4857 23.1695C54.9584 22.2021 54.3812 21.2592 53.7965 20.3221C53.3167 19.5558 52.8302 18.788 52.2855 18.0602C51.6924 17.2743 51.036 16.5318 50.3905 15.7852C49.7758 15.0787 49.181 14.3378 48.4997 13.6885C47.886 13.0937 47.2104 12.5639 46.4839 12.1078C45.7898 11.7366 45.071 11.4117 44.3324 11.1355C43.2307 10.6918 42.0515 10.4629 40.8606 10.4617C40.5186 10.4834 40.1796 10.5382 39.8486 10.6252L39.8536 10.6285Z" fill="#003268"/>
<path d="M39.1268 30.533C38.0811 30.5094 37.1978 29.6337 35.9815 30.2882L36.5227 30.5643C36.7928 30.686 37.0539 30.8271 37.304 30.9865C37.4027 31.0583 37.4111 31.2567 37.4989 31.5075C37.1952 31.4231 37.0321 31.3817 36.8723 31.3294C36.1714 31.0961 35.4156 31.0911 34.7116 31.315C34.2346 31.415 33.7423 31.415 33.2653 31.315C32.9971 31.2566 32.7484 31.1293 32.5432 30.9454C32.338 30.7615 32.1833 30.5273 32.0942 30.2654C31.8865 29.8214 31.5559 29.4477 31.1422 29.1895C30.9968 29.0967 30.872 28.9745 30.7756 28.8307C30.6791 28.6869 30.6131 28.5245 30.5817 28.3538C30.5503 28.183 30.5542 28.0076 30.593 27.8384C30.6319 27.6692 30.7049 27.51 30.8076 27.3706C31.097 26.9543 31.2936 26.4088 31.6751 26.1428C32.3133 25.7638 32.9876 25.4503 33.6877 25.2071C33.9504 25.0993 34.227 25.0299 34.5092 25.0011C35.1792 24.9835 35.8375 25.1813 36.3888 25.566C37.2953 26.1626 38.2913 26.6075 39.3384 26.8834C39.4798 26.8909 39.6211 26.866 39.7516 26.8107C39.9298 26.755 40.1005 26.6781 40.2736 26.6106L40.3824 26.7567C40.2711 26.8589 40.1699 27.0328 40.0478 27.0489C39.2782 27.2197 38.4756 27.1532 37.744 26.858C37.0293 26.4896 36.2811 26.1919 35.5097 25.9688C35.191 25.9424 34.871 26.0007 34.5815 26.1377C34.292 26.2747 34.043 26.4858 33.8592 26.7499C33.5077 27.1499 33.1792 27.57 32.8755 28.0081C32.834 28.0582 32.8041 28.117 32.7881 28.1802C32.7721 28.2434 32.7704 28.3094 32.7829 28.3734C32.7955 28.4374 32.8222 28.4978 32.8609 28.55C32.8997 28.6022 32.9495 28.645 33.0068 28.6753C33.1736 28.7448 33.3588 28.7553 33.5321 28.7048C33.9454 28.6406 34.3511 28.5089 34.766 28.4726C35.7147 28.3609 36.672 28.5928 37.4671 29.127C37.8661 29.4015 38.2911 29.6337 38.7035 29.887C38.9839 30.033 39.2927 30.1146 39.608 30.126C39.9232 30.1373 40.2371 30.0782 40.5271 29.9529C41.2039 29.6997 41.9101 29.5354 42.6284 29.464C43.2672 29.5198 43.8943 29.6703 44.4897 29.9107C44.8527 30.0154 45.1907 30.2155 45.5554 30.3017C45.8103 30.3504 46.073 30.3368 46.3216 30.262C46.7959 30.126 47.256 29.9377 47.7186 29.7629C47.8185 29.7335 47.9065 29.6725 47.9696 29.589C48.2431 29.0823 48.4874 28.5596 48.7634 28.0529C48.8965 27.7819 49.0675 27.5317 49.2712 27.3098C49.73 26.7866 50.2529 26.3244 50.8271 25.9342C51.2552 25.6157 51.7849 25.4685 52.3142 25.5211C52.8434 25.5736 53.3346 25.8222 53.693 26.2188C53.8636 26.3991 53.9714 26.6306 54 26.8783C53.9707 27.1705 53.949 27.4694 53.9122 27.7692C53.8369 28.3645 53.3224 28.5984 52.9376 28.9252C52.2611 29.4026 51.6223 29.9322 51.027 30.5094C50.6952 30.8845 50.4653 31.34 50.3596 31.8314C50.2539 32.3229 50.276 32.8336 50.4239 33.3138C50.807 34.6891 51.1444 36.0771 51.4361 37.4778C51.5813 38.2254 51.6525 38.9858 51.6486 39.7476C51.613 40.3216 51.5381 40.8924 51.4244 41.4559C51.3725 41.8064 51.319 42.1594 51.2395 42.5039C50.9014 43.862 50.2752 45.1297 49.4042 46.2195C48.6094 47.1859 47.7538 48.0998 46.8428 48.9555C46.6799 49.0785 46.5476 49.238 46.4563 49.4215C46.365 49.605 46.3172 49.8074 46.3166 50.0127C46.2733 50.5729 46.1869 51.1288 46.0581 51.6754C45.9634 52.1297 45.9232 52.5938 45.9385 53.0578C45.8933 53.5404 45.6894 53.9939 45.3592 54.3459C45.029 54.6979 44.5915 54.9282 44.1166 55C41.6422 54.9603 39.1661 54.9865 36.6908 54.9544C36.1251 54.9194 35.5628 54.8418 35.0086 54.7222C34.772 54.6773 34.5328 54.6471 34.2925 54.6318C33.8383 54.4452 33.3832 54.2594 32.929 54.0694C32.8424 54.0378 32.7609 53.9934 32.6873 53.9377C32.043 53.4614 31.2563 53.2229 30.4588 53.2621C29.1772 53.2182 27.8915 53.2799 26.6108 53.2545C25.9446 53.2615 25.2796 53.1935 24.6283 53.0519C23.7495 52.8432 22.8949 52.5418 22.0786 52.1525C21.5591 51.8941 21.4252 51.2355 21.3558 50.6697C21.2889 49.7164 21.0437 48.7846 20.6331 47.9235C20.2399 47.2618 19.8022 46.6281 19.3231 46.0269C18.7428 45.2522 18.3591 44.346 18.2055 43.3872C18.1812 43.2293 18.0967 43.0807 18.0608 42.9219C18.0043 42.7365 17.9869 42.5411 18.0098 42.3485C18.2968 41.1176 18.94 40.0006 19.8576 39.1396C20.4224 38.5283 21.0268 37.9556 21.667 37.4254C22.4045 36.9844 23.1787 36.6092 23.9808 36.304C25.2623 35.7306 26.6242 36.0034 27.9534 35.9662C28.3838 35.9982 28.808 36.088 29.2149 36.233C30.0924 36.4518 30.9808 36.6401 31.8399 36.9179C32.6036 37.1662 33.3381 37.509 34.0784 37.8257C34.8187 38.1423 35.5105 38.4691 36.2358 38.7647C36.385 38.7809 36.5348 38.7386 36.654 38.6465C36.8639 38.5283 37.0525 38.3753 37.212 38.1938C37.5788 37.8402 38.0475 37.6137 38.5504 37.547C38.7905 37.4914 39.0414 37.5066 39.2731 37.5909C39.7001 37.7438 40.1189 37.9188 40.5279 38.1153C41.5051 38.6071 42.3489 39.3317 42.9864 40.2264C43.5653 40.9721 44.0563 41.7827 44.6319 42.6297L44.9614 42.3595C44.8661 42.2134 44.8167 42.1062 44.7456 42.0133C44.5559 41.7161 44.4406 41.3768 44.4095 41.0247C44.3785 40.6725 44.4327 40.318 44.5675 39.9917C44.7768 39.4265 45.1746 38.9527 45.6926 38.6515C46.024 38.3628 46.2734 37.9904 46.4153 37.5723C46.6308 37.1725 46.7556 36.7293 46.7807 36.2748C46.8057 35.8203 46.7303 35.3659 46.56 34.9444C46.4822 34.7983 46.2488 34.5864 46.1577 34.6176C46.0641 34.6554 45.9794 34.7124 45.909 34.7851C45.8385 34.8578 45.7839 34.9446 45.7486 35.0398C45.6523 35.363 45.6088 35.6998 45.6198 36.0371C45.634 36.4518 45.4592 36.7879 45.0936 36.7245C44.8427 36.6806 44.5833 36.3175 44.4529 36.0371C44.3458 35.8066 44.4529 35.484 44.4127 35.2113C44.3546 34.7452 44.1162 34.3213 43.7497 34.032C43.3831 33.7427 42.9181 33.6114 42.4561 33.6668C41.6759 33.7074 40.8976 33.557 40.1875 33.2285C39.7603 33.0674 39.4066 32.7536 39.1934 32.3468C38.9802 31.9399 38.9222 31.4682 39.0306 31.0211C39.0775 30.8618 39.1097 30.6984 39.1268 30.533ZM31.3798 50.771L31.4517 50.6106C31.3713 50.5161 31.2777 50.4339 31.174 50.3665C30.2831 49.8935 29.5137 49.2172 28.9271 48.3914C28.0287 47.27 27.8472 45.858 27.413 44.5517C27.3101 44.2333 27.1621 43.9327 27.0583 43.6143C26.9566 43.1402 26.8187 42.6746 26.6459 42.2219C26.1541 41.2347 25.6062 40.2796 25.0566 39.3237C24.6751 38.6625 24.2435 38.0275 23.8444 37.3747C23.6286 37.0243 23.2965 37.0023 23.079 37.3528C22.9343 37.5791 22.8624 37.8459 22.7101 38.0621C22.3053 38.6465 21.8611 39.1937 21.4554 39.7747C20.3378 41.3791 21.1082 42.3283 22.148 42.8147C23.2572 43.3289 24.4007 43.7663 25.5133 44.2747C25.9188 44.4552 26.2778 44.7274 26.5627 45.0701C26.8475 45.4129 27.0506 45.8171 27.1562 46.2515C27.2219 46.6572 27.188 47.0729 27.0577 47.4623C26.9273 47.8517 26.7044 48.2029 26.4084 48.4851C26.0219 48.9681 26.1265 49.3768 26.7262 49.5584C27.326 49.7399 27.9685 49.8506 28.5875 50.0136C29.2718 50.19 29.9527 50.38 30.6336 50.5667C30.8837 50.6249 31.133 50.6925 31.3798 50.771ZM36.3704 39.447C36.2294 39.3015 36.0668 39.1791 35.8886 39.0839C35.1065 38.7757 34.3235 38.459 33.5196 38.22C32.5582 37.9199 31.5807 37.6752 30.5918 37.487C29.7889 37.3659 28.9777 37.3094 28.1659 37.3182C27.8005 37.3324 27.4413 37.4185 27.1085 37.5715C26.6903 37.7463 26.6526 37.9937 26.9078 38.3746C27.5612 39.2164 28.4537 39.8369 29.4658 40.153C30.1526 40.4257 30.8963 40.5515 31.6123 40.7559C32.0306 40.8758 32.4422 41.0278 32.8621 41.1511C33.5419 41.3526 34.2239 41.5474 34.9082 41.7355C35.4319 41.8815 35.9597 42.0116 36.5369 42.1577C36.1453 41.3043 36.0856 40.3335 36.3696 39.4377L36.3704 39.447ZM31.6199 46.5285C31.6374 46.7126 31.6098 46.8494 31.665 46.9195C31.8842 47.2893 32.1675 47.6163 32.5016 47.8847C33.3576 48.3849 34.2473 48.824 35.1642 49.1987C35.7381 49.3901 36.3281 49.5288 36.9267 49.6133C37.6194 49.7594 38.3153 49.8852 39.008 50.0254C39.1071 50.0513 39.2039 50.0855 39.2974 50.1276C39.3836 50.1605 39.4762 50.1727 39.5679 50.1632C39.6596 50.1537 39.7478 50.1228 39.8256 50.0729C39.9034 50.023 39.9686 49.9555 40.016 49.8757C40.0634 49.7959 40.0918 49.7061 40.0988 49.6133C40.2611 48.3871 39.0272 46.9035 38.1748 46.5733C37.0825 46.1297 35.8997 45.9608 34.7284 46.081C33.7162 46.1908 32.704 46.363 31.6207 46.5201L31.6199 46.5285Z" fill="#003268"/>
</svg>
