<svg width="282" height="79" viewBox="0 0 282 79" fill="none" xmlns="http://www.w3.org/2000/svg">
<path d="M100.84 22.44H95.94V34H93.2V20H103.58V34H100.84V22.44ZM105.533 27C105.533 24.6667 106.047 22.8733 107.073 21.62C108.1 20.3533 109.567 19.72 111.473 19.72C112.473 19.72 113.347 19.8933 114.093 20.24C114.84 20.5867 115.46 21.08 115.953 21.72C116.447 22.36 116.813 23.1267 117.053 24.02C117.293 24.9133 117.413 25.9067 117.413 27C117.413 29.3333 116.893 31.1333 115.853 32.4C114.827 33.6533 113.367 34.28 111.473 34.28C110.46 34.28 109.58 34.1067 108.833 33.76C108.087 33.4133 107.467 32.92 106.973 32.28C106.493 31.64 106.133 30.8733 105.893 29.98C105.653 29.0867 105.533 28.0933 105.533 27ZM108.413 27C108.413 27.7067 108.473 28.36 108.593 28.96C108.713 29.5467 108.893 30.0533 109.133 30.48C109.387 30.9067 109.707 31.24 110.093 31.48C110.48 31.72 110.94 31.84 111.473 31.84C112.447 31.84 113.2 31.46 113.733 30.7C114.267 29.94 114.533 28.7067 114.533 27C114.533 26.32 114.473 25.6867 114.353 25.1C114.247 24.5133 114.073 24 113.833 23.56C113.593 23.12 113.28 22.78 112.893 22.54C112.507 22.2867 112.033 22.16 111.473 22.16C110.5 22.16 109.747 22.5533 109.213 23.34C108.68 24.1133 108.413 25.3333 108.413 27ZM126.36 22.44H123.38C123.327 23.7067 123.267 24.86 123.2 25.9C123.133 26.94 123.04 27.88 122.92 28.72C122.813 29.5467 122.667 30.28 122.48 30.92C122.293 31.56 122.053 32.1133 121.76 32.58C121.573 32.8867 121.36 33.14 121.12 33.34C120.893 33.54 120.653 33.7 120.4 33.82C120.147 33.94 119.893 34.02 119.64 34.06C119.4 34.1133 119.173 34.14 118.96 34.14C118.653 34.14 118.393 34.1133 118.18 34.06C117.98 34.02 117.78 33.9533 117.58 33.86L117.88 31.5C117.96 31.5267 118.04 31.5467 118.12 31.56C118.2 31.5733 118.28 31.58 118.36 31.58C118.573 31.58 118.78 31.5267 118.98 31.42C119.193 31.3133 119.373 31.1333 119.52 30.88C119.72 30.5867 119.893 30.16 120.04 29.6C120.187 29.0267 120.313 28.3 120.42 27.42C120.54 26.54 120.633 25.4933 120.7 24.28C120.767 23.0533 120.813 21.6267 120.84 20H129.1V34H126.36V22.44ZM139.661 26.24L139.821 24.42H139.721L138.781 26.3L133.561 34H131.501V20H134.241V27.62L134.041 29.5H134.161L135.141 27.56L140.361 20H142.401V34H139.661V26.24ZM154.761 22.44H150.681V34H147.941V22.44H143.841V20H154.761V22.44ZM156.188 20H164.488V22.44H158.928V25.7H163.988V28.14H158.928V31.56H164.588V34H156.188V20ZM169.938 26.88L166.038 20H169.338L171.498 24.04L171.978 25.46L172.438 24.04L174.698 20H177.678L173.638 26.74L177.878 34H174.618L172.158 29.68L171.618 28.2L171.098 29.68L168.618 34H165.638L169.938 26.88ZM187.154 28.14H182.034V34H179.294V20H182.034V25.7H187.154V20H189.894V34H187.154V28.14ZM200.481 26.24L200.641 24.42H200.541L199.601 26.3L194.381 34H192.321V20H195.061V27.62L194.861 29.5H194.981L195.961 27.56L201.181 20H203.221V34H200.481V26.24ZM208.101 20V24.44C208.101 25.24 208.255 25.84 208.561 26.24C208.881 26.6267 209.401 26.82 210.121 26.82C210.628 26.82 211.101 26.7667 211.541 26.66C211.995 26.54 212.355 26.3667 212.621 26.14V20H215.361V34H212.621V28.36C212.275 28.56 211.808 28.7467 211.221 28.92C210.648 29.08 209.961 29.16 209.161 29.16C208.601 29.16 208.088 29.0933 207.621 28.96C207.168 28.8133 206.768 28.5867 206.421 28.28C206.088 27.96 205.828 27.56 205.641 27.08C205.455 26.5867 205.361 25.9933 205.361 25.3V20H208.101ZM217.77 20H226.07V22.44H220.51V25.7H225.57V28.14H220.51V31.56H226.17V34H217.77V20ZM237.7 33.42C237.273 33.7267 236.726 33.9467 236.06 34.08C235.406 34.2133 234.733 34.28 234.04 34.28C233.2 34.28 232.4 34.1533 231.64 33.9C230.893 33.6333 230.233 33.2133 229.66 32.64C229.086 32.0533 228.626 31.3 228.28 30.38C227.946 29.4467 227.78 28.32 227.78 27C227.78 25.6267 227.966 24.48 228.34 23.56C228.726 22.6267 229.22 21.88 229.82 21.32C230.433 20.7467 231.113 20.34 231.86 20.1C232.606 19.8467 233.353 19.72 234.1 19.72C234.9 19.72 235.573 19.7733 236.12 19.88C236.68 19.9867 237.14 20.1133 237.5 20.26L236.96 22.58C236.653 22.4333 236.286 22.3267 235.86 22.26C235.446 22.1933 234.94 22.16 234.34 22.16C233.233 22.16 232.34 22.5533 231.66 23.34C230.993 24.1267 230.66 25.3467 230.66 27C230.66 27.72 230.74 28.38 230.9 28.98C231.06 29.5667 231.3 30.0733 231.62 30.5C231.953 30.9133 232.36 31.24 232.84 31.48C233.333 31.7067 233.9 31.82 234.54 31.82C235.14 31.82 235.646 31.76 236.06 31.64C236.473 31.52 236.833 31.3667 237.14 31.18L237.7 33.42ZM242.851 28.02H242.131V34H239.391V20H242.131V26.2L242.771 25.92L246.631 20H249.751L245.671 25.88L244.591 26.64L245.711 27.42L250.371 34H246.991L242.851 28.02ZM259.954 26.24L260.114 24.42H260.014L259.074 26.3L253.854 34H251.794V20H254.534V27.62L254.334 29.5H254.454L255.434 27.56L260.654 20H262.694V34H259.954V26.24ZM273.274 26.24L273.434 24.42H273.334L272.394 26.3L267.174 34H265.114V20H267.854V27.62L267.654 29.5H267.774L268.754 27.56L273.974 20H276.014V34H273.274V26.24ZM269.374 16.52C269.427 16.9467 269.581 17.2533 269.834 17.44C270.101 17.6267 270.441 17.72 270.854 17.72C271.747 17.72 272.241 17.3267 272.334 16.54L274.554 16.88C274.407 17.72 274.021 18.3333 273.394 18.72C272.781 19.1067 271.927 19.3 270.834 19.3C270.287 19.3 269.787 19.26 269.334 19.18C268.881 19.1 268.481 18.9733 268.134 18.8C267.801 18.6133 267.521 18.3667 267.294 18.06C267.081 17.7533 266.947 17.3733 266.894 16.92L269.374 16.52ZM104.06 52.74L104.36 49.96H104.24L103.38 52.2L100.4 57.42H99.52L96.38 52.18L95.5 49.96H95.4L95.8 52.72V60H93.2V46H95.7L99.44 52.4L100.1 54H100.18L100.78 52.36L104.32 46H106.8V60H104.06V52.74ZM113.876 52.18L114.276 54H114.396L114.716 52.12L116.816 46H119.636L115.916 55.68C115.623 56.44 115.336 57.1 115.056 57.66C114.789 58.22 114.496 58.6867 114.176 59.06C113.869 59.42 113.523 59.6933 113.136 59.88C112.749 60.0533 112.296 60.14 111.776 60.14C111.336 60.14 110.976 60.1067 110.696 60.04C110.429 59.9867 110.136 59.86 109.816 59.66L110.516 57.44C110.743 57.56 110.949 57.6333 111.136 57.66C111.323 57.6867 111.523 57.7 111.736 57.7C112.363 57.7 112.803 57.2067 113.056 56.22L107.816 46H111.036L113.876 52.18ZM121.763 53.8V51.66H122.243C122.363 51.66 122.51 51.66 122.683 51.66C122.857 51.66 123.03 51.66 123.203 51.66C123.39 51.6467 123.57 51.6333 123.743 51.62C123.917 51.5933 124.057 51.5667 124.163 51.54C124.63 51.4333 125.03 51.2467 125.363 50.98C125.697 50.7 125.863 50.3267 125.863 49.86C125.863 49.22 125.657 48.7867 125.243 48.56C124.843 48.32 124.31 48.2 123.643 48.2C123.043 48.2 122.483 48.28 121.963 48.44C121.443 48.6 121.05 48.7533 120.783 48.9L120.083 46.58C120.23 46.5 120.437 46.4133 120.703 46.32C120.983 46.2267 121.297 46.14 121.643 46.06C122.003 45.9667 122.39 45.8933 122.803 45.84C123.217 45.7867 123.637 45.76 124.063 45.76C124.65 45.76 125.223 45.8133 125.783 45.92C126.343 46.0267 126.843 46.2133 127.283 46.48C127.723 46.7467 128.077 47.1067 128.343 47.56C128.61 48 128.743 48.5667 128.743 49.26C128.743 49.9533 128.557 50.5933 128.183 51.18C127.823 51.7667 127.237 52.1933 126.423 52.46V52.56C127.29 52.7333 127.963 53.1067 128.443 53.68C128.937 54.2533 129.183 55.02 129.183 55.98C129.183 56.74 129.03 57.3933 128.723 57.94C128.417 58.4733 128.01 58.9133 127.503 59.26C127.01 59.6067 126.437 59.86 125.783 60.02C125.13 60.1933 124.463 60.28 123.783 60.28C122.903 60.28 122.103 60.2067 121.383 60.06C120.663 59.9133 120.11 59.74 119.723 59.54L120.423 57.16C120.73 57.3067 121.17 57.46 121.743 57.62C122.317 57.7667 122.997 57.84 123.783 57.84C124.077 57.84 124.37 57.8067 124.663 57.74C124.97 57.66 125.243 57.54 125.483 57.38C125.723 57.2067 125.917 56.9867 126.063 56.72C126.21 56.4533 126.283 56.1333 126.283 55.76C126.283 55.1333 126.05 54.66 125.583 54.34C125.117 54.02 124.283 53.8467 123.083 53.82C122.923 53.8067 122.803 53.8 122.723 53.8C122.643 53.8 122.503 53.8 122.303 53.8H121.763ZM131.091 46H139.391V48.44H133.831V51.7H138.891V54.14H133.831V57.56H139.491V60H131.091V46ZM149.7 52.24L149.86 50.42H149.76L148.82 52.3L143.6 60H141.54V46H144.28V53.62L144.08 55.5H144.2L145.18 53.56L150.4 46H152.44V60H149.7V52.24ZM145.8 42.52C145.853 42.9467 146.007 43.2533 146.26 43.44C146.527 43.6267 146.867 43.72 147.28 43.72C148.173 43.72 148.667 43.3267 148.76 42.54L150.98 42.88C150.833 43.72 150.447 44.3333 149.82 44.72C149.207 45.1067 148.353 45.3 147.26 45.3C146.713 45.3 146.213 45.26 145.76 45.18C145.307 45.1 144.907 44.9733 144.56 44.8C144.227 44.6133 143.947 44.3667 143.72 44.06C143.507 43.7533 143.373 43.3733 143.32 42.92L145.8 42.52ZM162.659 51.7H164.519C164.692 49.7933 165.252 48.32 166.199 47.28C167.145 46.24 168.472 45.72 170.179 45.72C171.192 45.72 172.059 45.8933 172.779 46.24C173.499 46.5867 174.085 47.08 174.539 47.72C175.005 48.36 175.345 49.1267 175.559 50.02C175.785 50.9133 175.899 51.9067 175.899 53C175.899 55.3333 175.419 57.1333 174.459 58.4C173.499 59.6533 172.072 60.28 170.179 60.28C169.299 60.28 168.519 60.1333 167.839 59.84C167.172 59.5467 166.605 59.1333 166.139 58.6C165.672 58.0667 165.305 57.42 165.039 56.66C164.772 55.9 164.599 55.06 164.519 54.14H162.659V60H159.919V46H162.659V51.7ZM167.319 53C167.319 53.7067 167.365 54.36 167.459 54.96C167.565 55.5467 167.725 56.0533 167.939 56.48C168.165 56.9067 168.459 57.24 168.819 57.48C169.192 57.72 169.645 57.84 170.179 57.84C171.152 57.84 171.865 57.46 172.319 56.7C172.785 55.94 173.019 54.7067 173.019 53C173.019 52.32 172.972 51.6867 172.879 51.1C172.799 50.5133 172.652 50 172.439 49.56C172.225 49.12 171.932 48.78 171.559 48.54C171.199 48.2867 170.739 48.16 170.179 48.16C169.219 48.16 168.499 48.5533 168.019 49.34C167.552 50.1133 167.319 51.3333 167.319 53ZM183.348 58.48C183.095 58.52 182.835 58.5467 182.568 58.56C182.301 58.5733 182.015 58.58 181.708 58.58C181.068 58.58 180.475 58.4733 179.928 58.26C179.381 58.0333 178.901 57.6933 178.488 57.24C178.088 56.7733 177.768 56.1933 177.528 55.5C177.301 54.7933 177.188 53.96 177.188 53C177.188 52.0933 177.301 51.2867 177.528 50.58C177.768 49.86 178.101 49.2533 178.528 48.76C178.968 48.2533 179.488 47.8667 180.088 47.6C180.688 47.3333 181.355 47.2 182.088 47.2C182.261 47.2 182.475 47.2067 182.728 47.22C182.981 47.2333 183.188 47.26 183.348 47.3V45.6H186.028V47.36C186.281 47.2933 186.568 47.2533 186.888 47.24C187.221 47.2133 187.488 47.2 187.688 47.2C188.341 47.2 188.941 47.32 189.488 47.56C190.035 47.7867 190.508 48.14 190.908 48.62C191.321 49.0867 191.641 49.6733 191.868 50.38C192.095 51.0733 192.201 51.88 192.188 52.8C192.201 53.7467 192.081 54.58 191.828 55.3C191.575 56.02 191.228 56.6267 190.788 57.12C190.348 57.6 189.835 57.9667 189.248 58.22C188.675 58.46 188.055 58.58 187.388 58.58C187.175 58.58 186.941 58.5733 186.688 58.56C186.448 58.5333 186.228 58.4933 186.028 58.44V60.4H183.348V58.48ZM187.048 49.4C186.915 49.4133 186.735 49.4267 186.508 49.44C186.281 49.4533 186.088 49.48 185.928 49.52V56.32C186.048 56.3467 186.188 56.36 186.348 56.36C186.521 56.36 186.681 56.3667 186.828 56.38C187.201 56.3667 187.548 56.2933 187.868 56.16C188.188 56.0267 188.468 55.8133 188.708 55.52C188.948 55.2267 189.135 54.86 189.268 54.42C189.401 53.98 189.461 53.4467 189.448 52.82C189.461 51.7533 189.255 50.92 188.828 50.32C188.401 49.72 187.808 49.4133 187.048 49.4ZM182.408 56.36C182.515 56.36 182.675 56.36 182.888 56.36C183.115 56.3467 183.301 56.3133 183.448 56.26V49.48C183.315 49.4533 183.161 49.44 182.988 49.44C182.815 49.4267 182.655 49.42 182.508 49.42C181.775 49.42 181.161 49.7067 180.668 50.28C180.175 50.84 179.928 51.74 179.928 52.98C179.928 54.06 180.155 54.8933 180.608 55.48C181.061 56.0667 181.661 56.36 182.408 56.36ZM197.841 52.18L198.241 54H198.361L198.681 52.12L200.781 46H203.601L199.881 55.68C199.588 56.44 199.301 57.1 199.021 57.66C198.754 58.22 198.461 58.6867 198.141 59.06C197.834 59.42 197.488 59.6933 197.101 59.88C196.714 60.0533 196.261 60.14 195.741 60.14C195.301 60.14 194.941 60.1067 194.661 60.04C194.394 59.9867 194.101 59.86 193.781 59.66L194.481 57.44C194.708 57.56 194.914 57.6333 195.101 57.66C195.288 57.6867 195.488 57.7 195.701 57.7C196.328 57.7 196.768 57.2067 197.021 56.22L191.781 46H195.001L197.841 52.18Z" fill="#003268"/>
<path d="M71.6359 68.1065C64.5376 74.5167 47.7135 85.0295 19.402 74.5728C17.3909 73.829 14.5806 72.369 12.6239 71.4918C10.9084 70.7199 8.77243 69.3044 7.11498 68.4108C5.90756 67.7686 5.13215 67.0685 3.99708 66.3082C2.79118 65.486 1.47857 64.1457 0.703918 62.9166C0.0272161 61.864 -0.266965 59.7087 0.299714 56.7031C0.564716 55.2996 1.13342 53.7685 1.53211 52.3897C1.99468 50.9161 2.15406 50.1181 2.76451 48.6925C3.59264 46.7499 4.94284 44.4438 5.8455 42.5305C6.51274 41.1154 6.97007 40.2239 7.6941 38.8333C8.40393 37.4743 9.38169 35.8684 10.1081 34.5199C10.4062 33.9679 11.0458 33.2035 11.3913 32.6713C12.5649 30.8515 13.5626 29.3595 14.761 27.5537C15.6199 26.2602 16.4646 24.9434 17.4418 23.7388C19.1643 21.6079 20.9744 19.5472 22.7596 17.4713C24.1461 15.8538 25.5042 14.2247 26.9689 12.6879C28.4003 11.1851 29.8957 9.7384 31.4561 8.37123C33.142 6.89763 34.887 5.48367 36.7006 4.16094C37.7323 3.47442 38.8281 2.88699 39.9729 2.40666C41.1946 1.79857 42.4557 1.07184 43.748 0.628517C45.1678 0.158929 46.6732 -0.112126 48.1619 0.0445791C49.3896 0.247707 50.743 0.603807 51.9359 0.95528C54.0031 1.51987 56.1824 2.61852 57.8362 3.96831C58.9916 4.86071 60.3206 5.97161 61.3033 7.04733C62.7845 8.66478 63.9411 10.3688 65.285 12.102C66.0265 13.1153 66.6791 14.1848 67.2504 15.3006C68.2607 17.1567 69.2119 19.0431 70.1725 20.9272C70.3346 21.243 70.3451 21.6383 70.4953 21.9599C70.7674 22.5447 70.9259 23.0522 71.1625 23.6487C71.6144 24.8089 72.5592 26.0018 73.0111 27.1666C81.5764 53.5978 77.6012 61.0514 77.2865 61.6327C76.2438 63.6455 73.323 66.5793 71.6359 68.1065ZM45.7178 1.19387L45.6917 1.07691C44.8731 1.29327 44.0556 1.48157 43.2641 1.73653C42.8067 1.90971 42.3613 2.11247 41.9308 2.3435C40.4266 2.94233 38.9643 3.63934 37.5536 4.42993C35.755 5.59978 34.0417 6.89294 32.4262 8.29988C30.5749 9.87277 28.8093 11.5417 27.1368 13.2996C25.2262 15.3217 23.4801 17.5029 21.6617 19.615C21.4168 19.8957 21.1483 20.1612 20.9128 20.4477C19.6411 21.9985 18.3196 23.513 17.1212 25.1188C16.0292 26.583 15.0497 28.1315 14.0535 29.6706C12.7096 31.7617 11.3006 33.8235 10.1081 35.9989C8.63401 38.6888 7.36933 41.4956 5.98044 44.2276C4.7678 46.5617 3.74211 48.9861 2.9128 51.4786C2.54274 52.5459 2.24164 53.6354 2.01132 54.7404C1.07316 60.4711 1.97819 61.6149 2.89505 62.9166C4.00013 64.3711 5.44906 65.5356 7.11498 66.3082C9.30716 67.4298 11.5798 68.4028 13.8441 69.3794C15.308 70.0324 16.8045 70.6113 18.3279 71.1137C43.6853 79.139 57.7931 71.688 59.3796 70.9255C61.33 69.9575 63.2293 68.8918 65.07 67.7327C66.4128 66.9286 67.695 66.0296 68.9067 65.0428C71.499 63.1534 73.5281 60.6081 74.7805 57.6748C75.1793 56.435 75.4881 55.1687 75.7044 53.8855C75.8026 41.9704 71.772 28.5736 71.3887 27.5526C71.1284 26.8625 70.9403 26.1374 70.6647 25.4603C70.1914 24.2908 69.6804 23.1212 69.1799 21.9599C68.7706 21.0114 68.411 20.0372 67.92 19.1297C67.1711 17.7461 66.3513 16.3977 65.5208 15.0574C64.8393 13.9615 64.1484 12.8634 63.3747 11.8225C62.5324 10.6986 61.6002 9.63665 60.6833 8.56887C59.8102 7.55841 58.9655 6.49882 57.9978 5.57022C57.1262 4.71956 56.1666 3.96183 55.1348 3.30953C54.149 2.77861 53.1281 2.31403 52.079 1.91897C50.5142 1.28436 48.8394 0.957039 47.1481 0.95528C46.6623 0.986406 46.1809 1.06475 45.7107 1.18919L45.7178 1.19387Z" fill="#FF9F43"/>
<path d="M44.4278 29.8052C42.9427 29.7719 41.688 28.5391 39.9605 29.4604L40.7292 29.8492C41.1128 30.0206 41.4837 30.2192 41.8389 30.4436C41.9791 30.5446 41.991 30.824 42.1157 31.1771C41.6845 31.0582 41.4528 31 41.2259 30.9263C40.2303 30.5979 39.1568 30.5909 38.157 30.9061C37.4795 31.0469 36.7803 31.0469 36.1028 30.9061C35.7218 30.8239 35.3686 30.6446 35.0772 30.3858C34.7857 30.1269 34.5661 29.7971 34.4394 29.4283C34.1445 28.8033 33.6749 28.2773 33.0874 27.9138C32.8809 27.783 32.7036 27.611 32.5666 27.4086C32.4296 27.2061 32.3359 26.9775 32.2913 26.7372C32.2467 26.4968 32.2521 26.2498 32.3073 26.0116C32.3626 25.7734 32.4663 25.5492 32.6121 25.353C33.0232 24.7669 33.3024 23.9989 33.8442 23.6244C34.7506 23.0909 35.7083 22.6496 36.7028 22.3072C37.0759 22.1554 37.4687 22.0577 37.8695 22.0171C38.8211 21.9924 39.756 22.2709 40.5391 22.8125C41.8266 23.6524 43.2412 24.2787 44.7284 24.6671C44.9292 24.6776 45.1298 24.6427 45.3153 24.5648C45.5684 24.4864 45.8107 24.3782 46.0567 24.2831L46.2111 24.4887C46.0531 24.6326 45.9093 24.8775 45.7359 24.9001C44.6429 25.1406 43.503 25.047 42.4639 24.6314C41.4488 24.1128 40.3861 23.6936 39.2904 23.3796C38.8378 23.3424 38.3833 23.4244 37.9721 23.6173C37.5609 23.8102 37.2073 24.1073 36.9463 24.4792C36.447 25.0424 35.9805 25.6338 35.5491 26.2506C35.4902 26.321 35.4478 26.4038 35.4251 26.4928C35.4023 26.5818 35.3998 26.6748 35.4177 26.7648C35.4356 26.8549 35.4734 26.9399 35.5285 27.0134C35.5835 27.087 35.6543 27.1472 35.7356 27.1898C35.9725 27.2877 36.2355 27.3024 36.4818 27.2314C37.0687 27.141 37.6449 26.9556 38.2342 26.9044C39.5817 26.7472 40.9412 27.0737 42.0706 27.8258C42.6373 28.2122 43.2409 28.5391 43.8266 28.8957C44.2248 29.1012 44.6635 29.2161 45.1113 29.2321C45.559 29.2481 46.0048 29.1649 46.4167 28.9885C47.3779 28.6321 48.381 28.4007 49.4012 28.3001C50.3084 28.3788 51.1992 28.5907 52.0447 28.929C52.5603 29.0764 53.0403 29.3582 53.5583 29.4795C53.9204 29.5481 54.2935 29.5289 54.6466 29.4236C55.3203 29.2322 55.9737 28.9671 56.6308 28.721C56.7727 28.6796 56.8976 28.5937 56.9872 28.4761C57.3757 27.7628 57.7226 27.0269 58.1147 26.3136C58.3037 25.9321 58.5466 25.5798 58.8359 25.2674C59.4876 24.5309 60.2302 23.8801 61.0457 23.3308C61.6538 22.8824 62.4062 22.6753 63.1578 22.7492C63.9095 22.8232 64.6071 23.1731 65.1162 23.7314C65.3585 23.9853 65.5115 24.3113 65.5522 24.6599C65.5106 25.0713 65.4797 25.4921 65.4275 25.9141C65.3205 26.7523 64.5899 27.0816 64.0433 27.5417C63.0825 28.2137 62.1752 28.9593 61.3297 29.7719C60.8584 30.3 60.5318 30.9412 60.3817 31.6331C60.2316 32.325 60.2631 33.0439 60.4731 33.72C61.0172 35.6562 61.4964 37.6103 61.9107 39.5822C62.117 40.6347 62.2181 41.7052 62.2125 42.7778C62.162 43.5858 62.0556 44.3894 61.894 45.1828C61.8204 45.6761 61.7444 46.1731 61.6315 46.6581C61.1513 48.57 60.262 50.3548 59.0248 51.889C57.8959 53.2496 56.6807 54.5362 55.3868 55.7408C55.1555 55.914 54.9676 56.1386 54.8379 56.3969C54.7082 56.6552 54.6403 56.9401 54.6395 57.2292C54.578 58.0178 54.4552 58.8005 54.2724 59.57C54.1379 60.2096 54.0808 60.863 54.1025 61.5161C54.0384 62.1956 53.7487 62.8341 53.2797 63.3296C52.8107 63.8252 52.1894 64.1494 51.5148 64.2505C48.0004 64.1946 44.4836 64.2314 40.968 64.1863C40.1646 64.137 39.3659 64.0277 38.5788 63.8593C38.2427 63.7961 37.903 63.7536 37.5617 63.7321C36.9166 63.4694 36.2703 63.2079 35.6251 62.9404C35.5021 62.8959 35.3864 62.8334 35.2818 62.7549C34.3668 62.0844 33.2494 61.7487 32.1167 61.8038C30.2965 61.742 28.4704 61.8288 26.6514 61.7931C25.7051 61.8029 24.7607 61.7072 23.8356 61.5078C22.5875 61.2141 21.3737 60.7897 20.2143 60.2417C19.4765 59.8779 19.2864 58.9506 19.1878 58.1541C19.0927 56.8121 18.7444 55.5003 18.1612 54.288C17.6028 53.3565 16.9812 52.4643 16.3007 51.6179C15.4765 50.5273 14.9316 49.2514 14.7134 47.9016C14.6789 47.6793 14.5589 47.4701 14.5078 47.2466C14.4276 46.9855 14.4029 46.7105 14.4354 46.4394C14.8431 44.7064 15.7566 43.1339 17.0599 41.9218C17.862 41.0611 18.7205 40.2549 19.6297 39.5085C20.6772 38.8876 21.7768 38.3594 22.916 37.9297C24.7362 37.1225 26.6704 37.5065 28.5583 37.4542C29.1696 37.4992 29.7721 37.6256 30.35 37.8298C31.5963 38.1377 32.8581 38.4028 34.0782 38.794C35.163 39.1435 36.2061 39.6262 37.2576 40.072C38.3091 40.5178 39.2916 40.9779 40.3217 41.3939C40.5337 41.4167 40.7464 41.3571 40.9158 41.2275C41.2138 41.0612 41.4818 40.8458 41.7082 40.5903C42.2292 40.0925 42.895 39.7735 43.6092 39.6797C43.9502 39.6013 44.3065 39.6228 44.6357 39.7415C45.242 39.9567 45.8369 40.2031 46.4179 40.4797C47.8057 41.1721 49.0042 42.1921 49.9097 43.4518C50.7318 44.5016 51.4293 45.6428 52.2467 46.8352L52.7148 46.4548C52.5793 46.2491 52.5092 46.0982 52.4083 45.9674C52.1388 45.549 51.975 45.0714 51.9309 44.5756C51.8868 44.0798 51.9638 43.5807 52.1552 43.1213C52.4525 42.3257 53.0176 41.6586 53.7532 41.2346C54.2239 40.8282 54.5782 40.3038 54.7797 39.7153C55.0858 39.1524 55.2631 38.5285 55.2986 37.8886C55.3342 37.2488 55.2271 36.609 54.9852 36.0157C54.8748 35.81 54.5433 35.5116 54.4138 35.5556C54.2809 35.6087 54.1606 35.6891 54.0606 35.7914C53.9605 35.8938 53.8829 36.0159 53.8328 36.15C53.696 36.6049 53.6342 37.0792 53.6498 37.554C53.67 38.1377 53.4217 38.6109 52.9025 38.5217C52.5461 38.4599 52.1778 37.9487 51.9924 37.554C51.8403 37.2295 51.9924 36.7753 51.9354 36.3913C51.8528 35.7353 51.5143 35.1385 50.9937 34.7311C50.4731 34.3238 49.8127 34.139 49.1564 34.217C48.0484 34.2741 46.943 34.0624 45.9343 33.6C45.3277 33.3731 44.8253 32.9314 44.5224 32.3586C44.2196 31.7859 44.1373 31.1218 44.2911 30.4923C44.3579 30.268 44.4036 30.038 44.4278 29.8052ZM33.4248 58.2968L33.527 58.0709C33.4127 57.938 33.2799 57.8222 33.1325 57.7273C31.8671 57.0614 30.7744 56.1093 29.9413 54.9467C28.6652 53.3679 28.4074 51.3801 27.7908 49.541C27.6447 49.0928 27.4344 48.6696 27.2871 48.2214C27.1425 47.5538 26.9467 46.8984 26.7013 46.261C26.0027 44.8713 25.2245 43.5267 24.4439 42.181C23.9022 41.2501 23.2891 40.3561 22.7224 39.4371C22.4158 38.9438 21.9442 38.9128 21.6353 39.4062C21.4297 39.7248 21.3275 40.1005 21.1113 40.4048C20.5363 41.2275 19.9054 41.9979 19.3291 42.8158C17.7418 45.0746 18.8361 46.4108 20.3129 47.0956C21.8883 47.8196 23.5125 48.4354 25.0926 49.1511C25.6686 49.4053 26.1785 49.7884 26.583 50.2709C26.9876 50.7534 27.276 51.3225 27.4261 51.9341C27.5193 52.5052 27.4712 53.0905 27.2861 53.6387C27.1009 54.1868 26.7843 54.6813 26.3639 55.0786C25.815 55.7586 25.9635 56.334 26.8154 56.5896C27.6672 56.8452 28.5797 57.001 29.4589 57.2304C30.4308 57.4789 31.3979 57.7464 32.365 58.0091C32.7202 58.0911 33.0743 58.1862 33.4248 58.2968ZM40.513 42.3545C40.3127 42.1497 40.0818 41.9773 39.8286 41.8433C38.7178 41.4094 37.6057 40.9636 36.4639 40.6271C35.0985 40.2046 33.7101 39.8601 32.3056 39.5952C31.1652 39.4247 30.0131 39.3452 28.8601 39.3575C28.3411 39.3775 27.831 39.4987 27.3583 39.7141C26.7643 39.9602 26.7108 40.3085 27.0732 40.8447C28.0013 42.0299 29.2688 42.9034 30.7064 43.3484C31.6818 43.7324 32.7381 43.9095 33.7551 44.1972C34.3491 44.366 34.9337 44.58 35.5301 44.7536C36.4956 45.0373 37.4643 45.3115 38.4362 45.5763C39.1799 45.7819 39.9296 45.965 40.7494 46.1707C40.1932 44.9692 40.1084 43.6025 40.5118 42.3414L40.513 42.3545ZM33.7658 52.3241C33.7907 52.5833 33.7515 52.7758 33.8299 52.8745C34.1412 53.3952 34.5436 53.8555 35.018 54.2333C36.2339 54.9376 37.4975 55.5557 38.7997 56.0832C39.615 56.3527 40.4528 56.548 41.3031 56.6669C42.2868 56.8726 43.2753 57.0497 44.2591 57.247C44.3998 57.2836 44.5373 57.3317 44.6702 57.3909C44.7926 57.4373 44.9241 57.4545 45.0543 57.4411C45.1846 57.4278 45.3099 57.3842 45.4204 57.3139C45.5308 57.2437 45.6234 57.1486 45.6908 57.0363C45.7581 56.924 45.7984 56.7975 45.8084 56.6669C46.0388 54.9407 44.2864 52.8519 43.0757 52.3871C41.5243 51.7626 39.8444 51.5248 38.1807 51.694C36.7431 51.8486 35.3055 52.0911 33.767 52.3122L33.7658 52.3241Z" fill="#003268"/>
</svg>
