<svg width="51" height="51" viewBox="0 0 51 51" fill="none" xmlns="http://www.w3.org/2000/svg">
<path d="M45.7623 43.5077C41.2278 47.6026 30.4803 54.3184 12.3944 47.6385C11.1096 47.1633 9.31436 46.2306 8.06435 45.6703C6.96851 45.1772 5.60398 44.2729 4.54518 43.7021C3.77385 43.2918 3.27851 42.8446 2.55341 42.3589C1.78305 41.8337 0.944534 40.9774 0.449676 40.1922C0.0173861 39.5198 -0.170542 38.143 0.191462 36.2229C0.360751 35.3264 0.724052 34.3483 0.97874 33.4675C1.27424 32.5261 1.37605 32.0164 1.76602 31.1056C2.29504 29.8647 3.15757 28.3915 3.73421 27.1692C4.16045 26.2652 4.45261 25.6957 4.91513 24.8074C5.36858 23.9393 5.99319 22.9134 6.45723 22.0519C6.64768 21.6993 7.05628 21.211 7.27696 20.871C8.02666 19.7085 8.66402 18.7554 9.42959 17.6018C9.97827 16.7755 10.5179 15.9343 11.1421 15.1647C12.2425 13.8035 13.3988 12.4871 14.5392 11.161C15.425 10.1277 16.2926 9.08698 17.2282 8.10528C18.1426 7.14524 19.0979 6.22106 20.0948 5.34769C21.1717 4.40633 22.2864 3.50307 23.445 2.65808C24.1041 2.21952 24.8041 1.84426 25.5354 1.53742C26.3159 1.14896 27.1215 0.684714 27.947 0.401508C28.854 0.101527 29.8157 -0.0716278 30.7667 0.0284779C31.5509 0.15824 32.4156 0.385723 33.1776 0.61025C34.4981 0.970921 35.8904 1.67276 36.9468 2.53503C37.6849 3.10511 38.5339 3.81477 39.1617 4.50196C40.1079 5.53521 40.8467 6.62376 41.7052 7.73098C42.1789 8.37828 42.5958 9.06152 42.9608 9.77433C43.6062 10.96 44.2138 12.1651 44.8275 13.3687C44.931 13.5704 44.9377 13.8229 45.0337 14.0284C45.2075 14.4019 45.3087 14.7262 45.4599 15.1072C45.7486 15.8484 46.3521 16.6104 46.6408 17.3545C52.1124 34.2393 49.573 39.0007 49.372 39.372C48.7059 40.6579 46.8401 42.532 45.7623 43.5077ZM29.2053 0.762663L29.1887 0.68795C28.6657 0.826165 28.1435 0.946453 27.6379 1.10932C27.3457 1.21996 27.0612 1.34949 26.7862 1.49707C25.8252 1.87961 24.8911 2.32488 23.9899 2.82992C22.8409 3.57724 21.7464 4.40334 20.7145 5.30211C19.5318 6.3069 18.4039 7.37304 17.3355 8.49602C16.115 9.78777 14.9995 11.1811 13.8379 12.5304C13.6814 12.7097 13.5099 12.8793 13.3595 13.0624C12.5471 14.053 11.7029 15.0205 10.9373 16.0463C10.2398 16.9817 9.614 17.9709 8.97766 18.9541C8.11912 20.2899 7.21902 21.6071 6.45723 22.9967C5.51556 24.7151 4.70766 26.5081 3.82041 28.2534C3.04575 29.7444 2.39053 31.2932 1.86075 32.8855C1.62435 33.5673 1.432 34.2633 1.28487 34.9692C0.685556 38.63 1.2637 39.3607 1.84941 40.1922C2.55536 41.1214 3.48096 41.8653 4.54518 42.3589C5.94558 43.0753 7.39738 43.6969 8.84389 44.3208C9.779 44.738 10.735 45.1077 11.7082 45.4287C27.9069 50.5554 36.9193 45.7956 37.9327 45.3085C39.1787 44.6901 40.392 44.0093 41.5679 43.2688C42.4257 42.7552 43.2448 42.1809 44.0188 41.5505C45.6748 40.3435 46.9711 38.7175 47.7711 36.8437C48.0259 36.0517 48.2231 35.2428 48.3614 34.423C48.4241 26.8115 45.8492 18.2533 45.6044 17.6011C45.4381 17.1603 45.3179 16.6971 45.1419 16.2645C44.8396 15.5174 44.5131 14.7703 44.1934 14.0284C43.9319 13.4225 43.7021 12.8001 43.3885 12.2204C42.9101 11.3365 42.3864 10.4751 41.8559 9.61893C41.4205 8.91888 40.9792 8.21735 40.4849 7.55242C39.9468 6.83444 39.3513 6.15606 38.7656 5.47395C38.2078 4.82845 37.6682 4.15156 37.05 3.55836C36.4933 3.01494 35.8803 2.53089 35.2211 2.11419C34.5914 1.77502 33.9392 1.47825 33.269 1.22587C32.2694 0.820473 31.1995 0.611374 30.119 0.61025C29.8087 0.630134 29.5012 0.680184 29.2008 0.759673L29.2053 0.762663Z" fill="#FF9F43"/>
<path d="M28.3814 19.0401C27.4327 19.0188 26.6312 18.2313 25.5277 18.8198L26.0187 19.0682C26.2638 19.1777 26.5007 19.3046 26.7276 19.4479C26.8172 19.5125 26.8248 19.6909 26.9045 19.9165C26.629 19.8405 26.481 19.8033 26.336 19.7562C25.7 19.5465 25.0142 19.542 24.3755 19.7433C23.9427 19.8333 23.4961 19.8333 23.0633 19.7433C22.8199 19.6908 22.5942 19.5763 22.4081 19.411C22.2219 19.2456 22.0816 19.0349 22.0007 18.7993C21.8123 18.4001 21.5123 18.064 21.137 17.8318C21.0051 17.7483 20.8918 17.6384 20.8043 17.5091C20.7168 17.3797 20.6569 17.2337 20.6284 17.0802C20.5999 16.9266 20.6034 16.7688 20.6387 16.6167C20.674 16.4645 20.7402 16.3213 20.8334 16.1959C21.096 15.8215 21.2743 15.3309 21.6204 15.0917C22.1995 14.7509 22.8113 14.469 23.4465 14.2502C23.6849 14.1533 23.9359 14.0909 24.1919 14.0649C24.7998 14.0491 25.397 14.227 25.8973 14.573C26.7198 15.1096 27.6235 15.5096 28.5735 15.7577C28.7018 15.7645 28.8299 15.7422 28.9484 15.6924C29.1101 15.6423 29.2649 15.5732 29.422 15.5124L29.5207 15.6438C29.4197 15.7357 29.3279 15.8922 29.2171 15.9066C28.5189 16.0603 27.7907 16.0005 27.1268 15.735C26.4784 15.4037 25.7995 15.1359 25.0996 14.9353C24.8105 14.9115 24.5201 14.9639 24.2575 15.0871C23.9948 15.2104 23.7689 15.4002 23.6021 15.6378C23.2832 15.9975 22.9852 16.3753 22.7096 16.7693C22.6719 16.8143 22.6449 16.8672 22.6303 16.9241C22.6158 16.9809 22.6142 17.0403 22.6256 17.0979C22.6371 17.1554 22.6612 17.2097 22.6964 17.2566C22.7315 17.3036 22.7768 17.3421 22.8287 17.3693C22.98 17.4319 23.1481 17.4412 23.3054 17.3959C23.6803 17.3382 24.0484 17.2197 24.4249 17.187C25.2857 17.0866 26.1542 17.2951 26.8756 17.7756C27.2377 18.0224 27.6232 18.2313 27.9974 18.4591C28.2518 18.5904 28.532 18.6637 28.8181 18.674C29.1041 18.6842 29.3889 18.6311 29.652 18.5183C30.266 18.2907 30.9068 18.1429 31.5585 18.0786C32.1381 18.1289 32.7071 18.2642 33.2473 18.4804C33.5767 18.5745 33.8833 18.7545 34.2142 18.832C34.4455 18.8758 34.6839 18.8636 34.9094 18.7963C35.3398 18.674 35.7572 18.5047 36.1769 18.3475C36.2676 18.321 36.3474 18.2662 36.4046 18.191C36.6528 17.7354 36.8744 17.2653 37.1249 16.8096C37.2457 16.5659 37.4008 16.3408 37.5856 16.1413C38.0019 15.6707 38.4763 15.255 38.9973 14.9041C39.3857 14.6177 39.8664 14.4853 40.3465 14.5326C40.8267 14.5799 41.2724 14.8034 41.5976 15.1601C41.7523 15.3222 41.8501 15.5305 41.8761 15.7532C41.8495 16.016 41.8298 16.2848 41.7964 16.5544C41.7281 17.0898 41.2613 17.3002 40.9122 17.5941C40.2984 18.0234 39.7188 18.4997 39.1787 19.0188C38.8776 19.3562 38.669 19.7658 38.5731 20.2078C38.4772 20.6497 38.4973 21.109 38.6315 21.5409C38.9791 22.7778 39.2852 24.0261 39.5498 25.2858C39.6816 25.9582 39.7462 26.642 39.7426 27.3272C39.7104 27.8434 39.6424 28.3567 39.5392 28.8635C39.4921 29.1787 39.4436 29.4962 39.3715 29.806C39.0648 31.0274 38.4966 32.1675 37.7063 33.1476C36.9851 34.0168 36.2089 34.8387 35.3823 35.6082C35.2345 35.7188 35.1145 35.8623 35.0316 36.0273C34.9488 36.1924 34.9054 36.3744 34.9049 36.559C34.8656 37.0628 34.7872 37.5628 34.6703 38.0544C34.5844 38.4629 34.548 38.8803 34.5618 39.2976C34.5208 39.7317 34.3358 40.1395 34.0362 40.4561C33.7366 40.7727 33.3397 40.9798 32.9088 41.0443C30.6637 41.0086 28.4171 41.0322 26.1713 41.0033C25.658 40.9719 25.1478 40.902 24.645 40.7945C24.4303 40.7541 24.2133 40.727 23.9953 40.7132C23.5832 40.5454 23.1703 40.3783 22.7582 40.2074C22.6796 40.179 22.6057 40.1391 22.5388 40.089C21.9543 39.6606 21.2405 39.4461 20.5169 39.4814C19.3541 39.4419 18.1876 39.4973 17.0256 39.4746C16.4211 39.4808 15.8178 39.4197 15.2268 39.2923C14.4294 39.1046 13.6541 38.8335 12.9134 38.4835C12.4421 38.2511 12.3207 37.6587 12.2577 37.1499C12.1969 36.2926 11.9744 35.4546 11.6019 34.6802C11.2452 34.085 10.8481 33.5151 10.4133 32.9744C9.88684 32.2777 9.53872 31.4627 9.39934 30.6004C9.37733 30.4584 9.30067 30.3247 9.26804 30.1819C9.21679 30.0152 9.20102 29.8395 9.22174 29.6663C9.4822 28.5592 10.0658 27.5547 10.8983 26.7804C11.4107 26.2306 11.9592 25.7155 12.54 25.2387C13.2092 24.8421 13.9116 24.5046 14.6393 24.2302C15.8021 23.7145 17.0377 23.9598 18.2437 23.9264C18.6342 23.9552 19.0191 24.0359 19.3883 24.1664C20.1845 24.3631 20.9905 24.5324 21.77 24.7823C22.4629 25.0055 23.1293 25.3139 23.801 25.5987C24.4727 25.8835 25.1004 26.1774 25.7584 26.4432C25.8938 26.4577 26.0297 26.4197 26.1379 26.3369C26.3283 26.2306 26.4995 26.093 26.6441 25.9298C26.9769 25.6118 27.4022 25.408 27.8585 25.3481C28.0763 25.298 28.304 25.3117 28.5143 25.3876C28.9016 25.5251 29.2816 25.6825 29.6527 25.8592C30.5393 26.3014 31.3049 26.9531 31.8834 27.7578C32.4086 28.4284 32.8541 29.1575 33.3763 29.9192L33.6753 29.6762C33.5888 29.5448 33.544 29.4483 33.4795 29.3648C33.3074 29.0975 33.2027 28.7924 33.1746 28.4757C33.1464 28.159 33.1956 27.8401 33.3178 27.5467C33.5078 27.0384 33.8688 26.6122 34.3387 26.3414C34.6394 26.0818 34.8657 25.7468 34.9944 25.3708C35.19 25.0113 35.3032 24.6127 35.3259 24.2039C35.3486 23.7952 35.2803 23.3865 35.1257 23.0074C35.0552 22.8761 34.8434 22.6854 34.7607 22.7135C34.6758 22.7475 34.5989 22.7988 34.535 22.8642C34.4711 22.9296 34.4216 23.0076 34.3895 23.0933C34.3021 23.3839 34.2626 23.6868 34.2726 23.9902C34.2855 24.3631 34.1269 24.6653 33.7952 24.6084C33.5675 24.5689 33.3323 24.2423 33.2139 23.9902C33.1167 23.7828 33.2139 23.4927 33.1774 23.2474C33.1247 22.8283 32.9084 22.4471 32.5759 22.1869C32.2433 21.9266 31.8214 21.8086 31.4022 21.8584C30.6943 21.8949 29.9882 21.7597 29.3438 21.4642C28.9563 21.3193 28.6354 21.0372 28.4419 20.6713C28.2484 20.3054 28.1959 19.8811 28.2942 19.479C28.3368 19.3357 28.366 19.1888 28.3814 19.0401ZM21.3525 37.241L21.4178 37.0967C21.3448 37.0118 21.2599 36.9379 21.1658 36.8772C20.3574 36.4518 19.6594 35.8436 19.1272 35.1009C18.312 34.0924 18.1473 32.8226 17.7534 31.6477C17.6601 31.3614 17.5257 31.091 17.4316 30.8047C17.3393 30.3782 17.2142 29.9596 17.0575 29.5524C16.6112 28.6646 16.114 27.8056 15.6154 26.9459C15.2693 26.3513 14.8777 25.7802 14.5156 25.1931C14.3198 24.878 14.0185 24.8582 13.8212 25.1734C13.6899 25.3769 13.6246 25.6169 13.4864 25.8113C13.1191 26.3369 12.7161 26.829 12.348 27.3515C11.334 28.7944 12.033 29.6481 12.9764 30.0855C13.9828 30.548 15.0204 30.9414 16.0298 31.3986C16.3977 31.561 16.7234 31.8057 16.9819 32.1139C17.2403 32.4222 17.4246 32.7857 17.5204 33.1765C17.58 33.5413 17.5493 33.9151 17.431 34.2653C17.3127 34.6155 17.1104 34.9314 16.8419 35.1852C16.4913 35.6196 16.5861 35.9872 17.1303 36.1505C17.6745 36.3137 18.2574 36.4132 18.819 36.5598C19.4399 36.7185 20.0577 36.8894 20.6755 37.0572C20.9024 37.1096 21.1286 37.1704 21.3525 37.241ZM25.8806 27.0568C25.7526 26.926 25.6051 26.8158 25.4434 26.7303C24.7338 26.4531 24.0234 26.1683 23.294 25.9533C22.4217 25.6834 21.5348 25.4633 20.6376 25.2941C19.9091 25.1852 19.1731 25.1344 18.4365 25.1422C18.105 25.1551 17.7791 25.2325 17.4772 25.3701C17.0977 25.5273 17.0635 25.7498 17.295 26.0923C17.8879 26.8495 18.6976 27.4075 19.616 27.6917C20.2391 27.937 20.9138 28.0502 21.5635 28.234C21.943 28.3418 22.3164 28.4785 22.6974 28.5894C23.3142 28.7706 23.9331 28.9458 24.5539 29.1149C25.029 29.2463 25.5079 29.3633 26.0316 29.4946C25.6763 28.7271 25.6222 27.8541 25.8798 27.0485L25.8806 27.0568ZM21.5703 33.4256C21.5863 33.5911 21.5612 33.7141 21.6113 33.7772C21.8102 34.1098 22.0673 34.4038 22.3703 34.6452C23.147 35.0951 23.9543 35.49 24.7861 35.8269C25.3069 35.9991 25.8421 36.1239 26.3853 36.1998C27.0138 36.3312 27.6452 36.4444 28.2737 36.5704C28.3636 36.5938 28.4514 36.6245 28.5363 36.6623C28.6145 36.692 28.6985 36.7029 28.7817 36.6944C28.8649 36.6859 28.9449 36.6581 29.0155 36.6132C29.0861 36.5683 29.1452 36.5075 29.1883 36.4358C29.2313 36.364 29.257 36.2833 29.2634 36.1998C29.4106 35.0971 28.2911 33.7628 27.5177 33.4658C26.5266 33.0669 25.4535 32.9149 24.3907 33.023C23.4724 33.1218 22.554 33.2767 21.5711 33.418L21.5703 33.4256Z" fill="#003268"/>
</svg>
