<svg width="75" height="75" viewBox="0 0 75 75" fill="none" xmlns="http://www.w3.org/2000/svg">
<path d="M37.4601 74.3968C58.0042 74.3968 74.6585 57.7425 74.6585 37.1984C74.6585 16.6543 58.0042 0 37.4601 0C16.916 0 0.261719 16.6543 0.261719 37.1984C0.261719 57.7425 16.916 74.3968 37.4601 74.3968Z" fill="#DDDDDD"/>
<path d="M41.1171 39.8975H37.9941V49.2977H41.1171V39.8975Z" fill="#FF9F43"/>
<path d="M40.3015 19.5765C41.8868 19.8167 42.4633 20.4922 42.4633 22.1019V29.2357C42.4633 30.8575 42.0223 31.4301 40.4322 31.8432V33.7744H38.4362V31.8529C38.2709 31.8091 38.148 31.7746 38.024 31.7457C37.5555 31.6599 37.1329 31.4102 36.8316 31.0414C36.5302 30.6726 36.3699 30.2086 36.3792 29.7324C36.3625 27.0422 36.3625 24.351 36.3792 21.6585C36.3722 21.2156 36.5137 20.7831 36.781 20.4299C37.0484 20.0767 37.4263 19.8231 37.8544 19.7096C37.9457 19.6798 38.0355 19.6452 38.1667 19.5986C37.8578 18.4909 37.1779 17.5227 36.2408 16.8561C35.1652 16.1099 33.9013 15.6814 32.5937 15.6196C30.2863 15.3551 27.9516 15.7603 25.8683 16.7869C24.589 17.4097 23.4974 18.36 22.7043 19.5412C21.9112 20.7225 21.4449 22.0926 21.3526 23.5124C20.8296 28.178 21.4982 32.9 23.2958 37.237C23.4495 37.6007 23.6426 37.9475 23.818 38.3021C23.8396 38.3448 23.8713 38.3833 23.9568 38.5101C24.2777 37.1775 24.6106 35.939 26.2516 35.842V20.6526H28.2534V24.6576H35.3252V26.7233H28.301V35.8161H50.5237V26.7329H43.499V24.7056H50.5549V20.6497H52.5726V35.8271C53.8307 35.9333 54.3928 36.6812 54.7016 37.7967C55.9459 42.2917 57.2362 46.7737 58.4967 51.2639C58.5974 51.6294 58.6498 52.0065 58.6524 52.3856C58.6682 54.2183 58.6634 56.0514 58.6581 57.8841C58.6581 59.3801 57.8578 60.1958 56.3792 60.1958C45.074 60.1996 33.7689 60.1996 22.4638 60.1958C20.9774 60.1958 20.1848 59.3791 20.18 57.8851C20.18 56.0692 20.081 54.2452 20.2136 52.436C20.3606 51.2621 20.6206 50.1051 20.9899 48.9811C21.6697 46.5042 22.396 44.0331 23.0854 41.5572C23.1476 41.3477 23.1266 41.1223 23.0268 40.9279C21.3521 38.3643 20.2389 35.4754 19.7601 32.4509C19.2122 29.6942 19.0409 26.8758 19.2509 24.073C19.7313 18.6239 22.899 14.8053 28.5282 13.7792C30.7669 13.3094 33.0896 13.4341 35.2651 14.1409C37.8232 15.0325 39.5406 16.735 40.2338 19.3998C40.2521 19.4602 40.2747 19.5193 40.3015 19.5765ZM22.2154 52.0426H56.6203L52.6634 38.0897L52.5514 38.1085V40.8947H50.5482V37.9115H48.7227C49.3924 41.9689 50.0582 45.982 50.7279 50.0235H28.1054L30.1125 37.8976H28.2611V40.8909H26.2435V38.1325L26.169 38.1248C24.8561 42.7476 23.5432 47.3704 22.2154 52.0426ZM22.2332 58.132H56.5867V54.1313H22.2337L22.2332 58.132ZM37.3135 37.8836C37.032 41.2622 36.7529 44.6091 36.4704 47.9944H42.3672C42.0838 44.6062 41.8032 41.2502 41.5222 37.8836H37.3135ZM35.2724 37.8913H32.1748C31.6161 41.2541 31.0574 44.6076 30.4906 48.0275C31.7011 48.0275 32.8488 48.0126 33.9974 48.0357C34.3687 48.0439 34.4581 47.918 34.486 47.562C34.6555 45.3277 34.8544 43.0944 35.0408 40.8625C35.1172 39.8811 35.1926 38.9011 35.2728 37.8918L35.2724 37.8913ZM48.3504 48.0275L46.6662 37.9067H43.6028C43.5926 37.9353 43.5857 37.965 43.5821 37.9951C43.8463 41.2467 44.1134 44.4973 44.3834 47.747C44.4 47.8091 44.4319 47.866 44.4762 47.9126C44.5205 47.9592 44.5758 47.9939 44.637 48.0136C45.8519 48.0314 47.0664 48.0256 48.3495 48.0256L48.3504 48.0275ZM40.389 29.7281V21.6691H38.4568V29.7281H40.389Z" fill="#003268"/>
<path d="M40.4211 56.1328C40.4191 56.3305 40.3587 56.5231 40.2475 56.6865C40.1362 56.8499 39.9791 56.9767 39.7959 57.0509C39.6127 57.1252 39.4116 57.1436 39.218 57.1038C39.0244 57.064 38.8469 56.9679 38.7078 56.8274C38.5687 56.6869 38.4743 56.5084 38.4365 56.3144C38.3987 56.1204 38.4191 55.9195 38.4952 55.7371C38.5713 55.5547 38.6996 55.3988 38.8641 55.2892C39.0286 55.1796 39.2219 55.1211 39.4195 55.1211H39.4301C39.6939 55.1293 39.9444 55.2391 40.1291 55.4277C40.3138 55.6162 40.4184 55.8689 40.4211 56.1328Z" fill="#003268"/>
</svg>
