<svg width="75" height="75" viewBox="0 0 75 75" fill="none" xmlns="http://www.w3.org/2000/svg">
<path d="M37.6398 74.3958C58.1839 74.3958 74.8382 57.7415 74.8382 37.1974C74.8382 16.6533 58.1839 -0.000976562 37.6398 -0.000976562C17.0957 -0.000976562 0.441406 16.6533 0.441406 37.1974C0.441406 57.7415 17.0957 74.3958 37.6398 74.3958Z" fill="#DDDDDD"/>
<path fill-rule="evenodd" clip-rule="evenodd" d="M12.5315 32.7847L18.4594 30.4692L24.4355 32.7847L25.0696 37.2235L23.2346 41.3836L19.5403 44.7367L17.7436 44.8617L14.2705 42.2147L13.0023 38.3908L12.3105 35.201L12.5315 32.7847Z" fill="#FF9F43"/>
<path d="M44.4649 13.3164C37.8792 13.3164 31.2129 14.9233 31.2129 17.9935V19.5523H13.2838C12.9767 19.5523 12.6726 19.6128 12.3888 19.7304C12.1051 19.8479 11.8472 20.0202 11.6301 20.2374C11.4129 20.4546 11.2407 20.7125 11.1232 20.9963C11.0057 21.2801 10.9452 21.5842 10.9453 21.8913V40.6001C10.9453 41.2203 11.1917 41.8151 11.6303 42.2536C12.0688 42.6922 12.6636 42.9386 13.2838 42.9386H14.0635V48.245L11.0006 55.9009C10.9642 55.9927 10.9455 56.0904 10.9453 56.1891V58.5277C10.9453 58.7324 10.9856 58.9351 11.064 59.1242C11.1423 59.3133 11.2571 59.4852 11.4019 59.6299C11.5466 59.7747 11.7185 59.8895 11.9076 59.9679C12.0968 60.0462 12.2995 60.0865 12.5042 60.0865H42.1263C42.3311 60.0865 42.5338 60.0462 42.7229 59.9679C42.912 59.8895 43.0839 59.7747 43.2286 59.6299C43.3734 59.4852 43.4882 59.3133 43.5665 59.1242C43.6449 58.9351 43.6852 58.7324 43.6852 58.5277V56.1906C43.6851 56.0919 43.6663 55.9941 43.63 55.9023L40.567 48.245V47.4091C41.8328 47.5354 43.1323 47.6156 44.4644 47.6156C51.05 47.6156 57.7164 46.0087 57.7164 42.9386V17.9935C57.7169 14.9233 51.05 13.3164 44.4649 13.3164ZM44.4649 14.8753C51.6025 14.8753 56.1575 16.7219 56.1575 17.9935C56.1575 19.2651 51.6025 21.1117 44.4649 21.1117C41.8779 21.1368 39.2973 20.8505 36.7787 20.259C36.5618 20.0355 36.3022 19.8578 36.0154 19.7365C35.7286 19.6152 35.4203 19.5527 35.1088 19.5528H34.651C33.2747 18.9595 32.7703 18.3619 32.7703 17.9939C32.7717 16.7224 37.3273 14.8753 44.4649 14.8753ZM13.2838 21.1117H35.1088C35.3156 21.1117 35.5139 21.1938 35.6601 21.34C35.8064 21.4862 35.8885 21.6846 35.8885 21.8913V25.7892H12.5042V21.8913C12.5042 21.6846 12.5863 21.4862 12.7325 21.34C12.8787 21.1938 13.0771 21.1117 13.2838 21.1117ZM12.5042 40.6001V27.3481H35.8899V40.6001C35.8899 40.7025 35.8696 40.804 35.8303 40.8986C35.791 40.9932 35.7335 41.0792 35.6609 41.1516C35.5884 41.2239 35.5023 41.2813 35.4075 41.3204C35.3128 41.3594 35.2113 41.3794 35.1088 41.3792H31.4781C32.3231 39.8756 32.7687 38.1805 32.7722 36.4557V32.8048C32.7724 32.6462 32.7242 32.4912 32.6339 32.3608C32.5437 32.2303 32.4158 32.1304 32.2673 32.0746L26.0295 29.7356C25.8532 29.6706 25.6596 29.6706 25.4833 29.7356L19.2483 32.0741C19.0993 32.1295 18.9708 32.2291 18.88 32.3597C18.7893 32.4902 18.7406 32.6453 18.7406 32.8043V36.4553C18.7441 38.1801 19.1897 39.8752 20.0347 41.3788H13.2838C13.0771 41.3788 12.8787 41.2966 12.7325 41.1504C12.5863 41.0042 12.5042 40.8059 12.5042 40.5991V40.6001ZM20.2994 36.4562V33.3448L25.7562 31.2983L31.2129 33.3448V36.4562C31.2077 38.1812 30.6849 39.8648 29.712 41.2893C28.7391 42.7137 27.361 43.8132 25.7562 44.4456C24.1513 43.8132 22.7732 42.7137 21.8003 41.2893C20.8275 39.8648 20.3046 38.1812 20.2994 36.4562ZM21.1036 42.9386C22.2217 44.2892 23.6724 45.3251 25.3128 45.9444L25.4785 46.0073C25.6545 46.0728 25.8482 46.0728 26.0242 46.0073L26.1904 45.9444C27.8342 45.3266 29.2882 44.2906 30.4087 42.9386H35.1088C35.7291 42.9386 36.3239 42.6922 36.7624 42.2536C37.201 41.8151 37.4474 41.2203 37.4474 40.6001V32.0251H38.227C38.4338 32.0251 38.6321 32.1073 38.7783 32.2535C38.9246 32.3997 39.0067 32.598 39.0067 32.8048V47.6161H15.6224V42.9386H21.1036ZM32.6003 55.4109L31.969 52.8831C31.9269 52.7144 31.8296 52.5647 31.6926 52.4577C31.5556 52.3508 31.3867 52.2927 31.2129 52.2927H23.4176C23.2438 52.2927 23.0749 52.3508 22.9379 52.4577C22.8009 52.5647 22.7036 52.7144 22.6615 52.8831L22.0303 55.4109H12.8765L15.3706 49.1745H39.2599L41.754 55.4109H32.6003ZM30.9934 55.4109H23.6372L24.0268 53.852H30.6038L30.9934 55.4109ZM12.5042 58.5291V56.9698H42.1263V58.5286L12.5042 58.5291ZM44.4649 46.0568C43.163 46.0533 41.8621 45.9825 40.5675 45.8445V41.1674C41.8621 41.3049 43.163 41.3758 44.4649 41.3797C49.1213 41.3797 53.8051 40.5727 56.1575 39.0167V42.9386C56.1575 44.2097 51.6025 46.0568 44.4649 46.0568ZM44.4649 39.8204C43.1628 39.8184 41.8617 39.7458 40.5675 39.6028V34.9339C41.8621 35.0709 43.163 35.1413 44.4649 35.1448C49.1213 35.1448 53.8051 34.3377 56.1575 32.7817V36.7036C56.1575 37.9733 51.6025 39.8204 44.4649 39.8204ZM44.4649 33.584C43.1628 33.582 41.8617 33.5094 40.5675 33.3664V32.8048C40.5675 32.4977 40.507 32.1935 40.3894 31.9098C40.2719 31.626 40.0996 31.3682 39.8824 31.151C39.6652 30.9339 39.4073 30.7616 39.1235 30.6441C38.8398 30.5266 38.5356 30.4662 38.2285 30.4663H37.4493V28.2368C39.7588 28.6947 42.1085 28.92 44.463 28.9093C49.1194 28.9093 53.8031 28.1023 56.1556 26.5463V30.4663C56.1575 31.7374 51.6025 33.584 44.4649 33.584ZM44.4649 27.3476C42.1093 27.3616 39.7586 27.1296 37.4512 26.6553V22.0114C39.7615 22.4632 42.1109 22.6848 44.4649 22.6729C49.1213 22.6729 53.8051 21.8659 56.1575 20.3099V24.2318C56.1575 25.501 51.6025 27.3481 44.4649 27.3481V27.3476Z" fill="#003268"/>
<path d="M53.0391 22.6704H54.5979V24.2293H53.0391V22.6704Z" fill="#003268"/>
<path d="M49.9219 23.4526H51.4807V25.0115H49.9219V23.4526Z" fill="#003268"/>
<path d="M46.8047 24.23H48.3635V25.7888H46.8047V24.23Z" fill="#003268"/>
<path d="M53.0391 28.9077H54.5979V30.4671H53.0391V28.9077Z" fill="#003268"/>
<path d="M49.9219 29.687H51.4807V31.2459H49.9219V29.687Z" fill="#003268"/>
<path d="M46.8047 30.4668H48.3635V32.0257H46.8047V30.4668Z" fill="#003268"/>
<path d="M53.0391 35.1431H54.5979V36.7019H53.0391V35.1431Z" fill="#003268"/>
<path d="M49.9219 35.9229H51.4807V37.4803H49.9219V35.9229Z" fill="#003268"/>
<path d="M46.8047 36.7021H48.3635V38.261H46.8047V36.7021Z" fill="#003268"/>
<path d="M53.0391 41.3794H54.5979V42.9383H53.0391V41.3794Z" fill="#003268"/>
<path d="M49.9219 42.1592H51.4807V43.718H49.9219V42.1592Z" fill="#003268"/>
<path d="M46.8047 42.9385H48.3635V44.4973H46.8047V42.9385Z" fill="#003268"/>
<path d="M49.1432 17.2144H39.7891V18.7732H49.1432V17.2144Z" fill="#003268"/>
<path d="M14.0625 22.6704H15.6214V24.2293H14.0625V22.6704Z" fill="#003268"/>
<path d="M17.1836 22.6704H18.7425V24.2293H17.1836V22.6704Z" fill="#003268"/>
<path d="M20.3008 22.6704H21.8596V24.2293H20.3008V22.6704Z" fill="#003268"/>
<path d="M24.9794 40.6006C25.186 40.6006 25.3842 40.5185 25.5304 40.3724L29.4278 36.4746L28.3258 35.3721L24.9794 38.7185L23.1919 36.9309L22.0898 38.0334L24.4284 40.372C24.5745 40.5182 24.7727 40.6005 24.9794 40.6006Z" fill="#003268"/>
</svg>
