<svg width="78" height="78" viewBox="0 0 78 78" fill="none" xmlns="http://www.w3.org/2000/svg">
<path d="M38.7247 77.45C60.1118 77.45 77.4494 60.1122 77.4494 38.725C77.4494 17.3378 60.1118 0 38.7247 0C17.3376 0 0 17.3378 0 38.725C0 60.1122 17.3376 77.45 38.7247 77.45Z" fill="#EFEFEF"/>
<rect x="21.05" y="21.1001" width="36.9" height="7.175" fill="#FF9F43"/>
<path d="M27.9688 17C28.3086 17 28.6344 17.135 28.8747 17.3753C29.115 17.6156 29.25 17.9414 29.25 18.2812V19.5625H49.75V18.2812C49.75 17.9414 49.885 17.6156 50.1253 17.3753C50.3655 17.135 50.6914 17 51.0312 17C51.3711 17 51.6969 17.135 51.9372 17.3753C52.1775 17.6156 52.3125 17.9414 52.3125 18.2812V19.5625H54.875C56.2342 19.5625 57.5378 20.1025 58.4989 21.0636C59.46 22.0247 60 23.3283 60 24.6875V52.875C60 54.2342 59.46 55.5378 58.4989 56.4989C57.5378 57.46 56.2342 58 54.875 58H24.125C22.7658 58 21.4622 57.46 20.5011 56.4989C19.54 55.5378 19 54.2342 19 52.875V24.6875C19 23.3283 19.54 22.0247 20.5011 21.0636C21.4622 20.1025 22.7658 19.5625 24.125 19.5625H26.6875V18.2812C26.6875 17.9414 26.8225 17.6156 27.0628 17.3753C27.3031 17.135 27.6289 17 27.9688 17V17ZM24.125 22.125C23.4454 22.125 22.7936 22.395 22.313 22.8755C21.8325 23.3561 21.5625 24.0079 21.5625 24.6875V27.25H57.4375V24.6875C57.4375 24.0079 57.1675 23.3561 56.687 22.8755C56.2064 22.395 55.5546 22.125 54.875 22.125H24.125ZM57.4375 29.8125H21.5625V52.875C21.5625 53.5546 21.8325 54.2064 22.313 54.687C22.7936 55.1675 23.4454 55.4375 24.125 55.4375H54.875C55.5546 55.4375 56.2064 55.1675 56.687 54.687C57.1675 54.2064 57.4375 53.5546 57.4375 52.875V29.8125Z" fill="#002B59"/>
<path d="M47.1875 36.2188C47.1875 35.8789 47.3225 35.5531 47.5628 35.3128C47.803 35.0725 48.1289 34.9375 48.4688 34.9375H51.0312C51.3711 34.9375 51.697 35.0725 51.9372 35.3128C52.1775 35.5531 52.3125 35.8789 52.3125 36.2188V38.7812C52.3125 39.1211 52.1775 39.447 51.9372 39.6872C51.697 39.9275 51.3711 40.0625 51.0312 40.0625H48.4688C48.1289 40.0625 47.803 39.9275 47.5628 39.6872C47.3225 39.447 47.1875 39.1211 47.1875 38.7812V36.2188ZM39.5 36.2188C39.5 35.8789 39.635 35.5531 39.8753 35.3128C40.1155 35.0725 40.4414 34.9375 40.7812 34.9375H43.3438C43.6836 34.9375 44.0095 35.0725 44.2497 35.3128C44.49 35.5531 44.625 35.8789 44.625 36.2188V38.7812C44.625 39.1211 44.49 39.447 44.2497 39.6872C44.0095 39.9275 43.6836 40.0625 43.3438 40.0625H40.7812C40.4414 40.0625 40.1155 39.9275 39.8753 39.6872C39.635 39.447 39.5 39.1211 39.5 38.7812V36.2188ZM34.375 43.9062C34.375 43.5664 34.51 43.2405 34.7503 43.0003C34.9906 42.76 35.3164 42.625 35.6562 42.625H38.2188C38.5586 42.625 38.8844 42.76 39.1247 43.0003C39.365 43.2405 39.5 43.5664 39.5 43.9062V46.4688C39.5 46.8086 39.365 47.1345 39.1247 47.3747C38.8844 47.615 38.5586 47.75 38.2188 47.75H35.6562C35.3164 47.75 34.9906 47.615 34.7503 47.3747C34.51 47.1345 34.375 46.8086 34.375 46.4688V43.9062ZM26.6875 43.9062C26.6875 43.5664 26.8225 43.2405 27.0628 43.0003C27.3031 42.76 27.6289 42.625 27.9688 42.625H30.5312C30.8711 42.625 31.1969 42.76 31.4372 43.0003C31.6775 43.2405 31.8125 43.5664 31.8125 43.9062V46.4688C31.8125 46.8086 31.6775 47.1345 31.4372 47.3747C31.1969 47.615 30.8711 47.75 30.5312 47.75H27.9688C27.6289 47.75 27.3031 47.615 27.0628 47.3747C26.8225 47.1345 26.6875 46.8086 26.6875 46.4688V43.9062Z" fill="#002B59"/>
</svg>
