<svg width="78" height="78" viewBox="0 0 78 78" fill="none" xmlns="http://www.w3.org/2000/svg">
<path d="M38.7247 77.45C60.1118 77.45 77.4494 60.1122 77.4494 38.725C77.4494 17.3378 60.1118 0 38.7247 0C17.3376 0 0 17.3378 0 38.725C0 60.1122 17.3376 77.45 38.7247 77.45Z" fill="#EFEFEF"/>
<g clip-path="url(#clip0_21_883)">
<path d="M33.1133 36.7358C36.6145 36.7358 39.4528 33.6947 39.4528 29.9433C39.4528 26.192 36.6145 23.1509 33.1133 23.1509C29.612 23.1509 26.7737 26.192 26.7737 29.9433C26.7737 33.6947 29.612 36.7358 33.1133 36.7358Z" fill="#FF9F43"/>
<path d="M33 39C35.3869 39 37.6761 38.0518 39.364 36.364C41.0518 34.6761 42 32.3869 42 30C42 27.6131 41.0518 25.3239 39.364 23.636C37.6761 21.9482 35.3869 21 33 21C30.6131 21 28.3239 21.9482 26.636 23.636C24.9482 25.3239 24 27.6131 24 30C24 32.3869 24.9482 34.6761 26.636 36.364C28.3239 38.0518 30.6131 39 33 39ZM39 30C39 31.5913 38.3679 33.1174 37.2426 34.2426C36.1174 35.3679 34.5913 36 33 36C31.4087 36 29.8826 35.3679 28.7574 34.2426C27.6321 33.1174 27 31.5913 27 30C27 28.4087 27.6321 26.8826 28.7574 25.7574C29.8826 24.6321 31.4087 24 33 24C34.5913 24 36.1174 24.6321 37.2426 25.7574C38.3679 26.8826 39 28.4087 39 30ZM51 54C51 57 48 57 48 57H18C18 57 15 57 15 54C15 51 18 42 33 42C48 42 51 51 51 54ZM48 53.988C47.997 53.25 47.538 51.03 45.504 48.996C43.548 47.04 39.867 45 33 45C26.13 45 22.452 47.04 20.496 48.996C18.462 51.03 18.006 53.25 18 53.988H48Z" fill="#002B59"/>
<path fill-rule="evenodd" clip-rule="evenodd" d="M62.5619 30.438C62.7016 30.5773 62.8125 30.7429 62.8881 30.9251C62.9637 31.1073 63.0026 31.3027 63.0026 31.5C63.0026 31.6973 62.9637 31.8927 62.8881 32.0749C62.8125 32.2571 62.7016 32.4227 62.5619 32.562L53.5619 41.562C53.4226 41.7017 53.2571 41.8125 53.0748 41.8881C52.8926 41.9638 52.6972 42.0027 52.4999 42.0027C52.3026 42.0027 52.1073 41.9638 51.925 41.8881C51.7428 41.8125 51.5773 41.7017 51.4379 41.562L46.9379 37.062C46.6563 36.7803 46.498 36.3983 46.498 36C46.498 35.6017 46.6563 35.2197 46.9379 34.938C47.2196 34.6563 47.6016 34.4981 47.9999 34.4981C48.3983 34.4981 48.7803 34.6563 49.0619 34.938L52.4999 38.379L60.4379 30.438C60.5773 30.2983 60.7428 30.1875 60.925 30.1119C61.1073 30.0362 61.3026 29.9973 61.4999 29.9973C61.6972 29.9973 61.8926 30.0362 62.0748 30.1119C62.2571 30.1875 62.4226 30.2983 62.5619 30.438Z" fill="#002B59"/>
</g>
<defs>
<clipPath id="clip0_21_883">
<rect width="48" height="48" fill="white" transform="translate(15 15)"/>
</clipPath>
</defs>
</svg>
