<svg width="76" height="75" viewBox="0 0 76 75" fill="none" xmlns="http://www.w3.org/2000/svg">
<path d="M38.1593 74.3968C58.7034 74.3968 75.3577 57.7425 75.3577 37.1984C75.3577 16.6543 58.7034 0 38.1593 0C17.6152 0 0.960938 16.6543 0.960938 37.1984C0.960938 57.7425 17.6152 74.3968 38.1593 74.3968Z" fill="#DDDDDD"/>
<path d="M48.4023 52.7259C54.9531 52.7259 60.2635 47.4155 60.2635 40.8647C60.2635 34.3139 54.9531 29.0034 48.4023 29.0034C41.8515 29.0034 36.541 34.3139 36.541 40.8647C36.541 47.4155 41.8515 52.7259 48.4023 52.7259Z" fill="#FF9F43"/>
<path d="M53.7645 34.067L48.8972 38.9338C48.7376 38.879 48.5713 38.8455 48.4029 38.8343C48.0895 38.8137 47.7759 38.8709 47.4899 39.0007C47.204 39.1305 46.9545 39.329 46.7638 39.5785C46.5731 39.828 46.447 40.1208 46.3967 40.4308C46.3464 40.7408 46.3735 41.0584 46.4756 41.3554L41.6064 46.2251C41.4225 46.4163 41.321 46.672 41.3236 46.9373C41.3262 47.2025 41.4328 47.4561 41.6203 47.6437C41.8079 47.8313 42.0615 47.9378 42.3268 47.9404C42.592 47.943 42.8477 47.8415 43.0389 47.6576L47.9086 42.7884C48.2054 42.8901 48.5228 42.9169 48.8325 42.8664C49.1422 42.816 49.4346 42.6898 49.6838 42.4992C49.9331 42.3086 50.1314 42.0594 50.2612 41.7737C50.3909 41.488 50.4481 41.1747 50.4277 40.8616C50.4154 40.6933 50.382 40.5272 50.3283 40.3673L55.1975 35.4995C55.3813 35.3083 55.4829 35.0526 55.4803 34.7874C55.4776 34.5221 55.3711 34.2685 55.1836 34.0809C54.996 33.8934 54.7424 33.7868 54.4771 33.7842C54.2119 33.7816 53.9562 33.8831 53.765 34.067H53.7645ZM63.6009 50.9915C63.5995 52.3349 63.0654 53.6228 62.1156 54.5728C61.1659 55.5228 59.8781 56.0574 58.5348 56.0591H24.0861C22.7428 56.0574 21.455 55.5228 20.5053 54.5728C19.5555 53.6228 19.0214 52.3349 19.02 50.9915V30.7292C19.0219 29.3862 19.5562 28.0988 20.5059 27.1492C21.4556 26.1996 22.7431 25.6653 24.0861 25.6635H58.5348C59.8778 25.6653 61.1653 26.1996 62.115 27.1492C63.0646 28.0988 63.599 29.3862 63.6009 30.7292V50.9915ZM60.1542 23.8395C60.0446 23.7579 59.9201 23.6986 59.7876 23.6651L18.246 13.5333C18.1167 13.5017 17.9825 13.496 17.8509 13.5163C17.7193 13.5367 17.5931 13.5827 17.4793 13.6519C17.2496 13.7915 17.0848 14.0167 17.0211 14.2779C16.9574 14.539 17 14.8148 17.1397 15.0446C17.2793 15.2743 17.5045 15.4392 17.7657 15.5029L51.1161 23.6368H24.0861C22.2056 23.6386 20.4025 24.3863 19.0726 25.716C17.7428 27.0457 16.9948 28.8487 16.9927 30.7292V50.9915C16.9969 52.693 17.6138 54.336 18.7304 55.6199C19.8469 56.9037 21.3886 57.7425 23.073 57.9826V59.099C23.0731 59.3677 23.1799 59.6253 23.3699 59.8153C23.5598 60.0053 23.8175 60.112 24.0861 60.1122H26.1124C26.3811 60.112 26.6387 60.0053 26.8287 59.8153C27.0186 59.6253 27.1254 59.3677 27.1255 59.099V58.0859H55.4953V59.099C55.4955 59.3677 55.6023 59.6253 55.7922 59.8153C55.9822 60.0053 56.2398 60.112 56.5085 60.1122H58.5348C58.8034 60.112 59.061 60.0053 59.251 59.8153C59.441 59.6253 59.5478 59.3677 59.5479 59.099V57.9826C61.232 57.742 62.7733 56.903 63.8896 55.6193C65.0059 54.3355 65.6227 52.6928 65.6272 50.9915V30.7292C65.6235 29.1324 65.0812 27.5836 64.0879 26.3333C63.0947 25.083 61.7087 24.2043 60.1542 23.8395ZM31.1786 49.9803C30.7778 49.9803 30.3861 50.0992 30.0528 50.3218C29.7196 50.5445 29.4599 50.8609 29.3065 51.2312C29.1532 51.6014 29.1131 52.0088 29.1912 52.4019C29.2694 52.795 29.4624 53.156 29.7458 53.4394C30.0292 53.7228 30.3902 53.9157 30.7833 53.9939C31.1763 54.0721 31.5837 54.032 31.954 53.8786C32.3243 53.7253 32.6407 53.4655 32.8634 53.1323C33.086 52.7991 33.2049 52.4073 33.2049 52.0066C33.2046 51.4693 32.991 50.954 32.6111 50.5741C32.2311 50.1941 31.7159 49.9806 31.1786 49.9803ZM48.4029 52.0066C46.1986 52.0066 44.0439 51.3529 42.2111 50.1283C40.3783 48.9037 38.9498 47.1631 38.1063 45.1266C37.2627 43.0901 37.042 40.8492 37.472 38.6873C37.9021 36.5254 38.9635 34.5395 40.5222 32.9809C42.0808 31.4222 44.0667 30.3608 46.2286 29.9307C48.3905 29.5007 50.6314 29.7214 52.6679 30.5649C54.7044 31.4085 56.445 32.837 57.6696 34.6698C58.8943 36.5025 59.5479 38.6573 59.5479 40.8616C59.5447 43.8164 58.3695 46.6494 56.2801 48.7388C54.1907 50.8282 51.3578 52.0034 48.4029 52.0066ZM48.4029 27.6898C45.7977 27.6894 43.2509 28.4616 41.0845 29.9087C38.9182 31.3558 37.2296 33.4128 36.2324 35.8196C35.2352 38.2264 34.9741 40.8749 35.4821 43.4301C35.9901 45.9853 37.2444 48.3325 39.0865 50.1747C40.9285 52.017 43.2755 53.2717 45.8306 53.7801C48.3857 54.2885 51.0342 54.0278 53.4411 53.0309C55.8481 52.034 57.9053 50.3457 59.3528 48.1796C60.8002 46.0135 61.5727 43.4668 61.5727 40.8616C61.5688 37.3698 60.1801 34.022 57.7111 31.5528C55.2422 29.0835 51.8947 27.6943 48.4029 27.6898ZM22.0599 33.7691H30.1654C30.2985 33.7691 30.4302 33.7429 30.5532 33.692C30.6761 33.6411 30.7878 33.5665 30.8818 33.4724C30.9759 33.3783 31.0505 33.2666 31.1015 33.1437C31.1524 33.0208 31.1786 32.889 31.1786 32.756C31.1786 32.6229 31.1524 32.4912 31.1015 32.3683C31.0505 32.2454 30.9759 32.1337 30.8818 32.0396C30.7878 31.9455 30.6761 31.8709 30.5532 31.82C30.4302 31.7691 30.2985 31.7429 30.1654 31.7429H22.0599C21.7912 31.7429 21.5335 31.8496 21.3435 32.0396C21.1535 32.2296 21.0467 32.4873 21.0467 32.756C21.0467 33.0247 21.1535 33.2824 21.3435 33.4724C21.5335 33.6624 21.7912 33.7691 22.0599 33.7691ZM22.0599 45.9278H30.1654C30.4341 45.9278 30.6918 45.821 30.8818 45.631C31.0718 45.441 31.1786 45.1833 31.1786 44.9146C31.1786 44.6459 31.0718 44.3882 30.8818 44.1982C30.6918 44.0082 30.4341 43.9015 30.1654 43.9015H22.0599C21.7912 43.9015 21.5335 44.0082 21.3435 44.1982C21.1535 44.3882 21.0467 44.6459 21.0467 44.9146C21.0467 45.1833 21.1535 45.441 21.3435 45.631C21.5335 45.821 21.7912 45.9278 22.0599 45.9278ZM24.0861 52.0071C23.8859 52.0071 23.6901 51.9477 23.5235 51.8365C23.357 51.7253 23.2271 51.5672 23.1503 51.3822C23.0736 51.1972 23.0534 50.9936 23.0923 50.7972C23.1312 50.6007 23.2274 50.4202 23.3689 50.2784C23.5103 50.1366 23.6906 50.0399 23.887 50.0006C24.0834 49.9612 24.287 49.9809 24.4722 50.0572C24.6573 50.1335 24.8157 50.263 24.9274 50.4293C25.039 50.5956 25.0988 50.7913 25.0993 50.9915C25.0995 51.1247 25.0734 51.2566 25.0226 51.3798C24.9717 51.5029 24.8972 51.6148 24.8031 51.709C24.709 51.8033 24.5972 51.8781 24.4742 51.9292C24.3512 51.9802 24.2193 52.0065 24.0861 52.0066V52.0071ZM24.0861 47.954C23.4849 47.954 22.8972 48.1323 22.3973 48.4664C21.8974 48.8005 21.5079 49.2753 21.2779 49.8308C21.0479 50.3863 20.9878 50.9975 21.1053 51.5871C21.2227 52.1768 21.5124 52.7183 21.9376 53.1433C22.3629 53.5683 22.9046 53.8576 23.4943 53.9747C24.0841 54.0918 24.6952 54.0313 25.2506 53.801C25.8059 53.5706 26.2805 53.1807 26.6142 52.6807C26.948 52.1806 27.1259 51.5928 27.1255 50.9915C27.1241 50.186 26.8034 49.4139 26.2337 48.8444C25.6639 48.2749 24.8917 47.9546 24.0861 47.9536V47.954ZM22.0599 39.8465H30.1654C30.2985 39.8465 30.4302 39.8203 30.5532 39.7694C30.6761 39.7185 30.7878 39.6439 30.8818 39.5498C30.9759 39.4557 31.0505 39.344 31.1015 39.2211C31.1524 39.0982 31.1786 38.9664 31.1786 38.8334C31.1786 38.7003 31.1524 38.5686 31.1015 38.4457C31.0505 38.3228 30.9759 38.2111 30.8818 38.117C30.7878 38.0229 30.6761 37.9483 30.5532 37.8974C30.4302 37.8465 30.2985 37.8202 30.1654 37.8202H22.0599C21.7912 37.8202 21.5335 37.927 21.3435 38.117C21.1535 38.307 21.0467 38.5647 21.0467 38.8334C21.0467 39.1021 21.1535 39.3598 21.3435 39.5498C21.5335 39.7398 21.7912 39.8465 22.0599 39.8465Z" fill="#003268"/>
</svg>
