<svg width="75" height="76" viewBox="0 0 75 76" fill="none" xmlns="http://www.w3.org/2000/svg">
<path d="M37.5226 75.2156C58.0667 75.2156 74.721 58.5613 74.721 38.0172C74.721 17.4731 58.0667 0.818848 37.5226 0.818848C16.9785 0.818848 0.324219 17.4731 0.324219 38.0172C0.324219 58.5613 16.9785 75.2156 37.5226 75.2156Z" fill="#DDDDDD"/>
<path fill-rule="evenodd" clip-rule="evenodd" d="M17.2461 55.8197L17.544 53.3841L18.6488 51.1071L20.8923 49.9638L22.1268 49.272C22.3645 49.8495 22.7164 50.3732 23.1613 50.8115C23.6063 51.2499 24.1351 51.5938 24.7162 51.8229L23.1405 54.3064L21.7426 56.2616L18.6488 56.7036L17.688 56.6267L17.2461 55.8197Z" fill="#FF9F43"/>
<path d="M14.0421 58.9004C14.2234 58.9004 14.4007 58.9542 14.5515 59.0549C14.7023 59.1557 14.8198 59.2989 14.8893 59.4664C14.9587 59.6339 14.9769 59.8183 14.9415 59.9962C14.9062 60.1741 14.8189 60.3375 14.6907 60.4657C14.5625 60.594 14.3991 60.6814 14.2213 60.7168C14.0434 60.7523 13.859 60.7342 13.6914 60.6648C13.5239 60.5955 13.3806 60.478 13.2798 60.3273C13.179 60.1765 13.1251 59.9993 13.125 59.8179C13.1249 59.6975 13.1486 59.5782 13.1947 59.4668C13.2407 59.3555 13.3083 59.2544 13.3934 59.1692C13.4786 59.084 13.5797 59.0164 13.691 58.9702C13.8023 58.9241 13.9216 58.9004 14.0421 58.9004Z" fill="#003268"/>
<path d="M37.4679 35.6406C37.6489 35.6406 37.8258 35.6943 37.9763 35.7949C38.1268 35.8954 38.2441 36.0383 38.3134 36.2056C38.3826 36.3728 38.4007 36.5568 38.3654 36.7343C38.3301 36.9118 38.243 37.0749 38.115 37.2029C37.987 37.3308 37.8239 37.418 37.6464 37.4533C37.4689 37.4886 37.2849 37.4705 37.1177 37.4012C36.9504 37.332 36.8075 37.2147 36.707 37.0642C36.6064 36.9137 36.5527 36.7368 36.5527 36.5558C36.5527 36.3131 36.6492 36.0803 36.8208 35.9087C36.9924 35.737 37.2252 35.6406 37.4679 35.6406Z" fill="#003268"/>
<path d="M48.1612 29.1674C47.8723 29.4563 47.5042 29.6532 47.1035 29.7329C46.7028 29.8127 46.2874 29.7718 45.9099 29.6155C45.5324 29.4592 45.2098 29.1944 44.9827 28.8547C44.7557 28.515 44.6346 28.1156 44.6346 27.707C44.6346 27.2984 44.7557 26.899 44.9827 26.5593C45.2098 26.2196 45.5324 25.9548 45.9099 25.7985C46.2874 25.6422 46.7028 25.6013 47.1035 25.6811C47.5042 25.7608 47.8723 25.9577 48.1612 26.2466C48.5484 26.634 48.7659 27.1593 48.7659 27.707C48.7659 28.2547 48.5484 28.78 48.1612 29.1674ZM46.7008 23.811C45.7994 23.811 44.926 24.1235 44.2292 24.6953C43.5324 25.2671 43.0555 26.0627 42.8796 26.9467C42.7037 27.8307 42.8398 28.7484 43.2646 29.5433C43.6894 30.3383 44.3768 30.9613 45.2095 31.3063C46.0422 31.6513 46.9687 31.6969 47.8313 31.4353C48.6938 31.1737 49.439 30.6212 49.9398 29.8718C50.4406 29.1224 50.6661 28.2225 50.5779 27.3255C50.4896 26.4285 50.0931 25.5899 49.4558 24.9525C49.0949 24.5895 48.6655 24.3017 48.1926 24.1058C47.7197 23.9098 47.2127 23.8097 46.7008 23.811Z" fill="#003268"/>
<path d="M24.5576 51.7034C24.3403 51.5953 24.089 51.5778 23.8588 51.6549C23.6287 51.732 23.4385 51.8974 23.3302 52.1146L22.2402 54.3042C22.0054 54.7734 21.6525 55.1733 21.2162 55.4645C20.7798 55.7558 20.2752 55.9284 19.7518 55.9654L18.4836 56.0524C18.4066 56.0574 18.3294 56.0459 18.2572 56.0187C18.185 55.9915 18.1194 55.9492 18.0648 55.8947C18.0103 55.8401 17.968 55.7745 17.9408 55.7023C17.9136 55.6301 17.9021 55.5529 17.9071 55.4759L17.9941 54.2082C18.0311 53.6848 18.2037 53.1802 18.495 52.7439C18.7863 52.3075 19.1862 51.9546 19.6553 51.7197L21.8444 50.6297C22.0617 50.5214 22.2271 50.3313 22.3041 50.101C22.3812 49.8708 22.3637 49.6194 22.2554 49.4021C22.1471 49.1848 21.9569 49.0194 21.7267 48.9424C21.4965 48.8653 21.245 48.8828 21.0277 48.9911L18.8377 50.0787C18.0832 50.4564 17.4401 51.0241 16.9717 51.7259C16.5033 52.4276 16.2257 53.2392 16.1662 54.0808L16.0797 55.3486C16.0576 55.6731 16.1023 55.9987 16.2112 56.3052C16.3202 56.6117 16.4909 56.8925 16.7129 57.1302C16.9349 57.3679 17.2034 57.5575 17.5017 57.6871C17.8001 57.8167 18.1218 57.8836 18.4471 57.8836C18.5012 57.8836 18.5553 57.8817 18.6095 57.8778L19.8777 57.7909C20.7193 57.7312 21.5309 57.4533 22.2324 56.9846C22.934 56.5159 23.5014 55.8726 23.8788 55.118L24.9689 52.9284C25.0764 52.7114 25.0935 52.4605 25.0164 52.2309C24.9393 52.0013 24.7743 51.8116 24.5576 51.7034Z" fill="#003268"/>
<path d="M57.9526 16.9059C57.7732 20.6093 56.794 24.2299 55.0822 27.5188C53.3705 30.8078 50.9668 33.687 48.0365 35.9586L33.6805 47.0988C32.4917 46.4023 31.3806 45.581 30.3659 44.6488L35.2048 39.8113C35.2925 39.7269 35.3625 39.6259 35.4107 39.5141C35.4588 39.4023 35.4843 39.2821 35.4854 39.1604C35.4866 39.0387 35.4635 38.918 35.4174 38.8053C35.3714 38.6926 35.3034 38.5903 35.2173 38.5042C35.1312 38.4181 35.0289 38.3501 34.9162 38.3041C34.8035 38.258 34.6828 38.2349 34.5611 38.2361C34.4394 38.2372 34.3192 38.2626 34.2074 38.3108C34.0956 38.359 33.9946 38.429 33.9102 38.5167L29.0746 43.3523C28.1849 42.3685 27.3986 41.2962 26.7279 40.1519L38.4974 25.66C40.7367 22.9101 43.5194 20.6517 46.6713 19.0261C49.8232 17.4006 53.2766 16.4428 56.8156 16.2127L57.6678 16.1584C57.7083 16.1558 57.749 16.1618 57.7871 16.176C57.8251 16.1902 57.8598 16.2123 57.8887 16.2408C57.9177 16.2694 57.9403 16.3037 57.955 16.3416C57.9697 16.3794 57.9763 16.42 57.9743 16.4606L57.9526 16.9059ZM45.2065 44.0652C45.2114 45.8725 44.8578 47.6629 44.1661 49.3327C43.4745 51.0025 42.4585 52.5185 41.177 53.793L37.2556 57.7144L36.7084 47.0661L45.2065 40.4719V44.0652ZM29.9719 48.2777C29.494 48.6764 29.0044 49.0852 28.5495 49.459C26.8217 48.528 25.4041 47.1117 24.4715 45.3848L26.4478 43.0386C27.0462 43.8412 27.7005 44.6005 28.4059 45.3108C29.1888 46.0987 30.0324 46.8239 30.9289 47.4798C30.6118 47.742 30.29 48.012 29.9719 48.2777ZM16.1454 36.6028L20.0668 32.6814C21.3398 31.4015 22.8537 30.3864 24.5212 29.6948C26.1886 29.0031 27.9765 28.6487 29.7817 28.6519L33.6186 28.7648L26.8071 37.1514L16.1454 36.6028ZM59.1738 14.9373C58.9611 14.7281 58.7067 14.5661 58.4272 14.4619C58.1476 14.3578 57.8492 14.3139 57.5515 14.333L56.6969 14.3858C52.9066 14.6329 49.2079 15.6592 45.8322 17.4005C42.4565 19.1419 39.4763 21.5608 37.0778 24.5061L35.0717 26.9758L29.8216 26.8231H29.7952C27.7474 26.8172 25.7188 27.2176 23.8268 28.0009C21.9348 28.7843 20.2169 29.9351 18.7727 31.3867L13.3952 36.7642C13.2699 36.8894 13.1837 37.0482 13.1469 37.2214C13.1101 37.3946 13.1244 37.5748 13.188 37.74C13.2515 37.9053 13.3617 38.0486 13.505 38.1525C13.6484 38.2564 13.8188 38.3165 13.9957 38.3255L25.3756 38.9101L24.9115 39.4813C24.7968 39.6219 24.7266 39.7936 24.71 39.9743C24.6933 40.155 24.7308 40.3366 24.8179 40.4959C24.9962 40.8238 25.183 41.1465 25.378 41.4639L22.6787 44.668C22.5657 44.8022 22.4936 44.9661 22.471 45.1401C22.4485 45.3141 22.4763 45.4909 22.5514 45.6495C23.7337 48.1661 25.7589 50.1901 28.2762 51.3709C28.4322 51.4448 28.6059 51.473 28.7773 51.4523C28.9486 51.4317 29.1106 51.363 29.2446 51.2542C29.8259 50.7824 30.4965 50.2228 31.1451 49.6819C31.6072 49.2975 32.0799 48.9017 32.5218 48.538C32.7857 48.6982 33.053 48.8516 33.3236 48.9983C33.4799 49.0836 33.6577 49.1214 33.8351 49.107C34.0126 49.0925 34.1819 49.0265 34.3223 48.9171L34.9468 48.4328L35.5344 59.8632C35.5433 60.04 35.6034 60.2105 35.7073 60.3538C35.8113 60.4972 35.9545 60.6074 36.1198 60.6709C36.2851 60.7345 36.4652 60.7487 36.6384 60.712C36.8116 60.6752 36.9705 60.5889 37.0956 60.4637L42.4716 55.0877C43.9233 53.6434 45.0742 51.9255 45.8575 50.0335C46.6409 48.1415 47.0412 46.1129 47.0353 44.0652V39.0513L49.1567 37.4051C52.2961 34.9718 54.8714 31.8876 56.7054 28.3644C58.5394 24.8412 59.5886 20.9626 59.781 16.9953L59.8026 16.55C59.8172 16.2519 59.7687 15.9541 59.6603 15.6761C59.552 15.398 59.3862 15.146 59.1738 14.9363V14.9373Z" fill="#003268"/>
</svg>
