<svg width="78" height="78" viewBox="0 0 78 78" fill="none" xmlns="http://www.w3.org/2000/svg">
<path d="M38.7247 77.45C60.1118 77.45 77.4494 60.1122 77.4494 38.725C77.4494 17.3378 60.1118 0 38.7247 0C17.3376 0 0 17.3378 0 38.725C0 60.1122 17.3376 77.45 38.7247 77.45Z" fill="#EFEFEF"/>
<path fill-rule="evenodd" clip-rule="evenodd" d="M20.2251 34.4133L26.265 32L32.354 34.4133L33 39.0394L31.1303 43.3752L27.3663 46.8698L25.5357 47L21.9969 44.2413L20.7048 40.256L20 36.9315L20.2251 34.4133Z" fill="#FF9F43"/>
<path d="M45.832 13.8652C38.9761 13.8652 32.0362 15.5381 32.0362 18.7342V20.3571H13.3715C13.0518 20.3571 12.7351 20.4201 12.4397 20.5424C12.1443 20.6648 11.8759 20.8442 11.6499 21.0703C11.4238 21.2964 11.2445 21.5649 11.1222 21.8603C10.9999 22.1557 10.9369 22.4723 10.937 22.7921V42.2686C10.937 42.9143 11.1935 43.5335 11.6501 43.9901C12.1066 44.4466 12.7258 44.7031 13.3715 44.7031H14.1832V50.2272L10.9945 58.1974C10.9567 58.2929 10.9372 58.3947 10.937 58.4975V60.932C10.937 61.1451 10.979 61.3561 11.0605 61.553C11.1421 61.7499 11.2616 61.9288 11.4123 62.0795C11.563 62.2302 11.7419 62.3497 11.9388 62.4313C12.1357 62.5128 12.3467 62.5548 12.5598 62.5548H43.3975C43.6106 62.5548 43.8216 62.5128 44.0185 62.4313C44.2154 62.3497 44.3943 62.2302 44.545 62.0795C44.6957 61.9288 44.8152 61.7499 44.8968 61.553C44.9783 61.3561 45.0203 61.1451 45.0203 60.932V58.499C45.0201 58.3962 45.0006 58.2944 44.9628 58.1989L41.7741 50.2272V49.3571C43.0919 49.4886 44.4447 49.5721 45.8315 49.5721C52.6873 49.5721 59.6272 47.8993 59.6272 44.7031V18.7342C59.6277 15.5381 52.6873 13.8652 45.832 13.8652ZM45.832 15.4881C53.2624 15.4881 58.0044 17.4105 58.0044 18.7342C58.0044 20.058 53.2624 21.9804 45.832 21.9804C43.1388 22.0066 40.4523 21.7086 37.8304 21.0927C37.6046 20.86 37.3344 20.6751 37.0358 20.5488C36.7372 20.4225 36.4162 20.3575 36.092 20.3576H35.6154C34.1826 19.7399 33.6575 19.1178 33.6575 18.7347C33.659 17.411 38.4015 15.4881 45.832 15.4881ZM13.3715 21.9804H36.092C36.3073 21.9804 36.5137 22.0659 36.666 22.2181C36.8182 22.3704 36.9037 22.5768 36.9037 22.7921V26.8499H12.5598V22.7921C12.5598 22.5768 12.6453 22.3704 12.7976 22.2181C12.9498 22.0659 13.1562 21.9804 13.3715 21.9804V21.9804ZM12.5598 42.2686V28.4728H36.9052V42.2686C36.9051 42.3753 36.884 42.4809 36.8431 42.5794C36.8022 42.6779 36.7423 42.7674 36.6667 42.8427C36.5912 42.9181 36.5016 42.9778 36.403 43.0185C36.3044 43.0591 36.1987 43.08 36.092 43.0798H32.3123C33.192 41.5145 33.6558 39.7498 33.6595 37.9542V34.1534C33.6597 33.9883 33.6095 33.827 33.5156 33.6912C33.4216 33.5553 33.2885 33.4514 33.1339 33.3933L26.6401 30.9583C26.4566 30.8906 26.255 30.8906 26.0715 30.9583L19.5807 33.3928C19.4256 33.4504 19.2918 33.5541 19.1973 33.69C19.1028 33.8259 19.0522 33.9874 19.0521 34.1529V37.9537C19.0558 39.7493 19.5197 41.514 20.3994 43.0793H13.3715C13.1562 43.0793 12.9498 42.9938 12.7976 42.8415C12.6453 42.6893 12.5598 42.4829 12.5598 42.2676V42.2686ZM20.675 37.9547V34.7155L26.3556 32.5851L32.0362 34.7155V37.9547C32.0308 39.7504 31.4865 41.5032 30.4737 42.9861C29.4609 44.469 28.0263 45.6136 26.3556 46.2719C24.6849 45.6136 23.2502 44.469 22.2374 42.9861C21.2246 41.5032 20.6803 39.7504 20.675 37.9547V37.9547ZM21.5121 44.7031C22.6761 46.1091 24.1863 47.1876 25.894 47.8323L26.0665 47.8978C26.2498 47.966 26.4514 47.966 26.6346 47.8978L26.8077 47.8323C28.5188 47.1892 30.0325 46.1106 31.199 44.7031H36.092C36.7377 44.7031 37.3569 44.4466 37.8135 43.9901C38.27 43.5335 38.5265 42.9143 38.5265 42.2686V33.3418H39.3382C39.5534 33.3418 39.7599 33.4273 39.9121 33.5795C40.0643 33.7317 40.1498 33.9382 40.1498 34.1534V49.5726H15.806V44.7031H21.5121ZM33.4805 57.6873L32.8234 55.0557C32.7795 54.8802 32.6782 54.7243 32.5356 54.6129C32.393 54.5016 32.2172 54.4411 32.0362 54.4411H23.9211C23.7401 54.4411 23.5644 54.5016 23.4217 54.6129C23.2791 54.7243 23.1778 54.8802 23.1339 55.0557L22.4768 57.6873H12.9474L15.5439 51.1949H40.4134L43.0099 57.6873H33.4805ZM31.8077 57.6873H24.1496L24.5552 56.0645H31.4021L31.8077 57.6873ZM12.5598 60.9335V59.3101H43.3975V60.933L12.5598 60.9335ZM45.832 47.9493C44.4766 47.9457 43.1224 47.8719 41.7746 47.7282V42.8592C43.1224 43.0024 44.4766 43.0761 45.832 43.0803C50.6794 43.0803 55.5554 42.2401 58.0044 40.6203V44.7031C58.0044 46.0264 53.2624 47.9493 45.832 47.9493ZM45.832 41.4569C44.4764 41.4549 43.122 41.3793 41.7746 41.2304V36.3699C43.1224 36.5125 44.4767 36.5858 45.832 36.5894C50.6794 36.5894 55.5554 35.7493 58.0044 34.1294V38.2123C58.0044 39.534 53.2624 41.4569 45.832 41.4569ZM45.832 34.9646C44.4764 34.9626 43.122 34.8869 41.7746 34.738V34.1534C41.7746 33.8337 41.7117 33.5171 41.5893 33.2217C41.4669 32.9263 41.2875 32.6579 41.0614 32.4318C40.8353 32.2057 40.5669 32.0264 40.2715 31.9041C39.976 31.7818 39.6594 31.7189 39.3397 31.7189H38.5285V29.3979C40.9328 29.8747 43.3789 30.1092 45.83 30.0981C50.6774 30.0981 55.5534 29.2579 58.0024 27.6381V31.7189C58.0044 33.0422 53.2624 34.9646 45.832 34.9646ZM45.832 28.4723C43.3797 28.4869 40.9326 28.2454 38.5305 27.7516V22.9171C40.9356 23.3874 43.3814 23.6181 45.832 23.6057C50.6794 23.6057 55.5554 22.7656 58.0044 21.1457V25.2286C58.0044 26.5499 53.2624 28.4728 45.832 28.4728V28.4723Z" fill="#002B59"/>
<path d="M54.7583 23.6033H56.3811V25.2261H54.7583V23.6033Z" fill="#002B59"/>
<path d="M51.5122 24.4172H53.135V26.0401H51.5122V24.4172Z" fill="#002B59"/>
<path d="M48.2656 25.2261H49.8884V26.8489H48.2656V25.2261Z" fill="#002B59"/>
<path d="M54.7583 30.0955H56.3811V31.7188H54.7583V30.0955Z" fill="#002B59"/>
<path d="M51.5122 30.907H53.135V32.5298H51.5122V30.907Z" fill="#002B59"/>
<path d="M48.2656 31.719H49.8884V33.3418H48.2656V31.719Z" fill="#002B59"/>
<path d="M54.7583 36.5879H56.3811V38.2107H54.7583V36.5879Z" fill="#002B59"/>
<path d="M51.5122 37.3989H53.135V39.0203H51.5122V37.3989Z" fill="#002B59"/>
<path d="M48.2656 38.2107H49.8884V39.8335H48.2656V38.2107Z" fill="#002B59"/>
<path d="M54.7583 43.0796H56.3811V44.7024H54.7583V43.0796Z" fill="#002B59"/>
<path d="M51.5122 43.8911H53.135V45.5139H51.5122V43.8911Z" fill="#002B59"/>
<path d="M48.2656 44.7031H49.8884V46.326H48.2656V44.7031Z" fill="#002B59"/>
<path d="M50.7008 17.9231H40.9629V19.5459H50.7008V17.9231Z" fill="#002B59"/>
<path d="M14.1826 23.6033H15.8054V25.2261H14.1826V23.6033Z" fill="#002B59"/>
<path d="M17.4292 23.6033H19.052V25.2261H17.4292V23.6033Z" fill="#002B59"/>
<path d="M20.6748 23.6033H22.2976V25.2261H20.6748V23.6033Z" fill="#002B59"/>
<path d="M25.5442 42.2683C25.7594 42.2683 25.9657 42.1828 26.1178 42.0308L30.1752 37.9729L29.0279 36.8252L25.5442 40.3089L23.6834 38.448L22.5361 39.5958L24.9706 42.0303C25.1227 42.1825 25.329 42.2682 25.5442 42.2683V42.2683Z" fill="#002B59"/>
</svg>
